M48
;GenerationSoftware,Autodesk,EAGLE,9.6.2*%
;CreationDate,2022-10-07T10:50:33Z*%
FMAT,2
ICI,OFF
METRIC,TZ,000.000
T15C0.350
T14C0.600
T13C0.700
T12C0.813
T11C0.890
T10C0.900
T9C1.016
T8C1.190
T7C1.200
T6C1.397
T5C1.570
T4C2.100
T3C2.581
T2C3.250
T1C3.500
%
G90
M71
T1
X4000Y53110
X69009Y7448
X4000Y3000
T2
X89408Y42545
X89408Y53975
X89408Y24130
X89408Y35560
T3
X86154Y13544
X86154Y44024
T4
X9842Y46272
X9843Y34246
T5
X86358Y40515
X86358Y56005
X86358Y22100
X86358Y37590
T6
X17479Y37719
X3001Y37719
X2968Y42799
X17446Y42799
X2968Y40259
T7
X93004Y14430
X92004Y12430
T8
X93728Y52095
X92198Y26090
X92198Y36220
X93728Y23550
X93728Y33680
X92198Y44505
X92198Y54635
X93728Y41965
T9
X74803Y3048
X74803Y8128
T10
X91004Y20541
T11
X83058Y30480
X80518Y31750
X83058Y27940
X80518Y26670
X83058Y25400
X83058Y33020
X80518Y34290
X83058Y43815
X80518Y45085
X83058Y46355
X80518Y47625
X83058Y48895
X80518Y50165
X83058Y51435
X80518Y52705
X80518Y29210
T12
X13970Y19050
X26670Y19050
X26670Y14859
X13970Y14859
X46482Y20447
X38862Y20447
X46482Y15240
X38862Y15240
X64516Y8890
X56896Y8890
X64516Y13970
X64516Y11430
X56896Y11430
X56896Y13970
X55372Y27940
X55372Y30480
X55372Y33020
X21590Y34290
X21590Y36830
X21590Y39370
X40640Y4318
X38100Y7620
X33020Y7620
X30480Y7620
X27940Y7620
X15240Y7874
X45720Y7620
X40640Y7620
X45720Y4318
X43180Y4318
X55372Y25400
X38100Y4318
X35560Y4318
X33020Y4318
X30480Y4318
X27940Y4318
X25400Y4318
X22860Y4318
X20320Y4318
X17780Y4318
X15240Y4318
X12700Y4318
X10160Y4318
X10160Y29083
X12700Y29083
X15240Y29083
X17780Y29083
X20320Y29083
X22860Y29083
X25400Y29083
X27940Y29083
X30480Y29083
X33020Y29083
X35560Y29083
X38100Y29083
X40640Y29083
X43180Y29083
X45720Y29083
X74930Y52070
X74930Y49530
X74930Y46990
X74930Y44450
X74930Y41910
X74930Y39370
X74930Y36830
X74930Y34290
X62230Y52070
X62230Y49530
X62230Y46990
X62230Y44450
X62230Y41910
X62230Y39370
X62230Y36830
X62230Y34290
X52070Y52070
X52070Y49530
X52070Y46990
X52070Y44450
X52070Y41910
X52070Y39370
X52070Y36830
X52070Y34290
X39370Y52070
X39370Y49530
X39370Y46990
X39370Y44450
X39370Y41910
X39370Y39370
X39370Y36830
X39370Y34290
X34290Y52070
X34290Y49530
X34290Y46990
X34290Y44450
X34290Y41910
X34290Y39370
X34290Y36830
X34290Y34290
X21590Y52070
X21590Y49530
X21590Y46990
X21590Y44450
X21590Y41910
T13
X90004Y12430
T14
X93004Y20541
T15
X46990Y36830
X48783Y31315
X61341Y19939
X59309Y17272
X60325Y18542
M30