G04 EAGLE Gerber RS-274X export*
G75*
%MOMM*%
%FSLAX34Y34*%
%LPD*%
%INBottom Copper*%
%IPPOS*%
%AMOC8*
5,1,8,0,0,1.08239X$1,22.5*%
G01*
%ADD10C,1.320800*%
%ADD11P,1.429621X8X22.500000*%
%ADD12P,1.429621X8X202.500000*%
%ADD13R,2.095500X2.095500*%
%ADD14R,3.116000X3.116000*%
%ADD15R,1.398000X1.398000*%
%ADD16C,1.398000*%
%ADD17C,2.355000*%
%ADD18C,1.785000*%
%ADD19P,2.749271X8X22.500000*%
%ADD20R,1.270000X2.540000*%
%ADD21C,1.108000*%
%ADD22C,1.930400*%
%ADD23C,1.208000*%
%ADD24P,1.732040X8X292.500000*%
%ADD25P,1.732040X8X22.500000*%
%ADD26P,2.089446X8X202.500000*%
%ADD27C,0.304800*%
%ADD28C,0.756400*%
%ADD29C,0.508000*%
%ADD30C,0.609600*%
%ADD31C,0.406400*%

G36*
X234835Y12696D02*
X234835Y12696D01*
X234837Y12696D01*
X234837Y12698D01*
X234839Y12699D01*
X234837Y12701D01*
X234838Y12704D01*
X224033Y23508D01*
X224033Y28022D01*
X224030Y28025D01*
X224030Y28027D01*
X223135Y28397D01*
X220421Y31111D01*
X218953Y34657D01*
X218953Y51703D01*
X220421Y55249D01*
X223135Y57963D01*
X226681Y59431D01*
X230519Y59431D01*
X234065Y57963D01*
X236779Y55249D01*
X238247Y51703D01*
X238247Y34657D01*
X236779Y31111D01*
X234065Y28397D01*
X233170Y28027D01*
X233169Y28024D01*
X233167Y28022D01*
X233167Y27294D01*
X233169Y27292D01*
X233169Y27290D01*
X243190Y17269D01*
X243193Y17268D01*
X243194Y17267D01*
X582306Y17267D01*
X582308Y17269D01*
X582310Y17269D01*
X598681Y33640D01*
X598681Y33642D01*
X598682Y33643D01*
X598683Y33644D01*
X598683Y46112D01*
X598682Y46113D01*
X598682Y46115D01*
X598680Y46115D01*
X598678Y46117D01*
X598677Y46115D01*
X598674Y46115D01*
X570852Y18293D01*
X449348Y18293D01*
X438258Y29383D01*
X438251Y29384D01*
X438251Y29383D01*
X437265Y28397D01*
X433719Y26929D01*
X429881Y26929D01*
X426335Y28397D01*
X423621Y31111D01*
X422153Y34657D01*
X422153Y51703D01*
X423621Y55249D01*
X426335Y57963D01*
X428655Y58923D01*
X428656Y58926D01*
X428658Y58927D01*
X428657Y58928D01*
X428658Y58929D01*
X428655Y58930D01*
X428653Y58933D01*
X409547Y58933D01*
X409545Y58931D01*
X409543Y58930D01*
X409543Y58929D01*
X409542Y58928D01*
X409544Y58926D01*
X409545Y58923D01*
X411865Y57963D01*
X414579Y55249D01*
X416047Y51703D01*
X416047Y34657D01*
X414579Y31111D01*
X411865Y28397D01*
X408319Y26929D01*
X404481Y26929D01*
X400935Y28397D01*
X398221Y31111D01*
X396753Y34657D01*
X396753Y51703D01*
X398221Y55249D01*
X400935Y57963D01*
X403255Y58923D01*
X403256Y58926D01*
X403258Y58927D01*
X403257Y58928D01*
X403258Y58929D01*
X403255Y58930D01*
X403253Y58933D01*
X384147Y58933D01*
X384145Y58931D01*
X384143Y58930D01*
X384143Y58929D01*
X384142Y58928D01*
X384144Y58926D01*
X384145Y58923D01*
X386465Y57963D01*
X389179Y55249D01*
X390647Y51703D01*
X390647Y34657D01*
X389179Y31111D01*
X386465Y28397D01*
X382919Y26929D01*
X379081Y26929D01*
X375535Y28397D01*
X372821Y31111D01*
X371353Y34657D01*
X371353Y51703D01*
X372821Y55249D01*
X375535Y57963D01*
X377855Y58923D01*
X377856Y58926D01*
X377858Y58927D01*
X377857Y58928D01*
X377858Y58929D01*
X377855Y58930D01*
X377853Y58933D01*
X370194Y58933D01*
X370192Y58931D01*
X370190Y58931D01*
X364580Y53321D01*
X364580Y53318D01*
X364579Y53316D01*
X365247Y51703D01*
X365247Y34657D01*
X363779Y31111D01*
X361065Y28397D01*
X357519Y26929D01*
X353681Y26929D01*
X350135Y28397D01*
X347421Y31111D01*
X345953Y34657D01*
X345953Y51703D01*
X347421Y55249D01*
X350135Y57963D01*
X353681Y59431D01*
X357519Y59431D01*
X357695Y59358D01*
X357698Y59359D01*
X357700Y59359D01*
X366408Y68067D01*
X373502Y68067D01*
X373503Y68068D01*
X373505Y68068D01*
X373505Y68070D01*
X373507Y68072D01*
X373505Y68073D01*
X373506Y68076D01*
X369956Y71625D01*
X369956Y80775D01*
X376425Y87244D01*
X385575Y87244D01*
X392044Y80775D01*
X392044Y71625D01*
X388494Y68076D01*
X388494Y68074D01*
X388493Y68073D01*
X388494Y68071D01*
X388494Y68069D01*
X388496Y68069D01*
X388498Y68067D01*
X398902Y68067D01*
X398903Y68068D01*
X398905Y68068D01*
X398905Y68070D01*
X398907Y68072D01*
X398905Y68073D01*
X398906Y68076D01*
X395356Y71625D01*
X395356Y80775D01*
X401825Y87244D01*
X410975Y87244D01*
X417444Y80775D01*
X417444Y71625D01*
X413894Y68076D01*
X413894Y68074D01*
X413893Y68073D01*
X413894Y68071D01*
X413894Y68069D01*
X413896Y68069D01*
X413898Y68067D01*
X449702Y68067D01*
X449703Y68068D01*
X449705Y68068D01*
X449705Y68070D01*
X449707Y68072D01*
X449705Y68073D01*
X449706Y68076D01*
X446156Y71625D01*
X446156Y80775D01*
X452625Y87244D01*
X461775Y87244D01*
X468244Y80775D01*
X468244Y71625D01*
X464694Y68076D01*
X464694Y68074D01*
X464693Y68073D01*
X464694Y68071D01*
X464694Y68069D01*
X464696Y68069D01*
X464698Y68067D01*
X569606Y68067D01*
X569608Y68069D01*
X569610Y68069D01*
X579631Y78090D01*
X579631Y78092D01*
X579633Y78093D01*
X579632Y78093D01*
X579633Y78094D01*
X579633Y150506D01*
X579631Y150508D01*
X579631Y150510D01*
X566933Y163208D01*
X566933Y234656D01*
X566931Y234658D01*
X566931Y234660D01*
X559636Y241955D01*
X559629Y241956D01*
X559629Y241955D01*
X558979Y241305D01*
X548461Y241305D01*
X541025Y248741D01*
X541025Y259259D01*
X548463Y266696D01*
X548463Y266703D01*
X548463Y266704D01*
X541025Y274141D01*
X541025Y284659D01*
X548463Y292096D01*
X548463Y292103D01*
X548463Y292104D01*
X541053Y299513D01*
X541051Y299514D01*
X541049Y299515D01*
X531508Y299515D01*
X515625Y315398D01*
X515625Y333248D01*
X515620Y333253D01*
X515620Y333252D01*
X515620Y333253D01*
X512177Y333253D01*
X508631Y334721D01*
X505917Y337435D01*
X504449Y340981D01*
X504449Y344819D01*
X505917Y348365D01*
X508631Y351079D01*
X512177Y352547D01*
X529223Y352547D01*
X532769Y351079D01*
X533941Y349907D01*
X533947Y349906D01*
X533947Y349907D01*
X533948Y349907D01*
X541531Y357490D01*
X541532Y357493D01*
X541533Y357494D01*
X541533Y490728D01*
X541528Y490733D01*
X541528Y490732D01*
X541528Y490733D01*
X535858Y490733D01*
X535855Y490730D01*
X535853Y490730D01*
X535483Y489835D01*
X532769Y487121D01*
X529223Y485653D01*
X512177Y485653D01*
X508631Y487121D01*
X505917Y489835D01*
X504449Y493381D01*
X504449Y497219D01*
X505917Y500765D01*
X507343Y502191D01*
X507344Y502197D01*
X507343Y502197D01*
X507343Y502198D01*
X506110Y503431D01*
X506107Y503432D01*
X506106Y503433D01*
X404576Y503433D01*
X404575Y503431D01*
X404572Y503430D01*
X404572Y503429D01*
X404572Y503428D01*
X404574Y503426D01*
X404575Y503423D01*
X404633Y503399D01*
X406130Y502399D01*
X407403Y501126D01*
X408403Y499629D01*
X409092Y497966D01*
X409443Y496200D01*
X409443Y495305D01*
X393700Y495305D01*
X377957Y495305D01*
X377957Y496200D01*
X377958Y496208D01*
X377961Y496223D01*
X377964Y496238D01*
X377969Y496263D01*
X377972Y496278D01*
X377977Y496303D01*
X377980Y496318D01*
X377985Y496343D01*
X377988Y496357D01*
X377991Y496372D01*
X377993Y496382D01*
X377996Y496397D01*
X377999Y496412D01*
X378001Y496422D01*
X378004Y496437D01*
X378007Y496452D01*
X378009Y496462D01*
X378012Y496477D01*
X378015Y496492D01*
X378020Y496516D01*
X378023Y496531D01*
X378028Y496556D01*
X378031Y496571D01*
X378036Y496596D01*
X378038Y496611D01*
X378039Y496611D01*
X378038Y496611D01*
X378041Y496626D01*
X378043Y496636D01*
X378046Y496651D01*
X378049Y496665D01*
X378049Y496666D01*
X378051Y496675D01*
X378054Y496690D01*
X378057Y496705D01*
X378059Y496715D01*
X378062Y496730D01*
X378065Y496745D01*
X378070Y496770D01*
X378073Y496785D01*
X378078Y496810D01*
X378081Y496824D01*
X378081Y496825D01*
X378086Y496849D01*
X378089Y496864D01*
X378094Y496889D01*
X378097Y496904D01*
X378100Y496919D01*
X378102Y496929D01*
X378105Y496944D01*
X378108Y496959D01*
X378110Y496969D01*
X378113Y496983D01*
X378113Y496984D01*
X378116Y496998D01*
X378118Y497008D01*
X378121Y497023D01*
X378123Y497038D01*
X378124Y497038D01*
X378123Y497038D01*
X378128Y497063D01*
X378131Y497078D01*
X378136Y497103D01*
X378139Y497118D01*
X378144Y497142D01*
X378144Y497143D01*
X378147Y497157D01*
X378150Y497172D01*
X378152Y497182D01*
X378155Y497197D01*
X378158Y497212D01*
X378160Y497222D01*
X378163Y497237D01*
X378166Y497252D01*
X378168Y497262D01*
X378171Y497277D01*
X378174Y497292D01*
X378179Y497316D01*
X378182Y497331D01*
X378187Y497356D01*
X378190Y497371D01*
X378195Y497396D01*
X378198Y497411D01*
X378203Y497436D01*
X378206Y497451D01*
X378208Y497465D01*
X378209Y497465D01*
X378208Y497466D01*
X378210Y497475D01*
X378213Y497490D01*
X378216Y497505D01*
X378218Y497515D01*
X378221Y497530D01*
X378224Y497545D01*
X378226Y497555D01*
X378229Y497570D01*
X378232Y497585D01*
X378237Y497610D01*
X378240Y497624D01*
X378240Y497625D01*
X378245Y497649D01*
X378248Y497664D01*
X378253Y497689D01*
X378256Y497704D01*
X378259Y497719D01*
X378261Y497729D01*
X378264Y497744D01*
X378267Y497759D01*
X378269Y497769D01*
X378272Y497783D01*
X378272Y497784D01*
X378275Y497798D01*
X378277Y497808D01*
X378280Y497823D01*
X378283Y497838D01*
X378288Y497863D01*
X378291Y497878D01*
X378295Y497903D01*
X378298Y497918D01*
X378303Y497942D01*
X378303Y497943D01*
X378306Y497957D01*
X378308Y497966D01*
X378997Y499629D01*
X379997Y501126D01*
X381270Y502399D01*
X382767Y503399D01*
X382825Y503423D01*
X382827Y503426D01*
X382828Y503427D01*
X382828Y503428D01*
X382828Y503429D01*
X382826Y503430D01*
X382824Y503433D01*
X357494Y503433D01*
X357492Y503431D01*
X357490Y503431D01*
X356257Y502198D01*
X356256Y502191D01*
X356257Y502191D01*
X357683Y500765D01*
X359151Y497219D01*
X359151Y493381D01*
X357683Y489835D01*
X354969Y487121D01*
X351423Y485653D01*
X334377Y485653D01*
X330831Y487121D01*
X329659Y488293D01*
X329657Y488294D01*
X329655Y488294D01*
X329653Y488294D01*
X329653Y488293D01*
X329652Y488293D01*
X322069Y480710D01*
X322069Y480708D01*
X322068Y480707D01*
X322067Y480706D01*
X322067Y357494D01*
X322069Y357492D01*
X322069Y357490D01*
X329652Y349907D01*
X329659Y349906D01*
X329659Y349907D01*
X330831Y351079D01*
X334377Y352547D01*
X351423Y352547D01*
X354969Y351079D01*
X357683Y348365D01*
X359151Y344819D01*
X359151Y340981D01*
X358616Y339688D01*
X358616Y339686D01*
X358616Y339683D01*
X358617Y339683D01*
X358618Y339682D01*
X358621Y339683D01*
X358624Y339683D01*
X380343Y361402D01*
X380344Y361406D01*
X380344Y361409D01*
X380343Y361409D01*
X378917Y362835D01*
X377449Y366381D01*
X377449Y370219D01*
X378917Y373765D01*
X381631Y376479D01*
X385177Y377947D01*
X402223Y377947D01*
X405769Y376479D01*
X408483Y373765D01*
X409951Y370219D01*
X409951Y366381D01*
X408483Y362835D01*
X405769Y360121D01*
X402223Y358653D01*
X390514Y358653D01*
X390512Y358651D01*
X390510Y358651D01*
X383879Y352020D01*
X383879Y352017D01*
X383877Y352015D01*
X383878Y352014D01*
X383878Y352013D01*
X383881Y352013D01*
X383884Y352012D01*
X385177Y352547D01*
X402223Y352547D01*
X405769Y351079D01*
X408483Y348365D01*
X409951Y344819D01*
X409951Y340981D01*
X408483Y337435D01*
X405769Y334721D01*
X402223Y333253D01*
X390514Y333253D01*
X390512Y333251D01*
X390510Y333251D01*
X361972Y304713D01*
X361971Y304710D01*
X361971Y304709D01*
X361971Y304706D01*
X361972Y304706D01*
X363779Y302899D01*
X365247Y299353D01*
X365247Y282307D01*
X363779Y278761D01*
X361065Y276047D01*
X357519Y274579D01*
X353681Y274579D01*
X350135Y276047D01*
X347421Y278761D01*
X345953Y282307D01*
X345953Y299353D01*
X347421Y302899D01*
X350135Y305613D01*
X350930Y305942D01*
X350931Y305945D01*
X350932Y305945D01*
X350933Y305946D01*
X350933Y306592D01*
X380343Y336002D01*
X380344Y336005D01*
X380344Y336006D01*
X380344Y336009D01*
X380343Y336009D01*
X378917Y337435D01*
X377449Y340981D01*
X377449Y344819D01*
X377984Y346112D01*
X377984Y346113D01*
X377984Y346114D01*
X377984Y346117D01*
X377983Y346117D01*
X377982Y346118D01*
X377980Y346117D01*
X377979Y346118D01*
X377978Y346117D01*
X377976Y346117D01*
X344792Y312933D01*
X217794Y312933D01*
X217792Y312931D01*
X217790Y312931D01*
X209572Y304713D01*
X209571Y304710D01*
X209571Y304709D01*
X209571Y304706D01*
X209572Y304706D01*
X211379Y302899D01*
X212847Y299353D01*
X212847Y282307D01*
X211379Y278761D01*
X208665Y276047D01*
X205119Y274579D01*
X201281Y274579D01*
X197735Y276047D01*
X195021Y278761D01*
X193553Y282307D01*
X193553Y299353D01*
X194986Y302814D01*
X194987Y302815D01*
X194986Y302816D01*
X194986Y302819D01*
X194985Y302819D01*
X194984Y302820D01*
X194982Y302819D01*
X194982Y302820D01*
X194981Y302820D01*
X194980Y302819D01*
X194978Y302819D01*
X187449Y295290D01*
X187448Y295287D01*
X187447Y295286D01*
X187447Y282307D01*
X185979Y278761D01*
X183265Y276047D01*
X179719Y274579D01*
X175881Y274579D01*
X172335Y276047D01*
X169621Y278761D01*
X168153Y282307D01*
X168153Y299353D01*
X169621Y302899D01*
X172335Y305613D01*
X175881Y307081D01*
X179719Y307081D01*
X183265Y305613D01*
X184056Y304822D01*
X184062Y304821D01*
X184062Y304822D01*
X184063Y304822D01*
X185931Y306690D01*
X185932Y306693D01*
X185933Y306694D01*
X185933Y357492D01*
X200347Y371906D01*
X200347Y371908D01*
X200348Y371908D01*
X201117Y373765D01*
X203831Y376479D01*
X207377Y377947D01*
X224423Y377947D01*
X227969Y376479D01*
X230683Y373765D01*
X232151Y370219D01*
X232151Y366381D01*
X230683Y362835D01*
X227969Y360121D01*
X224423Y358653D01*
X207377Y358653D01*
X203831Y360121D01*
X202659Y361293D01*
X202653Y361294D01*
X202653Y361293D01*
X202652Y361293D01*
X195069Y353710D01*
X195068Y353707D01*
X195067Y353706D01*
X195067Y302956D01*
X195068Y302955D01*
X195068Y302953D01*
X195070Y302953D01*
X195072Y302951D01*
X195073Y302953D01*
X195076Y302953D01*
X197735Y305613D01*
X198530Y305942D01*
X198531Y305945D01*
X198532Y305945D01*
X198533Y305946D01*
X198533Y306592D01*
X214008Y322067D01*
X341006Y322067D01*
X341008Y322069D01*
X341010Y322069D01*
X352721Y333780D01*
X352721Y333783D01*
X352723Y333785D01*
X352722Y333786D01*
X352722Y333787D01*
X352719Y333787D01*
X352716Y333788D01*
X351423Y333253D01*
X334377Y333253D01*
X330831Y334721D01*
X328117Y337435D01*
X327348Y339292D01*
X327347Y339293D01*
X327347Y339294D01*
X312933Y353708D01*
X312933Y484492D01*
X323738Y495296D01*
X323738Y495298D01*
X323739Y495299D01*
X323738Y495300D01*
X323738Y495303D01*
X323737Y495303D01*
X323738Y495304D01*
X312933Y506108D01*
X312933Y531506D01*
X312931Y531508D01*
X312931Y531510D01*
X302910Y541531D01*
X302907Y541532D01*
X302906Y541533D01*
X205094Y541533D01*
X205092Y541531D01*
X205090Y541531D01*
X195069Y531510D01*
X195069Y531508D01*
X195068Y531508D01*
X195068Y531507D01*
X195067Y531506D01*
X195067Y404508D01*
X192390Y401831D01*
X181278Y390719D01*
X181278Y390717D01*
X181277Y390716D01*
X181278Y390715D01*
X181278Y390713D01*
X181280Y390712D01*
X181282Y390711D01*
X186528Y390711D01*
X188311Y388928D01*
X188311Y365452D01*
X186528Y363669D01*
X179292Y363669D01*
X179287Y363665D01*
X179288Y363665D01*
X179287Y363664D01*
X179287Y351708D01*
X176610Y349031D01*
X132832Y305253D01*
X132831Y305251D01*
X132831Y305250D01*
X132831Y305246D01*
X132832Y305246D01*
X135179Y302899D01*
X136647Y299353D01*
X136647Y282307D01*
X135179Y278761D01*
X132465Y276047D01*
X128919Y274579D01*
X125081Y274579D01*
X121535Y276047D01*
X118821Y278761D01*
X117353Y282307D01*
X117353Y299353D01*
X118821Y302899D01*
X121535Y305613D01*
X122330Y305942D01*
X122331Y305945D01*
X122332Y305945D01*
X122333Y305946D01*
X122333Y307672D01*
X125010Y310349D01*
X170151Y355490D01*
X170151Y355492D01*
X170153Y355493D01*
X170153Y355494D01*
X170153Y363664D01*
X170148Y363669D01*
X163052Y363669D01*
X161269Y365452D01*
X161269Y388928D01*
X163052Y390711D01*
X170218Y390711D01*
X170223Y390715D01*
X170222Y390715D01*
X170223Y390716D01*
X170223Y392582D01*
X185931Y408290D01*
X185932Y408293D01*
X185933Y408294D01*
X185933Y414464D01*
X185928Y414469D01*
X162722Y414469D01*
X160939Y416252D01*
X160939Y439728D01*
X162722Y441511D01*
X185928Y441511D01*
X185933Y441515D01*
X185932Y441515D01*
X185933Y441516D01*
X185933Y535292D01*
X201308Y550667D01*
X306692Y550667D01*
X322067Y535292D01*
X322067Y509894D01*
X322069Y509892D01*
X322069Y509890D01*
X329652Y502307D01*
X329655Y502306D01*
X329656Y502306D01*
X329657Y502306D01*
X329659Y502306D01*
X329659Y502307D01*
X330831Y503479D01*
X334377Y504947D01*
X346086Y504947D01*
X346088Y504949D01*
X346090Y504949D01*
X351031Y509890D01*
X352721Y511580D01*
X352721Y511583D01*
X352723Y511585D01*
X352722Y511586D01*
X352722Y511587D01*
X352719Y511587D01*
X352716Y511588D01*
X351423Y511053D01*
X334377Y511053D01*
X330831Y512521D01*
X328117Y515235D01*
X326649Y518781D01*
X326649Y522619D01*
X328117Y526165D01*
X330831Y528879D01*
X334377Y530347D01*
X344649Y530347D01*
X344651Y530349D01*
X344653Y530349D01*
X350015Y535711D01*
X350016Y535714D01*
X350017Y535715D01*
X350017Y543785D01*
X350015Y543787D01*
X350015Y543789D01*
X340589Y553215D01*
X340587Y553215D01*
X340587Y553216D01*
X340586Y553216D01*
X340585Y553217D01*
X180115Y553217D01*
X180113Y553215D01*
X180111Y553215D01*
X145185Y518289D01*
X145185Y518287D01*
X145183Y518286D01*
X145183Y518285D01*
X145183Y338587D01*
X141911Y335315D01*
X109640Y303044D01*
X109640Y303038D01*
X109640Y303037D01*
X109779Y302899D01*
X111247Y299353D01*
X111247Y282307D01*
X109779Y278761D01*
X107065Y276047D01*
X103519Y274579D01*
X99681Y274579D01*
X96135Y276047D01*
X93421Y278761D01*
X91953Y282307D01*
X91953Y299353D01*
X93421Y302899D01*
X96135Y305613D01*
X96615Y305811D01*
X96615Y305812D01*
X96616Y305812D01*
X114633Y323828D01*
X114633Y323830D01*
X114634Y323831D01*
X114633Y323833D01*
X114633Y323835D01*
X114631Y323835D01*
X114629Y323837D01*
X81589Y323837D01*
X79807Y325619D01*
X79807Y359301D01*
X81589Y361083D01*
X115271Y361083D01*
X117053Y359301D01*
X117053Y326261D01*
X117054Y326260D01*
X117054Y326258D01*
X117056Y326258D01*
X117058Y326256D01*
X117059Y326258D01*
X117062Y326257D01*
X134015Y343211D01*
X134016Y343214D01*
X134017Y343215D01*
X134017Y522913D01*
X172201Y561096D01*
X172201Y561098D01*
X172202Y561099D01*
X172201Y561101D01*
X172201Y561103D01*
X172199Y561103D01*
X172197Y561105D01*
X12700Y561105D01*
X12695Y561101D01*
X12695Y561100D01*
X12695Y536086D01*
X12697Y536084D01*
X12698Y536081D01*
X12699Y536081D01*
X12702Y536083D01*
X12705Y536084D01*
X14229Y541774D01*
X17870Y548081D01*
X23019Y553230D01*
X29326Y556871D01*
X36359Y558755D01*
X43641Y558755D01*
X50674Y556871D01*
X56981Y553230D01*
X62130Y548081D01*
X65771Y541774D01*
X67655Y534741D01*
X67655Y527459D01*
X65771Y520426D01*
X62130Y514119D01*
X56981Y508970D01*
X50674Y505329D01*
X43641Y503445D01*
X36359Y503445D01*
X29326Y505329D01*
X23019Y508970D01*
X17870Y514119D01*
X14229Y520426D01*
X12705Y526116D01*
X12703Y526117D01*
X12701Y526119D01*
X12700Y526119D01*
X12699Y526119D01*
X12697Y526117D01*
X12695Y526114D01*
X12695Y34986D01*
X12697Y34984D01*
X12698Y34981D01*
X12699Y34981D01*
X12702Y34983D01*
X12705Y34984D01*
X14229Y40674D01*
X17870Y46981D01*
X23019Y52130D01*
X29326Y55771D01*
X36359Y57655D01*
X43641Y57655D01*
X50674Y55771D01*
X56981Y52130D01*
X62130Y46981D01*
X65771Y40674D01*
X67655Y33641D01*
X67655Y26359D01*
X65771Y19326D01*
X62130Y13019D01*
X61814Y12704D01*
X61814Y12702D01*
X61812Y12701D01*
X61814Y12699D01*
X61813Y12697D01*
X61816Y12697D01*
X61817Y12695D01*
X234834Y12695D01*
X234835Y12696D01*
G37*
G36*
X939985Y12699D02*
X939985Y12699D01*
X939985Y12700D01*
X939985Y136279D01*
X939984Y136281D01*
X939984Y136282D01*
X939982Y136282D01*
X939981Y136284D01*
X939979Y136283D01*
X939978Y136283D01*
X939976Y136283D01*
X937231Y133537D01*
X932565Y131605D01*
X930701Y131605D01*
X930700Y131604D01*
X930698Y131604D01*
X930698Y131602D01*
X930696Y131600D01*
X930698Y131599D01*
X930697Y131596D01*
X930803Y131491D01*
X932735Y126825D01*
X932735Y121775D01*
X930803Y117109D01*
X927231Y113537D01*
X922565Y111605D01*
X917515Y111605D01*
X912849Y113537D01*
X909277Y117109D01*
X908090Y119976D01*
X908088Y119977D01*
X908088Y119979D01*
X908086Y119978D01*
X908084Y119979D01*
X908083Y119977D01*
X908081Y119976D01*
X907740Y119155D01*
X905185Y116600D01*
X901847Y115217D01*
X898233Y115217D01*
X894895Y116600D01*
X892340Y119155D01*
X890957Y122493D01*
X890957Y126107D01*
X892340Y129445D01*
X894895Y132000D01*
X898233Y133383D01*
X901847Y133383D01*
X905185Y132000D01*
X907740Y129445D01*
X908081Y128624D01*
X908082Y128623D01*
X908083Y128621D01*
X908084Y128622D01*
X908085Y128621D01*
X908086Y128621D01*
X908087Y128621D01*
X908087Y128623D01*
X908088Y128623D01*
X908090Y128624D01*
X909277Y131491D01*
X912849Y135063D01*
X917515Y136995D01*
X919379Y136995D01*
X919380Y136996D01*
X919382Y136996D01*
X919382Y136998D01*
X919384Y137000D01*
X919382Y137001D01*
X919383Y137004D01*
X919277Y137109D01*
X917345Y141775D01*
X917345Y146825D01*
X919277Y151491D01*
X922849Y155063D01*
X927515Y156995D01*
X932565Y156995D01*
X937231Y155063D01*
X939976Y152317D01*
X939978Y152317D01*
X939979Y152316D01*
X939981Y152317D01*
X939983Y152317D01*
X939983Y152319D01*
X939985Y152321D01*
X939985Y223659D01*
X939984Y223659D01*
X939985Y223660D01*
X939983Y223661D01*
X939981Y223664D01*
X939980Y223663D01*
X939979Y223663D01*
X939978Y223663D01*
X939661Y223532D01*
X934899Y223532D01*
X930501Y225354D01*
X927134Y228721D01*
X925312Y233119D01*
X925312Y237881D01*
X927134Y242279D01*
X930501Y245646D01*
X934899Y247468D01*
X939661Y247468D01*
X939978Y247337D01*
X939979Y247337D01*
X939979Y247336D01*
X939981Y247338D01*
X939984Y247339D01*
X939984Y247340D01*
X939985Y247341D01*
X939985Y324959D01*
X939984Y324959D01*
X939985Y324960D01*
X939983Y324961D01*
X939981Y324964D01*
X939979Y324963D01*
X939978Y324963D01*
X939661Y324832D01*
X934899Y324832D01*
X930501Y326654D01*
X927134Y330021D01*
X925312Y334419D01*
X925312Y339181D01*
X927134Y343579D01*
X930501Y346946D01*
X934899Y348768D01*
X939661Y348768D01*
X939978Y348637D01*
X939979Y348637D01*
X939979Y348636D01*
X939981Y348638D01*
X939984Y348639D01*
X939984Y348640D01*
X939985Y348641D01*
X939985Y407809D01*
X939984Y407809D01*
X939985Y407810D01*
X939983Y407811D01*
X939981Y407814D01*
X939979Y407813D01*
X939978Y407813D01*
X939661Y407682D01*
X934899Y407682D01*
X930501Y409504D01*
X927134Y412871D01*
X925312Y417269D01*
X925312Y422031D01*
X927134Y426429D01*
X930501Y429796D01*
X934899Y431618D01*
X939661Y431618D01*
X939978Y431487D01*
X939979Y431487D01*
X939979Y431486D01*
X939981Y431488D01*
X939984Y431489D01*
X939984Y431490D01*
X939985Y431491D01*
X939985Y509109D01*
X939984Y509109D01*
X939985Y509110D01*
X939983Y509111D01*
X939981Y509114D01*
X939980Y509113D01*
X939979Y509113D01*
X939978Y509113D01*
X939661Y508982D01*
X934899Y508982D01*
X930501Y510804D01*
X927134Y514171D01*
X925312Y518569D01*
X925312Y523331D01*
X927134Y527729D01*
X930501Y531096D01*
X934899Y532918D01*
X939661Y532918D01*
X939978Y532787D01*
X939979Y532787D01*
X939979Y532786D01*
X939981Y532788D01*
X939984Y532789D01*
X939984Y532790D01*
X939985Y532791D01*
X939985Y561100D01*
X939981Y561105D01*
X939980Y561105D01*
X909921Y561105D01*
X909919Y561103D01*
X909917Y561103D01*
X909917Y561102D01*
X909916Y561101D01*
X909918Y561099D01*
X909919Y561096D01*
X910293Y560879D01*
X914935Y556238D01*
X914937Y556237D01*
X914938Y556236D01*
X914939Y556236D01*
X914940Y556237D01*
X914942Y556237D01*
X914942Y556238D01*
X915201Y556496D01*
X919599Y558318D01*
X924361Y558318D01*
X928759Y556496D01*
X932126Y553129D01*
X933948Y548731D01*
X933948Y543969D01*
X932126Y539571D01*
X928759Y536204D01*
X924361Y534382D01*
X919982Y534382D01*
X919979Y534379D01*
X919977Y534378D01*
X918686Y529558D01*
X915209Y523537D01*
X910293Y518621D01*
X904272Y515144D01*
X897556Y513345D01*
X890604Y513345D01*
X883888Y515144D01*
X877867Y518621D01*
X872951Y523537D01*
X869474Y529558D01*
X867675Y536274D01*
X867675Y543226D01*
X868420Y546007D01*
X868419Y546008D01*
X868420Y546010D01*
X868418Y546010D01*
X868417Y546013D01*
X868415Y546012D01*
X868413Y546013D01*
X866528Y545232D01*
X860632Y545232D01*
X855186Y547488D01*
X851018Y551656D01*
X848762Y557102D01*
X848762Y561100D01*
X848757Y561105D01*
X740933Y561105D01*
X740932Y561104D01*
X740930Y561104D01*
X740930Y561102D01*
X740928Y561101D01*
X740929Y561099D01*
X740929Y561096D01*
X754883Y547143D01*
X754883Y530352D01*
X754888Y530347D01*
X754888Y530348D01*
X754888Y530347D01*
X757823Y530347D01*
X761369Y528879D01*
X764083Y526165D01*
X765551Y522619D01*
X765551Y518781D01*
X764083Y515235D01*
X761369Y512521D01*
X757823Y511053D01*
X740777Y511053D01*
X737231Y512521D01*
X734517Y515235D01*
X733049Y518781D01*
X733049Y522619D01*
X734517Y526165D01*
X737231Y528879D01*
X740777Y530347D01*
X743712Y530347D01*
X743717Y530352D01*
X743716Y530352D01*
X743717Y530352D01*
X743717Y542515D01*
X743715Y542517D01*
X743715Y542519D01*
X733019Y553215D01*
X733017Y553215D01*
X733017Y553216D01*
X733016Y553216D01*
X733015Y553217D01*
X535715Y553217D01*
X535713Y553215D01*
X535711Y553215D01*
X526285Y543789D01*
X526284Y543787D01*
X526283Y543785D01*
X526283Y530352D01*
X526288Y530347D01*
X526288Y530348D01*
X526288Y530347D01*
X529223Y530347D01*
X532769Y528879D01*
X535483Y526165D01*
X536951Y522619D01*
X536951Y518781D01*
X535483Y515235D01*
X532769Y512521D01*
X529223Y511053D01*
X512177Y511053D01*
X510884Y511588D01*
X510882Y511588D01*
X510879Y511588D01*
X510879Y511587D01*
X510878Y511586D01*
X510879Y511583D01*
X510879Y511580D01*
X512569Y509890D01*
X517510Y504949D01*
X517513Y504948D01*
X517514Y504947D01*
X529223Y504947D01*
X532769Y503479D01*
X535483Y500765D01*
X535853Y499870D01*
X535856Y499869D01*
X535858Y499867D01*
X569606Y499867D01*
X569608Y499869D01*
X569610Y499869D01*
X605031Y535290D01*
X607708Y537967D01*
X649592Y537967D01*
X687690Y499869D01*
X687693Y499868D01*
X687694Y499867D01*
X734142Y499867D01*
X734145Y499870D01*
X734147Y499870D01*
X734517Y500765D01*
X737231Y503479D01*
X740777Y504947D01*
X757823Y504947D01*
X761369Y503479D01*
X763963Y500885D01*
X763965Y500884D01*
X763966Y500883D01*
X764313Y500883D01*
X780283Y484913D01*
X780283Y353287D01*
X764313Y337317D01*
X763966Y337317D01*
X763964Y337315D01*
X763963Y337315D01*
X761369Y334721D01*
X757823Y333253D01*
X753618Y333253D01*
X753613Y333248D01*
X753614Y333248D01*
X753613Y333248D01*
X753613Y97028D01*
X753618Y97023D01*
X753618Y97024D01*
X753618Y97023D01*
X754551Y97023D01*
X755211Y96364D01*
X755217Y96363D01*
X755217Y96364D01*
X755218Y96364D01*
X764652Y105798D01*
X767924Y109070D01*
X880536Y109070D01*
X894583Y95023D01*
X894583Y48487D01*
X870993Y24897D01*
X870458Y24897D01*
X870453Y24892D01*
X870454Y24892D01*
X870453Y24892D01*
X870453Y16519D01*
X868671Y14737D01*
X853449Y14737D01*
X851667Y16519D01*
X851667Y44441D01*
X853449Y46223D01*
X868671Y46223D01*
X870453Y44441D01*
X870453Y40161D01*
X870454Y40160D01*
X870454Y40158D01*
X870456Y40158D01*
X870458Y40156D01*
X870459Y40157D01*
X870460Y40158D01*
X870462Y40157D01*
X883415Y53111D01*
X883416Y53114D01*
X883417Y53115D01*
X883417Y90395D01*
X883415Y90397D01*
X883415Y90399D01*
X875912Y97902D01*
X875910Y97902D01*
X875909Y97904D01*
X772551Y97904D01*
X772550Y97902D01*
X772548Y97902D01*
X763114Y88468D01*
X763113Y88464D01*
X763113Y88461D01*
X763114Y88461D01*
X763773Y87801D01*
X763773Y74759D01*
X754551Y65537D01*
X741509Y65537D01*
X732287Y74759D01*
X732287Y87801D01*
X741509Y97023D01*
X742442Y97023D01*
X742447Y97028D01*
X742446Y97028D01*
X742447Y97028D01*
X742447Y333248D01*
X742442Y333253D01*
X742442Y333252D01*
X742442Y333253D01*
X740777Y333253D01*
X737231Y334721D01*
X734517Y337435D01*
X733049Y340981D01*
X733049Y344819D01*
X734517Y348365D01*
X737231Y351079D01*
X740777Y352547D01*
X757823Y352547D01*
X761369Y351079D01*
X761822Y350625D01*
X761824Y350625D01*
X761825Y350625D01*
X761827Y350625D01*
X761829Y350625D01*
X769115Y357911D01*
X769115Y357913D01*
X769116Y357913D01*
X769116Y357914D01*
X769117Y357915D01*
X769117Y480285D01*
X769115Y480287D01*
X769115Y480289D01*
X761829Y487575D01*
X761823Y487575D01*
X761822Y487575D01*
X761369Y487121D01*
X757823Y485653D01*
X740777Y485653D01*
X737231Y487121D01*
X734517Y489835D01*
X734147Y490730D01*
X734144Y490731D01*
X734142Y490733D01*
X683908Y490733D01*
X645810Y528831D01*
X645807Y528832D01*
X645806Y528833D01*
X634426Y528833D01*
X634425Y528832D01*
X634423Y528832D01*
X634423Y528830D01*
X634421Y528828D01*
X634423Y528827D01*
X634423Y528824D01*
X637083Y526165D01*
X638551Y522619D01*
X638551Y518781D01*
X637083Y515235D01*
X634369Y512521D01*
X630823Y511053D01*
X613777Y511053D01*
X610231Y512521D01*
X607517Y515235D01*
X606049Y518781D01*
X606049Y522619D01*
X606584Y523912D01*
X606584Y523914D01*
X606584Y523917D01*
X606583Y523917D01*
X606582Y523918D01*
X606579Y523917D01*
X606576Y523917D01*
X576069Y493410D01*
X573392Y490733D01*
X550672Y490733D01*
X550667Y490728D01*
X550668Y490728D01*
X550667Y490728D01*
X550667Y353708D01*
X547990Y351031D01*
X536253Y339294D01*
X536253Y339292D01*
X536252Y339292D01*
X535483Y337435D01*
X532769Y334721D01*
X529223Y333253D01*
X525780Y333253D01*
X525775Y333248D01*
X525776Y333248D01*
X525775Y333248D01*
X525775Y319604D01*
X525777Y319603D01*
X525777Y319601D01*
X535711Y309667D01*
X535713Y309666D01*
X535714Y309665D01*
X541020Y309665D01*
X541025Y309670D01*
X541024Y309670D01*
X541025Y309670D01*
X541025Y310059D01*
X548462Y317495D01*
X558978Y317495D01*
X566415Y310058D01*
X566415Y299542D01*
X558977Y292104D01*
X558977Y292097D01*
X558977Y292096D01*
X566415Y284658D01*
X566415Y274142D01*
X566095Y273821D01*
X566095Y273819D01*
X566093Y273818D01*
X566095Y273817D01*
X566094Y273815D01*
X566095Y273815D01*
X566095Y273814D01*
X586227Y253682D01*
X586227Y169534D01*
X586229Y169532D01*
X586229Y169530D01*
X598674Y157085D01*
X598676Y157085D01*
X598677Y157083D01*
X598679Y157084D01*
X598681Y157084D01*
X598681Y157087D01*
X598683Y157088D01*
X598683Y168649D01*
X598682Y168650D01*
X598682Y168652D01*
X598680Y168652D01*
X598678Y168653D01*
X598677Y168652D01*
X598674Y168652D01*
X596956Y166934D01*
X594448Y165895D01*
X591732Y165895D01*
X589224Y166934D01*
X587304Y168854D01*
X586265Y171362D01*
X586265Y174078D01*
X587304Y176586D01*
X588521Y177804D01*
X588521Y177805D01*
X588522Y177806D01*
X588523Y177807D01*
X588523Y226682D01*
X617731Y255890D01*
X617732Y255893D01*
X617733Y255894D01*
X617733Y333248D01*
X617728Y333253D01*
X617728Y333252D01*
X617728Y333253D01*
X613777Y333253D01*
X610231Y334721D01*
X607517Y337435D01*
X606049Y340981D01*
X606049Y344819D01*
X607517Y348365D01*
X610231Y351079D01*
X613777Y352547D01*
X630823Y352547D01*
X634369Y351079D01*
X636774Y348673D01*
X636776Y348673D01*
X636777Y348671D01*
X636778Y348672D01*
X636779Y348673D01*
X636781Y348672D01*
X636781Y348675D01*
X636783Y348676D01*
X636783Y356246D01*
X636781Y356248D01*
X636781Y356250D01*
X633339Y359692D01*
X633337Y359692D01*
X633336Y359693D01*
X633334Y359693D01*
X630823Y358653D01*
X613777Y358653D01*
X610231Y360121D01*
X607517Y362835D01*
X606049Y366381D01*
X606049Y370219D01*
X607517Y373765D01*
X610231Y376479D01*
X613777Y377947D01*
X630823Y377947D01*
X634369Y376479D01*
X637083Y373765D01*
X638551Y370219D01*
X638551Y367400D01*
X638553Y367398D01*
X638553Y367396D01*
X645917Y360032D01*
X645917Y233058D01*
X617979Y205120D01*
X617978Y205117D01*
X617977Y205116D01*
X617977Y204477D01*
X617979Y204475D01*
X617979Y204474D01*
X619196Y203256D01*
X620235Y200748D01*
X620235Y198032D01*
X619196Y195524D01*
X617276Y193604D01*
X614768Y192565D01*
X612052Y192565D01*
X609544Y193604D01*
X607624Y195524D01*
X606585Y198032D01*
X606585Y200748D01*
X607624Y203256D01*
X608841Y204474D01*
X608842Y204476D01*
X608843Y204477D01*
X608843Y208902D01*
X636781Y236840D01*
X636782Y236843D01*
X636783Y236844D01*
X636783Y337124D01*
X636782Y337125D01*
X636782Y337127D01*
X636780Y337127D01*
X636778Y337129D01*
X636777Y337127D01*
X636774Y337127D01*
X634369Y334721D01*
X630823Y333253D01*
X626872Y333253D01*
X626867Y333248D01*
X626868Y333248D01*
X626867Y333248D01*
X626867Y252108D01*
X597659Y222900D01*
X597658Y222897D01*
X597657Y222896D01*
X597657Y189491D01*
X597658Y189490D01*
X597658Y189488D01*
X597660Y189488D01*
X597662Y189487D01*
X597663Y189488D01*
X597666Y189488D01*
X599384Y191206D01*
X601892Y192245D01*
X604608Y192245D01*
X607116Y191206D01*
X608334Y189989D01*
X608336Y189988D01*
X608337Y189987D01*
X640726Y189987D01*
X640728Y189989D01*
X640730Y189989D01*
X648211Y197470D01*
X648211Y197472D01*
X648212Y197472D01*
X648211Y197473D01*
X648212Y197473D01*
X648213Y197474D01*
X648213Y399426D01*
X648211Y399428D01*
X648211Y399430D01*
X635548Y412093D01*
X635541Y412094D01*
X635541Y412093D01*
X634369Y410921D01*
X630823Y409453D01*
X613777Y409453D01*
X610231Y410921D01*
X607517Y413635D01*
X606049Y417181D01*
X606049Y421019D01*
X607517Y424565D01*
X610231Y427279D01*
X613777Y428747D01*
X630823Y428747D01*
X634369Y427279D01*
X637083Y424565D01*
X637852Y422708D01*
X637853Y422707D01*
X637853Y422706D01*
X657347Y403212D01*
X657347Y193688D01*
X644512Y180853D01*
X608337Y180853D01*
X608335Y180851D01*
X608334Y180851D01*
X607819Y180336D01*
X607818Y180334D01*
X607817Y180333D01*
X607817Y29858D01*
X605140Y27181D01*
X590662Y12704D01*
X590662Y12702D01*
X590661Y12701D01*
X590662Y12699D01*
X590662Y12697D01*
X590664Y12697D01*
X590666Y12695D01*
X939980Y12695D01*
X939985Y12699D01*
G37*
%LPC*%
G36*
X135704Y138943D02*
X135704Y138943D01*
X130625Y144021D01*
X130623Y144022D01*
X130622Y144023D01*
X123838Y144023D01*
X97033Y170828D01*
X97033Y214006D01*
X97031Y214008D01*
X97031Y214010D01*
X87010Y224031D01*
X87007Y224032D01*
X87006Y224033D01*
X71768Y224033D01*
X25443Y270358D01*
X25443Y363664D01*
X25438Y363669D01*
X18272Y363669D01*
X16489Y365452D01*
X16489Y388928D01*
X17283Y389721D01*
X17283Y389723D01*
X17283Y389728D01*
X17283Y389729D01*
X16159Y390852D01*
X16159Y414328D01*
X17118Y415286D01*
X17118Y415293D01*
X17118Y415294D01*
X16159Y416252D01*
X16159Y439728D01*
X17942Y441511D01*
X41418Y441511D01*
X43201Y439728D01*
X43201Y432562D01*
X43205Y432557D01*
X43205Y432558D01*
X43206Y432557D01*
X43802Y432557D01*
X55367Y420992D01*
X55367Y268594D01*
X55369Y268592D01*
X55369Y268590D01*
X78090Y245869D01*
X78093Y245869D01*
X78093Y245868D01*
X78094Y245867D01*
X116192Y245867D01*
X118869Y243190D01*
X126996Y235062D01*
X126999Y235062D01*
X127000Y235061D01*
X127001Y235062D01*
X127003Y235062D01*
X127003Y235063D01*
X127004Y235062D01*
X137808Y245867D01*
X201306Y245867D01*
X201308Y245869D01*
X201310Y245869D01*
X224031Y268590D01*
X224032Y268593D01*
X224033Y268594D01*
X224033Y275672D01*
X224030Y275675D01*
X224030Y275677D01*
X223135Y276047D01*
X220421Y278761D01*
X218953Y282307D01*
X218953Y299353D01*
X220421Y302899D01*
X223135Y305613D01*
X226681Y307081D01*
X230519Y307081D01*
X234065Y305613D01*
X236779Y302899D01*
X238247Y299353D01*
X238247Y282307D01*
X236779Y278761D01*
X234065Y276047D01*
X233170Y275677D01*
X233169Y275674D01*
X233167Y275672D01*
X233167Y264808D01*
X230490Y262131D01*
X207769Y239410D01*
X205092Y236733D01*
X141594Y236733D01*
X141592Y236731D01*
X141590Y236731D01*
X131569Y226710D01*
X131568Y226707D01*
X131567Y226706D01*
X131567Y205094D01*
X131569Y205092D01*
X131569Y205090D01*
X136510Y200149D01*
X136513Y200148D01*
X136514Y200147D01*
X143696Y200147D01*
X149347Y194496D01*
X149347Y186504D01*
X143696Y180853D01*
X135704Y180853D01*
X130053Y186504D01*
X130053Y193686D01*
X130051Y193688D01*
X130051Y193690D01*
X122433Y201308D01*
X122433Y226706D01*
X122431Y226708D01*
X122431Y226710D01*
X112410Y236731D01*
X112407Y236732D01*
X112406Y236733D01*
X74308Y236733D01*
X46233Y264808D01*
X46233Y417206D01*
X46231Y417208D01*
X46231Y417210D01*
X43209Y420232D01*
X43207Y420232D01*
X43206Y420233D01*
X43205Y420232D01*
X43203Y420232D01*
X43202Y420230D01*
X43201Y420228D01*
X43201Y416252D01*
X42242Y415294D01*
X42242Y415287D01*
X42242Y415286D01*
X43201Y414328D01*
X43201Y390852D01*
X42407Y390059D01*
X42407Y390052D01*
X42407Y390051D01*
X43531Y388928D01*
X43531Y365452D01*
X41748Y363669D01*
X34582Y363669D01*
X34577Y363665D01*
X34578Y363665D01*
X34577Y363664D01*
X34577Y274144D01*
X34579Y274142D01*
X34579Y274140D01*
X75550Y233169D01*
X75553Y233169D01*
X75553Y233168D01*
X75554Y233167D01*
X90792Y233167D01*
X106167Y217792D01*
X106167Y174614D01*
X106169Y174612D01*
X106169Y174610D01*
X127620Y153159D01*
X127623Y153158D01*
X127624Y153157D01*
X130622Y153157D01*
X130624Y153159D01*
X130625Y153159D01*
X135704Y158237D01*
X143696Y158237D01*
X148774Y153159D01*
X148777Y153158D01*
X148778Y153157D01*
X184796Y153157D01*
X184798Y153159D01*
X184800Y153159D01*
X249431Y217790D01*
X249432Y217793D01*
X249433Y217794D01*
X249433Y275672D01*
X249430Y275675D01*
X249430Y275677D01*
X248535Y276047D01*
X245821Y278761D01*
X244353Y282307D01*
X244353Y299353D01*
X245821Y302899D01*
X248535Y305613D01*
X252081Y307081D01*
X255919Y307081D01*
X259465Y305613D01*
X262179Y302899D01*
X263647Y299353D01*
X263647Y282307D01*
X262179Y278761D01*
X259465Y276047D01*
X258570Y275677D01*
X258569Y275674D01*
X258567Y275672D01*
X258567Y214008D01*
X188582Y144023D01*
X148778Y144023D01*
X148776Y144021D01*
X148774Y144021D01*
X143696Y138943D01*
X135704Y138943D01*
G37*
%LPD*%
%LPC*%
G36*
X890604Y329195D02*
X890604Y329195D01*
X883888Y330994D01*
X877867Y334471D01*
X872951Y339387D01*
X869474Y345408D01*
X867675Y352124D01*
X867675Y359076D01*
X868420Y361857D01*
X868419Y361858D01*
X868420Y361860D01*
X868418Y361860D01*
X868417Y361863D01*
X868415Y361862D01*
X868413Y361863D01*
X866528Y361082D01*
X860632Y361082D01*
X855186Y363338D01*
X851018Y367506D01*
X848762Y372952D01*
X848762Y378848D01*
X851018Y384294D01*
X855186Y388462D01*
X860155Y390520D01*
X860156Y390522D01*
X860157Y390523D01*
X860157Y390524D01*
X860158Y390526D01*
X860156Y390527D01*
X860155Y390530D01*
X855186Y392588D01*
X851018Y396756D01*
X848762Y402202D01*
X848762Y408098D01*
X851018Y413544D01*
X855186Y417712D01*
X855418Y417808D01*
X855419Y417810D01*
X855421Y417810D01*
X855420Y417812D01*
X855421Y417814D01*
X855419Y417815D01*
X855418Y417818D01*
X848479Y420692D01*
X841992Y427179D01*
X840623Y430484D01*
X840620Y430485D01*
X840619Y430487D01*
X840618Y430487D01*
X840617Y430487D01*
X840615Y430484D01*
X840613Y430482D01*
X840613Y429899D01*
X838831Y428117D01*
X822329Y428117D01*
X820547Y429899D01*
X820547Y446401D01*
X822329Y448183D01*
X838831Y448183D01*
X839562Y447452D01*
X839563Y447451D01*
X839564Y447452D01*
X839565Y447451D01*
X839566Y447452D01*
X839568Y447452D01*
X839568Y447453D01*
X839570Y447454D01*
X841992Y453301D01*
X848479Y459788D01*
X856953Y463298D01*
X866127Y463298D01*
X874601Y459788D01*
X881088Y453301D01*
X882711Y449383D01*
X882717Y449380D01*
X882717Y449381D01*
X882718Y449380D01*
X883888Y450056D01*
X890604Y451855D01*
X897556Y451855D01*
X904272Y450056D01*
X910004Y446746D01*
X910005Y446746D01*
X910006Y446746D01*
X910008Y446747D01*
X910011Y446747D01*
X910010Y446749D01*
X910012Y446750D01*
X910012Y447431D01*
X911834Y451829D01*
X915201Y455196D01*
X919599Y457018D01*
X924361Y457018D01*
X928759Y455196D01*
X932126Y451829D01*
X933948Y447431D01*
X933948Y442669D01*
X932126Y438271D01*
X928759Y434904D01*
X924361Y433082D01*
X919599Y433082D01*
X919353Y433184D01*
X919351Y433184D01*
X919350Y433184D01*
X919349Y433183D01*
X919346Y433182D01*
X919347Y433180D01*
X919346Y433178D01*
X920485Y428926D01*
X920485Y421974D01*
X918686Y415258D01*
X915209Y409237D01*
X910293Y404321D01*
X904272Y400844D01*
X897556Y399045D01*
X890604Y399045D01*
X883888Y400844D01*
X878406Y404010D01*
X878405Y404009D01*
X878404Y404010D01*
X878402Y404009D01*
X878399Y404008D01*
X878400Y404006D01*
X878398Y404005D01*
X878398Y402202D01*
X876142Y396756D01*
X871974Y392588D01*
X867005Y390530D01*
X867004Y390528D01*
X867003Y390527D01*
X867003Y390526D01*
X867002Y390524D01*
X867004Y390523D01*
X867005Y390520D01*
X871974Y388462D01*
X876142Y384294D01*
X878398Y378848D01*
X878398Y377045D01*
X878399Y377044D01*
X878399Y377043D01*
X878400Y377042D01*
X878403Y377040D01*
X878404Y377041D01*
X878406Y377040D01*
X883888Y380206D01*
X890604Y382005D01*
X897556Y382005D01*
X904272Y380206D01*
X910293Y376729D01*
X914935Y372088D01*
X914942Y372087D01*
X914942Y372088D01*
X915201Y372346D01*
X919599Y374168D01*
X924361Y374168D01*
X928759Y372346D01*
X932126Y368979D01*
X933948Y364581D01*
X933948Y359819D01*
X932126Y355421D01*
X928759Y352054D01*
X924361Y350232D01*
X919982Y350232D01*
X919979Y350229D01*
X919977Y350228D01*
X918686Y345408D01*
X915209Y339387D01*
X910293Y334471D01*
X904272Y330994D01*
X897556Y329195D01*
X890604Y329195D01*
G37*
%LPD*%
%LPC*%
G36*
X553833Y104653D02*
X553833Y104653D01*
X550287Y106121D01*
X547574Y108835D01*
X547413Y109222D01*
X547410Y109223D01*
X547409Y109225D01*
X531298Y109225D01*
X515625Y124898D01*
X515625Y146486D01*
X515623Y146487D01*
X515623Y146489D01*
X467291Y194821D01*
X467289Y194822D01*
X467288Y194823D01*
X460824Y194823D01*
X455173Y200474D01*
X455173Y208466D01*
X458031Y211324D01*
X458031Y211326D01*
X458033Y211327D01*
X458031Y211329D01*
X458032Y211331D01*
X458029Y211331D01*
X458028Y211333D01*
X446394Y211333D01*
X446392Y211331D01*
X446390Y211331D01*
X436369Y201310D01*
X436368Y201307D01*
X436367Y201306D01*
X436367Y166994D01*
X436369Y166992D01*
X436369Y166990D01*
X446390Y156969D01*
X446393Y156968D01*
X446394Y156968D01*
X446394Y156967D01*
X455742Y156967D01*
X455744Y156969D01*
X455745Y156969D01*
X460824Y162047D01*
X468816Y162047D01*
X474467Y156396D01*
X474467Y148404D01*
X468816Y142753D01*
X460824Y142753D01*
X455745Y147831D01*
X455743Y147832D01*
X455742Y147833D01*
X442608Y147833D01*
X427233Y163208D01*
X427233Y205092D01*
X442608Y220467D01*
X493406Y220467D01*
X493408Y220469D01*
X493410Y220469D01*
X503431Y230490D01*
X503432Y230493D01*
X503433Y230494D01*
X503433Y315606D01*
X503431Y315608D01*
X503431Y315610D01*
X480710Y338331D01*
X480707Y338331D01*
X480707Y338332D01*
X480706Y338333D01*
X468008Y338333D01*
X439933Y366408D01*
X439933Y391806D01*
X439931Y391808D01*
X439931Y391810D01*
X417210Y414531D01*
X417207Y414532D01*
X417206Y414533D01*
X408858Y414533D01*
X408855Y414530D01*
X408853Y414530D01*
X408483Y413635D01*
X405769Y410921D01*
X402223Y409453D01*
X385177Y409453D01*
X381631Y410921D01*
X378917Y413635D01*
X377449Y417181D01*
X377449Y421019D01*
X378917Y424565D01*
X381631Y427279D01*
X385177Y428747D01*
X402223Y428747D01*
X405769Y427279D01*
X408483Y424565D01*
X408853Y423670D01*
X408856Y423669D01*
X408858Y423667D01*
X420992Y423667D01*
X423669Y420990D01*
X446390Y398269D01*
X449067Y395592D01*
X449067Y370194D01*
X449069Y370192D01*
X449069Y370190D01*
X471790Y347469D01*
X471793Y347468D01*
X471794Y347467D01*
X484492Y347467D01*
X512567Y319392D01*
X512567Y226708D01*
X497192Y211333D01*
X471612Y211333D01*
X471611Y211332D01*
X471609Y211332D01*
X471609Y211330D01*
X471607Y211328D01*
X471609Y211327D01*
X471609Y211324D01*
X474467Y208466D01*
X474467Y202002D01*
X474469Y202001D01*
X474469Y201999D01*
X522801Y153667D01*
X525775Y150692D01*
X525775Y129104D01*
X525777Y129103D01*
X525777Y129101D01*
X535501Y119377D01*
X535503Y119376D01*
X535504Y119375D01*
X547409Y119375D01*
X547412Y119378D01*
X547413Y119378D01*
X547573Y119765D01*
X550287Y122479D01*
X553833Y123947D01*
X570879Y123947D01*
X574425Y122479D01*
X577139Y119765D01*
X578607Y116219D01*
X578607Y112381D01*
X577138Y108835D01*
X574425Y106121D01*
X570879Y104653D01*
X553833Y104653D01*
G37*
%LPD*%
%LPC*%
G36*
X125081Y26929D02*
X125081Y26929D01*
X121535Y28397D01*
X118821Y31111D01*
X117353Y34657D01*
X117353Y51703D01*
X118821Y55249D01*
X121315Y57743D01*
X121316Y57745D01*
X121317Y57746D01*
X121317Y95513D01*
X124589Y98785D01*
X129715Y103911D01*
X132987Y107183D01*
X251685Y107183D01*
X251687Y107185D01*
X251689Y107185D01*
X354557Y210053D01*
X380558Y210053D01*
X380560Y210055D01*
X380561Y210055D01*
X384624Y214117D01*
X392616Y214117D01*
X398267Y208466D01*
X398267Y200474D01*
X392616Y194823D01*
X384624Y194823D01*
X380561Y198885D01*
X380559Y198886D01*
X380558Y198887D01*
X359185Y198887D01*
X359183Y198885D01*
X359181Y198885D01*
X256313Y96017D01*
X137615Y96017D01*
X137613Y96015D01*
X137611Y96015D01*
X132485Y90889D01*
X132484Y90886D01*
X132483Y90885D01*
X132483Y57946D01*
X132485Y57944D01*
X132485Y57943D01*
X135179Y55249D01*
X136647Y51703D01*
X136647Y34657D01*
X135179Y31111D01*
X132465Y28397D01*
X128919Y26929D01*
X125081Y26929D01*
G37*
%LPD*%
%LPC*%
G36*
X907515Y192715D02*
X907515Y192715D01*
X902849Y194647D01*
X899277Y198219D01*
X897345Y202885D01*
X897345Y207935D01*
X899277Y212601D01*
X902849Y216173D01*
X903739Y216541D01*
X903740Y216544D01*
X903742Y216546D01*
X903742Y216547D01*
X903739Y216549D01*
X903736Y216551D01*
X897556Y214895D01*
X890604Y214895D01*
X883888Y216694D01*
X878406Y219860D01*
X878405Y219859D01*
X878404Y219860D01*
X878402Y219859D01*
X878399Y219858D01*
X878400Y219856D01*
X878398Y219855D01*
X878398Y218052D01*
X876142Y212606D01*
X871974Y208438D01*
X866528Y206182D01*
X860632Y206182D01*
X855186Y208438D01*
X851018Y212606D01*
X848762Y218052D01*
X848762Y223948D01*
X851018Y229394D01*
X855186Y233562D01*
X860632Y235818D01*
X866528Y235818D01*
X868413Y235037D01*
X868415Y235038D01*
X868416Y235037D01*
X868417Y235038D01*
X868419Y235039D01*
X868419Y235041D01*
X868420Y235043D01*
X867675Y237824D01*
X867675Y244776D01*
X869474Y251492D01*
X872951Y257513D01*
X877867Y262429D01*
X883888Y265906D01*
X890604Y267705D01*
X897556Y267705D01*
X904272Y265906D01*
X910004Y262596D01*
X910005Y262596D01*
X910006Y262596D01*
X910008Y262597D01*
X910011Y262597D01*
X910010Y262599D01*
X910012Y262600D01*
X910012Y263281D01*
X911834Y267679D01*
X915201Y271046D01*
X919599Y272868D01*
X924361Y272868D01*
X928759Y271046D01*
X932126Y267679D01*
X933948Y263281D01*
X933948Y258519D01*
X932126Y254121D01*
X928759Y250754D01*
X924361Y248932D01*
X919599Y248932D01*
X919353Y249034D01*
X919351Y249034D01*
X919350Y249034D01*
X919349Y249033D01*
X919346Y249032D01*
X919347Y249030D01*
X919346Y249029D01*
X919346Y249028D01*
X920485Y244776D01*
X920485Y237824D01*
X918686Y231108D01*
X915209Y225087D01*
X910293Y220171D01*
X904753Y216972D01*
X904752Y216969D01*
X904751Y216966D01*
X904754Y216965D01*
X904757Y216963D01*
X907515Y218105D01*
X912565Y218105D01*
X917231Y216173D01*
X920803Y212601D01*
X922261Y209080D01*
X922262Y209080D01*
X922263Y209078D01*
X922265Y209079D01*
X922267Y209078D01*
X922268Y209080D01*
X922270Y209080D01*
X922763Y210272D01*
X925178Y212687D01*
X928333Y213993D01*
X931747Y213993D01*
X934902Y212687D01*
X937317Y210272D01*
X938623Y207117D01*
X938623Y203703D01*
X937317Y200548D01*
X934902Y198133D01*
X931747Y196827D01*
X928333Y196827D01*
X925178Y198133D01*
X922763Y200548D01*
X922270Y201740D01*
X922268Y201740D01*
X922268Y201742D01*
X922266Y201741D01*
X922264Y201742D01*
X922263Y201740D01*
X922261Y201740D01*
X920803Y198219D01*
X917231Y194647D01*
X912565Y192715D01*
X907515Y192715D01*
G37*
%LPD*%
%LPC*%
G36*
X686449Y46825D02*
X686449Y46825D01*
X679416Y48709D01*
X673109Y52350D01*
X667960Y57499D01*
X664319Y63806D01*
X662435Y70839D01*
X662435Y78121D01*
X663042Y80385D01*
X663041Y80386D01*
X663042Y80388D01*
X663040Y80389D01*
X663039Y80391D01*
X663037Y80390D01*
X663035Y80391D01*
X660287Y79253D01*
X643241Y79253D01*
X639695Y80721D01*
X636981Y83435D01*
X635513Y86981D01*
X635513Y90819D01*
X636981Y94365D01*
X639695Y97079D01*
X643241Y98547D01*
X660287Y98547D01*
X663833Y97079D01*
X666547Y94365D01*
X667834Y91257D01*
X667835Y91257D01*
X667835Y91255D01*
X667837Y91256D01*
X667840Y91254D01*
X667840Y91256D01*
X667843Y91257D01*
X667960Y91461D01*
X673109Y96610D01*
X679416Y100251D01*
X686449Y102135D01*
X693731Y102135D01*
X700764Y100251D01*
X707071Y96610D01*
X712220Y91461D01*
X715861Y85154D01*
X717745Y78121D01*
X717745Y70839D01*
X715861Y63806D01*
X712220Y57499D01*
X707071Y52350D01*
X700764Y48709D01*
X693731Y46825D01*
X686449Y46825D01*
G37*
%LPD*%
%LPC*%
G36*
X741509Y14737D02*
X741509Y14737D01*
X732287Y23959D01*
X732287Y37001D01*
X741509Y46223D01*
X754551Y46223D01*
X755211Y45564D01*
X755213Y45563D01*
X755215Y45563D01*
X755217Y45563D01*
X755217Y45564D01*
X755218Y45564D01*
X771117Y61463D01*
X833345Y61463D01*
X833347Y61465D01*
X833349Y61465D01*
X851665Y79781D01*
X851666Y79784D01*
X851667Y79785D01*
X851667Y95241D01*
X853449Y97023D01*
X868671Y97023D01*
X870453Y95241D01*
X870453Y67319D01*
X868671Y65537D01*
X853449Y65537D01*
X853335Y65652D01*
X853332Y65652D01*
X853331Y65652D01*
X853328Y65652D01*
X841245Y53569D01*
X837973Y50297D01*
X775745Y50297D01*
X775743Y50295D01*
X775741Y50295D01*
X763114Y37668D01*
X763113Y37661D01*
X763114Y37661D01*
X763773Y37001D01*
X763773Y23959D01*
X754551Y14737D01*
X741509Y14737D01*
G37*
%LPD*%
%LPC*%
G36*
X252081Y26929D02*
X252081Y26929D01*
X248535Y28397D01*
X245821Y31111D01*
X244353Y34657D01*
X244353Y51703D01*
X245821Y55249D01*
X248535Y57963D01*
X249430Y58333D01*
X249431Y58336D01*
X249433Y58337D01*
X249433Y58338D01*
X249433Y78092D01*
X252110Y80769D01*
X325631Y154290D01*
X328308Y156967D01*
X379542Y156967D01*
X379544Y156969D01*
X379545Y156969D01*
X384624Y162047D01*
X392616Y162047D01*
X398267Y156396D01*
X398267Y148404D01*
X392616Y142753D01*
X384624Y142753D01*
X379545Y147831D01*
X379543Y147832D01*
X379542Y147833D01*
X332094Y147833D01*
X332092Y147831D01*
X332090Y147831D01*
X258569Y74310D01*
X258568Y74307D01*
X258567Y74306D01*
X258567Y58338D01*
X258570Y58335D01*
X258570Y58333D01*
X259465Y57963D01*
X262179Y55249D01*
X263647Y51703D01*
X263647Y34657D01*
X262179Y31111D01*
X259465Y28397D01*
X255919Y26929D01*
X252081Y26929D01*
G37*
%LPD*%
%LPC*%
G36*
X856953Y112382D02*
X856953Y112382D01*
X848479Y115892D01*
X841992Y122379D01*
X838482Y130853D01*
X838482Y140027D01*
X841992Y148501D01*
X848479Y154988D01*
X856953Y158498D01*
X866127Y158498D01*
X874601Y154988D01*
X881088Y148501D01*
X884598Y140027D01*
X884598Y130853D01*
X881088Y122379D01*
X874601Y115892D01*
X866127Y112382D01*
X856953Y112382D01*
G37*
%LPD*%
%LPC*%
G36*
X81579Y444097D02*
X81579Y444097D01*
X79797Y445879D01*
X79797Y479561D01*
X81579Y481343D01*
X115261Y481343D01*
X117043Y479561D01*
X117043Y445879D01*
X115261Y444097D01*
X81579Y444097D01*
G37*
%LPD*%
%LPC*%
G36*
X150481Y26929D02*
X150481Y26929D01*
X146935Y28397D01*
X144221Y31111D01*
X142753Y34657D01*
X142753Y51703D01*
X144221Y55249D01*
X146935Y57963D01*
X147830Y58333D01*
X147831Y58336D01*
X147833Y58337D01*
X147833Y58338D01*
X147833Y67691D01*
X147828Y67696D01*
X147828Y67695D01*
X147828Y67696D01*
X147825Y67696D01*
X141356Y74165D01*
X141356Y83315D01*
X147825Y89784D01*
X156975Y89784D01*
X163444Y83315D01*
X163444Y74165D01*
X156975Y67696D01*
X156972Y67696D01*
X156967Y67691D01*
X156968Y67691D01*
X156967Y67691D01*
X156967Y58338D01*
X156970Y58335D01*
X156970Y58333D01*
X157865Y57963D01*
X160579Y55249D01*
X162047Y51703D01*
X162047Y34657D01*
X160579Y31111D01*
X157865Y28397D01*
X154319Y26929D01*
X150481Y26929D01*
G37*
%LPD*%
%LPC*%
G36*
X302881Y26929D02*
X302881Y26929D01*
X299335Y28397D01*
X296621Y31111D01*
X295153Y34657D01*
X295153Y51703D01*
X296621Y55249D01*
X299335Y57963D01*
X300230Y58333D01*
X300231Y58336D01*
X300233Y58337D01*
X300233Y58338D01*
X300233Y65151D01*
X300228Y65156D01*
X300228Y65155D01*
X300228Y65156D01*
X300225Y65156D01*
X293756Y71625D01*
X293756Y80775D01*
X300225Y87244D01*
X309375Y87244D01*
X315844Y80775D01*
X315844Y71625D01*
X309375Y65156D01*
X309372Y65156D01*
X309367Y65151D01*
X309368Y65151D01*
X309367Y65151D01*
X309367Y58338D01*
X309370Y58335D01*
X309370Y58333D01*
X310265Y57963D01*
X312979Y55249D01*
X314447Y51703D01*
X314447Y34657D01*
X312979Y31111D01*
X310265Y28397D01*
X306719Y26929D01*
X302881Y26929D01*
G37*
%LPD*%
%LPC*%
G36*
X277481Y26929D02*
X277481Y26929D01*
X273935Y28397D01*
X271221Y31111D01*
X269753Y34657D01*
X269753Y51703D01*
X271221Y55249D01*
X273935Y57963D01*
X274830Y58333D01*
X274831Y58336D01*
X274833Y58337D01*
X274833Y58338D01*
X274833Y65151D01*
X274828Y65156D01*
X274828Y65155D01*
X274828Y65156D01*
X274825Y65156D01*
X268356Y71625D01*
X268356Y80775D01*
X274825Y87244D01*
X283975Y87244D01*
X290444Y80775D01*
X290444Y71625D01*
X283975Y65156D01*
X283972Y65156D01*
X283967Y65151D01*
X283968Y65151D01*
X283967Y65151D01*
X283967Y58338D01*
X283970Y58335D01*
X283970Y58333D01*
X284865Y57963D01*
X287579Y55249D01*
X289047Y51703D01*
X289047Y34657D01*
X287579Y31111D01*
X284865Y28397D01*
X281319Y26929D01*
X277481Y26929D01*
G37*
%LPD*%
%LPC*%
G36*
X328281Y26929D02*
X328281Y26929D01*
X324735Y28397D01*
X322021Y31111D01*
X320553Y34657D01*
X320553Y51703D01*
X322021Y55249D01*
X324735Y57963D01*
X325630Y58333D01*
X325631Y58336D01*
X325633Y58337D01*
X325633Y58338D01*
X325633Y65151D01*
X325628Y65156D01*
X325628Y65155D01*
X325628Y65156D01*
X325625Y65156D01*
X319156Y71625D01*
X319156Y80775D01*
X325625Y87244D01*
X334775Y87244D01*
X341244Y80775D01*
X341244Y71625D01*
X334775Y65156D01*
X334772Y65156D01*
X334767Y65151D01*
X334768Y65151D01*
X334767Y65151D01*
X334767Y58338D01*
X334770Y58335D01*
X334770Y58333D01*
X335665Y57963D01*
X338379Y55249D01*
X339847Y51703D01*
X339847Y34657D01*
X338379Y31111D01*
X335665Y28397D01*
X332119Y26929D01*
X328281Y26929D01*
G37*
%LPD*%
%LPC*%
G36*
X385177Y460253D02*
X385177Y460253D01*
X381631Y461721D01*
X378917Y464435D01*
X377449Y467981D01*
X377449Y471819D01*
X378917Y475365D01*
X381631Y478079D01*
X385177Y479547D01*
X402223Y479547D01*
X405769Y478079D01*
X408483Y475365D01*
X409951Y471819D01*
X409951Y467981D01*
X408483Y464435D01*
X405769Y461721D01*
X402223Y460253D01*
X385177Y460253D01*
G37*
%LPD*%
%LPC*%
G36*
X334377Y460253D02*
X334377Y460253D01*
X330831Y461721D01*
X328117Y464435D01*
X326649Y467981D01*
X326649Y471819D01*
X328117Y475365D01*
X330831Y478079D01*
X334377Y479547D01*
X351423Y479547D01*
X354969Y478079D01*
X357683Y475365D01*
X359151Y471819D01*
X359151Y467981D01*
X357683Y464435D01*
X354969Y461721D01*
X351423Y460253D01*
X334377Y460253D01*
G37*
%LPD*%
%LPC*%
G36*
X150481Y274579D02*
X150481Y274579D01*
X146935Y276047D01*
X144221Y278761D01*
X142753Y282307D01*
X142753Y299353D01*
X144221Y302899D01*
X146935Y305613D01*
X150481Y307081D01*
X154319Y307081D01*
X157865Y305613D01*
X160579Y302899D01*
X162047Y299353D01*
X162047Y282307D01*
X160579Y278761D01*
X157865Y276047D01*
X154319Y274579D01*
X150481Y274579D01*
G37*
%LPD*%
%LPC*%
G36*
X277481Y274579D02*
X277481Y274579D01*
X273935Y276047D01*
X271221Y278761D01*
X269753Y282307D01*
X269753Y299353D01*
X271221Y302899D01*
X273935Y305613D01*
X277481Y307081D01*
X281319Y307081D01*
X284865Y305613D01*
X287579Y302899D01*
X289047Y299353D01*
X289047Y282307D01*
X287579Y278761D01*
X284865Y276047D01*
X281319Y274579D01*
X277481Y274579D01*
G37*
%LPD*%
%LPC*%
G36*
X302881Y274579D02*
X302881Y274579D01*
X299335Y276047D01*
X296621Y278761D01*
X295153Y282307D01*
X295153Y299353D01*
X296621Y302899D01*
X299335Y305613D01*
X302881Y307081D01*
X306719Y307081D01*
X310265Y305613D01*
X312979Y302899D01*
X314447Y299353D01*
X314447Y282307D01*
X312979Y278761D01*
X310265Y276047D01*
X306719Y274579D01*
X302881Y274579D01*
G37*
%LPD*%
%LPC*%
G36*
X201281Y26929D02*
X201281Y26929D01*
X197735Y28397D01*
X195021Y31111D01*
X193553Y34657D01*
X193553Y51703D01*
X195021Y55249D01*
X197735Y57963D01*
X201281Y59431D01*
X205119Y59431D01*
X208665Y57963D01*
X211379Y55249D01*
X212847Y51703D01*
X212847Y34657D01*
X211379Y31111D01*
X208665Y28397D01*
X205119Y26929D01*
X201281Y26929D01*
G37*
%LPD*%
%LPC*%
G36*
X512177Y460253D02*
X512177Y460253D01*
X508631Y461721D01*
X505917Y464435D01*
X504449Y467981D01*
X504449Y471819D01*
X505917Y475365D01*
X508631Y478079D01*
X512177Y479547D01*
X529223Y479547D01*
X532769Y478079D01*
X535483Y475365D01*
X536951Y471819D01*
X536951Y467981D01*
X535483Y464435D01*
X532769Y461721D01*
X529223Y460253D01*
X512177Y460253D01*
G37*
%LPD*%
%LPC*%
G36*
X328281Y274579D02*
X328281Y274579D01*
X324735Y276047D01*
X322021Y278761D01*
X320553Y282307D01*
X320553Y299353D01*
X322021Y302899D01*
X324735Y305613D01*
X328281Y307081D01*
X332119Y307081D01*
X335665Y305613D01*
X338379Y302899D01*
X339847Y299353D01*
X339847Y282307D01*
X338379Y278761D01*
X335665Y276047D01*
X332119Y274579D01*
X328281Y274579D01*
G37*
%LPD*%
%LPC*%
G36*
X379081Y274579D02*
X379081Y274579D01*
X375535Y276047D01*
X372821Y278761D01*
X371353Y282307D01*
X371353Y299353D01*
X372821Y302899D01*
X375535Y305613D01*
X379081Y307081D01*
X382919Y307081D01*
X386465Y305613D01*
X389179Y302899D01*
X390647Y299353D01*
X390647Y282307D01*
X389179Y278761D01*
X386465Y276047D01*
X382919Y274579D01*
X379081Y274579D01*
G37*
%LPD*%
%LPC*%
G36*
X740777Y434853D02*
X740777Y434853D01*
X737231Y436321D01*
X734517Y439035D01*
X733049Y442581D01*
X733049Y446419D01*
X734517Y449965D01*
X737231Y452679D01*
X740777Y454147D01*
X757823Y454147D01*
X761369Y452679D01*
X764083Y449965D01*
X765551Y446419D01*
X765551Y442581D01*
X764083Y439035D01*
X761369Y436321D01*
X757823Y434853D01*
X740777Y434853D01*
G37*
%LPD*%
%LPC*%
G36*
X613777Y434853D02*
X613777Y434853D01*
X610231Y436321D01*
X607517Y439035D01*
X606049Y442581D01*
X606049Y446419D01*
X607517Y449965D01*
X610231Y452679D01*
X613777Y454147D01*
X630823Y454147D01*
X634369Y452679D01*
X637083Y449965D01*
X638551Y446419D01*
X638551Y442581D01*
X637083Y439035D01*
X634369Y436321D01*
X630823Y434853D01*
X613777Y434853D01*
G37*
%LPD*%
%LPC*%
G36*
X512177Y434853D02*
X512177Y434853D01*
X508631Y436321D01*
X505917Y439035D01*
X504449Y442581D01*
X504449Y446419D01*
X505917Y449965D01*
X508631Y452679D01*
X512177Y454147D01*
X529223Y454147D01*
X532769Y452679D01*
X535483Y449965D01*
X536951Y446419D01*
X536951Y442581D01*
X535483Y439035D01*
X532769Y436321D01*
X529223Y434853D01*
X512177Y434853D01*
G37*
%LPD*%
%LPC*%
G36*
X385177Y434853D02*
X385177Y434853D01*
X381631Y436321D01*
X378917Y439035D01*
X377449Y442581D01*
X377449Y446419D01*
X378917Y449965D01*
X381631Y452679D01*
X385177Y454147D01*
X402223Y454147D01*
X405769Y452679D01*
X408483Y449965D01*
X409951Y446419D01*
X409951Y442581D01*
X408483Y439035D01*
X405769Y436321D01*
X402223Y434853D01*
X385177Y434853D01*
G37*
%LPD*%
%LPC*%
G36*
X334377Y434853D02*
X334377Y434853D01*
X330831Y436321D01*
X328117Y439035D01*
X326649Y442581D01*
X326649Y446419D01*
X328117Y449965D01*
X330831Y452679D01*
X334377Y454147D01*
X351423Y454147D01*
X354969Y452679D01*
X357683Y449965D01*
X359151Y446419D01*
X359151Y442581D01*
X357683Y439035D01*
X354969Y436321D01*
X351423Y434853D01*
X334377Y434853D01*
G37*
%LPD*%
%LPC*%
G36*
X207377Y434853D02*
X207377Y434853D01*
X203831Y436321D01*
X201117Y439035D01*
X199649Y442581D01*
X199649Y446419D01*
X201117Y449965D01*
X203831Y452679D01*
X207377Y454147D01*
X224423Y454147D01*
X227969Y452679D01*
X230683Y449965D01*
X232151Y446419D01*
X232151Y442581D01*
X230683Y439035D01*
X227969Y436321D01*
X224423Y434853D01*
X207377Y434853D01*
G37*
%LPD*%
%LPC*%
G36*
X613777Y485653D02*
X613777Y485653D01*
X610231Y487121D01*
X607517Y489835D01*
X606049Y493381D01*
X606049Y497219D01*
X607517Y500765D01*
X610231Y503479D01*
X613777Y504947D01*
X630823Y504947D01*
X634369Y503479D01*
X637083Y500765D01*
X638551Y497219D01*
X638551Y493381D01*
X637083Y489835D01*
X634369Y487121D01*
X630823Y485653D01*
X613777Y485653D01*
G37*
%LPD*%
%LPC*%
G36*
X740777Y409453D02*
X740777Y409453D01*
X737231Y410921D01*
X734517Y413635D01*
X733049Y417181D01*
X733049Y421019D01*
X734517Y424565D01*
X737231Y427279D01*
X740777Y428747D01*
X757823Y428747D01*
X761369Y427279D01*
X764083Y424565D01*
X765551Y421019D01*
X765551Y417181D01*
X764083Y413635D01*
X761369Y410921D01*
X757823Y409453D01*
X740777Y409453D01*
G37*
%LPD*%
%LPC*%
G36*
X207377Y485653D02*
X207377Y485653D01*
X203831Y487121D01*
X201117Y489835D01*
X199649Y493381D01*
X199649Y497219D01*
X201117Y500765D01*
X203831Y503479D01*
X207377Y504947D01*
X224423Y504947D01*
X227969Y503479D01*
X230683Y500765D01*
X232151Y497219D01*
X232151Y493381D01*
X230683Y489835D01*
X227969Y487121D01*
X224423Y485653D01*
X207377Y485653D01*
G37*
%LPD*%
%LPC*%
G36*
X334377Y409453D02*
X334377Y409453D01*
X330831Y410921D01*
X328117Y413635D01*
X326649Y417181D01*
X326649Y421019D01*
X328117Y424565D01*
X330831Y427279D01*
X334377Y428747D01*
X351423Y428747D01*
X354969Y427279D01*
X357683Y424565D01*
X359151Y421019D01*
X359151Y417181D01*
X357683Y413635D01*
X354969Y410921D01*
X351423Y409453D01*
X334377Y409453D01*
G37*
%LPD*%
%LPC*%
G36*
X207377Y409453D02*
X207377Y409453D01*
X203831Y410921D01*
X201117Y413635D01*
X199649Y417181D01*
X199649Y421019D01*
X201117Y424565D01*
X203831Y427279D01*
X207377Y428747D01*
X224423Y428747D01*
X227969Y427279D01*
X230683Y424565D01*
X232151Y421019D01*
X232151Y417181D01*
X230683Y413635D01*
X227969Y410921D01*
X224423Y409453D01*
X207377Y409453D01*
G37*
%LPD*%
%LPC*%
G36*
X512177Y409453D02*
X512177Y409453D01*
X508631Y410921D01*
X505917Y413635D01*
X504449Y417181D01*
X504449Y421019D01*
X505917Y424565D01*
X508631Y427279D01*
X512177Y428747D01*
X529223Y428747D01*
X532769Y427279D01*
X535483Y424565D01*
X536951Y421019D01*
X536951Y417181D01*
X535483Y413635D01*
X532769Y410921D01*
X529223Y409453D01*
X512177Y409453D01*
G37*
%LPD*%
%LPC*%
G36*
X740777Y384053D02*
X740777Y384053D01*
X737231Y385521D01*
X734517Y388235D01*
X733049Y391781D01*
X733049Y395619D01*
X734517Y399165D01*
X737231Y401879D01*
X740777Y403347D01*
X757823Y403347D01*
X761369Y401879D01*
X764083Y399165D01*
X765551Y395619D01*
X765551Y391781D01*
X764083Y388235D01*
X761369Y385521D01*
X757823Y384053D01*
X740777Y384053D01*
G37*
%LPD*%
%LPC*%
G36*
X613777Y384053D02*
X613777Y384053D01*
X610231Y385521D01*
X607517Y388235D01*
X606049Y391781D01*
X606049Y395619D01*
X607517Y399165D01*
X610231Y401879D01*
X613777Y403347D01*
X630823Y403347D01*
X634369Y401879D01*
X637083Y399165D01*
X638551Y395619D01*
X638551Y391781D01*
X637083Y388235D01*
X634369Y385521D01*
X630823Y384053D01*
X613777Y384053D01*
G37*
%LPD*%
%LPC*%
G36*
X404481Y274579D02*
X404481Y274579D01*
X400935Y276047D01*
X398221Y278761D01*
X396753Y282307D01*
X396753Y299353D01*
X398221Y302899D01*
X400935Y305613D01*
X404481Y307081D01*
X408319Y307081D01*
X411865Y305613D01*
X414579Y302899D01*
X416047Y299353D01*
X416047Y282307D01*
X414579Y278761D01*
X411865Y276047D01*
X408319Y274579D01*
X404481Y274579D01*
G37*
%LPD*%
%LPC*%
G36*
X385177Y384053D02*
X385177Y384053D01*
X381631Y385521D01*
X378917Y388235D01*
X377449Y391781D01*
X377449Y395619D01*
X378917Y399165D01*
X381631Y401879D01*
X385177Y403347D01*
X402223Y403347D01*
X405769Y401879D01*
X408483Y399165D01*
X409951Y395619D01*
X409951Y391781D01*
X408483Y388235D01*
X405769Y385521D01*
X402223Y384053D01*
X385177Y384053D01*
G37*
%LPD*%
%LPC*%
G36*
X334377Y384053D02*
X334377Y384053D01*
X330831Y385521D01*
X328117Y388235D01*
X326649Y391781D01*
X326649Y395619D01*
X328117Y399165D01*
X330831Y401879D01*
X334377Y403347D01*
X351423Y403347D01*
X354969Y401879D01*
X357683Y399165D01*
X359151Y395619D01*
X359151Y391781D01*
X357683Y388235D01*
X354969Y385521D01*
X351423Y384053D01*
X334377Y384053D01*
G37*
%LPD*%
%LPC*%
G36*
X207377Y384053D02*
X207377Y384053D01*
X203831Y385521D01*
X201117Y388235D01*
X199649Y391781D01*
X199649Y395619D01*
X201117Y399165D01*
X203831Y401879D01*
X207377Y403347D01*
X224423Y403347D01*
X227969Y401879D01*
X230683Y399165D01*
X232151Y395619D01*
X232151Y391781D01*
X230683Y388235D01*
X227969Y385521D01*
X224423Y384053D01*
X207377Y384053D01*
G37*
%LPD*%
%LPC*%
G36*
X207377Y511053D02*
X207377Y511053D01*
X203831Y512521D01*
X201117Y515235D01*
X199649Y518781D01*
X199649Y522619D01*
X201117Y526165D01*
X203831Y528879D01*
X207377Y530347D01*
X224423Y530347D01*
X227969Y528879D01*
X230683Y526165D01*
X232151Y522619D01*
X232151Y518781D01*
X230683Y515235D01*
X227969Y512521D01*
X224423Y511053D01*
X207377Y511053D01*
G37*
%LPD*%
%LPC*%
G36*
X512177Y384053D02*
X512177Y384053D01*
X508631Y385521D01*
X505917Y388235D01*
X504449Y391781D01*
X504449Y395619D01*
X505917Y399165D01*
X508631Y401879D01*
X512177Y403347D01*
X529223Y403347D01*
X532769Y401879D01*
X535483Y399165D01*
X536951Y395619D01*
X536951Y391781D01*
X535483Y388235D01*
X532769Y385521D01*
X529223Y384053D01*
X512177Y384053D01*
G37*
%LPD*%
%LPC*%
G36*
X429881Y274579D02*
X429881Y274579D01*
X426335Y276047D01*
X423621Y278761D01*
X422153Y282307D01*
X422153Y299353D01*
X423621Y302899D01*
X426335Y305613D01*
X429881Y307081D01*
X433719Y307081D01*
X437265Y305613D01*
X439979Y302899D01*
X441447Y299353D01*
X441447Y282307D01*
X439979Y278761D01*
X437265Y276047D01*
X433719Y274579D01*
X429881Y274579D01*
G37*
%LPD*%
%LPC*%
G36*
X175881Y26929D02*
X175881Y26929D01*
X172335Y28397D01*
X169621Y31111D01*
X168153Y34657D01*
X168153Y51703D01*
X169621Y55249D01*
X172335Y57963D01*
X175881Y59431D01*
X179719Y59431D01*
X183265Y57963D01*
X185979Y55249D01*
X187447Y51703D01*
X187447Y34657D01*
X185979Y31111D01*
X183265Y28397D01*
X179719Y26929D01*
X175881Y26929D01*
G37*
%LPD*%
%LPC*%
G36*
X643241Y130053D02*
X643241Y130053D01*
X639695Y131521D01*
X636981Y134235D01*
X635513Y137781D01*
X635513Y141619D01*
X636981Y145165D01*
X639695Y147879D01*
X643241Y149347D01*
X660287Y149347D01*
X663833Y147879D01*
X666547Y145165D01*
X668015Y141619D01*
X668015Y137781D01*
X666547Y134235D01*
X663833Y131521D01*
X660287Y130053D01*
X643241Y130053D01*
G37*
%LPD*%
%LPC*%
G36*
X455281Y274579D02*
X455281Y274579D01*
X451735Y276047D01*
X449021Y278761D01*
X447553Y282307D01*
X447553Y299353D01*
X449021Y302899D01*
X451735Y305613D01*
X455281Y307081D01*
X459119Y307081D01*
X462665Y305613D01*
X465379Y302899D01*
X466847Y299353D01*
X466847Y282307D01*
X465379Y278761D01*
X462665Y276047D01*
X459119Y274579D01*
X455281Y274579D01*
G37*
%LPD*%
%LPC*%
G36*
X613777Y460253D02*
X613777Y460253D01*
X610231Y461721D01*
X607517Y464435D01*
X606049Y467981D01*
X606049Y471819D01*
X607517Y475365D01*
X610231Y478079D01*
X613777Y479547D01*
X630823Y479547D01*
X634369Y478079D01*
X637083Y475365D01*
X638551Y471819D01*
X638551Y467981D01*
X637083Y464435D01*
X634369Y461721D01*
X630823Y460253D01*
X613777Y460253D01*
G37*
%LPD*%
%LPC*%
G36*
X740777Y460253D02*
X740777Y460253D01*
X737231Y461721D01*
X734517Y464435D01*
X733049Y467981D01*
X733049Y471819D01*
X734517Y475365D01*
X737231Y478079D01*
X740777Y479547D01*
X757823Y479547D01*
X761369Y478079D01*
X764083Y475365D01*
X765551Y471819D01*
X765551Y467981D01*
X764083Y464435D01*
X761369Y461721D01*
X757823Y460253D01*
X740777Y460253D01*
G37*
%LPD*%
%LPC*%
G36*
X553833Y130053D02*
X553833Y130053D01*
X550287Y131521D01*
X547573Y134235D01*
X546105Y137781D01*
X546105Y141619D01*
X547573Y145165D01*
X550287Y147879D01*
X553833Y149347D01*
X570879Y149347D01*
X574425Y147879D01*
X577139Y145165D01*
X578607Y141619D01*
X578607Y137781D01*
X577139Y134235D01*
X574425Y131521D01*
X570879Y130053D01*
X553833Y130053D01*
G37*
%LPD*%
%LPC*%
G36*
X207377Y333253D02*
X207377Y333253D01*
X203831Y334721D01*
X201117Y337435D01*
X199649Y340981D01*
X199649Y344819D01*
X201117Y348365D01*
X203831Y351079D01*
X207377Y352547D01*
X224423Y352547D01*
X227969Y351079D01*
X230683Y348365D01*
X232151Y344819D01*
X232151Y340981D01*
X230683Y337435D01*
X227969Y334721D01*
X224423Y333253D01*
X207377Y333253D01*
G37*
%LPD*%
%LPC*%
G36*
X553833Y79253D02*
X553833Y79253D01*
X550287Y80721D01*
X547573Y83435D01*
X546105Y86981D01*
X546105Y90819D01*
X547573Y94365D01*
X550287Y97079D01*
X553833Y98547D01*
X570879Y98547D01*
X574425Y97079D01*
X577139Y94365D01*
X578607Y90819D01*
X578607Y86981D01*
X577139Y83435D01*
X574425Y80721D01*
X570879Y79253D01*
X553833Y79253D01*
G37*
%LPD*%
%LPC*%
G36*
X643241Y104653D02*
X643241Y104653D01*
X639695Y106121D01*
X636982Y108835D01*
X635513Y112381D01*
X635513Y116219D01*
X636981Y119765D01*
X639695Y122479D01*
X643241Y123947D01*
X660287Y123947D01*
X663833Y122479D01*
X666547Y119765D01*
X668015Y116219D01*
X668015Y112381D01*
X666546Y108835D01*
X663833Y106121D01*
X660287Y104653D01*
X643241Y104653D01*
G37*
%LPD*%
%LPC*%
G36*
X822329Y243967D02*
X822329Y243967D01*
X820547Y245749D01*
X820547Y262251D01*
X822329Y264033D01*
X838831Y264033D01*
X840613Y262251D01*
X840613Y245749D01*
X838831Y243967D01*
X822329Y243967D01*
G37*
%LPD*%
%LPC*%
G36*
X803184Y491617D02*
X803184Y491617D01*
X799497Y493144D01*
X796674Y495967D01*
X795147Y499654D01*
X795147Y503646D01*
X796674Y507333D01*
X799497Y510156D01*
X803184Y511683D01*
X807176Y511683D01*
X810863Y510156D01*
X813686Y507333D01*
X815213Y503646D01*
X815213Y499654D01*
X813686Y495967D01*
X810863Y493144D01*
X807176Y491617D01*
X803184Y491617D01*
G37*
%LPD*%
%LPC*%
G36*
X803184Y256667D02*
X803184Y256667D01*
X799497Y258194D01*
X796674Y261017D01*
X795147Y264704D01*
X795147Y268696D01*
X796674Y272383D01*
X799497Y275206D01*
X803184Y276733D01*
X807176Y276733D01*
X810863Y275206D01*
X813686Y272383D01*
X815213Y268696D01*
X815213Y264704D01*
X813686Y261017D01*
X810863Y258194D01*
X807176Y256667D01*
X803184Y256667D01*
G37*
%LPD*%
%LPC*%
G36*
X803184Y466217D02*
X803184Y466217D01*
X799497Y467744D01*
X796674Y470567D01*
X795147Y474254D01*
X795147Y478246D01*
X796674Y481933D01*
X799497Y484756D01*
X803184Y486283D01*
X807176Y486283D01*
X810863Y484756D01*
X813686Y481933D01*
X815213Y478246D01*
X815213Y474254D01*
X813686Y470567D01*
X810863Y467744D01*
X807176Y466217D01*
X803184Y466217D01*
G37*
%LPD*%
%LPC*%
G36*
X828584Y320167D02*
X828584Y320167D01*
X824897Y321694D01*
X822074Y324517D01*
X820547Y328204D01*
X820547Y332196D01*
X822074Y335883D01*
X824897Y338706D01*
X828584Y340233D01*
X832576Y340233D01*
X836263Y338706D01*
X839086Y335883D01*
X840613Y332196D01*
X840613Y328204D01*
X839086Y324517D01*
X836263Y321694D01*
X832576Y320167D01*
X828584Y320167D01*
G37*
%LPD*%
%LPC*%
G36*
X803184Y282067D02*
X803184Y282067D01*
X799497Y283594D01*
X796674Y286417D01*
X795147Y290104D01*
X795147Y294096D01*
X796674Y297783D01*
X799497Y300606D01*
X803184Y302133D01*
X807176Y302133D01*
X810863Y300606D01*
X813686Y297783D01*
X815213Y294096D01*
X815213Y290104D01*
X813686Y286417D01*
X810863Y283594D01*
X807176Y282067D01*
X803184Y282067D01*
G37*
%LPD*%
%LPC*%
G36*
X828584Y269367D02*
X828584Y269367D01*
X824897Y270894D01*
X822074Y273717D01*
X820547Y277404D01*
X820547Y281396D01*
X822074Y285083D01*
X824897Y287906D01*
X828584Y289433D01*
X832576Y289433D01*
X836263Y287906D01*
X839086Y285083D01*
X840613Y281396D01*
X840613Y277404D01*
X839086Y273717D01*
X836263Y270894D01*
X832576Y269367D01*
X828584Y269367D01*
G37*
%LPD*%
%LPC*%
G36*
X803184Y307467D02*
X803184Y307467D01*
X799497Y308994D01*
X796674Y311817D01*
X795147Y315504D01*
X795147Y319496D01*
X796674Y323183D01*
X799497Y326006D01*
X803184Y327533D01*
X807176Y327533D01*
X810863Y326006D01*
X813686Y323183D01*
X815213Y319496D01*
X815213Y315504D01*
X813686Y311817D01*
X810863Y308994D01*
X807176Y307467D01*
X803184Y307467D01*
G37*
%LPD*%
%LPC*%
G36*
X828584Y294767D02*
X828584Y294767D01*
X824897Y296294D01*
X822074Y299117D01*
X820547Y302804D01*
X820547Y306796D01*
X822074Y310483D01*
X824897Y313306D01*
X828584Y314833D01*
X832576Y314833D01*
X836263Y313306D01*
X839086Y310483D01*
X840613Y306796D01*
X840613Y302804D01*
X839086Y299117D01*
X836263Y296294D01*
X832576Y294767D01*
X828584Y294767D01*
G37*
%LPD*%
%LPC*%
G36*
X803184Y517017D02*
X803184Y517017D01*
X799497Y518544D01*
X796674Y521367D01*
X795147Y525054D01*
X795147Y529046D01*
X796674Y532733D01*
X799497Y535556D01*
X803184Y537083D01*
X807176Y537083D01*
X810863Y535556D01*
X813686Y532733D01*
X815213Y529046D01*
X815213Y525054D01*
X813686Y521367D01*
X810863Y518544D01*
X807176Y517017D01*
X803184Y517017D01*
G37*
%LPD*%
%LPC*%
G36*
X828584Y504317D02*
X828584Y504317D01*
X824897Y505844D01*
X822074Y508667D01*
X820547Y512354D01*
X820547Y516346D01*
X822074Y520033D01*
X824897Y522856D01*
X828584Y524383D01*
X832576Y524383D01*
X836263Y522856D01*
X839086Y520033D01*
X840613Y516346D01*
X840613Y512354D01*
X839086Y508667D01*
X836263Y505844D01*
X832576Y504317D01*
X828584Y504317D01*
G37*
%LPD*%
%LPC*%
G36*
X803184Y440817D02*
X803184Y440817D01*
X799497Y442344D01*
X796674Y445167D01*
X795147Y448854D01*
X795147Y452846D01*
X796674Y456533D01*
X799497Y459356D01*
X803184Y460883D01*
X807176Y460883D01*
X810863Y459356D01*
X813686Y456533D01*
X815213Y452846D01*
X815213Y448854D01*
X813686Y445167D01*
X810863Y442344D01*
X807176Y440817D01*
X803184Y440817D01*
G37*
%LPD*%
%LPC*%
G36*
X828584Y478917D02*
X828584Y478917D01*
X824897Y480444D01*
X822074Y483267D01*
X820547Y486954D01*
X820547Y490946D01*
X822074Y494633D01*
X824897Y497456D01*
X828584Y498983D01*
X832576Y498983D01*
X836263Y497456D01*
X839086Y494633D01*
X840613Y490946D01*
X840613Y486954D01*
X839086Y483267D01*
X836263Y480444D01*
X832576Y478917D01*
X828584Y478917D01*
G37*
%LPD*%
%LPC*%
G36*
X828584Y453517D02*
X828584Y453517D01*
X824897Y455044D01*
X822074Y457867D01*
X820547Y461554D01*
X820547Y465546D01*
X822074Y469233D01*
X824897Y472056D01*
X828584Y473583D01*
X832576Y473583D01*
X836263Y472056D01*
X839086Y469233D01*
X840613Y465546D01*
X840613Y461554D01*
X839086Y457867D01*
X836263Y455044D01*
X832576Y453517D01*
X828584Y453517D01*
G37*
%LPD*%
%LPC*%
G36*
X803184Y332867D02*
X803184Y332867D01*
X799497Y334394D01*
X796674Y337217D01*
X795147Y340904D01*
X795147Y344896D01*
X796674Y348583D01*
X799497Y351406D01*
X803184Y352933D01*
X807176Y352933D01*
X810863Y351406D01*
X813686Y348583D01*
X815213Y344896D01*
X815213Y340904D01*
X813686Y337217D01*
X810863Y334394D01*
X807176Y332867D01*
X803184Y332867D01*
G37*
%LPD*%
%LPC*%
G36*
X101605Y43185D02*
X101605Y43185D01*
X101605Y58923D01*
X102500Y58923D01*
X104266Y58572D01*
X105929Y57883D01*
X107426Y56883D01*
X108699Y55610D01*
X109699Y54113D01*
X110388Y52450D01*
X110739Y50684D01*
X110739Y43185D01*
X101605Y43185D01*
G37*
%LPD*%
%LPC*%
G36*
X504957Y368305D02*
X504957Y368305D01*
X504957Y369200D01*
X504961Y369222D01*
X504964Y369237D01*
X504969Y369262D01*
X504972Y369277D01*
X504975Y369292D01*
X504977Y369302D01*
X504980Y369316D01*
X504983Y369331D01*
X504985Y369341D01*
X504988Y369356D01*
X504991Y369371D01*
X504993Y369381D01*
X504996Y369396D01*
X504999Y369411D01*
X505004Y369436D01*
X505007Y369451D01*
X505012Y369475D01*
X505015Y369490D01*
X505019Y369515D01*
X505022Y369530D01*
X505025Y369545D01*
X505027Y369555D01*
X505030Y369570D01*
X505033Y369585D01*
X505035Y369595D01*
X505038Y369610D01*
X505041Y369624D01*
X505041Y369625D01*
X505043Y369634D01*
X505046Y369649D01*
X505049Y369664D01*
X505054Y369689D01*
X505057Y369704D01*
X505062Y369729D01*
X505065Y369744D01*
X505070Y369769D01*
X505073Y369783D01*
X505073Y369784D01*
X505076Y369798D01*
X505078Y369808D01*
X505081Y369823D01*
X505084Y369838D01*
X505086Y369848D01*
X505089Y369863D01*
X505092Y369878D01*
X505094Y369888D01*
X505097Y369903D01*
X505100Y369918D01*
X505104Y369942D01*
X505104Y369943D01*
X505107Y369957D01*
X505112Y369982D01*
X505115Y369997D01*
X505120Y370022D01*
X505123Y370037D01*
X505128Y370062D01*
X505131Y370077D01*
X505134Y370092D01*
X505136Y370101D01*
X505136Y370102D01*
X505139Y370116D01*
X505142Y370131D01*
X505144Y370141D01*
X505147Y370156D01*
X505150Y370171D01*
X505152Y370181D01*
X505155Y370196D01*
X505158Y370211D01*
X505163Y370236D01*
X505166Y370251D01*
X505171Y370275D01*
X505174Y370290D01*
X505179Y370315D01*
X505182Y370330D01*
X505185Y370345D01*
X505186Y370355D01*
X505187Y370355D01*
X505189Y370370D01*
X505192Y370385D01*
X505194Y370395D01*
X505197Y370410D01*
X505200Y370424D01*
X505200Y370425D01*
X505202Y370434D01*
X505205Y370449D01*
X505208Y370464D01*
X505213Y370489D01*
X505216Y370504D01*
X505221Y370529D01*
X505224Y370544D01*
X505229Y370569D01*
X505232Y370583D01*
X505232Y370584D01*
X505237Y370608D01*
X505240Y370623D01*
X505243Y370638D01*
X505245Y370648D01*
X505248Y370663D01*
X505251Y370678D01*
X505253Y370688D01*
X505256Y370703D01*
X505259Y370718D01*
X505261Y370728D01*
X505264Y370742D01*
X505264Y370743D01*
X505267Y370757D01*
X505271Y370782D01*
X505272Y370782D01*
X505274Y370797D01*
X505279Y370822D01*
X505282Y370837D01*
X505287Y370862D01*
X505290Y370877D01*
X505293Y370892D01*
X505295Y370901D01*
X505295Y370902D01*
X505298Y370916D01*
X505301Y370931D01*
X505303Y370941D01*
X505306Y370956D01*
X505308Y370966D01*
X505997Y372629D01*
X506997Y374126D01*
X508270Y375399D01*
X509767Y376399D01*
X511430Y377088D01*
X513196Y377439D01*
X520695Y377439D01*
X520695Y368305D01*
X504957Y368305D01*
G37*
%LPD*%
%LPC*%
G36*
X733557Y368305D02*
X733557Y368305D01*
X733557Y369200D01*
X733561Y369222D01*
X733564Y369237D01*
X733569Y369262D01*
X733572Y369277D01*
X733575Y369292D01*
X733577Y369302D01*
X733580Y369316D01*
X733583Y369331D01*
X733585Y369341D01*
X733588Y369356D01*
X733591Y369371D01*
X733593Y369381D01*
X733596Y369396D01*
X733599Y369411D01*
X733604Y369436D01*
X733607Y369451D01*
X733612Y369475D01*
X733615Y369490D01*
X733619Y369515D01*
X733622Y369530D01*
X733625Y369545D01*
X733627Y369555D01*
X733630Y369570D01*
X733633Y369585D01*
X733635Y369595D01*
X733638Y369610D01*
X733641Y369624D01*
X733641Y369625D01*
X733643Y369634D01*
X733646Y369649D01*
X733649Y369664D01*
X733654Y369689D01*
X733657Y369704D01*
X733662Y369729D01*
X733665Y369744D01*
X733670Y369769D01*
X733673Y369783D01*
X733673Y369784D01*
X733676Y369798D01*
X733678Y369808D01*
X733681Y369823D01*
X733684Y369838D01*
X733686Y369848D01*
X733689Y369863D01*
X733692Y369878D01*
X733694Y369888D01*
X733697Y369903D01*
X733700Y369918D01*
X733704Y369942D01*
X733704Y369943D01*
X733707Y369957D01*
X733712Y369982D01*
X733715Y369997D01*
X733720Y370022D01*
X733723Y370037D01*
X733728Y370062D01*
X733731Y370077D01*
X733734Y370092D01*
X733736Y370101D01*
X733736Y370102D01*
X733739Y370116D01*
X733742Y370131D01*
X733744Y370141D01*
X733747Y370156D01*
X733750Y370171D01*
X733752Y370181D01*
X733755Y370196D01*
X733758Y370211D01*
X733763Y370236D01*
X733766Y370251D01*
X733771Y370275D01*
X733774Y370290D01*
X733779Y370315D01*
X733782Y370330D01*
X733785Y370345D01*
X733786Y370355D01*
X733787Y370355D01*
X733789Y370370D01*
X733792Y370385D01*
X733794Y370395D01*
X733797Y370410D01*
X733800Y370424D01*
X733800Y370425D01*
X733802Y370434D01*
X733805Y370449D01*
X733808Y370464D01*
X733813Y370489D01*
X733816Y370504D01*
X733821Y370529D01*
X733824Y370544D01*
X733829Y370569D01*
X733832Y370583D01*
X733832Y370584D01*
X733837Y370608D01*
X733840Y370623D01*
X733843Y370638D01*
X733845Y370648D01*
X733848Y370663D01*
X733851Y370678D01*
X733853Y370688D01*
X733856Y370703D01*
X733859Y370718D01*
X733861Y370728D01*
X733864Y370742D01*
X733864Y370743D01*
X733867Y370757D01*
X733871Y370782D01*
X733872Y370782D01*
X733874Y370797D01*
X733879Y370822D01*
X733882Y370837D01*
X733887Y370862D01*
X733890Y370877D01*
X733893Y370892D01*
X733895Y370901D01*
X733895Y370902D01*
X733898Y370916D01*
X733901Y370931D01*
X733903Y370941D01*
X733906Y370956D01*
X733908Y370966D01*
X734597Y372629D01*
X735597Y374126D01*
X736870Y375399D01*
X738367Y376399D01*
X740030Y377088D01*
X741796Y377439D01*
X749295Y377439D01*
X749295Y368305D01*
X733557Y368305D01*
G37*
%LPD*%
%LPC*%
G36*
X327157Y368305D02*
X327157Y368305D01*
X327157Y369200D01*
X327161Y369222D01*
X327164Y369237D01*
X327169Y369262D01*
X327172Y369277D01*
X327175Y369292D01*
X327177Y369302D01*
X327180Y369316D01*
X327183Y369331D01*
X327185Y369341D01*
X327188Y369356D01*
X327191Y369371D01*
X327193Y369381D01*
X327196Y369396D01*
X327199Y369411D01*
X327204Y369436D01*
X327207Y369451D01*
X327212Y369475D01*
X327215Y369490D01*
X327219Y369515D01*
X327222Y369530D01*
X327225Y369545D01*
X327227Y369555D01*
X327230Y369570D01*
X327233Y369585D01*
X327235Y369595D01*
X327238Y369610D01*
X327241Y369624D01*
X327241Y369625D01*
X327243Y369634D01*
X327246Y369649D01*
X327249Y369664D01*
X327254Y369689D01*
X327257Y369704D01*
X327262Y369729D01*
X327265Y369744D01*
X327270Y369769D01*
X327273Y369783D01*
X327273Y369784D01*
X327276Y369798D01*
X327278Y369808D01*
X327281Y369823D01*
X327284Y369838D01*
X327286Y369848D01*
X327289Y369863D01*
X327292Y369878D01*
X327294Y369888D01*
X327297Y369903D01*
X327300Y369918D01*
X327304Y369942D01*
X327304Y369943D01*
X327307Y369957D01*
X327312Y369982D01*
X327315Y369997D01*
X327320Y370022D01*
X327323Y370037D01*
X327328Y370062D01*
X327331Y370077D01*
X327334Y370092D01*
X327336Y370101D01*
X327336Y370102D01*
X327339Y370116D01*
X327342Y370131D01*
X327344Y370141D01*
X327347Y370156D01*
X327350Y370171D01*
X327352Y370181D01*
X327355Y370196D01*
X327358Y370211D01*
X327363Y370236D01*
X327366Y370251D01*
X327371Y370275D01*
X327374Y370290D01*
X327379Y370315D01*
X327382Y370330D01*
X327385Y370345D01*
X327386Y370355D01*
X327387Y370355D01*
X327389Y370370D01*
X327392Y370385D01*
X327394Y370395D01*
X327397Y370410D01*
X327400Y370424D01*
X327400Y370425D01*
X327402Y370434D01*
X327405Y370449D01*
X327408Y370464D01*
X327413Y370489D01*
X327416Y370504D01*
X327421Y370529D01*
X327424Y370544D01*
X327429Y370569D01*
X327432Y370583D01*
X327432Y370584D01*
X327437Y370608D01*
X327440Y370623D01*
X327443Y370638D01*
X327445Y370648D01*
X327448Y370663D01*
X327451Y370678D01*
X327453Y370688D01*
X327456Y370703D01*
X327459Y370718D01*
X327461Y370728D01*
X327464Y370742D01*
X327464Y370743D01*
X327467Y370757D01*
X327471Y370782D01*
X327472Y370782D01*
X327474Y370797D01*
X327479Y370822D01*
X327482Y370837D01*
X327487Y370862D01*
X327490Y370877D01*
X327493Y370892D01*
X327495Y370901D01*
X327495Y370902D01*
X327498Y370916D01*
X327501Y370931D01*
X327503Y370941D01*
X327506Y370956D01*
X327508Y370966D01*
X328197Y372629D01*
X329197Y374126D01*
X330470Y375399D01*
X331967Y376399D01*
X333630Y377088D01*
X335396Y377439D01*
X342895Y377439D01*
X342895Y368305D01*
X327157Y368305D01*
G37*
%LPD*%
%LPC*%
G36*
X200157Y469905D02*
X200157Y469905D01*
X200157Y470800D01*
X200157Y470803D01*
X200162Y470828D01*
X200165Y470843D01*
X200170Y470868D01*
X200173Y470883D01*
X200176Y470898D01*
X200178Y470907D01*
X200178Y470908D01*
X200181Y470922D01*
X200184Y470937D01*
X200186Y470947D01*
X200189Y470962D01*
X200192Y470977D01*
X200194Y470987D01*
X200197Y471002D01*
X200200Y471017D01*
X200205Y471042D01*
X200208Y471057D01*
X200213Y471081D01*
X200216Y471096D01*
X200221Y471121D01*
X200224Y471136D01*
X200227Y471151D01*
X200229Y471161D01*
X200232Y471176D01*
X200234Y471191D01*
X200235Y471191D01*
X200234Y471191D01*
X200236Y471201D01*
X200239Y471216D01*
X200242Y471230D01*
X200242Y471231D01*
X200244Y471240D01*
X200247Y471255D01*
X200250Y471270D01*
X200252Y471280D01*
X200255Y471295D01*
X200258Y471310D01*
X200263Y471335D01*
X200266Y471350D01*
X200271Y471375D01*
X200274Y471389D01*
X200274Y471390D01*
X200279Y471414D01*
X200282Y471429D01*
X200285Y471444D01*
X200287Y471454D01*
X200290Y471469D01*
X200293Y471484D01*
X200295Y471494D01*
X200298Y471509D01*
X200301Y471524D01*
X200303Y471534D01*
X200306Y471548D01*
X200306Y471549D01*
X200309Y471563D01*
X200314Y471588D01*
X200317Y471603D01*
X200321Y471628D01*
X200324Y471643D01*
X200329Y471668D01*
X200332Y471683D01*
X200335Y471698D01*
X200337Y471707D01*
X200337Y471708D01*
X200340Y471722D01*
X200343Y471737D01*
X200345Y471747D01*
X200348Y471762D01*
X200351Y471777D01*
X200353Y471787D01*
X200356Y471802D01*
X200359Y471817D01*
X200364Y471842D01*
X200367Y471857D01*
X200372Y471881D01*
X200375Y471896D01*
X200380Y471921D01*
X200383Y471936D01*
X200388Y471961D01*
X200391Y471976D01*
X200394Y471991D01*
X200396Y472001D01*
X200399Y472016D01*
X200402Y472030D01*
X200403Y472040D01*
X200404Y472040D01*
X200406Y472055D01*
X200409Y472070D01*
X200411Y472080D01*
X200414Y472095D01*
X200417Y472110D01*
X200422Y472135D01*
X200425Y472150D01*
X200430Y472175D01*
X200433Y472189D01*
X200438Y472214D01*
X200441Y472229D01*
X200444Y472244D01*
X200446Y472254D01*
X200449Y472269D01*
X200452Y472284D01*
X200454Y472294D01*
X200457Y472309D01*
X200460Y472324D01*
X200462Y472334D01*
X200465Y472348D01*
X200468Y472363D01*
X200473Y472388D01*
X200476Y472403D01*
X200481Y472428D01*
X200484Y472443D01*
X200488Y472468D01*
X200489Y472468D01*
X200491Y472483D01*
X200494Y472497D01*
X200494Y472498D01*
X200496Y472507D01*
X200499Y472522D01*
X200502Y472537D01*
X200504Y472547D01*
X200507Y472562D01*
X200508Y472566D01*
X201197Y474229D01*
X202197Y475726D01*
X203470Y476999D01*
X204967Y477999D01*
X206630Y478688D01*
X208396Y479039D01*
X215895Y479039D01*
X215895Y469905D01*
X200157Y469905D01*
G37*
%LPD*%
%LPC*%
G36*
X520705Y368305D02*
X520705Y368305D01*
X520705Y377439D01*
X528204Y377439D01*
X529970Y377088D01*
X531633Y376399D01*
X533130Y375399D01*
X534403Y374126D01*
X535403Y372629D01*
X536092Y370966D01*
X536443Y369200D01*
X536443Y368305D01*
X520705Y368305D01*
G37*
%LPD*%
%LPC*%
G36*
X215905Y469905D02*
X215905Y469905D01*
X215905Y479039D01*
X223404Y479039D01*
X225170Y478688D01*
X226833Y477999D01*
X228330Y476999D01*
X229603Y475726D01*
X230603Y474229D01*
X231292Y472566D01*
X231643Y470800D01*
X231643Y469905D01*
X215905Y469905D01*
G37*
%LPD*%
%LPC*%
G36*
X342905Y368305D02*
X342905Y368305D01*
X342905Y377439D01*
X350404Y377439D01*
X352170Y377088D01*
X353833Y376399D01*
X355330Y375399D01*
X356603Y374126D01*
X357603Y372629D01*
X358292Y370966D01*
X358643Y369200D01*
X358643Y368305D01*
X342905Y368305D01*
G37*
%LPD*%
%LPC*%
G36*
X749305Y368305D02*
X749305Y368305D01*
X749305Y377439D01*
X756804Y377439D01*
X758570Y377088D01*
X760233Y376399D01*
X761730Y375399D01*
X763003Y374126D01*
X764003Y372629D01*
X764692Y370966D01*
X765043Y369200D01*
X765043Y368305D01*
X749305Y368305D01*
G37*
%LPD*%
%LPC*%
G36*
X101605Y27437D02*
X101605Y27437D01*
X101605Y43175D01*
X110739Y43175D01*
X110739Y35676D01*
X110738Y35671D01*
X110736Y35661D01*
X110733Y35646D01*
X110730Y35631D01*
X110728Y35621D01*
X110725Y35607D01*
X110725Y35606D01*
X110722Y35592D01*
X110718Y35567D01*
X110717Y35567D01*
X110715Y35552D01*
X110710Y35527D01*
X110707Y35512D01*
X110702Y35487D01*
X110699Y35472D01*
X110696Y35457D01*
X110694Y35448D01*
X110694Y35447D01*
X110691Y35433D01*
X110688Y35418D01*
X110686Y35408D01*
X110683Y35393D01*
X110680Y35378D01*
X110678Y35368D01*
X110675Y35353D01*
X110672Y35338D01*
X110667Y35313D01*
X110664Y35298D01*
X110659Y35274D01*
X110656Y35259D01*
X110651Y35234D01*
X110648Y35219D01*
X110643Y35194D01*
X110640Y35179D01*
X110637Y35164D01*
X110635Y35154D01*
X110633Y35139D01*
X110632Y35139D01*
X110633Y35139D01*
X110630Y35125D01*
X110628Y35115D01*
X110625Y35100D01*
X110622Y35085D01*
X110620Y35075D01*
X110617Y35060D01*
X110614Y35045D01*
X110609Y35020D01*
X110606Y35005D01*
X110601Y34980D01*
X110598Y34966D01*
X110593Y34941D01*
X110590Y34926D01*
X110587Y34911D01*
X110585Y34901D01*
X110582Y34886D01*
X110579Y34871D01*
X110577Y34861D01*
X110574Y34846D01*
X110571Y34831D01*
X110569Y34821D01*
X110566Y34807D01*
X110563Y34792D01*
X110558Y34767D01*
X110555Y34752D01*
X110550Y34727D01*
X110548Y34712D01*
X110547Y34712D01*
X110548Y34712D01*
X110543Y34687D01*
X110540Y34672D01*
X110537Y34658D01*
X110537Y34657D01*
X110535Y34648D01*
X110532Y34633D01*
X110529Y34618D01*
X110527Y34608D01*
X110524Y34593D01*
X110521Y34578D01*
X110519Y34568D01*
X110516Y34553D01*
X110513Y34538D01*
X110511Y34528D01*
X110508Y34513D01*
X110505Y34499D01*
X110505Y34498D01*
X110500Y34474D01*
X110497Y34459D01*
X110492Y34434D01*
X110489Y34419D01*
X110484Y34394D01*
X110481Y34379D01*
X110478Y34364D01*
X110476Y34354D01*
X110473Y34340D01*
X110473Y34339D01*
X110470Y34325D01*
X110468Y34315D01*
X110465Y34300D01*
X110463Y34285D01*
X110462Y34285D01*
X110463Y34285D01*
X110461Y34275D01*
X110458Y34260D01*
X110455Y34245D01*
X110450Y34220D01*
X110447Y34205D01*
X110442Y34181D01*
X110442Y34180D01*
X110439Y34166D01*
X110434Y34141D01*
X110431Y34126D01*
X110428Y34111D01*
X110426Y34101D01*
X110423Y34086D01*
X110420Y34071D01*
X110418Y34061D01*
X110415Y34046D01*
X110412Y34031D01*
X110410Y34022D01*
X110410Y34021D01*
X110407Y34007D01*
X110404Y33992D01*
X110399Y33967D01*
X110396Y33952D01*
X110391Y33927D01*
X110388Y33912D01*
X110388Y33910D01*
X109699Y32247D01*
X108699Y30750D01*
X107426Y29477D01*
X105929Y28477D01*
X104266Y27788D01*
X102500Y27437D01*
X101605Y27437D01*
G37*
%LPD*%
%LPC*%
G36*
X92461Y43185D02*
X92461Y43185D01*
X92461Y50684D01*
X92463Y50695D01*
X92466Y50710D01*
X92471Y50735D01*
X92474Y50750D01*
X92479Y50775D01*
X92482Y50790D01*
X92485Y50805D01*
X92487Y50815D01*
X92490Y50829D01*
X92490Y50830D01*
X92493Y50844D01*
X92495Y50854D01*
X92498Y50869D01*
X92501Y50884D01*
X92503Y50894D01*
X92506Y50909D01*
X92508Y50924D01*
X92509Y50924D01*
X92508Y50924D01*
X92513Y50949D01*
X92516Y50964D01*
X92521Y50988D01*
X92521Y50989D01*
X92524Y51003D01*
X92529Y51028D01*
X92532Y51043D01*
X92537Y51068D01*
X92540Y51083D01*
X92543Y51098D01*
X92545Y51108D01*
X92548Y51123D01*
X92551Y51138D01*
X92553Y51147D01*
X92553Y51148D01*
X92556Y51162D01*
X92559Y51177D01*
X92561Y51187D01*
X92564Y51202D01*
X92567Y51217D01*
X92572Y51242D01*
X92575Y51257D01*
X92580Y51282D01*
X92583Y51297D01*
X92588Y51321D01*
X92591Y51336D01*
X92593Y51351D01*
X92594Y51351D01*
X92593Y51351D01*
X92595Y51361D01*
X92598Y51376D01*
X92601Y51391D01*
X92603Y51401D01*
X92606Y51416D01*
X92609Y51431D01*
X92611Y51441D01*
X92614Y51456D01*
X92617Y51470D01*
X92617Y51471D01*
X92622Y51495D01*
X92625Y51510D01*
X92630Y51535D01*
X92633Y51550D01*
X92638Y51575D01*
X92641Y51590D01*
X92644Y51605D01*
X92646Y51615D01*
X92649Y51629D01*
X92649Y51630D01*
X92652Y51644D01*
X92654Y51654D01*
X92657Y51669D01*
X92660Y51684D01*
X92662Y51694D01*
X92665Y51709D01*
X92668Y51724D01*
X92673Y51749D01*
X92676Y51764D01*
X92680Y51788D01*
X92680Y51789D01*
X92683Y51803D01*
X92688Y51828D01*
X92691Y51843D01*
X92696Y51868D01*
X92699Y51883D01*
X92702Y51898D01*
X92704Y51908D01*
X92707Y51923D01*
X92710Y51938D01*
X92712Y51947D01*
X92715Y51962D01*
X92718Y51977D01*
X92720Y51987D01*
X92723Y52002D01*
X92726Y52017D01*
X92731Y52042D01*
X92734Y52057D01*
X92739Y52082D01*
X92742Y52097D01*
X92747Y52121D01*
X92750Y52136D01*
X92753Y52151D01*
X92755Y52161D01*
X92758Y52176D01*
X92761Y52191D01*
X92762Y52201D01*
X92763Y52201D01*
X92765Y52216D01*
X92768Y52231D01*
X92770Y52241D01*
X92773Y52256D01*
X92776Y52270D01*
X92781Y52295D01*
X92784Y52310D01*
X92789Y52335D01*
X92792Y52350D01*
X92797Y52375D01*
X92800Y52390D01*
X92805Y52415D01*
X92808Y52429D01*
X92811Y52444D01*
X92812Y52450D01*
X93501Y54113D01*
X94501Y55610D01*
X95774Y56883D01*
X97271Y57883D01*
X98934Y58572D01*
X100700Y58923D01*
X101595Y58923D01*
X101595Y43185D01*
X92461Y43185D01*
G37*
%LPD*%
%LPC*%
G36*
X520705Y359161D02*
X520705Y359161D01*
X520705Y368295D01*
X536443Y368295D01*
X536443Y367400D01*
X536442Y367395D01*
X536440Y367385D01*
X536437Y367370D01*
X536434Y367355D01*
X536432Y367345D01*
X536429Y367330D01*
X536426Y367315D01*
X536424Y367305D01*
X536421Y367290D01*
X536418Y367276D01*
X536414Y367251D01*
X536411Y367236D01*
X536406Y367211D01*
X536403Y367196D01*
X536398Y367171D01*
X536395Y367156D01*
X536392Y367141D01*
X536390Y367131D01*
X536387Y367117D01*
X536384Y367102D01*
X536382Y367092D01*
X536379Y367077D01*
X536376Y367062D01*
X536374Y367052D01*
X536371Y367037D01*
X536368Y367022D01*
X536363Y366997D01*
X536360Y366982D01*
X536355Y366958D01*
X536352Y366943D01*
X536347Y366918D01*
X536344Y366903D01*
X536341Y366888D01*
X536339Y366878D01*
X536336Y366863D01*
X536333Y366848D01*
X536332Y366838D01*
X536331Y366838D01*
X536329Y366823D01*
X536326Y366809D01*
X536326Y366808D01*
X536324Y366799D01*
X536321Y366784D01*
X536318Y366769D01*
X536313Y366744D01*
X536310Y366729D01*
X536305Y366704D01*
X536302Y366689D01*
X536297Y366664D01*
X536294Y366650D01*
X536294Y366649D01*
X536289Y366625D01*
X536286Y366610D01*
X536283Y366595D01*
X536281Y366585D01*
X536278Y366570D01*
X536275Y366555D01*
X536273Y366545D01*
X536270Y366530D01*
X536267Y366515D01*
X536265Y366505D01*
X536262Y366491D01*
X536262Y366490D01*
X536259Y366476D01*
X536254Y366451D01*
X536251Y366436D01*
X536247Y366411D01*
X536246Y366411D01*
X536244Y366396D01*
X536239Y366371D01*
X536236Y366356D01*
X536233Y366341D01*
X536231Y366332D01*
X536231Y366331D01*
X536228Y366317D01*
X536225Y366302D01*
X536223Y366292D01*
X536220Y366277D01*
X536217Y366262D01*
X536215Y366252D01*
X536212Y366237D01*
X536209Y366222D01*
X536204Y366197D01*
X536201Y366182D01*
X536196Y366158D01*
X536193Y366143D01*
X536188Y366118D01*
X536185Y366103D01*
X536182Y366088D01*
X536180Y366078D01*
X536177Y366063D01*
X536174Y366048D01*
X536172Y366038D01*
X536169Y366023D01*
X536166Y366009D01*
X536166Y366008D01*
X536164Y365999D01*
X536162Y365984D01*
X536161Y365984D01*
X536162Y365984D01*
X536159Y365969D01*
X536157Y365959D01*
X536154Y365944D01*
X536151Y365929D01*
X536146Y365904D01*
X536143Y365889D01*
X536138Y365864D01*
X536135Y365850D01*
X536135Y365849D01*
X536130Y365825D01*
X536127Y365810D01*
X536124Y365795D01*
X536122Y365785D01*
X536119Y365770D01*
X536116Y365755D01*
X536114Y365745D01*
X536111Y365730D01*
X536108Y365715D01*
X536106Y365705D01*
X536103Y365691D01*
X536103Y365690D01*
X536100Y365676D01*
X536095Y365651D01*
X536092Y365636D01*
X536092Y365634D01*
X535403Y363971D01*
X534403Y362474D01*
X533130Y361201D01*
X531633Y360201D01*
X529970Y359512D01*
X528204Y359161D01*
X520705Y359161D01*
G37*
%LPD*%
%LPC*%
G36*
X393705Y486161D02*
X393705Y486161D01*
X393705Y495295D01*
X409443Y495295D01*
X409443Y494400D01*
X409442Y494396D01*
X409438Y494371D01*
X409437Y494371D01*
X409435Y494356D01*
X409430Y494331D01*
X409427Y494317D01*
X409422Y494292D01*
X409419Y494277D01*
X409416Y494262D01*
X409414Y494252D01*
X409411Y494237D01*
X409408Y494222D01*
X409406Y494212D01*
X409403Y494197D01*
X409400Y494182D01*
X409398Y494172D01*
X409395Y494158D01*
X409392Y494143D01*
X409390Y494133D01*
X409387Y494118D01*
X409384Y494103D01*
X409379Y494078D01*
X409376Y494063D01*
X409371Y494038D01*
X409368Y494023D01*
X409363Y493999D01*
X409360Y493984D01*
X409357Y493969D01*
X409355Y493959D01*
X409353Y493944D01*
X409352Y493944D01*
X409353Y493944D01*
X409350Y493929D01*
X409348Y493919D01*
X409345Y493904D01*
X409342Y493889D01*
X409340Y493879D01*
X409337Y493864D01*
X409334Y493850D01*
X409334Y493849D01*
X409329Y493825D01*
X409326Y493810D01*
X409321Y493785D01*
X409318Y493770D01*
X409313Y493745D01*
X409310Y493730D01*
X409307Y493715D01*
X409305Y493705D01*
X409302Y493691D01*
X409302Y493690D01*
X409299Y493676D01*
X409297Y493666D01*
X409294Y493651D01*
X409291Y493636D01*
X409289Y493626D01*
X409286Y493611D01*
X409283Y493596D01*
X409278Y493571D01*
X409275Y493556D01*
X409270Y493532D01*
X409270Y493531D01*
X409268Y493517D01*
X409267Y493517D01*
X409268Y493517D01*
X409263Y493492D01*
X409260Y493477D01*
X409255Y493452D01*
X409252Y493437D01*
X409249Y493422D01*
X409247Y493412D01*
X409244Y493397D01*
X409241Y493382D01*
X409239Y493373D01*
X409239Y493372D01*
X409236Y493358D01*
X409233Y493343D01*
X409231Y493333D01*
X409228Y493318D01*
X409225Y493303D01*
X409220Y493278D01*
X409217Y493263D01*
X409212Y493238D01*
X409209Y493223D01*
X409204Y493199D01*
X409201Y493184D01*
X409198Y493169D01*
X409196Y493159D01*
X409193Y493144D01*
X409190Y493129D01*
X409188Y493119D01*
X409185Y493104D01*
X409183Y493089D01*
X409182Y493089D01*
X409183Y493089D01*
X409181Y493079D01*
X409178Y493064D01*
X409175Y493050D01*
X409175Y493049D01*
X409170Y493025D01*
X409167Y493010D01*
X409162Y492985D01*
X409159Y492970D01*
X409154Y492945D01*
X409151Y492930D01*
X409148Y492915D01*
X409146Y492905D01*
X409143Y492891D01*
X409143Y492890D01*
X409140Y492876D01*
X409138Y492866D01*
X409135Y492851D01*
X409132Y492836D01*
X409130Y492826D01*
X409127Y492811D01*
X409124Y492796D01*
X409122Y492786D01*
X409119Y492771D01*
X409116Y492756D01*
X409111Y492732D01*
X409111Y492731D01*
X409108Y492717D01*
X409103Y492692D01*
X409100Y492677D01*
X409096Y492652D01*
X409093Y492637D01*
X409092Y492634D01*
X408403Y490971D01*
X407403Y489474D01*
X406130Y488201D01*
X404633Y487201D01*
X402970Y486512D01*
X401204Y486161D01*
X393705Y486161D01*
G37*
%LPD*%
%LPC*%
G36*
X749305Y359161D02*
X749305Y359161D01*
X749305Y368295D01*
X765043Y368295D01*
X765043Y367400D01*
X765042Y367395D01*
X765040Y367385D01*
X765037Y367370D01*
X765034Y367355D01*
X765032Y367345D01*
X765029Y367330D01*
X765026Y367315D01*
X765024Y367305D01*
X765021Y367290D01*
X765018Y367276D01*
X765014Y367251D01*
X765011Y367236D01*
X765006Y367211D01*
X765003Y367196D01*
X764998Y367171D01*
X764995Y367156D01*
X764992Y367141D01*
X764990Y367131D01*
X764987Y367117D01*
X764984Y367102D01*
X764982Y367092D01*
X764979Y367077D01*
X764976Y367062D01*
X764974Y367052D01*
X764971Y367037D01*
X764968Y367022D01*
X764963Y366997D01*
X764960Y366982D01*
X764955Y366958D01*
X764952Y366943D01*
X764947Y366918D01*
X764944Y366903D01*
X764941Y366888D01*
X764939Y366878D01*
X764936Y366863D01*
X764933Y366848D01*
X764932Y366838D01*
X764931Y366838D01*
X764929Y366823D01*
X764926Y366809D01*
X764926Y366808D01*
X764924Y366799D01*
X764921Y366784D01*
X764918Y366769D01*
X764913Y366744D01*
X764910Y366729D01*
X764905Y366704D01*
X764902Y366689D01*
X764897Y366664D01*
X764894Y366650D01*
X764894Y366649D01*
X764889Y366625D01*
X764886Y366610D01*
X764883Y366595D01*
X764881Y366585D01*
X764878Y366570D01*
X764875Y366555D01*
X764873Y366545D01*
X764870Y366530D01*
X764867Y366515D01*
X764865Y366505D01*
X764862Y366491D01*
X764862Y366490D01*
X764859Y366476D01*
X764854Y366451D01*
X764851Y366436D01*
X764847Y366411D01*
X764846Y366411D01*
X764844Y366396D01*
X764839Y366371D01*
X764836Y366356D01*
X764833Y366341D01*
X764831Y366332D01*
X764831Y366331D01*
X764828Y366317D01*
X764825Y366302D01*
X764823Y366292D01*
X764820Y366277D01*
X764817Y366262D01*
X764815Y366252D01*
X764812Y366237D01*
X764809Y366222D01*
X764804Y366197D01*
X764801Y366182D01*
X764796Y366158D01*
X764793Y366143D01*
X764788Y366118D01*
X764785Y366103D01*
X764782Y366088D01*
X764780Y366078D01*
X764777Y366063D01*
X764774Y366048D01*
X764772Y366038D01*
X764769Y366023D01*
X764766Y366009D01*
X764766Y366008D01*
X764764Y365999D01*
X764762Y365984D01*
X764761Y365984D01*
X764762Y365984D01*
X764759Y365969D01*
X764757Y365959D01*
X764754Y365944D01*
X764751Y365929D01*
X764746Y365904D01*
X764743Y365889D01*
X764738Y365864D01*
X764735Y365850D01*
X764735Y365849D01*
X764730Y365825D01*
X764727Y365810D01*
X764724Y365795D01*
X764722Y365785D01*
X764719Y365770D01*
X764716Y365755D01*
X764714Y365745D01*
X764711Y365730D01*
X764708Y365715D01*
X764706Y365705D01*
X764703Y365691D01*
X764703Y365690D01*
X764700Y365676D01*
X764695Y365651D01*
X764692Y365636D01*
X764692Y365634D01*
X764003Y363971D01*
X763003Y362474D01*
X761730Y361201D01*
X760233Y360201D01*
X758570Y359512D01*
X756804Y359161D01*
X749305Y359161D01*
G37*
%LPD*%
%LPC*%
G36*
X342905Y359161D02*
X342905Y359161D01*
X342905Y368295D01*
X358643Y368295D01*
X358643Y367400D01*
X358642Y367395D01*
X358640Y367385D01*
X358637Y367370D01*
X358634Y367355D01*
X358632Y367345D01*
X358629Y367330D01*
X358626Y367315D01*
X358624Y367305D01*
X358621Y367290D01*
X358618Y367276D01*
X358614Y367251D01*
X358611Y367236D01*
X358606Y367211D01*
X358603Y367196D01*
X358598Y367171D01*
X358595Y367156D01*
X358592Y367141D01*
X358590Y367131D01*
X358587Y367117D01*
X358584Y367102D01*
X358582Y367092D01*
X358579Y367077D01*
X358576Y367062D01*
X358574Y367052D01*
X358571Y367037D01*
X358568Y367022D01*
X358563Y366997D01*
X358560Y366982D01*
X358555Y366958D01*
X358552Y366943D01*
X358547Y366918D01*
X358544Y366903D01*
X358541Y366888D01*
X358539Y366878D01*
X358536Y366863D01*
X358533Y366848D01*
X358532Y366838D01*
X358531Y366838D01*
X358529Y366823D01*
X358526Y366809D01*
X358526Y366808D01*
X358524Y366799D01*
X358521Y366784D01*
X358518Y366769D01*
X358513Y366744D01*
X358510Y366729D01*
X358505Y366704D01*
X358502Y366689D01*
X358497Y366664D01*
X358494Y366650D01*
X358494Y366649D01*
X358489Y366625D01*
X358486Y366610D01*
X358483Y366595D01*
X358481Y366585D01*
X358478Y366570D01*
X358475Y366555D01*
X358473Y366545D01*
X358470Y366530D01*
X358467Y366515D01*
X358465Y366505D01*
X358462Y366491D01*
X358462Y366490D01*
X358459Y366476D01*
X358454Y366451D01*
X358451Y366436D01*
X358447Y366411D01*
X358446Y366411D01*
X358444Y366396D01*
X358439Y366371D01*
X358436Y366356D01*
X358433Y366341D01*
X358431Y366332D01*
X358431Y366331D01*
X358428Y366317D01*
X358425Y366302D01*
X358423Y366292D01*
X358420Y366277D01*
X358417Y366262D01*
X358415Y366252D01*
X358412Y366237D01*
X358409Y366222D01*
X358404Y366197D01*
X358401Y366182D01*
X358396Y366158D01*
X358393Y366143D01*
X358388Y366118D01*
X358385Y366103D01*
X358382Y366088D01*
X358380Y366078D01*
X358377Y366063D01*
X358374Y366048D01*
X358372Y366038D01*
X358369Y366023D01*
X358366Y366009D01*
X358366Y366008D01*
X358364Y365999D01*
X358362Y365984D01*
X358361Y365984D01*
X358362Y365984D01*
X358359Y365969D01*
X358357Y365959D01*
X358354Y365944D01*
X358351Y365929D01*
X358346Y365904D01*
X358343Y365889D01*
X358338Y365864D01*
X358335Y365850D01*
X358335Y365849D01*
X358330Y365825D01*
X358327Y365810D01*
X358324Y365795D01*
X358322Y365785D01*
X358319Y365770D01*
X358316Y365755D01*
X358314Y365745D01*
X358311Y365730D01*
X358308Y365715D01*
X358306Y365705D01*
X358303Y365691D01*
X358303Y365690D01*
X358300Y365676D01*
X358295Y365651D01*
X358292Y365636D01*
X358292Y365634D01*
X357603Y363971D01*
X356603Y362474D01*
X355330Y361201D01*
X353833Y360201D01*
X352170Y359512D01*
X350404Y359161D01*
X342905Y359161D01*
G37*
%LPD*%
%LPC*%
G36*
X215905Y460761D02*
X215905Y460761D01*
X215905Y469895D01*
X231643Y469895D01*
X231643Y469000D01*
X231641Y468991D01*
X231638Y468976D01*
X231635Y468961D01*
X231634Y468951D01*
X231633Y468951D01*
X231631Y468936D01*
X231628Y468921D01*
X231623Y468896D01*
X231620Y468882D01*
X231620Y468881D01*
X231615Y468857D01*
X231612Y468842D01*
X231607Y468817D01*
X231604Y468802D01*
X231601Y468787D01*
X231599Y468777D01*
X231596Y468762D01*
X231593Y468747D01*
X231591Y468737D01*
X231588Y468723D01*
X231588Y468722D01*
X231585Y468708D01*
X231583Y468698D01*
X231580Y468683D01*
X231577Y468668D01*
X231575Y468658D01*
X231572Y468643D01*
X231569Y468628D01*
X231564Y468603D01*
X231561Y468588D01*
X231556Y468564D01*
X231556Y468563D01*
X231553Y468549D01*
X231549Y468524D01*
X231548Y468524D01*
X231546Y468509D01*
X231543Y468494D01*
X231541Y468484D01*
X231538Y468469D01*
X231535Y468454D01*
X231533Y468444D01*
X231530Y468429D01*
X231527Y468414D01*
X231525Y468405D01*
X231522Y468390D01*
X231519Y468375D01*
X231514Y468350D01*
X231511Y468335D01*
X231506Y468310D01*
X231503Y468295D01*
X231498Y468270D01*
X231495Y468255D01*
X231492Y468241D01*
X231490Y468231D01*
X231487Y468216D01*
X231484Y468201D01*
X231482Y468191D01*
X231479Y468176D01*
X231476Y468161D01*
X231474Y468151D01*
X231471Y468136D01*
X231468Y468121D01*
X231464Y468096D01*
X231463Y468096D01*
X231464Y468096D01*
X231461Y468082D01*
X231456Y468057D01*
X231453Y468042D01*
X231448Y468017D01*
X231445Y468002D01*
X231440Y467977D01*
X231437Y467962D01*
X231434Y467947D01*
X231432Y467937D01*
X231429Y467923D01*
X231426Y467908D01*
X231424Y467898D01*
X231421Y467883D01*
X231418Y467868D01*
X231416Y467858D01*
X231413Y467843D01*
X231410Y467828D01*
X231405Y467803D01*
X231402Y467788D01*
X231397Y467764D01*
X231394Y467749D01*
X231389Y467724D01*
X231386Y467709D01*
X231383Y467694D01*
X231381Y467684D01*
X231379Y467669D01*
X231378Y467669D01*
X231379Y467669D01*
X231376Y467654D01*
X231374Y467644D01*
X231371Y467629D01*
X231368Y467615D01*
X231368Y467614D01*
X231366Y467605D01*
X231363Y467590D01*
X231360Y467575D01*
X231355Y467550D01*
X231352Y467535D01*
X231347Y467510D01*
X231344Y467495D01*
X231339Y467470D01*
X231336Y467456D01*
X231336Y467455D01*
X231333Y467441D01*
X231331Y467431D01*
X231328Y467416D01*
X231325Y467401D01*
X231323Y467391D01*
X231320Y467376D01*
X231317Y467361D01*
X231315Y467351D01*
X231312Y467336D01*
X231309Y467321D01*
X231304Y467297D01*
X231304Y467296D01*
X231301Y467282D01*
X231296Y467257D01*
X231294Y467242D01*
X231293Y467242D01*
X231294Y467242D01*
X231292Y467234D01*
X230603Y465571D01*
X229603Y464074D01*
X228330Y462801D01*
X226833Y461801D01*
X225170Y461112D01*
X223404Y460761D01*
X215905Y460761D01*
G37*
%LPD*%
%LPC*%
G36*
X100700Y27437D02*
X100700Y27437D01*
X98934Y27788D01*
X97271Y28477D01*
X95774Y29477D01*
X94501Y30750D01*
X93501Y32247D01*
X92812Y33910D01*
X92461Y35676D01*
X92461Y43175D01*
X101595Y43175D01*
X101595Y27437D01*
X100700Y27437D01*
G37*
%LPD*%
%LPC*%
G36*
X513196Y359161D02*
X513196Y359161D01*
X511430Y359512D01*
X509767Y360201D01*
X508270Y361201D01*
X506997Y362474D01*
X505997Y363971D01*
X505308Y365634D01*
X504957Y367400D01*
X504957Y368295D01*
X520695Y368295D01*
X520695Y359161D01*
X513196Y359161D01*
G37*
%LPD*%
%LPC*%
G36*
X386196Y486161D02*
X386196Y486161D01*
X384430Y486512D01*
X382767Y487201D01*
X381270Y488201D01*
X379997Y489474D01*
X378997Y490971D01*
X378308Y492634D01*
X377957Y494400D01*
X377957Y495295D01*
X393695Y495295D01*
X393695Y486161D01*
X386196Y486161D01*
G37*
%LPD*%
%LPC*%
G36*
X335396Y359161D02*
X335396Y359161D01*
X333630Y359512D01*
X331967Y360201D01*
X330470Y361201D01*
X329197Y362474D01*
X328197Y363971D01*
X327508Y365634D01*
X327157Y367400D01*
X327157Y368295D01*
X342895Y368295D01*
X342895Y359161D01*
X335396Y359161D01*
G37*
%LPD*%
%LPC*%
G36*
X741796Y359161D02*
X741796Y359161D01*
X740030Y359512D01*
X738367Y360201D01*
X736870Y361201D01*
X735597Y362474D01*
X734597Y363971D01*
X733908Y365634D01*
X733557Y367400D01*
X733557Y368295D01*
X749295Y368295D01*
X749295Y359161D01*
X741796Y359161D01*
G37*
%LPD*%
%LPC*%
G36*
X208396Y460761D02*
X208396Y460761D01*
X206630Y461112D01*
X204967Y461801D01*
X203470Y462801D01*
X202197Y464074D01*
X201197Y465571D01*
X200508Y467234D01*
X200157Y469000D01*
X200157Y469895D01*
X215895Y469895D01*
X215895Y460761D01*
X208396Y460761D01*
G37*
%LPD*%
%LPC*%
G36*
X553725Y330205D02*
X553725Y330205D01*
X553725Y342387D01*
X558768Y342387D01*
X565907Y335248D01*
X565907Y330205D01*
X553725Y330205D01*
G37*
%LPD*%
%LPC*%
G36*
X548672Y318013D02*
X548672Y318013D01*
X541533Y325152D01*
X541533Y330195D01*
X553715Y330195D01*
X553715Y318013D01*
X548672Y318013D01*
G37*
%LPD*%
%LPC*%
G36*
X553725Y318013D02*
X553725Y318013D01*
X553725Y330195D01*
X565907Y330195D01*
X565907Y325152D01*
X558768Y318013D01*
X553725Y318013D01*
G37*
%LPD*%
%LPC*%
G36*
X541533Y330205D02*
X541533Y330205D01*
X541533Y335248D01*
X548672Y342387D01*
X553715Y342387D01*
X553715Y330205D01*
X541533Y330205D01*
G37*
%LPD*%
%LPC*%
G36*
X266705Y190505D02*
X266705Y190505D01*
X266705Y199639D01*
X270486Y199639D01*
X275839Y194286D01*
X275839Y190505D01*
X266705Y190505D01*
G37*
%LPD*%
%LPC*%
G36*
X266705Y148595D02*
X266705Y148595D01*
X266705Y157729D01*
X270486Y157729D01*
X275839Y152376D01*
X275839Y148595D01*
X266705Y148595D01*
G37*
%LPD*%
%LPC*%
G36*
X257561Y148595D02*
X257561Y148595D01*
X257561Y152376D01*
X262914Y157729D01*
X266695Y157729D01*
X266695Y148595D01*
X257561Y148595D01*
G37*
%LPD*%
%LPC*%
G36*
X266705Y139451D02*
X266705Y139451D01*
X266705Y148585D01*
X275839Y148585D01*
X275839Y144804D01*
X270486Y139451D01*
X266705Y139451D01*
G37*
%LPD*%
%LPC*%
G36*
X257561Y190505D02*
X257561Y190505D01*
X257561Y194286D01*
X262914Y199639D01*
X266695Y199639D01*
X266695Y190505D01*
X257561Y190505D01*
G37*
%LPD*%
%LPC*%
G36*
X266705Y181361D02*
X266705Y181361D01*
X266705Y190495D01*
X275839Y190495D01*
X275839Y186714D01*
X270486Y181361D01*
X266705Y181361D01*
G37*
%LPD*%
%LPC*%
G36*
X262914Y139451D02*
X262914Y139451D01*
X257561Y144804D01*
X257561Y148585D01*
X266695Y148585D01*
X266695Y139451D01*
X262914Y139451D01*
G37*
%LPD*%
%LPC*%
G36*
X262914Y181361D02*
X262914Y181361D01*
X257561Y186714D01*
X257561Y190495D01*
X266695Y190495D01*
X266695Y181361D01*
X262914Y181361D01*
G37*
%LPD*%
D10*
X568960Y139700D02*
X555752Y139700D01*
X555752Y114300D02*
X568960Y114300D01*
X645160Y114300D02*
X658368Y114300D01*
X658368Y139700D02*
X645160Y139700D01*
X568960Y88900D02*
X555752Y88900D01*
X645160Y88900D02*
X658368Y88900D01*
D11*
X388620Y152400D03*
X464820Y152400D03*
X388620Y204470D03*
X464820Y204470D03*
X139700Y148590D03*
X266700Y148590D03*
D12*
X266700Y190500D03*
X139700Y190500D03*
D13*
X29680Y402590D03*
X174460Y427990D03*
X29680Y427990D03*
X30010Y377190D03*
X174790Y377190D03*
D14*
X98430Y342460D03*
X98420Y462720D03*
D15*
X830580Y438150D03*
D16*
X805180Y450850D03*
X830580Y463550D03*
X805180Y476250D03*
X830580Y488950D03*
X805180Y501650D03*
X830580Y514350D03*
X805180Y527050D03*
D17*
X863580Y560050D03*
X863580Y405150D03*
D18*
X921980Y445050D03*
X921980Y546350D03*
X937280Y419650D03*
X937280Y520950D03*
D15*
X830580Y254000D03*
D16*
X805180Y266700D03*
X830580Y279400D03*
X805180Y292100D03*
X830580Y304800D03*
X805180Y317500D03*
X830580Y330200D03*
X805180Y342900D03*
D17*
X863580Y375900D03*
X863580Y221000D03*
D18*
X921980Y260900D03*
X921980Y362200D03*
X937280Y235500D03*
X937280Y336800D03*
D19*
X748030Y30480D03*
X748030Y81280D03*
D20*
X861060Y81280D03*
X861060Y30480D03*
D21*
X930040Y205410D03*
D22*
X910040Y205410D03*
D23*
X900040Y124300D03*
D22*
X920040Y124300D03*
X930040Y144300D03*
D24*
X381000Y76200D03*
X330200Y76200D03*
D25*
X304800Y76200D03*
X279400Y76200D03*
X152400Y78740D03*
X457200Y76200D03*
X406400Y76200D03*
D10*
X457200Y49784D02*
X457200Y36576D01*
X431800Y36576D02*
X431800Y49784D01*
X406400Y49784D02*
X406400Y36576D01*
X381000Y36576D02*
X381000Y49784D01*
X355600Y49784D02*
X355600Y36576D01*
X330200Y36576D02*
X330200Y49784D01*
X304800Y49784D02*
X304800Y36576D01*
X279400Y36576D02*
X279400Y49784D01*
X254000Y49784D02*
X254000Y36576D01*
X228600Y36576D02*
X228600Y49784D01*
X203200Y49784D02*
X203200Y36576D01*
X177800Y36576D02*
X177800Y49784D01*
X152400Y49784D02*
X152400Y36576D01*
X127000Y36576D02*
X127000Y49784D01*
X101600Y49784D02*
X101600Y36576D01*
X101600Y284226D02*
X101600Y297434D01*
X127000Y297434D02*
X127000Y284226D01*
X152400Y284226D02*
X152400Y297434D01*
X177800Y297434D02*
X177800Y284226D01*
X203200Y284226D02*
X203200Y297434D01*
X228600Y297434D02*
X228600Y284226D01*
X254000Y284226D02*
X254000Y297434D01*
X279400Y297434D02*
X279400Y284226D01*
X304800Y284226D02*
X304800Y297434D01*
X330200Y297434D02*
X330200Y284226D01*
X355600Y284226D02*
X355600Y297434D01*
X381000Y297434D02*
X381000Y284226D01*
X406400Y284226D02*
X406400Y297434D01*
X431800Y297434D02*
X431800Y284226D01*
X457200Y284226D02*
X457200Y297434D01*
X742696Y520700D02*
X755904Y520700D01*
X755904Y495300D02*
X742696Y495300D01*
X742696Y469900D02*
X755904Y469900D01*
X755904Y444500D02*
X742696Y444500D01*
X742696Y419100D02*
X755904Y419100D01*
X755904Y393700D02*
X742696Y393700D01*
X742696Y368300D02*
X755904Y368300D01*
X755904Y342900D02*
X742696Y342900D01*
X628904Y520700D02*
X615696Y520700D01*
X615696Y495300D02*
X628904Y495300D01*
X628904Y469900D02*
X615696Y469900D01*
X615696Y444500D02*
X628904Y444500D01*
X628904Y419100D02*
X615696Y419100D01*
X615696Y393700D02*
X628904Y393700D01*
X628904Y368300D02*
X615696Y368300D01*
X615696Y342900D02*
X628904Y342900D01*
X527304Y520700D02*
X514096Y520700D01*
X514096Y495300D02*
X527304Y495300D01*
X527304Y469900D02*
X514096Y469900D01*
X514096Y444500D02*
X527304Y444500D01*
X527304Y419100D02*
X514096Y419100D01*
X514096Y393700D02*
X527304Y393700D01*
X527304Y368300D02*
X514096Y368300D01*
X514096Y342900D02*
X527304Y342900D01*
X400304Y520700D02*
X387096Y520700D01*
X387096Y495300D02*
X400304Y495300D01*
X400304Y469900D02*
X387096Y469900D01*
X387096Y444500D02*
X400304Y444500D01*
X400304Y419100D02*
X387096Y419100D01*
X387096Y393700D02*
X400304Y393700D01*
X400304Y368300D02*
X387096Y368300D01*
X387096Y342900D02*
X400304Y342900D01*
X349504Y520700D02*
X336296Y520700D01*
X336296Y495300D02*
X349504Y495300D01*
X349504Y469900D02*
X336296Y469900D01*
X336296Y444500D02*
X349504Y444500D01*
X349504Y419100D02*
X336296Y419100D01*
X336296Y393700D02*
X349504Y393700D01*
X349504Y368300D02*
X336296Y368300D01*
X336296Y342900D02*
X349504Y342900D01*
X222504Y520700D02*
X209296Y520700D01*
X209296Y495300D02*
X222504Y495300D01*
X222504Y469900D02*
X209296Y469900D01*
X209296Y444500D02*
X222504Y444500D01*
X222504Y419100D02*
X209296Y419100D01*
X209296Y393700D02*
X222504Y393700D01*
X222504Y368300D02*
X209296Y368300D01*
X209296Y342900D02*
X222504Y342900D01*
D26*
X553720Y330200D03*
X553720Y304800D03*
X553720Y279400D03*
X553720Y254000D03*
D27*
X652780Y195580D02*
X652780Y401320D01*
X241300Y12700D02*
X228600Y25400D01*
X241300Y12700D02*
X584200Y12700D01*
X642620Y185420D02*
X652780Y195580D01*
X642620Y185420D02*
X603250Y185420D01*
D28*
X603250Y185420D03*
D27*
X603250Y31750D02*
X584200Y12700D01*
X603250Y31750D02*
X603250Y185420D01*
X228600Y43180D02*
X228600Y25400D01*
X622300Y419100D02*
X635000Y419100D01*
X652780Y401320D01*
X419100Y419100D02*
X393700Y419100D01*
X444500Y393700D02*
X444500Y368300D01*
X469900Y342900D01*
X482600Y342900D01*
X508000Y317500D01*
X508000Y228600D01*
X495300Y215900D01*
X444500Y215900D02*
X431800Y203200D01*
X431800Y165100D01*
X444500Y152400D01*
X444500Y393700D02*
X419100Y419100D01*
X444500Y215900D02*
X495300Y215900D01*
X464820Y152400D02*
X444500Y152400D01*
X174720Y353600D02*
X126900Y305780D01*
D29*
X135300Y101600D02*
X126900Y93200D01*
X135300Y101600D02*
X254000Y101600D01*
X356870Y204470D01*
X388620Y204470D01*
D27*
X174790Y377190D02*
X174720Y377120D01*
X174720Y353600D01*
X571500Y495300D02*
X609600Y533400D01*
D29*
X748030Y341630D02*
X748030Y81280D01*
D27*
X126900Y290930D02*
X126900Y305780D01*
X126900Y290930D02*
X127000Y290830D01*
D29*
X126900Y93200D02*
X126900Y43280D01*
D30*
X127000Y43180D01*
D29*
X748030Y341630D02*
X749300Y342900D01*
X749300Y495300D02*
X762000Y495300D01*
X774700Y482600D01*
X774700Y355600D01*
X762000Y342900D01*
X749300Y342900D01*
D27*
X685800Y495300D02*
X647700Y533400D01*
X685800Y495300D02*
X749300Y495300D01*
X647700Y533400D02*
X609600Y533400D01*
X571500Y495300D02*
X546100Y495300D01*
X520700Y495300D01*
D31*
X520700Y342900D02*
X520700Y317500D01*
X533610Y304590D01*
D27*
X174790Y377190D02*
X174790Y390690D01*
X190500Y533400D02*
X203200Y546100D01*
X304800Y546100D02*
X317500Y533400D01*
X317500Y508000D01*
X330200Y495300D01*
X190500Y406400D02*
X174790Y390690D01*
X190500Y406400D02*
X190500Y533400D01*
X203200Y546100D02*
X304800Y546100D01*
X330200Y495300D02*
X342900Y495300D01*
X342900Y342900D02*
X330200Y342900D01*
X317500Y355600D01*
X317500Y482600D01*
X330200Y495300D01*
X342900Y495300D02*
X355600Y508000D01*
X508000Y508000D02*
X520700Y495300D01*
X508000Y508000D02*
X355600Y508000D01*
X520700Y342900D02*
X533400Y342900D01*
X546100Y355600D01*
X546100Y495300D01*
D29*
X861060Y30480D02*
X868680Y30480D01*
X889000Y92710D02*
X878223Y103487D01*
X770237Y103487D02*
X748030Y81280D01*
X770237Y103487D02*
X878223Y103487D01*
X889000Y50800D02*
X868680Y30480D01*
X889000Y50800D02*
X889000Y92710D01*
D31*
X553510Y304590D02*
X533610Y304590D01*
X553510Y304590D02*
X553720Y304800D01*
D27*
X266700Y190500D02*
X266700Y148590D01*
D28*
X469900Y368300D03*
X487832Y313154D03*
D31*
X487832Y287754D01*
X449732Y249654D01*
X363954Y249654D01*
X342900Y228600D01*
X342900Y215900D01*
D29*
X114300Y114300D02*
X101500Y101500D01*
D27*
X685800Y381000D02*
X685800Y457200D01*
X659130Y483870D01*
X608868Y483870D01*
X594360Y344170D02*
X580390Y330200D01*
X594360Y344170D02*
X594360Y469362D01*
X608868Y483870D01*
D29*
X101500Y101500D02*
X101500Y43280D01*
D30*
X101600Y43180D01*
D27*
X698500Y368300D02*
X749300Y368300D01*
X698500Y368300D02*
X685800Y381000D01*
X520700Y368300D02*
X469900Y368300D01*
X469900Y495300D01*
X393700Y495300D01*
D31*
X317500Y190500D02*
X266700Y190500D01*
X317500Y190500D02*
X342900Y215900D01*
D29*
X266700Y148590D02*
X232410Y114300D01*
X114300Y114300D01*
D27*
X553720Y330200D02*
X580390Y330200D01*
D29*
X342900Y558800D02*
X177800Y558800D01*
X342900Y558800D02*
X355600Y546100D01*
X508000Y558800D02*
X520700Y546100D01*
X533400Y558800D02*
X735330Y558800D01*
X533400Y558800D02*
X520700Y546100D01*
X139600Y340900D02*
X101500Y302800D01*
X139600Y340900D02*
X139600Y520600D01*
X177800Y558800D01*
X355600Y546100D02*
X368300Y558800D01*
X508000Y558800D01*
X355600Y546100D02*
X355600Y533400D01*
X735330Y558800D02*
X749300Y544830D01*
X749300Y520700D01*
X520700Y520700D02*
X520700Y546100D01*
X355600Y533400D02*
X342900Y520700D01*
X101600Y302700D02*
X101600Y290830D01*
X101600Y302700D02*
X101500Y302800D01*
X835660Y55880D02*
X861060Y81280D01*
X835660Y55880D02*
X773430Y55880D01*
X748030Y30480D01*
D31*
X520700Y148590D02*
X464820Y204470D01*
X520700Y148590D02*
X520700Y127000D01*
X533400Y114300D01*
X568960Y114300D01*
D27*
X228600Y266700D02*
X203200Y241300D01*
X127000Y228600D02*
X114300Y241300D01*
X76200Y241300D01*
X50800Y266700D01*
X50800Y419100D01*
X41910Y427990D01*
X29680Y427990D01*
X139700Y241300D02*
X127000Y228600D01*
X139700Y241300D02*
X203200Y241300D01*
X228600Y266700D02*
X228600Y290830D01*
X127000Y228600D02*
X127000Y203200D01*
X139700Y190500D01*
X101600Y215900D02*
X88900Y228600D01*
X73660Y228600D01*
X101600Y215900D02*
X101600Y172720D01*
X125730Y148590D02*
X139700Y148590D01*
X125730Y148590D02*
X101600Y172720D01*
X186690Y148590D02*
X254000Y215900D01*
X186690Y148590D02*
X139700Y148590D01*
X30010Y272250D02*
X30010Y377190D01*
X30010Y272250D02*
X73660Y228600D01*
X254000Y215900D02*
X254000Y290830D01*
X571500Y63500D02*
X584200Y76200D01*
X584200Y152400D01*
X571500Y165100D01*
X571500Y236550D01*
X355600Y50800D02*
X355600Y43180D01*
X355600Y50800D02*
X368300Y63500D01*
X571500Y63500D01*
X571500Y236550D02*
X554050Y254000D01*
X553720Y254000D01*
X596900Y152400D02*
X596900Y50800D01*
X596900Y152400D02*
X581660Y167640D01*
X581660Y251790D01*
X568960Y22860D02*
X451240Y22860D01*
X568960Y22860D02*
X596900Y50800D01*
X451240Y22860D02*
X431800Y42300D01*
X431800Y43180D01*
X553720Y279400D02*
X554050Y279400D01*
X581660Y251790D01*
X190500Y304800D02*
X190500Y355600D01*
X190500Y304800D02*
X177800Y292100D01*
X177800Y290830D01*
X203200Y368300D02*
X215900Y368300D01*
X203200Y368300D02*
X190500Y355600D01*
X215900Y317500D02*
X203100Y304700D01*
X215900Y317500D02*
X342900Y317500D01*
X203100Y304700D02*
X203100Y290930D01*
X203200Y290830D01*
X342900Y317500D02*
X393700Y368300D01*
D28*
X613410Y199390D03*
D27*
X613410Y207010D01*
X641350Y234950D01*
X641350Y358140D01*
X631190Y368300D02*
X622300Y368300D01*
X631190Y368300D02*
X641350Y358140D01*
X355600Y290830D02*
X355500Y290930D01*
X355500Y304700D01*
X393700Y342900D01*
X593090Y224790D02*
X622300Y254000D01*
X593090Y224790D02*
X593090Y172720D01*
D28*
X593090Y172720D03*
D27*
X622300Y254000D02*
X622300Y342900D01*
X152400Y78740D02*
X152400Y43180D01*
X254000Y76200D02*
X330200Y152400D01*
X254000Y76200D02*
X254000Y43180D01*
X330200Y152400D02*
X388620Y152400D01*
X330200Y76200D02*
X330200Y43180D01*
X304800Y43180D02*
X304800Y76200D01*
X279400Y76200D02*
X279400Y43180D01*
M02*
