G04 EAGLE Gerber RS-274X export*
G75*
%MOMM*%
%FSLAX34Y34*%
%LPD*%
%INTop Copper*%
%IPPOS*%
%AMOC8*
5,1,8,0,0,1.08239X$1,22.5*%
G01*
%ADD10C,1.320800*%
%ADD11P,1.429621X8X22.500000*%
%ADD12P,1.429621X8X202.500000*%
%ADD13R,2.095500X2.095500*%
%ADD14R,3.116000X3.116000*%
%ADD15R,1.398000X1.398000*%
%ADD16C,1.398000*%
%ADD17C,2.355000*%
%ADD18C,1.785000*%
%ADD19P,2.749271X8X22.500000*%
%ADD20R,5.080000X2.540000*%
%ADD21C,1.108000*%
%ADD22C,1.930400*%
%ADD23C,1.208000*%
%ADD24P,1.732040X8X292.500000*%
%ADD25P,1.732040X8X22.500000*%
%ADD26P,2.089446X8X202.500000*%
%ADD27C,0.304800*%
%ADD28C,0.756400*%
%ADD29C,0.508000*%
%ADD30C,0.406400*%

G36*
X550898Y12696D02*
X550898Y12696D01*
X550900Y12696D01*
X550900Y12698D01*
X550902Y12699D01*
X550901Y12701D01*
X550901Y12704D01*
X471399Y92205D01*
X471396Y92206D01*
X471395Y92207D01*
X344397Y92207D01*
X324617Y111987D01*
X324617Y200885D01*
X324615Y200887D01*
X324615Y200889D01*
X302489Y223015D01*
X302486Y223016D01*
X302485Y223017D01*
X111987Y223017D01*
X96017Y238987D01*
X96017Y276164D01*
X96015Y276166D01*
X96015Y276167D01*
X93421Y278761D01*
X91953Y282307D01*
X91953Y299353D01*
X93421Y302899D01*
X96135Y305613D01*
X99681Y307081D01*
X103519Y307081D01*
X104812Y306546D01*
X104814Y306546D01*
X104817Y306546D01*
X104817Y306547D01*
X104818Y306548D01*
X104817Y306551D01*
X104817Y306554D01*
X98440Y312931D01*
X98437Y312931D01*
X98437Y312932D01*
X98436Y312933D01*
X74308Y312933D01*
X58933Y328308D01*
X58933Y387996D01*
X58931Y387998D01*
X58931Y388000D01*
X48910Y398021D01*
X48907Y398021D01*
X48907Y398022D01*
X48906Y398023D01*
X43206Y398023D01*
X43201Y398018D01*
X43201Y390852D01*
X42407Y390059D01*
X42407Y390052D01*
X42407Y390051D01*
X43531Y388928D01*
X43531Y365452D01*
X41748Y363669D01*
X18272Y363669D01*
X16489Y365452D01*
X16489Y388928D01*
X17283Y389721D01*
X17283Y389723D01*
X17283Y389728D01*
X17283Y389729D01*
X16159Y390852D01*
X16159Y414328D01*
X17118Y415286D01*
X17118Y415293D01*
X17118Y415294D01*
X16159Y416252D01*
X16159Y439728D01*
X17942Y441511D01*
X41418Y441511D01*
X43201Y439728D01*
X43201Y416252D01*
X42242Y415294D01*
X42242Y415287D01*
X42242Y415286D01*
X43201Y414328D01*
X43201Y407162D01*
X43205Y407157D01*
X43205Y407158D01*
X43206Y407157D01*
X52692Y407157D01*
X68067Y391782D01*
X68067Y332094D01*
X68069Y332092D01*
X68069Y332090D01*
X78090Y322069D01*
X78093Y322068D01*
X78094Y322067D01*
X102222Y322067D01*
X104899Y319390D01*
X120102Y304187D01*
X120109Y304186D01*
X120109Y304187D01*
X121535Y305613D01*
X125081Y307081D01*
X128919Y307081D01*
X132465Y305613D01*
X135179Y302899D01*
X136647Y299353D01*
X136647Y282307D01*
X135179Y278761D01*
X132465Y276047D01*
X128919Y274579D01*
X125081Y274579D01*
X121535Y276047D01*
X118821Y278761D01*
X117353Y282307D01*
X117353Y294016D01*
X117351Y294018D01*
X117351Y294020D01*
X110720Y300651D01*
X110717Y300651D01*
X110715Y300653D01*
X110714Y300652D01*
X110713Y300652D01*
X110713Y300649D01*
X110712Y300646D01*
X111247Y299353D01*
X111247Y282307D01*
X109779Y278761D01*
X107185Y276167D01*
X107184Y276165D01*
X107183Y276164D01*
X107183Y243615D01*
X107185Y243613D01*
X107185Y243611D01*
X116611Y234185D01*
X116614Y234184D01*
X116615Y234183D01*
X307113Y234183D01*
X335783Y205513D01*
X335783Y116615D01*
X335785Y116613D01*
X335785Y116611D01*
X349021Y103375D01*
X349024Y103374D01*
X349025Y103373D01*
X384019Y103373D01*
X384020Y103374D01*
X384022Y103374D01*
X384022Y103376D01*
X384024Y103378D01*
X384022Y103379D01*
X384023Y103382D01*
X365989Y121415D01*
X362717Y124687D01*
X362717Y192813D01*
X365989Y196085D01*
X379957Y210053D01*
X380558Y210053D01*
X380560Y210055D01*
X380561Y210055D01*
X384624Y214117D01*
X392616Y214117D01*
X398267Y208466D01*
X398267Y200474D01*
X392616Y194823D01*
X384624Y194823D01*
X382575Y196872D01*
X382568Y196872D01*
X373885Y188189D01*
X373885Y188187D01*
X373884Y188187D01*
X373885Y188187D01*
X373884Y188186D01*
X373883Y188185D01*
X373883Y129315D01*
X373885Y129313D01*
X373885Y129311D01*
X389661Y113535D01*
X389664Y113534D01*
X389665Y113533D01*
X481103Y113533D01*
X552221Y42415D01*
X552224Y42414D01*
X552225Y42413D01*
X701265Y42413D01*
X701267Y42415D01*
X701269Y42415D01*
X732946Y74092D01*
X732947Y74099D01*
X732946Y74099D01*
X732287Y74759D01*
X732287Y87801D01*
X741509Y97023D01*
X754551Y97023D01*
X763773Y87801D01*
X763773Y86868D01*
X763778Y86863D01*
X763778Y86864D01*
X763778Y86863D01*
X778002Y86863D01*
X778007Y86868D01*
X778007Y95241D01*
X779789Y97023D01*
X833111Y97023D01*
X834893Y95241D01*
X834893Y67319D01*
X833111Y65537D01*
X779789Y65537D01*
X778007Y67319D01*
X778007Y75692D01*
X778002Y75697D01*
X778002Y75696D01*
X778002Y75697D01*
X763778Y75697D01*
X763773Y75692D01*
X763774Y75692D01*
X763773Y75692D01*
X763773Y74759D01*
X754551Y65537D01*
X741509Y65537D01*
X740849Y66196D01*
X740843Y66197D01*
X740843Y66196D01*
X740842Y66196D01*
X705893Y31247D01*
X548161Y31247D01*
X548160Y31246D01*
X548158Y31246D01*
X548158Y31244D01*
X548156Y31242D01*
X548158Y31241D01*
X548157Y31238D01*
X559841Y19555D01*
X559844Y19554D01*
X559845Y19553D01*
X729205Y19553D01*
X729207Y19555D01*
X729209Y19555D01*
X732946Y23292D01*
X732947Y23299D01*
X732946Y23299D01*
X732287Y23959D01*
X732287Y37001D01*
X741509Y46223D01*
X754551Y46223D01*
X763773Y37001D01*
X763773Y36068D01*
X763778Y36063D01*
X763778Y36064D01*
X763778Y36063D01*
X778002Y36063D01*
X778007Y36068D01*
X778006Y36068D01*
X778007Y36068D01*
X778007Y44441D01*
X779789Y46223D01*
X833111Y46223D01*
X834893Y44441D01*
X834893Y16519D01*
X833111Y14737D01*
X779789Y14737D01*
X778007Y16519D01*
X778007Y24892D01*
X778002Y24897D01*
X778002Y24896D01*
X778002Y24897D01*
X763778Y24897D01*
X763773Y24892D01*
X763774Y24892D01*
X763773Y24892D01*
X763773Y23959D01*
X754551Y14737D01*
X741509Y14737D01*
X740849Y15396D01*
X740843Y15397D01*
X740843Y15396D01*
X740842Y15396D01*
X738149Y12704D01*
X738149Y12702D01*
X738148Y12701D01*
X738149Y12699D01*
X738149Y12697D01*
X738151Y12697D01*
X738153Y12695D01*
X939980Y12695D01*
X939985Y12699D01*
X939985Y12700D01*
X939985Y136279D01*
X939984Y136281D01*
X939984Y136282D01*
X939982Y136282D01*
X939981Y136284D01*
X939979Y136283D01*
X939978Y136283D01*
X939976Y136283D01*
X937231Y133537D01*
X932565Y131605D01*
X930701Y131605D01*
X930700Y131604D01*
X930698Y131604D01*
X930698Y131602D01*
X930696Y131600D01*
X930698Y131599D01*
X930697Y131596D01*
X930803Y131491D01*
X932735Y126825D01*
X932735Y121775D01*
X930803Y117109D01*
X927231Y113537D01*
X922565Y111605D01*
X917515Y111605D01*
X912849Y113537D01*
X909277Y117109D01*
X908090Y119976D01*
X908088Y119977D01*
X908088Y119979D01*
X908086Y119978D01*
X908084Y119979D01*
X908083Y119977D01*
X908081Y119976D01*
X907740Y119155D01*
X905185Y116600D01*
X901847Y115217D01*
X898233Y115217D01*
X894895Y116600D01*
X892340Y119155D01*
X890957Y122493D01*
X890957Y126107D01*
X892340Y129445D01*
X894895Y132000D01*
X898233Y133383D01*
X901546Y133383D01*
X901547Y133384D01*
X901549Y133384D01*
X901549Y133386D01*
X901551Y133388D01*
X901549Y133389D01*
X901549Y133392D01*
X878982Y155959D01*
X878979Y155960D01*
X878978Y155961D01*
X872278Y155961D01*
X872276Y155959D01*
X872274Y155958D01*
X872274Y155957D01*
X872273Y155956D01*
X872275Y155954D01*
X872276Y155951D01*
X874601Y154988D01*
X881088Y148501D01*
X884598Y140027D01*
X884598Y130853D01*
X881088Y122379D01*
X874601Y115892D01*
X866127Y112382D01*
X856953Y112382D01*
X848479Y115892D01*
X841992Y122379D01*
X838482Y130853D01*
X838482Y140027D01*
X841992Y148501D01*
X848479Y154988D01*
X850804Y155951D01*
X850805Y155954D01*
X850807Y155955D01*
X850806Y155956D01*
X850807Y155957D01*
X850804Y155958D01*
X850802Y155961D01*
X848222Y155961D01*
X848220Y155959D01*
X848218Y155959D01*
X822312Y130053D01*
X704204Y130053D01*
X704202Y130051D01*
X704200Y130051D01*
X686559Y112410D01*
X683882Y109733D01*
X666922Y109733D01*
X666919Y109730D01*
X666917Y109730D01*
X666547Y108835D01*
X663833Y106121D01*
X660287Y104653D01*
X643241Y104653D01*
X639695Y106121D01*
X636981Y108835D01*
X635513Y112381D01*
X635513Y116219D01*
X636981Y119765D01*
X639695Y122479D01*
X643241Y123947D01*
X660287Y123947D01*
X663833Y122479D01*
X666547Y119765D01*
X666917Y118870D01*
X666920Y118869D01*
X666922Y118867D01*
X680096Y118867D01*
X680097Y118868D01*
X680098Y118869D01*
X680100Y118869D01*
X697741Y136510D01*
X700418Y139187D01*
X818526Y139187D01*
X818528Y139189D01*
X818530Y139189D01*
X844436Y165095D01*
X882764Y165095D01*
X912819Y135040D01*
X912826Y135039D01*
X912826Y135040D01*
X912849Y135063D01*
X917515Y136995D01*
X919379Y136995D01*
X919380Y136996D01*
X919382Y136996D01*
X919382Y136998D01*
X919384Y137000D01*
X919382Y137001D01*
X919383Y137004D01*
X919277Y137109D01*
X917345Y141775D01*
X917345Y146825D01*
X918430Y149446D01*
X918429Y149450D01*
X918429Y149452D01*
X896936Y170945D01*
X896933Y170946D01*
X896932Y170947D01*
X653658Y170947D01*
X653656Y170945D01*
X653654Y170945D01*
X629409Y146700D01*
X629409Y146698D01*
X629408Y146698D01*
X629409Y146698D01*
X629408Y146697D01*
X629407Y146696D01*
X629407Y100954D01*
X629409Y100952D01*
X629409Y100950D01*
X636687Y93672D01*
X636688Y93672D01*
X636688Y93671D01*
X636690Y93672D01*
X636690Y93671D01*
X636691Y93671D01*
X636692Y93672D01*
X636694Y93671D01*
X636694Y93673D01*
X636695Y93673D01*
X636981Y94365D01*
X639695Y97079D01*
X643241Y98547D01*
X660287Y98547D01*
X663833Y97079D01*
X666547Y94365D01*
X667834Y91257D01*
X667835Y91257D01*
X667835Y91255D01*
X667837Y91256D01*
X667840Y91254D01*
X667840Y91256D01*
X667843Y91257D01*
X667960Y91461D01*
X673109Y96610D01*
X679416Y100251D01*
X686449Y102135D01*
X693731Y102135D01*
X700764Y100251D01*
X707071Y96610D01*
X712220Y91461D01*
X715861Y85154D01*
X717745Y78121D01*
X717745Y70839D01*
X715861Y63806D01*
X712220Y57499D01*
X707071Y52350D01*
X700764Y48709D01*
X693731Y46825D01*
X686449Y46825D01*
X679416Y48709D01*
X673109Y52350D01*
X667960Y57499D01*
X664319Y63806D01*
X662435Y70839D01*
X662435Y78121D01*
X663042Y80385D01*
X663041Y80386D01*
X663042Y80388D01*
X663040Y80389D01*
X663039Y80391D01*
X663037Y80390D01*
X663035Y80391D01*
X660287Y79253D01*
X643241Y79253D01*
X639695Y80721D01*
X636981Y83435D01*
X636611Y84330D01*
X636608Y84331D01*
X636606Y84333D01*
X633108Y84333D01*
X620273Y97168D01*
X620273Y150482D01*
X649872Y180081D01*
X900718Y180081D01*
X924888Y155911D01*
X924891Y155910D01*
X924892Y155909D01*
X924893Y155910D01*
X924894Y155910D01*
X927515Y156995D01*
X932565Y156995D01*
X937231Y155063D01*
X939976Y152317D01*
X939978Y152317D01*
X939979Y152316D01*
X939981Y152317D01*
X939983Y152317D01*
X939983Y152319D01*
X939985Y152321D01*
X939985Y223659D01*
X939984Y223659D01*
X939985Y223660D01*
X939983Y223661D01*
X939981Y223664D01*
X939980Y223663D01*
X939979Y223663D01*
X939978Y223663D01*
X939661Y223532D01*
X934899Y223532D01*
X930501Y225354D01*
X927134Y228721D01*
X925312Y233119D01*
X925312Y237881D01*
X927134Y242279D01*
X930501Y245646D01*
X934899Y247468D01*
X939661Y247468D01*
X939978Y247337D01*
X939979Y247337D01*
X939979Y247336D01*
X939981Y247338D01*
X939984Y247339D01*
X939984Y247340D01*
X939985Y247341D01*
X939985Y324959D01*
X939984Y324959D01*
X939985Y324960D01*
X939983Y324961D01*
X939981Y324964D01*
X939979Y324963D01*
X939978Y324963D01*
X939661Y324832D01*
X934899Y324832D01*
X930501Y326654D01*
X927134Y330021D01*
X925312Y334419D01*
X925312Y339181D01*
X927134Y343579D01*
X930501Y346946D01*
X934899Y348768D01*
X939661Y348768D01*
X939978Y348637D01*
X939979Y348637D01*
X939979Y348636D01*
X939981Y348638D01*
X939984Y348639D01*
X939984Y348640D01*
X939985Y348641D01*
X939985Y407809D01*
X939984Y407809D01*
X939985Y407810D01*
X939983Y407811D01*
X939981Y407814D01*
X939979Y407813D01*
X939978Y407813D01*
X939661Y407682D01*
X934899Y407682D01*
X930501Y409504D01*
X927134Y412871D01*
X925312Y417269D01*
X925312Y422031D01*
X927134Y426429D01*
X930501Y429796D01*
X934899Y431618D01*
X939661Y431618D01*
X939978Y431487D01*
X939979Y431487D01*
X939979Y431486D01*
X939981Y431488D01*
X939984Y431489D01*
X939984Y431490D01*
X939985Y431491D01*
X939985Y509109D01*
X939984Y509109D01*
X939985Y509110D01*
X939983Y509111D01*
X939981Y509114D01*
X939980Y509113D01*
X939979Y509113D01*
X939978Y509113D01*
X939661Y508982D01*
X934899Y508982D01*
X930501Y510804D01*
X927134Y514171D01*
X925312Y518569D01*
X925312Y523331D01*
X927134Y527729D01*
X930501Y531096D01*
X934899Y532918D01*
X939661Y532918D01*
X939978Y532787D01*
X939979Y532787D01*
X939979Y532786D01*
X939981Y532788D01*
X939984Y532789D01*
X939984Y532790D01*
X939985Y532791D01*
X939985Y561100D01*
X939981Y561105D01*
X939980Y561105D01*
X909921Y561105D01*
X909919Y561103D01*
X909917Y561103D01*
X909917Y561102D01*
X909916Y561101D01*
X909918Y561099D01*
X909919Y561096D01*
X910293Y560879D01*
X914935Y556238D01*
X914937Y556237D01*
X914938Y556237D01*
X914939Y556237D01*
X914940Y556237D01*
X914942Y556237D01*
X914942Y556238D01*
X915201Y556496D01*
X919599Y558318D01*
X924361Y558318D01*
X928759Y556496D01*
X932126Y553129D01*
X933948Y548731D01*
X933948Y543969D01*
X932126Y539571D01*
X928759Y536204D01*
X924361Y534382D01*
X919982Y534382D01*
X919979Y534379D01*
X919977Y534378D01*
X918686Y529558D01*
X915209Y523537D01*
X910293Y518621D01*
X904272Y515144D01*
X897556Y513345D01*
X890604Y513345D01*
X883888Y515144D01*
X877867Y518621D01*
X872951Y523537D01*
X869474Y529558D01*
X867675Y536274D01*
X867675Y543226D01*
X868420Y546007D01*
X868419Y546008D01*
X868420Y546010D01*
X868418Y546010D01*
X868417Y546013D01*
X868415Y546012D01*
X868413Y546013D01*
X866528Y545232D01*
X860632Y545232D01*
X855186Y547488D01*
X851018Y551656D01*
X848762Y557102D01*
X848762Y561100D01*
X848757Y561105D01*
X669094Y561105D01*
X669093Y561104D01*
X669091Y561104D01*
X669091Y561102D01*
X669090Y561101D01*
X669091Y561099D01*
X669091Y561096D01*
X670557Y559631D01*
X681551Y548637D01*
X684525Y545662D01*
X684525Y338654D01*
X684527Y338653D01*
X684527Y338651D01*
X700601Y322577D01*
X700603Y322576D01*
X700604Y322576D01*
X700604Y322575D01*
X751006Y322575D01*
X751007Y322577D01*
X751009Y322577D01*
X777678Y349245D01*
X797334Y349245D01*
X797336Y349247D01*
X797338Y349247D01*
X799497Y351406D01*
X803184Y352933D01*
X807176Y352933D01*
X810863Y351406D01*
X813686Y348583D01*
X815213Y344896D01*
X815213Y340904D01*
X813686Y337217D01*
X811753Y335284D01*
X811753Y335282D01*
X811752Y335282D01*
X811751Y335281D01*
X811752Y335279D01*
X811752Y335277D01*
X811755Y335277D01*
X811756Y335275D01*
X821819Y335275D01*
X821822Y335278D01*
X821824Y335278D01*
X822074Y335883D01*
X824897Y338706D01*
X828584Y340233D01*
X832576Y340233D01*
X836263Y338706D01*
X839086Y335883D01*
X840613Y332196D01*
X840613Y328204D01*
X839086Y324517D01*
X836263Y321694D01*
X832576Y320167D01*
X828584Y320167D01*
X824897Y321694D01*
X822074Y324517D01*
X821824Y325122D01*
X821820Y325123D01*
X821819Y325125D01*
X811756Y325125D01*
X811755Y325124D01*
X811753Y325124D01*
X811753Y325122D01*
X811751Y325120D01*
X811753Y325119D01*
X811753Y325116D01*
X813686Y323183D01*
X815213Y319496D01*
X815213Y315504D01*
X813686Y311817D01*
X811123Y309254D01*
X811123Y309252D01*
X811121Y309251D01*
X811122Y309249D01*
X811122Y309247D01*
X811125Y309247D01*
X811126Y309245D01*
X821558Y309245D01*
X821561Y309248D01*
X821563Y309248D01*
X822074Y310483D01*
X824897Y313306D01*
X828584Y314833D01*
X832576Y314833D01*
X836263Y313306D01*
X839086Y310483D01*
X840613Y306796D01*
X840613Y302804D01*
X839086Y299117D01*
X836263Y296294D01*
X832576Y294767D01*
X828584Y294767D01*
X824897Y296294D01*
X822098Y299093D01*
X822095Y299093D01*
X822095Y299094D01*
X822094Y299095D01*
X812386Y299095D01*
X812385Y299094D01*
X812383Y299094D01*
X812383Y299092D01*
X812381Y299090D01*
X812383Y299089D01*
X812383Y299086D01*
X813686Y297783D01*
X815213Y294096D01*
X815213Y290104D01*
X813686Y286417D01*
X810863Y283594D01*
X807176Y282067D01*
X803184Y282067D01*
X802579Y282317D01*
X802576Y282316D01*
X802574Y282316D01*
X783587Y263329D01*
X780612Y260355D01*
X629088Y260355D01*
X578289Y311153D01*
X575314Y314129D01*
X575312Y314129D01*
X575311Y314130D01*
X575309Y314129D01*
X575307Y314129D01*
X575307Y314127D01*
X575305Y314125D01*
X575305Y311984D01*
X575307Y311983D01*
X575307Y311981D01*
X630751Y256537D01*
X630753Y256537D01*
X630753Y256536D01*
X630754Y256535D01*
X787836Y256535D01*
X787837Y256537D01*
X787839Y256537D01*
X795396Y264094D01*
X795397Y264097D01*
X795397Y264098D01*
X795397Y264099D01*
X795147Y264704D01*
X795147Y268696D01*
X796674Y272383D01*
X799497Y275206D01*
X803184Y276733D01*
X807176Y276733D01*
X810863Y275206D01*
X813686Y272383D01*
X815213Y268696D01*
X815213Y264704D01*
X813686Y261017D01*
X810863Y258194D01*
X807176Y256667D01*
X803184Y256667D01*
X802579Y256917D01*
X802576Y256916D01*
X802574Y256916D01*
X795017Y249359D01*
X792042Y246385D01*
X626548Y246385D01*
X623573Y249359D01*
X566424Y306509D01*
X566422Y306509D01*
X566421Y306510D01*
X566419Y306509D01*
X566417Y306509D01*
X566417Y306507D01*
X566415Y306505D01*
X566415Y299542D01*
X558977Y292104D01*
X558977Y292097D01*
X558977Y292096D01*
X566415Y284658D01*
X566415Y274142D01*
X558977Y266704D01*
X558977Y266697D01*
X558977Y266696D01*
X566415Y259258D01*
X566415Y248742D01*
X558979Y241305D01*
X548461Y241305D01*
X541025Y248741D01*
X541025Y259259D01*
X548463Y266696D01*
X548463Y266703D01*
X548463Y266704D01*
X541025Y274141D01*
X541025Y284659D01*
X548463Y292096D01*
X548463Y292103D01*
X548463Y292104D01*
X541025Y299541D01*
X541025Y310059D01*
X548463Y317496D01*
X548463Y317503D01*
X548463Y317504D01*
X541025Y324941D01*
X541025Y335459D01*
X548462Y342895D01*
X549688Y342895D01*
X549693Y342900D01*
X549692Y342900D01*
X549693Y342900D01*
X549693Y353166D01*
X549691Y353168D01*
X549691Y353170D01*
X539130Y363731D01*
X539127Y363732D01*
X539126Y363733D01*
X535858Y363733D01*
X535855Y363730D01*
X535853Y363730D01*
X535483Y362835D01*
X532769Y360121D01*
X529223Y358653D01*
X512177Y358653D01*
X508631Y360121D01*
X505917Y362835D01*
X504449Y366381D01*
X504449Y370219D01*
X505917Y373765D01*
X508631Y376479D01*
X512177Y377947D01*
X529223Y377947D01*
X532769Y376479D01*
X535483Y373765D01*
X535853Y372870D01*
X535856Y372869D01*
X535858Y372867D01*
X542912Y372867D01*
X545589Y370190D01*
X558827Y356952D01*
X558827Y342900D01*
X558832Y342895D01*
X558832Y342896D01*
X558832Y342895D01*
X558978Y342895D01*
X565146Y336727D01*
X565148Y336727D01*
X565149Y336726D01*
X565151Y336727D01*
X565153Y336727D01*
X565153Y336729D01*
X565155Y336731D01*
X565155Y380166D01*
X565153Y380167D01*
X565153Y380169D01*
X533588Y411734D01*
X533586Y411734D01*
X533585Y411735D01*
X533584Y411734D01*
X533582Y411735D01*
X533582Y411734D01*
X533581Y411734D01*
X532769Y410921D01*
X529223Y409453D01*
X512177Y409453D01*
X508631Y410921D01*
X505917Y413635D01*
X504449Y417181D01*
X504449Y421019D01*
X505917Y424565D01*
X508631Y427279D01*
X512177Y428747D01*
X529223Y428747D01*
X532769Y427279D01*
X535483Y424565D01*
X535744Y423934D01*
X535745Y423934D01*
X535745Y423933D01*
X538477Y421201D01*
X572331Y387347D01*
X575306Y384371D01*
X575308Y384371D01*
X575309Y384370D01*
X575311Y384371D01*
X575313Y384371D01*
X575313Y384373D01*
X575315Y384375D01*
X575315Y395406D01*
X575313Y395407D01*
X575313Y395409D01*
X533588Y437134D01*
X533586Y437134D01*
X533585Y437136D01*
X533584Y437135D01*
X533582Y437135D01*
X533582Y437134D01*
X533581Y437134D01*
X532769Y436321D01*
X529223Y434853D01*
X512177Y434853D01*
X508631Y436321D01*
X505917Y439035D01*
X504449Y442581D01*
X504449Y446419D01*
X505917Y449965D01*
X508631Y452679D01*
X512177Y454147D01*
X529223Y454147D01*
X532769Y452679D01*
X535483Y449965D01*
X535744Y449334D01*
X535745Y449334D01*
X535745Y449333D01*
X582491Y402587D01*
X584196Y400881D01*
X584198Y400881D01*
X584199Y400880D01*
X584201Y400881D01*
X584203Y400881D01*
X584203Y400883D01*
X584205Y400885D01*
X584205Y508436D01*
X584203Y508437D01*
X584203Y508439D01*
X564319Y528323D01*
X564317Y528324D01*
X564316Y528325D01*
X533334Y528325D01*
X533333Y528324D01*
X533331Y528324D01*
X533331Y528322D01*
X533329Y528320D01*
X533331Y528319D01*
X533331Y528316D01*
X535483Y526165D01*
X536951Y522619D01*
X536951Y518781D01*
X535483Y515235D01*
X532769Y512521D01*
X529223Y511053D01*
X512177Y511053D01*
X508631Y512521D01*
X505917Y515235D01*
X504449Y518781D01*
X504449Y522619D01*
X505917Y526165D01*
X508069Y528316D01*
X508069Y528318D01*
X508071Y528319D01*
X508069Y528321D01*
X508070Y528323D01*
X508067Y528323D01*
X508066Y528325D01*
X406334Y528325D01*
X406333Y528324D01*
X406331Y528324D01*
X406331Y528322D01*
X406329Y528320D01*
X406331Y528319D01*
X406331Y528316D01*
X408483Y526165D01*
X409951Y522619D01*
X409951Y518781D01*
X408483Y515235D01*
X405769Y512521D01*
X402223Y511053D01*
X385177Y511053D01*
X381631Y512521D01*
X379734Y514419D01*
X379732Y514419D01*
X379731Y514421D01*
X379729Y514419D01*
X379727Y514420D01*
X379727Y514417D01*
X379725Y514416D01*
X379725Y501584D01*
X379726Y501583D01*
X379726Y501581D01*
X379728Y501581D01*
X379730Y501579D01*
X379731Y501580D01*
X379732Y501581D01*
X379734Y501581D01*
X381631Y503479D01*
X385177Y504947D01*
X402223Y504947D01*
X405769Y503479D01*
X408483Y500765D01*
X409951Y497219D01*
X409951Y493381D01*
X408483Y489835D01*
X405769Y487121D01*
X402223Y485653D01*
X385177Y485653D01*
X381631Y487121D01*
X379734Y489019D01*
X379732Y489019D01*
X379731Y489021D01*
X379729Y489019D01*
X379727Y489020D01*
X379727Y489017D01*
X379725Y489016D01*
X379725Y476184D01*
X379726Y476183D01*
X379726Y476181D01*
X379728Y476181D01*
X379730Y476179D01*
X379730Y476180D01*
X379731Y476180D01*
X379732Y476181D01*
X379734Y476181D01*
X381631Y478079D01*
X385177Y479547D01*
X402223Y479547D01*
X405769Y478079D01*
X408483Y475365D01*
X409951Y471819D01*
X409951Y467981D01*
X408483Y464435D01*
X405769Y461721D01*
X402223Y460253D01*
X385177Y460253D01*
X381631Y461721D01*
X379734Y463619D01*
X379732Y463619D01*
X379731Y463621D01*
X379729Y463619D01*
X379727Y463620D01*
X379727Y463617D01*
X379725Y463616D01*
X379725Y450784D01*
X379726Y450783D01*
X379726Y450781D01*
X379728Y450781D01*
X379730Y450779D01*
X379730Y450780D01*
X379731Y450780D01*
X379732Y450781D01*
X379734Y450781D01*
X381631Y452679D01*
X385177Y454147D01*
X402223Y454147D01*
X405769Y452679D01*
X408483Y449965D01*
X409951Y446419D01*
X409951Y442581D01*
X408483Y439035D01*
X405769Y436321D01*
X402223Y434853D01*
X385177Y434853D01*
X381631Y436321D01*
X379734Y438219D01*
X379732Y438219D01*
X379731Y438221D01*
X379729Y438219D01*
X379727Y438220D01*
X379727Y438217D01*
X379725Y438216D01*
X379725Y425384D01*
X379726Y425383D01*
X379726Y425381D01*
X379728Y425381D01*
X379730Y425379D01*
X379730Y425380D01*
X379732Y425381D01*
X379734Y425381D01*
X381631Y427279D01*
X385177Y428747D01*
X402223Y428747D01*
X405769Y427279D01*
X408483Y424565D01*
X409951Y421019D01*
X409951Y417181D01*
X408483Y413635D01*
X405769Y410921D01*
X402223Y409453D01*
X385177Y409453D01*
X381631Y410921D01*
X379734Y412819D01*
X379732Y412819D01*
X379731Y412821D01*
X379729Y412819D01*
X379727Y412820D01*
X379727Y412817D01*
X379725Y412816D01*
X379725Y399984D01*
X379726Y399983D01*
X379726Y399981D01*
X379728Y399981D01*
X379730Y399979D01*
X379731Y399981D01*
X379734Y399981D01*
X381631Y401879D01*
X385177Y403347D01*
X402223Y403347D01*
X405769Y401879D01*
X408483Y399165D01*
X409951Y395619D01*
X409951Y391781D01*
X408483Y388235D01*
X405769Y385521D01*
X402223Y384053D01*
X385177Y384053D01*
X381631Y385521D01*
X378917Y388235D01*
X377449Y391781D01*
X377449Y395619D01*
X377476Y395685D01*
X377476Y395686D01*
X377476Y395688D01*
X377476Y395690D01*
X377475Y395690D01*
X377474Y395692D01*
X377472Y395691D01*
X377471Y395691D01*
X377470Y395691D01*
X377468Y395691D01*
X373377Y391599D01*
X370402Y388625D01*
X357847Y388625D01*
X357844Y388622D01*
X357843Y388622D01*
X357683Y388235D01*
X354969Y385521D01*
X351423Y384053D01*
X334377Y384053D01*
X330831Y385521D01*
X328117Y388235D01*
X326649Y391781D01*
X326649Y395619D01*
X328117Y399165D01*
X330831Y401879D01*
X334377Y403347D01*
X351423Y403347D01*
X354969Y401879D01*
X357683Y399165D01*
X357843Y398778D01*
X357846Y398777D01*
X357847Y398775D01*
X366196Y398775D01*
X366197Y398777D01*
X366199Y398777D01*
X369573Y402151D01*
X369574Y402153D01*
X369575Y402154D01*
X369575Y425885D01*
X369574Y425887D01*
X369574Y425888D01*
X369572Y425889D01*
X369570Y425890D01*
X369569Y425889D01*
X369566Y425889D01*
X357945Y414267D01*
X357945Y414266D01*
X357944Y414266D01*
X357683Y413635D01*
X354969Y410921D01*
X351423Y409453D01*
X334377Y409453D01*
X330831Y410921D01*
X328117Y413635D01*
X326649Y417181D01*
X326649Y421019D01*
X328117Y424565D01*
X330831Y427279D01*
X334377Y428747D01*
X351423Y428747D01*
X354969Y427279D01*
X355781Y426466D01*
X355788Y426465D01*
X355788Y426466D01*
X361953Y432631D01*
X361953Y432632D01*
X361954Y432633D01*
X361954Y432634D01*
X361955Y432634D01*
X361955Y534232D01*
X372549Y544826D01*
X372549Y544828D01*
X372550Y544829D01*
X372549Y544831D01*
X372549Y544833D01*
X372547Y544833D01*
X372545Y544835D01*
X346274Y544835D01*
X346273Y544833D01*
X346271Y544833D01*
X327657Y526219D01*
X327657Y526217D01*
X327655Y526216D01*
X327655Y525074D01*
X327657Y525072D01*
X327658Y525069D01*
X327659Y525070D01*
X327660Y525069D01*
X327662Y525071D01*
X327665Y525072D01*
X328117Y526165D01*
X330831Y528879D01*
X334377Y530347D01*
X351423Y530347D01*
X354969Y528879D01*
X357683Y526165D01*
X359151Y522619D01*
X359151Y518781D01*
X357683Y515235D01*
X354969Y512521D01*
X351423Y511053D01*
X334377Y511053D01*
X330831Y512521D01*
X328117Y515235D01*
X327665Y516328D01*
X327662Y516329D01*
X327661Y516331D01*
X327660Y516331D01*
X327659Y516331D01*
X327657Y516328D01*
X327655Y516326D01*
X327655Y499674D01*
X327657Y499672D01*
X327658Y499669D01*
X327659Y499670D01*
X327660Y499669D01*
X327662Y499671D01*
X327665Y499672D01*
X328117Y500765D01*
X330831Y503479D01*
X334377Y504947D01*
X351423Y504947D01*
X354969Y503479D01*
X357683Y500765D01*
X359151Y497219D01*
X359151Y493381D01*
X357683Y489835D01*
X354969Y487121D01*
X351423Y485653D01*
X334377Y485653D01*
X330831Y487121D01*
X328117Y489835D01*
X327665Y490928D01*
X327662Y490929D01*
X327661Y490931D01*
X327660Y490931D01*
X327659Y490931D01*
X327657Y490928D01*
X327655Y490926D01*
X327655Y484704D01*
X327657Y484703D01*
X327657Y484701D01*
X333267Y479091D01*
X333270Y479090D01*
X333272Y479090D01*
X334377Y479547D01*
X351423Y479547D01*
X354969Y478079D01*
X357683Y475365D01*
X359151Y471819D01*
X359151Y467981D01*
X357683Y464435D01*
X354969Y461721D01*
X351423Y460253D01*
X334377Y460253D01*
X330831Y461721D01*
X328117Y464435D01*
X326649Y467981D01*
X326649Y471352D01*
X326647Y471353D01*
X326647Y471355D01*
X317504Y480499D01*
X317502Y480499D01*
X317501Y480500D01*
X317499Y480499D01*
X317497Y480499D01*
X317497Y480497D01*
X317495Y480495D01*
X317495Y473274D01*
X317497Y473273D01*
X317497Y473271D01*
X336619Y454149D01*
X336621Y454148D01*
X336622Y454147D01*
X351423Y454147D01*
X354969Y452679D01*
X357683Y449965D01*
X359151Y446419D01*
X359151Y442581D01*
X357683Y439035D01*
X354969Y436321D01*
X351423Y434853D01*
X334377Y434853D01*
X330831Y436321D01*
X328117Y439035D01*
X326649Y442581D01*
X326649Y446419D01*
X327627Y448781D01*
X327627Y448782D01*
X327626Y448785D01*
X327626Y448786D01*
X307345Y469068D01*
X307345Y535502D01*
X332939Y561096D01*
X332939Y561098D01*
X332940Y561099D01*
X332939Y561101D01*
X332939Y561103D01*
X332937Y561103D01*
X332936Y561105D01*
X12700Y561105D01*
X12695Y561101D01*
X12695Y561100D01*
X12695Y536086D01*
X12697Y536084D01*
X12698Y536081D01*
X12699Y536081D01*
X12702Y536083D01*
X12705Y536084D01*
X14229Y541774D01*
X17870Y548081D01*
X23019Y553230D01*
X29326Y556871D01*
X36359Y558755D01*
X43641Y558755D01*
X50674Y556871D01*
X56981Y553230D01*
X62130Y548081D01*
X65771Y541774D01*
X67655Y534741D01*
X67655Y527459D01*
X65771Y520426D01*
X62130Y514119D01*
X56981Y508970D01*
X50674Y505329D01*
X43641Y503445D01*
X36359Y503445D01*
X29326Y505329D01*
X23019Y508970D01*
X17870Y514119D01*
X14229Y520426D01*
X12705Y526116D01*
X12703Y526117D01*
X12701Y526119D01*
X12700Y526119D01*
X12699Y526119D01*
X12697Y526117D01*
X12695Y526114D01*
X12695Y34986D01*
X12697Y34984D01*
X12698Y34981D01*
X12699Y34981D01*
X12702Y34983D01*
X12705Y34984D01*
X14229Y40674D01*
X17870Y46981D01*
X23019Y52130D01*
X29326Y55771D01*
X36359Y57655D01*
X43641Y57655D01*
X50674Y55771D01*
X56981Y52130D01*
X62130Y46981D01*
X65771Y40674D01*
X67655Y33641D01*
X67655Y26359D01*
X65771Y19326D01*
X62130Y13019D01*
X61814Y12704D01*
X61814Y12702D01*
X61812Y12701D01*
X61814Y12699D01*
X61813Y12697D01*
X61816Y12697D01*
X61817Y12695D01*
X550897Y12695D01*
X550898Y12696D01*
G37*
%LPC*%
G36*
X539128Y57663D02*
X539128Y57663D01*
X536451Y60340D01*
X481980Y114811D01*
X481977Y114812D01*
X481976Y114813D01*
X437528Y114813D01*
X408437Y143904D01*
X408437Y220102D01*
X408435Y220104D01*
X408435Y220106D01*
X391810Y236731D01*
X391807Y236732D01*
X391806Y236733D01*
X163208Y236733D01*
X147833Y252108D01*
X147833Y275672D01*
X147830Y275675D01*
X147830Y275677D01*
X146935Y276047D01*
X144221Y278761D01*
X142753Y282307D01*
X142753Y299353D01*
X144221Y302899D01*
X146935Y305613D01*
X150481Y307081D01*
X154319Y307081D01*
X157865Y305613D01*
X160579Y302899D01*
X162047Y299353D01*
X162047Y282307D01*
X160579Y278761D01*
X157865Y276047D01*
X156970Y275677D01*
X156969Y275674D01*
X156967Y275672D01*
X156967Y255894D01*
X156969Y255892D01*
X156969Y255890D01*
X166990Y245869D01*
X166993Y245868D01*
X166994Y245867D01*
X395362Y245867D01*
X395363Y245868D01*
X395365Y245868D01*
X395365Y245870D01*
X395367Y245872D01*
X395365Y245873D01*
X395365Y245876D01*
X391810Y249431D01*
X391807Y249432D01*
X391806Y249433D01*
X315608Y249433D01*
X300233Y264808D01*
X300233Y275672D01*
X300230Y275675D01*
X300230Y275677D01*
X299335Y276047D01*
X296621Y278761D01*
X295153Y282307D01*
X295153Y299353D01*
X296621Y302899D01*
X297757Y304034D01*
X297757Y304036D01*
X297758Y304037D01*
X297759Y304037D01*
X297757Y304039D01*
X297758Y304041D01*
X297755Y304041D01*
X297754Y304043D01*
X286446Y304043D01*
X286445Y304042D01*
X286443Y304042D01*
X286443Y304040D01*
X286441Y304038D01*
X286443Y304037D01*
X286443Y304034D01*
X287579Y302899D01*
X289047Y299353D01*
X289047Y282307D01*
X287579Y278761D01*
X284865Y276047D01*
X281319Y274579D01*
X277481Y274579D01*
X273935Y276047D01*
X271221Y278761D01*
X269753Y282307D01*
X269753Y294016D01*
X269751Y294018D01*
X269751Y294020D01*
X263120Y300651D01*
X263117Y300651D01*
X263115Y300653D01*
X263114Y300652D01*
X263113Y300652D01*
X263113Y300649D01*
X263112Y300646D01*
X263647Y299353D01*
X263647Y282307D01*
X262179Y278761D01*
X259465Y276047D01*
X255919Y274579D01*
X252081Y274579D01*
X248535Y276047D01*
X245821Y278761D01*
X244353Y282307D01*
X244353Y299353D01*
X245821Y302899D01*
X248535Y305613D01*
X250855Y306573D01*
X250856Y306576D01*
X250858Y306577D01*
X250857Y306578D01*
X250858Y306579D01*
X250855Y306580D01*
X250853Y306583D01*
X231747Y306583D01*
X231745Y306581D01*
X231743Y306580D01*
X231743Y306579D01*
X231742Y306578D01*
X231744Y306576D01*
X231745Y306573D01*
X234065Y305613D01*
X236779Y302899D01*
X238247Y299353D01*
X238247Y282307D01*
X236779Y278761D01*
X234065Y276047D01*
X230519Y274579D01*
X226681Y274579D01*
X223135Y276047D01*
X220421Y278761D01*
X218953Y282307D01*
X218953Y299353D01*
X220421Y302899D01*
X223135Y305613D01*
X225455Y306573D01*
X225456Y306576D01*
X225458Y306577D01*
X225457Y306578D01*
X225458Y306579D01*
X225455Y306580D01*
X225453Y306583D01*
X206347Y306583D01*
X206345Y306581D01*
X206343Y306580D01*
X206343Y306579D01*
X206342Y306578D01*
X206344Y306576D01*
X206345Y306573D01*
X208665Y305613D01*
X211379Y302899D01*
X212847Y299353D01*
X212847Y282307D01*
X211379Y278761D01*
X208665Y276047D01*
X205119Y274579D01*
X201281Y274579D01*
X197735Y276047D01*
X195021Y278761D01*
X193553Y282307D01*
X193553Y299353D01*
X195021Y302899D01*
X197735Y305613D01*
X200055Y306573D01*
X200056Y306576D01*
X200058Y306577D01*
X200057Y306578D01*
X200058Y306579D01*
X200055Y306580D01*
X200053Y306583D01*
X182258Y306583D01*
X147833Y341008D01*
X147833Y417182D01*
X150510Y419859D01*
X160938Y430287D01*
X160938Y430289D01*
X160939Y430290D01*
X160939Y439728D01*
X162722Y441511D01*
X186198Y441511D01*
X187981Y439728D01*
X187981Y416252D01*
X186198Y414469D01*
X162722Y414469D01*
X160939Y416252D01*
X160939Y417358D01*
X160938Y417360D01*
X160938Y417361D01*
X160937Y417362D01*
X160935Y417363D01*
X160933Y417362D01*
X160931Y417362D01*
X156969Y413400D01*
X156968Y413397D01*
X156967Y413396D01*
X156967Y344794D01*
X156969Y344792D01*
X156969Y344790D01*
X186040Y315719D01*
X186043Y315718D01*
X186044Y315717D01*
X260972Y315717D01*
X272502Y304187D01*
X272509Y304186D01*
X272509Y304187D01*
X273028Y304706D01*
X273029Y304707D01*
X273029Y304708D01*
X273029Y304712D01*
X273028Y304712D01*
X273028Y304713D01*
X271021Y306720D01*
X239410Y338331D01*
X239407Y338331D01*
X239407Y338332D01*
X239406Y338333D01*
X231058Y338333D01*
X231055Y338330D01*
X231053Y338330D01*
X230683Y337435D01*
X227969Y334721D01*
X224423Y333253D01*
X207377Y333253D01*
X203831Y334721D01*
X201117Y337435D01*
X199649Y340981D01*
X199649Y344819D01*
X201117Y348365D01*
X203831Y351079D01*
X207377Y352547D01*
X224423Y352547D01*
X227969Y351079D01*
X230683Y348365D01*
X231053Y347470D01*
X231056Y347469D01*
X231058Y347467D01*
X243192Y347467D01*
X277480Y313179D01*
X277483Y313178D01*
X277484Y313177D01*
X289952Y313177D01*
X289953Y313178D01*
X289955Y313178D01*
X289955Y313180D01*
X289957Y313182D01*
X289955Y313183D01*
X289955Y313186D01*
X236733Y366408D01*
X236733Y404506D01*
X236731Y404508D01*
X236731Y404510D01*
X229148Y412093D01*
X229141Y412094D01*
X229141Y412093D01*
X227969Y410921D01*
X224423Y409453D01*
X207377Y409453D01*
X203831Y410921D01*
X201117Y413635D01*
X199649Y417181D01*
X199649Y421019D01*
X201117Y424565D01*
X203831Y427279D01*
X207377Y428747D01*
X224423Y428747D01*
X227969Y427279D01*
X230683Y424565D01*
X231452Y422708D01*
X231453Y422707D01*
X231453Y422706D01*
X245867Y408292D01*
X245867Y370194D01*
X245869Y370192D01*
X245869Y370190D01*
X293990Y322069D01*
X293993Y322068D01*
X293994Y322067D01*
X466712Y322067D01*
X492247Y296532D01*
X492247Y193802D01*
X492252Y193797D01*
X492252Y193798D01*
X492252Y193797D01*
X601332Y193797D01*
X602882Y192247D01*
X602885Y192246D01*
X602886Y192245D01*
X604608Y192245D01*
X607116Y191206D01*
X608834Y189488D01*
X608836Y189488D01*
X608837Y189487D01*
X608839Y189488D01*
X608841Y189488D01*
X608841Y189490D01*
X608843Y189491D01*
X608843Y194303D01*
X608841Y194305D01*
X608841Y194306D01*
X607624Y195524D01*
X606585Y198032D01*
X606585Y200748D01*
X607624Y203256D01*
X609544Y205176D01*
X612052Y206215D01*
X614768Y206215D01*
X617276Y205176D01*
X619196Y203256D01*
X620235Y200748D01*
X620235Y198032D01*
X619196Y195524D01*
X617979Y194306D01*
X617979Y194305D01*
X617977Y194303D01*
X617978Y194303D01*
X617977Y194303D01*
X617977Y90818D01*
X584822Y57663D01*
X539128Y57663D01*
G37*
%LPD*%
%LPC*%
G36*
X533838Y218445D02*
X533838Y218445D01*
X530863Y221419D01*
X497009Y255273D01*
X494035Y258248D01*
X494035Y310270D01*
X494033Y310272D01*
X494032Y310274D01*
X494031Y310274D01*
X494030Y310275D01*
X494028Y310273D01*
X494025Y310272D01*
X493618Y309288D01*
X491698Y307368D01*
X489189Y306329D01*
X486474Y306329D01*
X483966Y307368D01*
X482045Y309288D01*
X481006Y311796D01*
X481006Y312633D01*
X481005Y312634D01*
X481005Y312636D01*
X468010Y325631D01*
X468007Y325631D01*
X468007Y325632D01*
X468006Y325633D01*
X321958Y325633D01*
X312933Y334658D01*
X312933Y357492D01*
X315610Y360169D01*
X323738Y368296D01*
X323738Y368303D01*
X323737Y368303D01*
X323738Y368304D01*
X312933Y379108D01*
X312933Y429906D01*
X312931Y429908D01*
X312931Y429910D01*
X277510Y465331D01*
X277507Y465332D01*
X277506Y465333D01*
X231058Y465333D01*
X231055Y465330D01*
X231053Y465330D01*
X230683Y464435D01*
X227969Y461721D01*
X224423Y460253D01*
X207377Y460253D01*
X203831Y461721D01*
X201117Y464435D01*
X199649Y467981D01*
X199649Y471819D01*
X201117Y475365D01*
X203831Y478079D01*
X207377Y479547D01*
X224423Y479547D01*
X227969Y478079D01*
X230683Y475365D01*
X231053Y474470D01*
X231056Y474469D01*
X231058Y474467D01*
X281292Y474467D01*
X322067Y433692D01*
X322067Y382894D01*
X322069Y382892D01*
X322069Y382890D01*
X329652Y375307D01*
X329659Y375306D01*
X329659Y375307D01*
X330831Y376479D01*
X334377Y377947D01*
X351423Y377947D01*
X354969Y376479D01*
X357683Y373765D01*
X359151Y370219D01*
X359151Y366381D01*
X357683Y362835D01*
X354969Y360121D01*
X351423Y358653D01*
X334377Y358653D01*
X330831Y360121D01*
X329659Y361293D01*
X329653Y361294D01*
X329653Y361293D01*
X329652Y361293D01*
X322069Y353710D01*
X322068Y353707D01*
X322067Y353706D01*
X322067Y338444D01*
X322069Y338442D01*
X322069Y338440D01*
X325740Y334769D01*
X325743Y334768D01*
X325744Y334767D01*
X330774Y334767D01*
X330775Y334768D01*
X330777Y334768D01*
X330777Y334770D01*
X330779Y334772D01*
X330777Y334773D01*
X330777Y334776D01*
X328117Y337435D01*
X326649Y340981D01*
X326649Y344819D01*
X328117Y348365D01*
X330831Y351079D01*
X334377Y352547D01*
X351423Y352547D01*
X354969Y351079D01*
X357683Y348365D01*
X359151Y344819D01*
X359151Y340981D01*
X357683Y337435D01*
X355023Y334776D01*
X355023Y334774D01*
X355021Y334773D01*
X355023Y334771D01*
X355022Y334769D01*
X355025Y334769D01*
X355026Y334767D01*
X381574Y334767D01*
X381575Y334768D01*
X381577Y334768D01*
X381577Y334770D01*
X381579Y334772D01*
X381577Y334773D01*
X381577Y334776D01*
X378917Y337435D01*
X377449Y340981D01*
X377449Y344819D01*
X378917Y348365D01*
X381631Y351079D01*
X385177Y352547D01*
X402223Y352547D01*
X405769Y351079D01*
X408483Y348365D01*
X409951Y344819D01*
X409951Y340981D01*
X408483Y337435D01*
X405823Y334776D01*
X405823Y334774D01*
X405821Y334773D01*
X405823Y334771D01*
X405822Y334769D01*
X405825Y334769D01*
X405826Y334767D01*
X465328Y334767D01*
X465333Y334772D01*
X465332Y334772D01*
X465333Y334772D01*
X465333Y363213D01*
X465331Y363215D01*
X465331Y363216D01*
X464114Y364434D01*
X463075Y366942D01*
X463075Y369658D01*
X464114Y372166D01*
X466034Y374086D01*
X468542Y375125D01*
X471258Y375125D01*
X473766Y374086D01*
X475686Y372166D01*
X476725Y369658D01*
X476725Y366942D01*
X475686Y364434D01*
X474469Y363216D01*
X474468Y363214D01*
X474467Y363213D01*
X474467Y332094D01*
X474469Y332092D01*
X474469Y332090D01*
X486578Y319981D01*
X486581Y319980D01*
X486582Y319979D01*
X489189Y319979D01*
X491698Y318940D01*
X493618Y317020D01*
X494025Y316036D01*
X494028Y316035D01*
X494029Y316033D01*
X494030Y316034D01*
X494031Y316033D01*
X494032Y316036D01*
X494035Y316038D01*
X494035Y316666D01*
X494033Y316667D01*
X494033Y316669D01*
X477525Y333178D01*
X477525Y459302D01*
X493198Y474975D01*
X505753Y474975D01*
X505756Y474978D01*
X505757Y474978D01*
X505917Y475365D01*
X508631Y478079D01*
X512177Y479547D01*
X529223Y479547D01*
X532769Y478079D01*
X535483Y475365D01*
X536951Y471819D01*
X536951Y467981D01*
X535483Y464435D01*
X532769Y461721D01*
X529223Y460253D01*
X512177Y460253D01*
X508631Y461721D01*
X505917Y464435D01*
X505757Y464822D01*
X505754Y464823D01*
X505753Y464825D01*
X497404Y464825D01*
X497403Y464823D01*
X497401Y464823D01*
X487677Y455099D01*
X487676Y455097D01*
X487675Y455096D01*
X487675Y337384D01*
X487677Y337383D01*
X487677Y337381D01*
X490216Y334841D01*
X490218Y334841D01*
X490219Y334840D01*
X490221Y334841D01*
X490223Y334841D01*
X490223Y334843D01*
X490225Y334845D01*
X490225Y383102D01*
X505655Y398533D01*
X505655Y398534D01*
X505656Y398534D01*
X505917Y399165D01*
X508631Y401879D01*
X512177Y403347D01*
X529223Y403347D01*
X532769Y401879D01*
X535483Y399165D01*
X536951Y395619D01*
X536951Y391781D01*
X535483Y388235D01*
X532769Y385521D01*
X529223Y384053D01*
X512177Y384053D01*
X508631Y385521D01*
X507819Y386334D01*
X507816Y386334D01*
X507816Y386335D01*
X507815Y386335D01*
X507814Y386334D01*
X507812Y386335D01*
X507812Y386334D01*
X500377Y378899D01*
X500377Y378898D01*
X500376Y378897D01*
X500377Y378897D01*
X500376Y378897D01*
X500375Y378896D01*
X500375Y337384D01*
X500377Y337383D01*
X500377Y337381D01*
X518155Y319602D01*
X518155Y261184D01*
X518157Y261183D01*
X518157Y261181D01*
X541851Y237487D01*
X541853Y237487D01*
X541853Y237486D01*
X541854Y237485D01*
X815776Y237485D01*
X815777Y237487D01*
X815779Y237487D01*
X822291Y243998D01*
X822291Y244005D01*
X820547Y245749D01*
X820547Y262251D01*
X822329Y264033D01*
X838831Y264033D01*
X840613Y262251D01*
X840613Y245749D01*
X838831Y243967D01*
X835660Y243967D01*
X835655Y243962D01*
X835656Y243962D01*
X835655Y243962D01*
X835655Y243008D01*
X832681Y240033D01*
X822957Y230309D01*
X821251Y228604D01*
X821251Y228602D01*
X821250Y228601D01*
X821251Y228599D01*
X821251Y228597D01*
X821253Y228597D01*
X821255Y228595D01*
X827206Y228595D01*
X827207Y228597D01*
X827209Y228597D01*
X843283Y244671D01*
X843284Y244673D01*
X843285Y244674D01*
X843285Y263326D01*
X843283Y263327D01*
X843283Y263329D01*
X835880Y270732D01*
X835877Y270733D01*
X835875Y270733D01*
X832576Y269367D01*
X828584Y269367D01*
X824897Y270894D01*
X822074Y273717D01*
X820547Y277404D01*
X820547Y281396D01*
X822074Y285083D01*
X824897Y287906D01*
X828584Y289433D01*
X832576Y289433D01*
X836263Y287906D01*
X839086Y285083D01*
X840613Y281396D01*
X840613Y280356D01*
X840615Y280355D01*
X840615Y280353D01*
X853435Y267532D01*
X853435Y240468D01*
X831412Y218445D01*
X533838Y218445D01*
G37*
%LPD*%
G36*
X759897Y293367D02*
X759897Y293367D01*
X759899Y293367D01*
X789362Y322829D01*
X796524Y322829D01*
X796527Y322832D01*
X796529Y322832D01*
X796674Y323183D01*
X798607Y325116D01*
X798607Y325118D01*
X798609Y325119D01*
X798608Y325121D01*
X798608Y325123D01*
X798605Y325123D01*
X798604Y325125D01*
X785694Y325125D01*
X785693Y325123D01*
X785691Y325123D01*
X760292Y299725D01*
X692334Y299725D01*
X663961Y328098D01*
X663961Y522660D01*
X663959Y522661D01*
X663959Y522663D01*
X641789Y544833D01*
X641787Y544834D01*
X641786Y544835D01*
X578685Y544835D01*
X578683Y544834D01*
X578682Y544834D01*
X578681Y544832D01*
X578680Y544830D01*
X578681Y544829D01*
X578681Y544826D01*
X604515Y518992D01*
X604515Y332304D01*
X604517Y332303D01*
X604517Y332301D01*
X643451Y293367D01*
X643453Y293366D01*
X643454Y293365D01*
X759896Y293365D01*
X759897Y293367D01*
G37*
%LPC*%
G36*
X740777Y384053D02*
X740777Y384053D01*
X737231Y385521D01*
X734517Y388235D01*
X734256Y388866D01*
X734255Y388866D01*
X734255Y388867D01*
X716719Y406403D01*
X713745Y409378D01*
X713745Y530422D01*
X734498Y551175D01*
X832682Y551175D01*
X861055Y522802D01*
X861055Y493198D01*
X851732Y483875D01*
X839341Y483875D01*
X839338Y483872D01*
X839336Y483872D01*
X839086Y483267D01*
X836263Y480444D01*
X832576Y478917D01*
X828584Y478917D01*
X824897Y480444D01*
X822074Y483267D01*
X820547Y486954D01*
X820547Y490946D01*
X822074Y494633D01*
X824897Y497456D01*
X828584Y498983D01*
X832576Y498983D01*
X836263Y497456D01*
X839086Y494633D01*
X839336Y494028D01*
X839340Y494027D01*
X839341Y494025D01*
X847526Y494025D01*
X847527Y494027D01*
X847529Y494027D01*
X850903Y497401D01*
X850904Y497403D01*
X850905Y497404D01*
X850905Y518596D01*
X850903Y518597D01*
X850903Y518599D01*
X828479Y541023D01*
X828477Y541024D01*
X828476Y541025D01*
X779345Y541025D01*
X779343Y541024D01*
X779342Y541024D01*
X779341Y541022D01*
X779340Y541020D01*
X779341Y541019D01*
X779341Y541016D01*
X779777Y540581D01*
X788231Y532127D01*
X788233Y532126D01*
X788234Y532125D01*
X796419Y532125D01*
X796422Y532128D01*
X796424Y532128D01*
X796674Y532733D01*
X799497Y535556D01*
X803184Y537083D01*
X807176Y537083D01*
X810863Y535556D01*
X813686Y532733D01*
X815213Y529046D01*
X815213Y525054D01*
X813686Y521367D01*
X811753Y519434D01*
X811753Y519432D01*
X811751Y519431D01*
X811752Y519429D01*
X811752Y519427D01*
X811755Y519427D01*
X811756Y519425D01*
X821819Y519425D01*
X821822Y519428D01*
X821824Y519428D01*
X822074Y520033D01*
X824897Y522856D01*
X828584Y524383D01*
X832576Y524383D01*
X836263Y522856D01*
X839086Y520033D01*
X840613Y516346D01*
X840613Y512354D01*
X839086Y508667D01*
X836263Y505844D01*
X832576Y504317D01*
X828584Y504317D01*
X824897Y505844D01*
X822074Y508667D01*
X821824Y509272D01*
X821820Y509273D01*
X821819Y509275D01*
X811756Y509275D01*
X811755Y509274D01*
X811753Y509274D01*
X811753Y509272D01*
X811751Y509270D01*
X811753Y509269D01*
X811753Y509266D01*
X813686Y507333D01*
X815213Y503646D01*
X815213Y499654D01*
X813686Y495967D01*
X810863Y493144D01*
X807176Y491617D01*
X803184Y491617D01*
X799885Y492983D01*
X799882Y492982D01*
X799880Y492982D01*
X795017Y488119D01*
X795016Y488117D01*
X795015Y488116D01*
X795015Y433508D01*
X776802Y415295D01*
X764773Y415295D01*
X764770Y415292D01*
X764769Y415292D01*
X764083Y413635D01*
X761369Y410921D01*
X757823Y409453D01*
X740777Y409453D01*
X737231Y410921D01*
X734517Y413635D01*
X733049Y417181D01*
X733049Y421019D01*
X734517Y424565D01*
X737231Y427279D01*
X740777Y428747D01*
X757823Y428747D01*
X761369Y427279D01*
X763200Y425447D01*
X763203Y425446D01*
X763204Y425445D01*
X772596Y425445D01*
X772597Y425447D01*
X772599Y425447D01*
X784863Y437711D01*
X784864Y437713D01*
X784865Y437714D01*
X784865Y492322D01*
X787839Y495297D01*
X795145Y502603D01*
X795146Y502605D01*
X795147Y502606D01*
X795147Y503646D01*
X796674Y507333D01*
X798607Y509266D01*
X798607Y509268D01*
X798609Y509269D01*
X798608Y509271D01*
X798608Y509273D01*
X798605Y509273D01*
X798604Y509275D01*
X795854Y509275D01*
X795853Y509273D01*
X795851Y509273D01*
X779777Y493199D01*
X779776Y493197D01*
X779775Y493196D01*
X779775Y480498D01*
X767077Y467799D01*
X764345Y465067D01*
X764345Y465066D01*
X764344Y465066D01*
X764083Y464435D01*
X761369Y461721D01*
X757823Y460253D01*
X740777Y460253D01*
X737231Y461721D01*
X735334Y463619D01*
X735332Y463619D01*
X735331Y463621D01*
X735329Y463619D01*
X735327Y463620D01*
X735327Y463617D01*
X735325Y463616D01*
X735325Y452954D01*
X735327Y452953D01*
X735327Y452951D01*
X736412Y451866D01*
X736418Y451865D01*
X736418Y451866D01*
X736419Y451866D01*
X737231Y452679D01*
X740777Y454147D01*
X757823Y454147D01*
X761369Y452679D01*
X764083Y449965D01*
X765551Y446419D01*
X765551Y442581D01*
X764083Y439035D01*
X761369Y436321D01*
X757823Y434853D01*
X740777Y434853D01*
X737231Y436321D01*
X734517Y439035D01*
X734256Y439666D01*
X734255Y439666D01*
X734255Y439667D01*
X731523Y442399D01*
X725175Y448748D01*
X725175Y527485D01*
X725174Y527487D01*
X725174Y527488D01*
X725172Y527489D01*
X725170Y527490D01*
X725169Y527489D01*
X725166Y527489D01*
X723897Y526219D01*
X723897Y526217D01*
X723895Y526216D01*
X723895Y413584D01*
X723897Y413583D01*
X723897Y413581D01*
X736412Y401066D01*
X736418Y401065D01*
X736418Y401066D01*
X736419Y401066D01*
X737231Y401879D01*
X740777Y403347D01*
X757823Y403347D01*
X761369Y401879D01*
X764083Y399165D01*
X765551Y395619D01*
X765551Y391781D01*
X764083Y388235D01*
X761369Y385521D01*
X757823Y384053D01*
X740777Y384053D01*
G37*
%LPD*%
G36*
X459299Y144268D02*
X459299Y144268D01*
X459301Y144268D01*
X459301Y144270D01*
X459303Y144272D01*
X459301Y144273D01*
X459301Y144276D01*
X455173Y148404D01*
X455173Y156396D01*
X460251Y161474D01*
X460252Y161477D01*
X460253Y161478D01*
X460253Y168262D01*
X483111Y191120D01*
X483111Y191122D01*
X483112Y191122D01*
X483111Y191122D01*
X483112Y191123D01*
X483113Y191124D01*
X483113Y292746D01*
X483111Y292748D01*
X483111Y292750D01*
X462930Y312931D01*
X462927Y312931D01*
X462927Y312932D01*
X462926Y312933D01*
X328538Y312933D01*
X328537Y312932D01*
X328535Y312932D01*
X328535Y312930D01*
X328533Y312928D01*
X328535Y312927D01*
X328535Y312924D01*
X330959Y310500D01*
X334767Y306692D01*
X334767Y305988D01*
X334770Y305985D01*
X334770Y305983D01*
X335665Y305613D01*
X338379Y302899D01*
X339847Y299353D01*
X339847Y282307D01*
X338379Y278761D01*
X335665Y276047D01*
X332119Y274579D01*
X328281Y274579D01*
X324735Y276047D01*
X322021Y278761D01*
X320553Y282307D01*
X320553Y299353D01*
X322021Y302899D01*
X323157Y304034D01*
X323157Y304036D01*
X323158Y304037D01*
X323159Y304037D01*
X323157Y304039D01*
X323158Y304041D01*
X323155Y304041D01*
X323154Y304043D01*
X311846Y304043D01*
X311845Y304042D01*
X311843Y304042D01*
X311843Y304040D01*
X311841Y304038D01*
X311843Y304037D01*
X311843Y304034D01*
X312979Y302899D01*
X314447Y299353D01*
X314447Y282307D01*
X312979Y278761D01*
X310265Y276047D01*
X309370Y275677D01*
X309369Y275674D01*
X309367Y275672D01*
X309367Y268594D01*
X309369Y268592D01*
X309369Y268590D01*
X319390Y258569D01*
X319393Y258568D01*
X319394Y258567D01*
X395592Y258567D01*
X426207Y227952D01*
X426207Y153024D01*
X426209Y153022D01*
X426209Y153020D01*
X427224Y152005D01*
X427226Y152005D01*
X427227Y152003D01*
X427229Y152004D01*
X427231Y152004D01*
X427231Y152007D01*
X427233Y152008D01*
X427233Y252106D01*
X427231Y252108D01*
X427231Y252110D01*
X417210Y262131D01*
X417207Y262132D01*
X417206Y262133D01*
X391808Y262133D01*
X379364Y274577D01*
X379361Y274577D01*
X379361Y274578D01*
X379360Y274579D01*
X379081Y274579D01*
X375535Y276047D01*
X372821Y278761D01*
X371353Y282307D01*
X371353Y299353D01*
X372821Y302899D01*
X375535Y305613D01*
X379081Y307081D01*
X382919Y307081D01*
X386465Y305613D01*
X389179Y302899D01*
X390647Y299353D01*
X390647Y282307D01*
X389179Y278761D01*
X388642Y278224D01*
X388641Y278221D01*
X388641Y278220D01*
X388641Y278218D01*
X388642Y278218D01*
X388642Y278217D01*
X395590Y271269D01*
X395593Y271268D01*
X395594Y271267D01*
X420992Y271267D01*
X436367Y255892D01*
X436367Y154294D01*
X436369Y154292D01*
X436369Y154290D01*
X446390Y144269D01*
X446393Y144268D01*
X446394Y144268D01*
X446394Y144267D01*
X459298Y144267D01*
X459299Y144268D01*
G37*
G36*
X581038Y66799D02*
X581038Y66799D01*
X581040Y66799D01*
X608841Y94600D01*
X608842Y94603D01*
X608843Y94604D01*
X608843Y181349D01*
X608842Y181350D01*
X608842Y181352D01*
X608840Y181352D01*
X608838Y181353D01*
X608837Y181352D01*
X608834Y181352D01*
X607116Y179634D01*
X604608Y178595D01*
X601892Y178595D01*
X599384Y179634D01*
X597464Y181554D01*
X596425Y184062D01*
X596425Y184658D01*
X596420Y184663D01*
X596420Y184662D01*
X596420Y184663D01*
X489574Y184663D01*
X489572Y184661D01*
X489570Y184661D01*
X469389Y164480D01*
X469388Y164477D01*
X469387Y164476D01*
X469387Y161478D01*
X469389Y161476D01*
X469389Y161474D01*
X474467Y156396D01*
X474467Y148404D01*
X470339Y144276D01*
X470339Y144274D01*
X470338Y144273D01*
X470337Y144273D01*
X470339Y144271D01*
X470338Y144269D01*
X470341Y144269D01*
X470342Y144267D01*
X480706Y144267D01*
X480708Y144269D01*
X480710Y144269D01*
X518808Y182367D01*
X589902Y182367D01*
X592722Y179547D01*
X592725Y179546D01*
X592726Y179545D01*
X594448Y179545D01*
X596956Y178506D01*
X598876Y176586D01*
X599915Y174078D01*
X599915Y171362D01*
X598876Y168854D01*
X596956Y166934D01*
X594448Y165895D01*
X591732Y165895D01*
X589224Y166934D01*
X587304Y168854D01*
X586265Y171362D01*
X586265Y173084D01*
X586263Y173086D01*
X586263Y173088D01*
X586120Y173231D01*
X586117Y173232D01*
X586116Y173233D01*
X522594Y173233D01*
X522592Y173231D01*
X522590Y173231D01*
X484492Y135133D01*
X444108Y135133D01*
X444107Y135132D01*
X444105Y135132D01*
X444105Y135130D01*
X444103Y135128D01*
X444105Y135127D01*
X444105Y135124D01*
X447660Y131569D01*
X447663Y131568D01*
X447664Y131567D01*
X493406Y131567D01*
X493408Y131569D01*
X493410Y131569D01*
X506108Y144267D01*
X547198Y144267D01*
X547201Y144270D01*
X547203Y144270D01*
X547573Y145165D01*
X550287Y147879D01*
X553833Y149347D01*
X570879Y149347D01*
X574425Y147879D01*
X577139Y145165D01*
X578607Y141619D01*
X578607Y137781D01*
X577139Y134235D01*
X574425Y131521D01*
X570879Y130053D01*
X553833Y130053D01*
X550287Y131521D01*
X547573Y134235D01*
X547203Y135130D01*
X547200Y135131D01*
X547198Y135133D01*
X509894Y135133D01*
X509892Y135131D01*
X509890Y135131D01*
X497192Y122433D01*
X487288Y122433D01*
X487287Y122432D01*
X487285Y122432D01*
X487285Y122430D01*
X487283Y122428D01*
X487285Y122427D01*
X487285Y122424D01*
X488439Y121270D01*
X542910Y66799D01*
X542913Y66798D01*
X542914Y66797D01*
X581036Y66797D01*
X581038Y66799D01*
G37*
%LPC*%
G36*
X890604Y329195D02*
X890604Y329195D01*
X883888Y330994D01*
X877867Y334471D01*
X872951Y339387D01*
X869474Y345408D01*
X867675Y352124D01*
X867675Y359076D01*
X868420Y361857D01*
X868419Y361858D01*
X868420Y361860D01*
X868418Y361860D01*
X868417Y361863D01*
X868415Y361862D01*
X868413Y361863D01*
X866528Y361082D01*
X860632Y361082D01*
X855186Y363338D01*
X851018Y367506D01*
X848762Y372952D01*
X848762Y378848D01*
X851018Y384294D01*
X855186Y388462D01*
X860155Y390520D01*
X860156Y390522D01*
X860157Y390523D01*
X860157Y390524D01*
X860158Y390526D01*
X860156Y390527D01*
X860155Y390530D01*
X855186Y392588D01*
X851018Y396756D01*
X848762Y402202D01*
X848762Y408098D01*
X851018Y413544D01*
X855186Y417712D01*
X855418Y417808D01*
X855419Y417810D01*
X855421Y417810D01*
X855420Y417812D01*
X855421Y417814D01*
X855419Y417815D01*
X855418Y417818D01*
X848479Y420692D01*
X841992Y427179D01*
X840623Y430484D01*
X840620Y430485D01*
X840619Y430487D01*
X840618Y430487D01*
X840617Y430487D01*
X840615Y430484D01*
X840613Y430482D01*
X840613Y429899D01*
X838831Y428117D01*
X822329Y428117D01*
X820547Y429899D01*
X820547Y446401D01*
X822329Y448183D01*
X838831Y448183D01*
X839562Y447452D01*
X839563Y447451D01*
X839564Y447452D01*
X839565Y447451D01*
X839566Y447452D01*
X839568Y447452D01*
X839568Y447453D01*
X839570Y447454D01*
X841992Y453301D01*
X848479Y459788D01*
X856953Y463298D01*
X866127Y463298D01*
X874601Y459788D01*
X881088Y453301D01*
X882711Y449383D01*
X882717Y449380D01*
X882717Y449381D01*
X882718Y449380D01*
X883888Y450056D01*
X890604Y451855D01*
X897556Y451855D01*
X904272Y450056D01*
X910004Y446746D01*
X910005Y446746D01*
X910006Y446746D01*
X910008Y446747D01*
X910011Y446747D01*
X910010Y446749D01*
X910012Y446750D01*
X910012Y447431D01*
X911834Y451829D01*
X915201Y455196D01*
X919599Y457018D01*
X924361Y457018D01*
X928759Y455196D01*
X932126Y451829D01*
X933948Y447431D01*
X933948Y442669D01*
X932126Y438271D01*
X928759Y434904D01*
X924361Y433082D01*
X919599Y433082D01*
X919353Y433184D01*
X919351Y433184D01*
X919350Y433184D01*
X919349Y433183D01*
X919346Y433182D01*
X919347Y433180D01*
X919346Y433178D01*
X920485Y428926D01*
X920485Y421974D01*
X918686Y415258D01*
X915209Y409237D01*
X910293Y404321D01*
X904272Y400844D01*
X897556Y399045D01*
X890604Y399045D01*
X883888Y400844D01*
X878406Y404010D01*
X878405Y404009D01*
X878404Y404010D01*
X878402Y404009D01*
X878399Y404008D01*
X878400Y404006D01*
X878398Y404005D01*
X878398Y402202D01*
X876142Y396756D01*
X871974Y392588D01*
X867005Y390530D01*
X867004Y390528D01*
X867003Y390527D01*
X867003Y390526D01*
X867002Y390524D01*
X867004Y390523D01*
X867005Y390520D01*
X871974Y388462D01*
X876142Y384294D01*
X878398Y378848D01*
X878398Y377045D01*
X878399Y377044D01*
X878399Y377043D01*
X878400Y377042D01*
X878403Y377040D01*
X878404Y377041D01*
X878406Y377040D01*
X883888Y380206D01*
X890604Y382005D01*
X897556Y382005D01*
X904272Y380206D01*
X910293Y376729D01*
X914935Y372088D01*
X914942Y372087D01*
X914942Y372088D01*
X915201Y372346D01*
X919599Y374168D01*
X924361Y374168D01*
X928759Y372346D01*
X932126Y368979D01*
X933948Y364581D01*
X933948Y359819D01*
X932126Y355421D01*
X928759Y352054D01*
X924361Y350232D01*
X919982Y350232D01*
X919979Y350229D01*
X919977Y350228D01*
X918686Y345408D01*
X915209Y339387D01*
X910293Y334471D01*
X904272Y330994D01*
X897556Y329195D01*
X890604Y329195D01*
G37*
%LPD*%
%LPC*%
G36*
X907515Y192715D02*
X907515Y192715D01*
X902849Y194647D01*
X899277Y198219D01*
X897345Y202885D01*
X897345Y207935D01*
X899277Y212601D01*
X902849Y216173D01*
X903739Y216541D01*
X903740Y216544D01*
X903742Y216546D01*
X903742Y216547D01*
X903739Y216549D01*
X903736Y216551D01*
X897556Y214895D01*
X890604Y214895D01*
X883888Y216694D01*
X878406Y219860D01*
X878405Y219859D01*
X878404Y219860D01*
X878402Y219859D01*
X878399Y219858D01*
X878400Y219856D01*
X878398Y219855D01*
X878398Y218052D01*
X876142Y212606D01*
X871974Y208438D01*
X866528Y206182D01*
X860632Y206182D01*
X855186Y208438D01*
X851018Y212606D01*
X848762Y218052D01*
X848762Y223948D01*
X851018Y229394D01*
X855186Y233562D01*
X860632Y235818D01*
X866528Y235818D01*
X868413Y235037D01*
X868415Y235038D01*
X868416Y235037D01*
X868417Y235038D01*
X868419Y235039D01*
X868419Y235041D01*
X868420Y235043D01*
X867675Y237824D01*
X867675Y244776D01*
X869474Y251492D01*
X872951Y257513D01*
X877867Y262429D01*
X883888Y265906D01*
X890604Y267705D01*
X897556Y267705D01*
X904272Y265906D01*
X910004Y262596D01*
X910005Y262596D01*
X910006Y262596D01*
X910008Y262597D01*
X910011Y262597D01*
X910010Y262599D01*
X910012Y262600D01*
X910012Y263281D01*
X911834Y267679D01*
X915201Y271046D01*
X919599Y272868D01*
X924361Y272868D01*
X928759Y271046D01*
X932126Y267679D01*
X933948Y263281D01*
X933948Y258519D01*
X932126Y254121D01*
X928759Y250754D01*
X924361Y248932D01*
X919599Y248932D01*
X919353Y249034D01*
X919352Y249034D01*
X919351Y249034D01*
X919350Y249034D01*
X919349Y249033D01*
X919346Y249032D01*
X919347Y249030D01*
X919346Y249029D01*
X919346Y249028D01*
X920485Y244776D01*
X920485Y237824D01*
X918686Y231108D01*
X915209Y225087D01*
X910293Y220171D01*
X904753Y216972D01*
X904752Y216969D01*
X904751Y216966D01*
X904754Y216965D01*
X904757Y216963D01*
X907515Y218105D01*
X912565Y218105D01*
X917231Y216173D01*
X920803Y212601D01*
X922261Y209081D01*
X922262Y209080D01*
X922263Y209078D01*
X922265Y209079D01*
X922267Y209078D01*
X922268Y209080D01*
X922270Y209081D01*
X922763Y210272D01*
X925178Y212687D01*
X928333Y213993D01*
X931747Y213993D01*
X934902Y212687D01*
X937317Y210272D01*
X938623Y207117D01*
X938623Y203703D01*
X937317Y200548D01*
X934902Y198133D01*
X931747Y196827D01*
X928333Y196827D01*
X925178Y198133D01*
X922763Y200548D01*
X922270Y201739D01*
X922268Y201740D01*
X922268Y201742D01*
X922266Y201741D01*
X922264Y201742D01*
X922263Y201740D01*
X922261Y201739D01*
X920803Y198219D01*
X917231Y194647D01*
X912565Y192715D01*
X907515Y192715D01*
G37*
%LPD*%
%LPC*%
G36*
X90152Y14247D02*
X90152Y14247D01*
X87475Y16923D01*
X74310Y30089D01*
X71633Y32766D01*
X71633Y107442D01*
X71628Y107447D01*
X71628Y107446D01*
X71628Y107447D01*
X21599Y107447D01*
X19817Y109229D01*
X19817Y137151D01*
X21599Y138933D01*
X74921Y138933D01*
X76703Y137151D01*
X76703Y118988D01*
X76705Y118986D01*
X76705Y118984D01*
X80767Y114922D01*
X80767Y36552D01*
X80769Y36550D01*
X80769Y36548D01*
X93934Y23382D01*
X93937Y23382D01*
X93938Y23381D01*
X118520Y23381D01*
X118522Y23383D01*
X118523Y23382D01*
X122431Y27290D01*
X122431Y27292D01*
X122432Y27293D01*
X122433Y27294D01*
X122433Y28022D01*
X122430Y28025D01*
X122430Y28027D01*
X121535Y28397D01*
X118821Y31111D01*
X117353Y34657D01*
X117353Y51703D01*
X118821Y55249D01*
X121535Y57963D01*
X125081Y59431D01*
X128919Y59431D01*
X132465Y57963D01*
X135179Y55249D01*
X136647Y51703D01*
X136647Y34657D01*
X135179Y31111D01*
X132465Y28397D01*
X131570Y28027D01*
X131569Y28024D01*
X131567Y28022D01*
X131567Y23508D01*
X122306Y14247D01*
X90152Y14247D01*
G37*
%LPD*%
%LPC*%
G36*
X99681Y26929D02*
X99681Y26929D01*
X96135Y28397D01*
X93421Y31111D01*
X91953Y34657D01*
X91953Y46366D01*
X91951Y46368D01*
X91951Y46370D01*
X84333Y53988D01*
X84333Y163206D01*
X84331Y163208D01*
X84331Y163210D01*
X75442Y172099D01*
X75440Y172099D01*
X75439Y172101D01*
X75437Y172100D01*
X75435Y172100D01*
X75435Y172097D01*
X75433Y172096D01*
X75433Y170189D01*
X73651Y168407D01*
X20329Y168407D01*
X18547Y170189D01*
X18547Y198111D01*
X20329Y199893D01*
X73651Y199893D01*
X75433Y198111D01*
X75433Y182372D01*
X75438Y182367D01*
X75438Y182368D01*
X75438Y182367D01*
X78092Y182367D01*
X93467Y166992D01*
X93467Y57774D01*
X93469Y57772D01*
X93469Y57770D01*
X94702Y56537D01*
X94709Y56536D01*
X94709Y56537D01*
X96135Y57963D01*
X99681Y59431D01*
X103519Y59431D01*
X107065Y57963D01*
X109779Y55249D01*
X111247Y51703D01*
X111247Y34657D01*
X109779Y31111D01*
X107065Y28397D01*
X103519Y26929D01*
X99681Y26929D01*
G37*
%LPD*%
%LPC*%
G36*
X81579Y444097D02*
X81579Y444097D01*
X79797Y445879D01*
X79797Y479561D01*
X81579Y481343D01*
X115261Y481343D01*
X117043Y479561D01*
X117043Y445879D01*
X115261Y444097D01*
X81579Y444097D01*
G37*
%LPD*%
%LPC*%
G36*
X81589Y323837D02*
X81589Y323837D01*
X79807Y325619D01*
X79807Y359301D01*
X81589Y361083D01*
X115271Y361083D01*
X117053Y359301D01*
X117053Y325619D01*
X115271Y323837D01*
X81589Y323837D01*
G37*
%LPD*%
G36*
X735330Y476180D02*
X735330Y476180D01*
X735331Y476180D01*
X735332Y476181D01*
X735334Y476181D01*
X737231Y478079D01*
X740777Y479547D01*
X757823Y479547D01*
X761369Y478079D01*
X762181Y477266D01*
X762188Y477265D01*
X762188Y477266D01*
X769623Y484701D01*
X769624Y484703D01*
X769625Y484704D01*
X769625Y497402D01*
X791648Y519425D01*
X798604Y519425D01*
X798605Y519426D01*
X798607Y519426D01*
X798607Y519428D01*
X798609Y519430D01*
X798607Y519431D01*
X798607Y519434D01*
X796674Y521367D01*
X796424Y521972D01*
X796420Y521973D01*
X796419Y521975D01*
X784028Y521975D01*
X772599Y533403D01*
X772597Y533404D01*
X772596Y533405D01*
X743784Y533405D01*
X743783Y533403D01*
X743781Y533403D01*
X740705Y530328D01*
X740705Y530326D01*
X740704Y530325D01*
X740705Y530324D01*
X740704Y530323D01*
X740705Y530322D01*
X740705Y530321D01*
X740708Y530321D01*
X740709Y530320D01*
X740710Y530320D01*
X740711Y530320D01*
X740777Y530347D01*
X757823Y530347D01*
X761369Y528879D01*
X764083Y526165D01*
X765551Y522619D01*
X765551Y518781D01*
X764083Y515235D01*
X761369Y512521D01*
X757823Y511053D01*
X740777Y511053D01*
X737231Y512521D01*
X735334Y514419D01*
X735332Y514419D01*
X735331Y514421D01*
X735329Y514419D01*
X735327Y514420D01*
X735327Y514417D01*
X735325Y514416D01*
X735325Y501584D01*
X735326Y501583D01*
X735326Y501581D01*
X735328Y501581D01*
X735330Y501579D01*
X735331Y501580D01*
X735332Y501581D01*
X735334Y501581D01*
X737231Y503479D01*
X740777Y504947D01*
X757823Y504947D01*
X761369Y503479D01*
X764083Y500765D01*
X765551Y497219D01*
X765551Y493381D01*
X764083Y489835D01*
X761369Y487121D01*
X757823Y485653D01*
X740777Y485653D01*
X737231Y487121D01*
X735334Y489019D01*
X735332Y489019D01*
X735331Y489021D01*
X735329Y489019D01*
X735327Y489020D01*
X735327Y489017D01*
X735325Y489016D01*
X735325Y476184D01*
X735326Y476183D01*
X735326Y476181D01*
X735328Y476181D01*
X735330Y476179D01*
X735330Y476180D01*
G37*
%LPC*%
G36*
X404481Y26929D02*
X404481Y26929D01*
X400935Y28397D01*
X398221Y31111D01*
X396753Y34657D01*
X396753Y51703D01*
X398221Y55249D01*
X400935Y57963D01*
X401830Y58333D01*
X401831Y58336D01*
X401833Y58337D01*
X401833Y58338D01*
X401833Y65151D01*
X401828Y65156D01*
X401828Y65155D01*
X401828Y65156D01*
X401825Y65156D01*
X395356Y71625D01*
X395356Y80775D01*
X401825Y87244D01*
X410975Y87244D01*
X417444Y80775D01*
X417444Y71625D01*
X410975Y65156D01*
X410972Y65156D01*
X410967Y65151D01*
X410968Y65151D01*
X410967Y65151D01*
X410967Y58338D01*
X410970Y58335D01*
X410970Y58333D01*
X411865Y57963D01*
X414579Y55249D01*
X416047Y51703D01*
X416047Y34657D01*
X414579Y31111D01*
X411865Y28397D01*
X408319Y26929D01*
X404481Y26929D01*
G37*
%LPD*%
%LPC*%
G36*
X379081Y26929D02*
X379081Y26929D01*
X375535Y28397D01*
X372821Y31111D01*
X371353Y34657D01*
X371353Y51703D01*
X372821Y55249D01*
X375535Y57963D01*
X376430Y58333D01*
X376431Y58336D01*
X376433Y58337D01*
X376433Y58338D01*
X376433Y65151D01*
X376428Y65156D01*
X376428Y65155D01*
X376428Y65156D01*
X376425Y65156D01*
X369956Y71625D01*
X369956Y80775D01*
X376425Y87244D01*
X385575Y87244D01*
X392044Y80775D01*
X392044Y71625D01*
X385575Y65156D01*
X385572Y65156D01*
X385567Y65151D01*
X385568Y65151D01*
X385567Y65151D01*
X385567Y58338D01*
X385570Y58335D01*
X385570Y58333D01*
X386465Y57963D01*
X389179Y55249D01*
X390647Y51703D01*
X390647Y34657D01*
X389179Y31111D01*
X386465Y28397D01*
X382919Y26929D01*
X379081Y26929D01*
G37*
%LPD*%
%LPC*%
G36*
X455281Y26929D02*
X455281Y26929D01*
X451735Y28397D01*
X449021Y31111D01*
X447553Y34657D01*
X447553Y51703D01*
X449021Y55249D01*
X451735Y57963D01*
X452630Y58333D01*
X452631Y58336D01*
X452633Y58337D01*
X452633Y58338D01*
X452633Y65151D01*
X452628Y65156D01*
X452628Y65155D01*
X452628Y65156D01*
X452625Y65156D01*
X446156Y71625D01*
X446156Y80775D01*
X452625Y87244D01*
X461775Y87244D01*
X468244Y80775D01*
X468244Y71625D01*
X461775Y65156D01*
X461772Y65156D01*
X461767Y65151D01*
X461768Y65151D01*
X461767Y65151D01*
X461767Y58338D01*
X461770Y58335D01*
X461770Y58333D01*
X462665Y57963D01*
X465379Y55249D01*
X466847Y51703D01*
X466847Y34657D01*
X465379Y31111D01*
X462665Y28397D01*
X459119Y26929D01*
X455281Y26929D01*
G37*
%LPD*%
%LPC*%
G36*
X163052Y363669D02*
X163052Y363669D01*
X161269Y365452D01*
X161269Y388928D01*
X163052Y390711D01*
X186528Y390711D01*
X188311Y388928D01*
X188311Y365452D01*
X186528Y363669D01*
X163052Y363669D01*
G37*
%LPD*%
G36*
X756087Y309877D02*
X756087Y309877D01*
X756089Y309877D01*
X781488Y335275D01*
X798604Y335275D01*
X798605Y335276D01*
X798607Y335276D01*
X798607Y335278D01*
X798609Y335280D01*
X798607Y335281D01*
X798607Y335284D01*
X796674Y337217D01*
X795898Y339092D01*
X795894Y339093D01*
X795893Y339095D01*
X781884Y339095D01*
X781883Y339093D01*
X781881Y339093D01*
X755212Y312425D01*
X696398Y312425D01*
X674375Y334448D01*
X674375Y541456D01*
X674373Y541458D01*
X674373Y541459D01*
X663379Y552453D01*
X663377Y552454D01*
X663376Y552455D01*
X648535Y552455D01*
X648533Y552454D01*
X648532Y552454D01*
X648531Y552452D01*
X648530Y552450D01*
X648531Y552449D01*
X648531Y552446D01*
X648967Y552011D01*
X674111Y526866D01*
X674111Y332304D01*
X674113Y332303D01*
X674113Y332301D01*
X696537Y309877D01*
X696539Y309876D01*
X696540Y309876D01*
X696540Y309875D01*
X756086Y309875D01*
X756087Y309877D01*
G37*
%LPC*%
G36*
X613777Y333253D02*
X613777Y333253D01*
X610231Y334721D01*
X607517Y337435D01*
X606049Y340981D01*
X606049Y344819D01*
X607517Y348365D01*
X610231Y351079D01*
X613777Y352547D01*
X630823Y352547D01*
X634369Y351079D01*
X637083Y348365D01*
X638551Y344819D01*
X638551Y340981D01*
X637083Y337435D01*
X634369Y334721D01*
X630823Y333253D01*
X613777Y333253D01*
G37*
%LPD*%
%LPC*%
G36*
X740777Y333253D02*
X740777Y333253D01*
X737231Y334721D01*
X734517Y337435D01*
X733049Y340981D01*
X733049Y344819D01*
X734517Y348365D01*
X737231Y351079D01*
X740777Y352547D01*
X757823Y352547D01*
X761369Y351079D01*
X764083Y348365D01*
X765551Y344819D01*
X765551Y340981D01*
X764083Y337435D01*
X761369Y334721D01*
X757823Y333253D01*
X740777Y333253D01*
G37*
%LPD*%
%LPC*%
G36*
X512177Y333253D02*
X512177Y333253D01*
X508631Y334721D01*
X505917Y337435D01*
X504449Y340981D01*
X504449Y344819D01*
X505917Y348365D01*
X508631Y351079D01*
X512177Y352547D01*
X529223Y352547D01*
X532769Y351079D01*
X535483Y348365D01*
X536951Y344819D01*
X536951Y340981D01*
X535483Y337435D01*
X532769Y334721D01*
X529223Y333253D01*
X512177Y333253D01*
G37*
%LPD*%
%LPC*%
G36*
X613777Y460253D02*
X613777Y460253D01*
X610231Y461721D01*
X607517Y464435D01*
X606049Y467981D01*
X606049Y471819D01*
X607517Y475365D01*
X610231Y478079D01*
X613777Y479547D01*
X630823Y479547D01*
X634369Y478079D01*
X637083Y475365D01*
X638551Y471819D01*
X638551Y467981D01*
X637083Y464435D01*
X634369Y461721D01*
X630823Y460253D01*
X613777Y460253D01*
G37*
%LPD*%
%LPC*%
G36*
X207377Y384053D02*
X207377Y384053D01*
X203831Y385521D01*
X201117Y388235D01*
X199649Y391781D01*
X199649Y395619D01*
X201117Y399165D01*
X203831Y401879D01*
X207377Y403347D01*
X224423Y403347D01*
X227969Y401879D01*
X230683Y399165D01*
X232151Y395619D01*
X232151Y391781D01*
X230683Y388235D01*
X227969Y385521D01*
X224423Y384053D01*
X207377Y384053D01*
G37*
%LPD*%
%LPC*%
G36*
X613777Y384053D02*
X613777Y384053D01*
X610231Y385521D01*
X607517Y388235D01*
X606049Y391781D01*
X606049Y395619D01*
X607517Y399165D01*
X610231Y401879D01*
X613777Y403347D01*
X630823Y403347D01*
X634369Y401879D01*
X637083Y399165D01*
X638551Y395619D01*
X638551Y391781D01*
X637083Y388235D01*
X634369Y385521D01*
X630823Y384053D01*
X613777Y384053D01*
G37*
%LPD*%
%LPC*%
G36*
X613777Y409453D02*
X613777Y409453D01*
X610231Y410921D01*
X607517Y413635D01*
X606049Y417181D01*
X606049Y421019D01*
X607517Y424565D01*
X610231Y427279D01*
X613777Y428747D01*
X630823Y428747D01*
X634369Y427279D01*
X637083Y424565D01*
X638551Y421019D01*
X638551Y417181D01*
X637083Y413635D01*
X634369Y410921D01*
X630823Y409453D01*
X613777Y409453D01*
G37*
%LPD*%
%LPC*%
G36*
X207377Y358653D02*
X207377Y358653D01*
X203831Y360121D01*
X201117Y362835D01*
X199649Y366381D01*
X199649Y370219D01*
X201117Y373765D01*
X203831Y376479D01*
X207377Y377947D01*
X224423Y377947D01*
X227969Y376479D01*
X230683Y373765D01*
X232151Y370219D01*
X232151Y366381D01*
X230683Y362835D01*
X227969Y360121D01*
X224423Y358653D01*
X207377Y358653D01*
G37*
%LPD*%
%LPC*%
G36*
X385177Y358653D02*
X385177Y358653D01*
X381631Y360121D01*
X378917Y362835D01*
X377449Y366381D01*
X377449Y370219D01*
X378917Y373765D01*
X381631Y376479D01*
X385177Y377947D01*
X402223Y377947D01*
X405769Y376479D01*
X408483Y373765D01*
X409951Y370219D01*
X409951Y366381D01*
X408483Y362835D01*
X405769Y360121D01*
X402223Y358653D01*
X385177Y358653D01*
G37*
%LPD*%
%LPC*%
G36*
X613777Y358653D02*
X613777Y358653D01*
X610231Y360121D01*
X607517Y362835D01*
X606049Y366381D01*
X606049Y370219D01*
X607517Y373765D01*
X610231Y376479D01*
X613777Y377947D01*
X630823Y377947D01*
X634369Y376479D01*
X637083Y373765D01*
X638551Y370219D01*
X638551Y366381D01*
X637083Y362835D01*
X634369Y360121D01*
X630823Y358653D01*
X613777Y358653D01*
G37*
%LPD*%
%LPC*%
G36*
X740777Y358653D02*
X740777Y358653D01*
X737231Y360121D01*
X734517Y362835D01*
X733049Y366381D01*
X733049Y370219D01*
X734517Y373765D01*
X737231Y376479D01*
X740777Y377947D01*
X757823Y377947D01*
X761369Y376479D01*
X764083Y373765D01*
X765551Y370219D01*
X765551Y366381D01*
X764083Y362835D01*
X761369Y360121D01*
X757823Y358653D01*
X740777Y358653D01*
G37*
%LPD*%
%LPC*%
G36*
X175881Y26929D02*
X175881Y26929D01*
X172335Y28397D01*
X169621Y31111D01*
X168153Y34657D01*
X168153Y51703D01*
X169621Y55249D01*
X172335Y57963D01*
X175881Y59431D01*
X179719Y59431D01*
X183265Y57963D01*
X185979Y55249D01*
X187447Y51703D01*
X187447Y34657D01*
X185979Y31111D01*
X183265Y28397D01*
X179719Y26929D01*
X175881Y26929D01*
G37*
%LPD*%
%LPC*%
G36*
X613777Y434853D02*
X613777Y434853D01*
X610231Y436321D01*
X607517Y439035D01*
X606049Y442581D01*
X606049Y446419D01*
X607517Y449965D01*
X610231Y452679D01*
X613777Y454147D01*
X630823Y454147D01*
X634369Y452679D01*
X637083Y449965D01*
X638551Y446419D01*
X638551Y442581D01*
X637083Y439035D01*
X634369Y436321D01*
X630823Y434853D01*
X613777Y434853D01*
G37*
%LPD*%
%LPC*%
G36*
X207377Y434853D02*
X207377Y434853D01*
X203831Y436321D01*
X201117Y439035D01*
X199649Y442581D01*
X199649Y446419D01*
X201117Y449965D01*
X203831Y452679D01*
X207377Y454147D01*
X224423Y454147D01*
X227969Y452679D01*
X230683Y449965D01*
X232151Y446419D01*
X232151Y442581D01*
X230683Y439035D01*
X227969Y436321D01*
X224423Y434853D01*
X207377Y434853D01*
G37*
%LPD*%
%LPC*%
G36*
X353681Y26929D02*
X353681Y26929D01*
X350135Y28397D01*
X347421Y31111D01*
X345953Y34657D01*
X345953Y51703D01*
X347421Y55249D01*
X350135Y57963D01*
X353681Y59431D01*
X357519Y59431D01*
X361065Y57963D01*
X363779Y55249D01*
X365247Y51703D01*
X365247Y34657D01*
X363779Y31111D01*
X361065Y28397D01*
X357519Y26929D01*
X353681Y26929D01*
G37*
%LPD*%
%LPC*%
G36*
X150481Y26929D02*
X150481Y26929D01*
X146935Y28397D01*
X144221Y31111D01*
X142753Y34657D01*
X142753Y51703D01*
X144221Y55249D01*
X146935Y57963D01*
X150481Y59431D01*
X154319Y59431D01*
X157865Y57963D01*
X160579Y55249D01*
X162047Y51703D01*
X162047Y34657D01*
X160579Y31111D01*
X157865Y28397D01*
X154319Y26929D01*
X150481Y26929D01*
G37*
%LPD*%
%LPC*%
G36*
X429881Y26929D02*
X429881Y26929D01*
X426335Y28397D01*
X423621Y31111D01*
X422153Y34657D01*
X422153Y51703D01*
X423621Y55249D01*
X426335Y57963D01*
X429881Y59431D01*
X433719Y59431D01*
X437265Y57963D01*
X439979Y55249D01*
X441447Y51703D01*
X441447Y34657D01*
X439979Y31111D01*
X437265Y28397D01*
X433719Y26929D01*
X429881Y26929D01*
G37*
%LPD*%
%LPC*%
G36*
X226681Y26929D02*
X226681Y26929D01*
X223135Y28397D01*
X220421Y31111D01*
X218953Y34657D01*
X218953Y51703D01*
X220421Y55249D01*
X223135Y57963D01*
X226681Y59431D01*
X230519Y59431D01*
X234065Y57963D01*
X236779Y55249D01*
X238247Y51703D01*
X238247Y34657D01*
X236779Y31111D01*
X234065Y28397D01*
X230519Y26929D01*
X226681Y26929D01*
G37*
%LPD*%
%LPC*%
G36*
X252081Y26929D02*
X252081Y26929D01*
X248535Y28397D01*
X245821Y31111D01*
X244353Y34657D01*
X244353Y51703D01*
X245821Y55249D01*
X248535Y57963D01*
X252081Y59431D01*
X255919Y59431D01*
X259465Y57963D01*
X262179Y55249D01*
X263647Y51703D01*
X263647Y34657D01*
X262179Y31111D01*
X259465Y28397D01*
X255919Y26929D01*
X252081Y26929D01*
G37*
%LPD*%
%LPC*%
G36*
X277481Y26929D02*
X277481Y26929D01*
X273935Y28397D01*
X271221Y31111D01*
X269753Y34657D01*
X269753Y51703D01*
X271221Y55249D01*
X273935Y57963D01*
X277481Y59431D01*
X281319Y59431D01*
X284865Y57963D01*
X287579Y55249D01*
X289047Y51703D01*
X289047Y34657D01*
X287579Y31111D01*
X284865Y28397D01*
X281319Y26929D01*
X277481Y26929D01*
G37*
%LPD*%
%LPC*%
G36*
X175881Y274579D02*
X175881Y274579D01*
X172335Y276047D01*
X169621Y278761D01*
X168153Y282307D01*
X168153Y299353D01*
X169621Y302899D01*
X172335Y305613D01*
X175881Y307081D01*
X179719Y307081D01*
X183265Y305613D01*
X185979Y302899D01*
X187447Y299353D01*
X187447Y282307D01*
X185979Y278761D01*
X183265Y276047D01*
X179719Y274579D01*
X175881Y274579D01*
G37*
%LPD*%
%LPC*%
G36*
X353681Y274579D02*
X353681Y274579D01*
X350135Y276047D01*
X347421Y278761D01*
X345953Y282307D01*
X345953Y299353D01*
X347421Y302899D01*
X350135Y305613D01*
X353681Y307081D01*
X357519Y307081D01*
X361065Y305613D01*
X363779Y302899D01*
X365247Y299353D01*
X365247Y282307D01*
X363779Y278761D01*
X361065Y276047D01*
X357519Y274579D01*
X353681Y274579D01*
G37*
%LPD*%
%LPC*%
G36*
X404481Y274579D02*
X404481Y274579D01*
X400935Y276047D01*
X398221Y278761D01*
X396753Y282307D01*
X396753Y299353D01*
X398221Y302899D01*
X400935Y305613D01*
X404481Y307081D01*
X408319Y307081D01*
X411865Y305613D01*
X414579Y302899D01*
X416047Y299353D01*
X416047Y282307D01*
X414579Y278761D01*
X411865Y276047D01*
X408319Y274579D01*
X404481Y274579D01*
G37*
%LPD*%
%LPC*%
G36*
X429881Y274579D02*
X429881Y274579D01*
X426335Y276047D01*
X423621Y278761D01*
X422153Y282307D01*
X422153Y299353D01*
X423621Y302899D01*
X426335Y305613D01*
X429881Y307081D01*
X433719Y307081D01*
X437265Y305613D01*
X439979Y302899D01*
X441447Y299353D01*
X441447Y282307D01*
X439979Y278761D01*
X437265Y276047D01*
X433719Y274579D01*
X429881Y274579D01*
G37*
%LPD*%
%LPC*%
G36*
X455281Y274579D02*
X455281Y274579D01*
X451735Y276047D01*
X449021Y278761D01*
X447553Y282307D01*
X447553Y299353D01*
X449021Y302899D01*
X451735Y305613D01*
X455281Y307081D01*
X459119Y307081D01*
X462665Y305613D01*
X465379Y302899D01*
X466847Y299353D01*
X466847Y282307D01*
X465379Y278761D01*
X462665Y276047D01*
X459119Y274579D01*
X455281Y274579D01*
G37*
%LPD*%
%LPC*%
G36*
X328281Y26929D02*
X328281Y26929D01*
X324735Y28397D01*
X322021Y31111D01*
X320553Y34657D01*
X320553Y51703D01*
X322021Y55249D01*
X324735Y57963D01*
X328281Y59431D01*
X332119Y59431D01*
X335665Y57963D01*
X338379Y55249D01*
X339847Y51703D01*
X339847Y34657D01*
X338379Y31111D01*
X335665Y28397D01*
X332119Y26929D01*
X328281Y26929D01*
G37*
%LPD*%
%LPC*%
G36*
X302881Y26929D02*
X302881Y26929D01*
X299335Y28397D01*
X296621Y31111D01*
X295153Y34657D01*
X295153Y51703D01*
X296621Y55249D01*
X299335Y57963D01*
X302881Y59431D01*
X306719Y59431D01*
X310265Y57963D01*
X312979Y55249D01*
X314447Y51703D01*
X314447Y34657D01*
X312979Y31111D01*
X310265Y28397D01*
X306719Y26929D01*
X302881Y26929D01*
G37*
%LPD*%
%LPC*%
G36*
X201281Y26929D02*
X201281Y26929D01*
X197735Y28397D01*
X195021Y31111D01*
X193553Y34657D01*
X193553Y51703D01*
X195021Y55249D01*
X197735Y57963D01*
X201281Y59431D01*
X205119Y59431D01*
X208665Y57963D01*
X211379Y55249D01*
X212847Y51703D01*
X212847Y34657D01*
X211379Y31111D01*
X208665Y28397D01*
X205119Y26929D01*
X201281Y26929D01*
G37*
%LPD*%
%LPC*%
G36*
X613777Y511053D02*
X613777Y511053D01*
X610231Y512521D01*
X607517Y515235D01*
X606049Y518781D01*
X606049Y522619D01*
X607517Y526165D01*
X610231Y528879D01*
X613777Y530347D01*
X630823Y530347D01*
X634369Y528879D01*
X637083Y526165D01*
X638551Y522619D01*
X638551Y518781D01*
X637083Y515235D01*
X634369Y512521D01*
X630823Y511053D01*
X613777Y511053D01*
G37*
%LPD*%
%LPC*%
G36*
X207377Y511053D02*
X207377Y511053D01*
X203831Y512521D01*
X201117Y515235D01*
X199649Y518781D01*
X199649Y522619D01*
X201117Y526165D01*
X203831Y528879D01*
X207377Y530347D01*
X224423Y530347D01*
X227969Y528879D01*
X230683Y526165D01*
X232151Y522619D01*
X232151Y518781D01*
X230683Y515235D01*
X227969Y512521D01*
X224423Y511053D01*
X207377Y511053D01*
G37*
%LPD*%
%LPC*%
G36*
X613777Y485653D02*
X613777Y485653D01*
X610231Y487121D01*
X607517Y489835D01*
X606049Y493381D01*
X606049Y497219D01*
X607517Y500765D01*
X610231Y503479D01*
X613777Y504947D01*
X630823Y504947D01*
X634369Y503479D01*
X637083Y500765D01*
X638551Y497219D01*
X638551Y493381D01*
X637083Y489835D01*
X634369Y487121D01*
X630823Y485653D01*
X613777Y485653D01*
G37*
%LPD*%
%LPC*%
G36*
X512177Y485653D02*
X512177Y485653D01*
X508631Y487121D01*
X505917Y489835D01*
X504449Y493381D01*
X504449Y497219D01*
X505917Y500765D01*
X508631Y503479D01*
X512177Y504947D01*
X529223Y504947D01*
X532769Y503479D01*
X535483Y500765D01*
X536951Y497219D01*
X536951Y493381D01*
X535483Y489835D01*
X532769Y487121D01*
X529223Y485653D01*
X512177Y485653D01*
G37*
%LPD*%
%LPC*%
G36*
X553833Y79253D02*
X553833Y79253D01*
X550287Y80721D01*
X547573Y83435D01*
X546105Y86981D01*
X546105Y90819D01*
X547573Y94365D01*
X550287Y97079D01*
X553833Y98547D01*
X570879Y98547D01*
X574425Y97079D01*
X577139Y94365D01*
X578607Y90819D01*
X578607Y86981D01*
X577139Y83435D01*
X574425Y80721D01*
X570879Y79253D01*
X553833Y79253D01*
G37*
%LPD*%
%LPC*%
G36*
X207377Y485653D02*
X207377Y485653D01*
X203831Y487121D01*
X201117Y489835D01*
X199649Y493381D01*
X199649Y497219D01*
X201117Y500765D01*
X203831Y503479D01*
X207377Y504947D01*
X224423Y504947D01*
X227969Y503479D01*
X230683Y500765D01*
X232151Y497219D01*
X232151Y493381D01*
X230683Y489835D01*
X227969Y487121D01*
X224423Y485653D01*
X207377Y485653D01*
G37*
%LPD*%
%LPC*%
G36*
X643241Y130053D02*
X643241Y130053D01*
X639695Y131521D01*
X636981Y134235D01*
X635513Y137781D01*
X635513Y141619D01*
X636981Y145165D01*
X639695Y147879D01*
X643241Y149347D01*
X660287Y149347D01*
X663833Y147879D01*
X666547Y145165D01*
X668015Y141619D01*
X668015Y137781D01*
X666547Y134235D01*
X663833Y131521D01*
X660287Y130053D01*
X643241Y130053D01*
G37*
%LPD*%
%LPC*%
G36*
X553833Y104653D02*
X553833Y104653D01*
X550287Y106121D01*
X547573Y108835D01*
X546105Y112381D01*
X546105Y116219D01*
X547573Y119765D01*
X550287Y122479D01*
X553833Y123947D01*
X570879Y123947D01*
X574425Y122479D01*
X577139Y119765D01*
X578607Y116219D01*
X578607Y112381D01*
X577139Y108835D01*
X574425Y106121D01*
X570879Y104653D01*
X553833Y104653D01*
G37*
%LPD*%
G36*
X776407Y270507D02*
X776407Y270507D01*
X776409Y270507D01*
X795396Y289494D01*
X795397Y289497D01*
X795397Y289499D01*
X795147Y290104D01*
X795147Y294096D01*
X796674Y297783D01*
X797977Y299086D01*
X797977Y299088D01*
X797978Y299088D01*
X797979Y299089D01*
X797978Y299091D01*
X797978Y299093D01*
X797975Y299093D01*
X797974Y299095D01*
X797764Y299095D01*
X797763Y299093D01*
X797761Y299093D01*
X770452Y271785D01*
X635438Y271785D01*
X585474Y321749D01*
X585472Y321749D01*
X585471Y321750D01*
X585469Y321749D01*
X585467Y321749D01*
X585467Y321747D01*
X585465Y321745D01*
X585465Y318334D01*
X585467Y318333D01*
X585467Y318331D01*
X633291Y270507D01*
X633293Y270506D01*
X633294Y270505D01*
X776406Y270505D01*
X776407Y270507D01*
G37*
%LPC*%
G36*
X147825Y67696D02*
X147825Y67696D01*
X141356Y74165D01*
X141356Y83315D01*
X147825Y89784D01*
X156975Y89784D01*
X163444Y83315D01*
X163444Y74165D01*
X156975Y67696D01*
X147825Y67696D01*
G37*
%LPD*%
%LPC*%
G36*
X325625Y65156D02*
X325625Y65156D01*
X319156Y71625D01*
X319156Y80775D01*
X325625Y87244D01*
X334775Y87244D01*
X341244Y80775D01*
X341244Y71625D01*
X334775Y65156D01*
X325625Y65156D01*
G37*
%LPD*%
%LPC*%
G36*
X274825Y65156D02*
X274825Y65156D01*
X268356Y71625D01*
X268356Y80775D01*
X274825Y87244D01*
X283975Y87244D01*
X290444Y80775D01*
X290444Y71625D01*
X283975Y65156D01*
X274825Y65156D01*
G37*
%LPD*%
%LPC*%
G36*
X300225Y65156D02*
X300225Y65156D01*
X293756Y71625D01*
X293756Y80775D01*
X300225Y87244D01*
X309375Y87244D01*
X315844Y80775D01*
X315844Y71625D01*
X309375Y65156D01*
X300225Y65156D01*
G37*
%LPD*%
%LPC*%
G36*
X803184Y440817D02*
X803184Y440817D01*
X799497Y442344D01*
X796674Y445167D01*
X795147Y448854D01*
X795147Y452846D01*
X796674Y456533D01*
X799497Y459356D01*
X803184Y460883D01*
X807176Y460883D01*
X810863Y459356D01*
X813686Y456533D01*
X815213Y452846D01*
X815213Y448854D01*
X813686Y445167D01*
X810863Y442344D01*
X807176Y440817D01*
X803184Y440817D01*
G37*
%LPD*%
%LPC*%
G36*
X828584Y453517D02*
X828584Y453517D01*
X824897Y455044D01*
X822074Y457867D01*
X820547Y461554D01*
X820547Y465546D01*
X822074Y469233D01*
X824897Y472056D01*
X828584Y473583D01*
X832576Y473583D01*
X836263Y472056D01*
X839086Y469233D01*
X840613Y465546D01*
X840613Y461554D01*
X839086Y457867D01*
X836263Y455044D01*
X832576Y453517D01*
X828584Y453517D01*
G37*
%LPD*%
%LPC*%
G36*
X803184Y466217D02*
X803184Y466217D01*
X799497Y467744D01*
X796674Y470567D01*
X795147Y474254D01*
X795147Y478246D01*
X796674Y481933D01*
X799497Y484756D01*
X803184Y486283D01*
X807176Y486283D01*
X810863Y484756D01*
X813686Y481933D01*
X815213Y478246D01*
X815213Y474254D01*
X813686Y470567D01*
X810863Y467744D01*
X807176Y466217D01*
X803184Y466217D01*
G37*
%LPD*%
G36*
X766247Y281937D02*
X766247Y281937D01*
X766249Y281937D01*
X793558Y309245D01*
X799234Y309245D01*
X799235Y309246D01*
X799237Y309246D01*
X799237Y309248D01*
X799239Y309250D01*
X799237Y309251D01*
X799237Y309254D01*
X796674Y311817D01*
X796318Y312676D01*
X796315Y312677D01*
X796314Y312679D01*
X793568Y312679D01*
X793567Y312677D01*
X793565Y312677D01*
X764102Y283215D01*
X639248Y283215D01*
X597339Y325123D01*
X594364Y328099D01*
X594362Y328099D01*
X594361Y328100D01*
X594359Y328099D01*
X594357Y328099D01*
X594357Y328097D01*
X594355Y328095D01*
X594355Y327224D01*
X594357Y327223D01*
X594357Y327221D01*
X639641Y281937D01*
X639643Y281936D01*
X639644Y281935D01*
X766246Y281935D01*
X766247Y281937D01*
G37*
%LPC*%
G36*
X135704Y180853D02*
X135704Y180853D01*
X130053Y186504D01*
X130053Y194496D01*
X135704Y200147D01*
X143696Y200147D01*
X149347Y194496D01*
X149347Y186504D01*
X143696Y180853D01*
X135704Y180853D01*
G37*
%LPD*%
%LPC*%
G36*
X262704Y138943D02*
X262704Y138943D01*
X257053Y144594D01*
X257053Y152586D01*
X262704Y158237D01*
X270696Y158237D01*
X276347Y152586D01*
X276347Y144594D01*
X270696Y138943D01*
X262704Y138943D01*
G37*
%LPD*%
%LPC*%
G36*
X460824Y194823D02*
X460824Y194823D01*
X455173Y200474D01*
X455173Y208466D01*
X460824Y214117D01*
X468816Y214117D01*
X474467Y208466D01*
X474467Y200474D01*
X468816Y194823D01*
X460824Y194823D01*
G37*
%LPD*%
%LPC*%
G36*
X262704Y180853D02*
X262704Y180853D01*
X257053Y186504D01*
X257053Y194496D01*
X262704Y200147D01*
X270696Y200147D01*
X276347Y194496D01*
X276347Y186504D01*
X270696Y180853D01*
X262704Y180853D01*
G37*
%LPD*%
%LPC*%
G36*
X135704Y138943D02*
X135704Y138943D01*
X130053Y144594D01*
X130053Y152586D01*
X135704Y158237D01*
X143696Y158237D01*
X149347Y152586D01*
X149347Y144594D01*
X143696Y138943D01*
X135704Y138943D01*
G37*
%LPD*%
%LPC*%
G36*
X384624Y142753D02*
X384624Y142753D01*
X378973Y148404D01*
X378973Y156396D01*
X384624Y162047D01*
X392616Y162047D01*
X398267Y156396D01*
X398267Y148404D01*
X392616Y142753D01*
X384624Y142753D01*
G37*
%LPD*%
G36*
X508001Y258641D02*
X508001Y258641D01*
X508003Y258641D01*
X508003Y258643D01*
X508005Y258645D01*
X508005Y315396D01*
X508003Y315397D01*
X508003Y315399D01*
X504194Y319209D01*
X504192Y319209D01*
X504191Y319210D01*
X504189Y319209D01*
X504187Y319209D01*
X504187Y319207D01*
X504185Y319205D01*
X504185Y262454D01*
X504187Y262453D01*
X504187Y262451D01*
X507996Y258641D01*
X507998Y258641D01*
X507999Y258640D01*
X508001Y258641D01*
G37*
G36*
X594361Y512641D02*
X594361Y512641D01*
X594363Y512641D01*
X594363Y512643D01*
X594365Y512645D01*
X594365Y514786D01*
X594363Y514787D01*
X594363Y514789D01*
X573209Y535943D01*
X573207Y535944D01*
X573206Y535944D01*
X573206Y535945D01*
X571065Y535945D01*
X571063Y535944D01*
X571062Y535944D01*
X571061Y535942D01*
X571060Y535940D01*
X571061Y535939D01*
X571061Y535936D01*
X571497Y535501D01*
X594356Y512641D01*
X594358Y512641D01*
X594359Y512640D01*
X594361Y512641D01*
G37*
G36*
X565151Y311327D02*
X565151Y311327D01*
X565153Y311327D01*
X565153Y311329D01*
X565155Y311331D01*
X565155Y323669D01*
X565154Y323670D01*
X565154Y323672D01*
X565152Y323672D01*
X565150Y323674D01*
X565149Y323672D01*
X565146Y323673D01*
X558977Y317504D01*
X558977Y317497D01*
X558977Y317496D01*
X565146Y311327D01*
X565148Y311327D01*
X565149Y311326D01*
X565151Y311327D01*
G37*
G36*
X18184Y12696D02*
X18184Y12696D01*
X18186Y12696D01*
X18186Y12698D01*
X18188Y12699D01*
X18186Y12701D01*
X18186Y12704D01*
X17870Y13019D01*
X14229Y19326D01*
X12705Y25016D01*
X12703Y25017D01*
X12701Y25019D01*
X12700Y25019D01*
X12699Y25019D01*
X12697Y25017D01*
X12695Y25014D01*
X12695Y12700D01*
X12699Y12695D01*
X12700Y12695D01*
X18183Y12695D01*
X18184Y12696D01*
G37*
G36*
X442353Y123948D02*
X442353Y123948D01*
X442355Y123948D01*
X442355Y123950D01*
X442357Y123952D01*
X442355Y123953D01*
X442355Y123956D01*
X441201Y125110D01*
X417580Y148731D01*
X417578Y148731D01*
X417577Y148733D01*
X417575Y148732D01*
X417573Y148732D01*
X417573Y148729D01*
X417571Y148728D01*
X417571Y147690D01*
X417573Y147688D01*
X417573Y147686D01*
X441310Y123949D01*
X441313Y123948D01*
X441314Y123947D01*
X442352Y123947D01*
X442353Y123948D01*
G37*
G36*
X317501Y530421D02*
X317501Y530421D01*
X317504Y530421D01*
X320479Y533397D01*
X339529Y552446D01*
X339529Y552448D01*
X339530Y552449D01*
X339529Y552451D01*
X339529Y552453D01*
X339527Y552453D01*
X339525Y552455D01*
X338654Y552455D01*
X338653Y552453D01*
X338651Y552453D01*
X317497Y531299D01*
X317496Y531297D01*
X317495Y531296D01*
X317495Y530425D01*
X317496Y530423D01*
X317496Y530422D01*
X317498Y530421D01*
X317500Y530420D01*
X317501Y530421D01*
G37*
G36*
X257214Y306546D02*
X257214Y306546D01*
X257217Y306546D01*
X257217Y306547D01*
X257218Y306548D01*
X257217Y306551D01*
X257217Y306554D01*
X257190Y306581D01*
X257187Y306581D01*
X257187Y306582D01*
X257186Y306583D01*
X257147Y306583D01*
X257145Y306581D01*
X257143Y306580D01*
X257143Y306579D01*
X257142Y306578D01*
X257144Y306576D01*
X257145Y306573D01*
X257212Y306546D01*
X257214Y306546D01*
G37*
D10*
X568960Y139700D02*
X555752Y139700D01*
X555752Y114300D02*
X568960Y114300D01*
X645160Y114300D02*
X658368Y114300D01*
X658368Y139700D02*
X645160Y139700D01*
X568960Y88900D02*
X555752Y88900D01*
X645160Y88900D02*
X658368Y88900D01*
D11*
X388620Y152400D03*
X464820Y152400D03*
X388620Y204470D03*
X464820Y204470D03*
X139700Y148590D03*
X266700Y148590D03*
D12*
X266700Y190500D03*
X139700Y190500D03*
D13*
X29680Y402590D03*
X174460Y427990D03*
X29680Y427990D03*
X30010Y377190D03*
X174790Y377190D03*
D14*
X98430Y342460D03*
X98420Y462720D03*
D15*
X830580Y438150D03*
D16*
X805180Y450850D03*
X830580Y463550D03*
X805180Y476250D03*
X830580Y488950D03*
X805180Y501650D03*
X830580Y514350D03*
X805180Y527050D03*
D17*
X863580Y560050D03*
X863580Y405150D03*
D18*
X921980Y445050D03*
X921980Y546350D03*
X937280Y419650D03*
X937280Y520950D03*
D15*
X830580Y254000D03*
D16*
X805180Y266700D03*
X830580Y279400D03*
X805180Y292100D03*
X830580Y304800D03*
X805180Y317500D03*
X830580Y330200D03*
X805180Y342900D03*
D17*
X863580Y375900D03*
X863580Y221000D03*
D18*
X921980Y260900D03*
X921980Y362200D03*
X937280Y235500D03*
X937280Y336800D03*
D19*
X748030Y30480D03*
X748030Y81280D03*
D20*
X806450Y30480D03*
X806450Y81280D03*
D21*
X930040Y205410D03*
D22*
X910040Y205410D03*
D23*
X900040Y124300D03*
D22*
X920040Y124300D03*
X930040Y144300D03*
D24*
X381000Y76200D03*
X330200Y76200D03*
D25*
X304800Y76200D03*
X279400Y76200D03*
X152400Y78740D03*
X457200Y76200D03*
D20*
X46990Y184150D03*
X48260Y123190D03*
D25*
X406400Y76200D03*
D10*
X457200Y49784D02*
X457200Y36576D01*
X431800Y36576D02*
X431800Y49784D01*
X406400Y49784D02*
X406400Y36576D01*
X381000Y36576D02*
X381000Y49784D01*
X355600Y49784D02*
X355600Y36576D01*
X330200Y36576D02*
X330200Y49784D01*
X304800Y49784D02*
X304800Y36576D01*
X279400Y36576D02*
X279400Y49784D01*
X254000Y49784D02*
X254000Y36576D01*
X228600Y36576D02*
X228600Y49784D01*
X203200Y49784D02*
X203200Y36576D01*
X177800Y36576D02*
X177800Y49784D01*
X152400Y49784D02*
X152400Y36576D01*
X127000Y36576D02*
X127000Y49784D01*
X101600Y49784D02*
X101600Y36576D01*
X101600Y284226D02*
X101600Y297434D01*
X127000Y297434D02*
X127000Y284226D01*
X152400Y284226D02*
X152400Y297434D01*
X177800Y297434D02*
X177800Y284226D01*
X203200Y284226D02*
X203200Y297434D01*
X228600Y297434D02*
X228600Y284226D01*
X254000Y284226D02*
X254000Y297434D01*
X279400Y297434D02*
X279400Y284226D01*
X304800Y284226D02*
X304800Y297434D01*
X330200Y297434D02*
X330200Y284226D01*
X355600Y284226D02*
X355600Y297434D01*
X381000Y297434D02*
X381000Y284226D01*
X406400Y284226D02*
X406400Y297434D01*
X431800Y297434D02*
X431800Y284226D01*
X457200Y284226D02*
X457200Y297434D01*
X742696Y520700D02*
X755904Y520700D01*
X755904Y495300D02*
X742696Y495300D01*
X742696Y469900D02*
X755904Y469900D01*
X755904Y444500D02*
X742696Y444500D01*
X742696Y419100D02*
X755904Y419100D01*
X755904Y393700D02*
X742696Y393700D01*
X742696Y368300D02*
X755904Y368300D01*
X755904Y342900D02*
X742696Y342900D01*
X628904Y520700D02*
X615696Y520700D01*
X615696Y495300D02*
X628904Y495300D01*
X628904Y469900D02*
X615696Y469900D01*
X615696Y444500D02*
X628904Y444500D01*
X628904Y419100D02*
X615696Y419100D01*
X615696Y393700D02*
X628904Y393700D01*
X628904Y368300D02*
X615696Y368300D01*
X615696Y342900D02*
X628904Y342900D01*
X527304Y520700D02*
X514096Y520700D01*
X514096Y495300D02*
X527304Y495300D01*
X527304Y469900D02*
X514096Y469900D01*
X514096Y444500D02*
X527304Y444500D01*
X527304Y419100D02*
X514096Y419100D01*
X514096Y393700D02*
X527304Y393700D01*
X527304Y368300D02*
X514096Y368300D01*
X514096Y342900D02*
X527304Y342900D01*
X400304Y520700D02*
X387096Y520700D01*
X387096Y495300D02*
X400304Y495300D01*
X400304Y469900D02*
X387096Y469900D01*
X387096Y444500D02*
X400304Y444500D01*
X400304Y419100D02*
X387096Y419100D01*
X387096Y393700D02*
X400304Y393700D01*
X400304Y368300D02*
X387096Y368300D01*
X387096Y342900D02*
X400304Y342900D01*
X349504Y520700D02*
X336296Y520700D01*
X336296Y495300D02*
X349504Y495300D01*
X349504Y469900D02*
X336296Y469900D01*
X336296Y444500D02*
X349504Y444500D01*
X349504Y419100D02*
X336296Y419100D01*
X336296Y393700D02*
X349504Y393700D01*
X349504Y368300D02*
X336296Y368300D01*
X336296Y342900D02*
X349504Y342900D01*
X222504Y520700D02*
X209296Y520700D01*
X209296Y495300D02*
X222504Y495300D01*
X222504Y469900D02*
X209296Y469900D01*
X209296Y444500D02*
X222504Y444500D01*
X222504Y419100D02*
X209296Y419100D01*
X209296Y393700D02*
X222504Y393700D01*
X222504Y368300D02*
X209296Y368300D01*
X209296Y342900D02*
X222504Y342900D01*
D26*
X553720Y330200D03*
X553720Y304800D03*
X553720Y279400D03*
X553720Y254000D03*
D27*
X487680Y294640D02*
X487680Y189230D01*
X487680Y294640D02*
X464820Y317500D01*
X599440Y189230D02*
X603250Y185420D01*
X599440Y189230D02*
X487680Y189230D01*
X241300Y368300D02*
X241300Y406400D01*
X292100Y317500D02*
X464820Y317500D01*
X292100Y317500D02*
X241300Y368300D01*
D28*
X603250Y185420D03*
D27*
X228600Y419100D02*
X215900Y419100D01*
X228600Y419100D02*
X241300Y406400D01*
X464820Y166370D02*
X487680Y189230D01*
X464820Y166370D02*
X464820Y152400D01*
X50800Y402590D02*
X29680Y402590D01*
X50800Y402590D02*
X63500Y389890D01*
X63500Y330200D01*
X76200Y317500D01*
D29*
X703580Y36830D02*
X748030Y81280D01*
X387350Y107950D02*
X368300Y127000D01*
X368300Y190500D01*
X382270Y204470D01*
D30*
X388620Y204470D01*
D29*
X549910Y36830D02*
X703580Y36830D01*
X549910Y36830D02*
X478790Y107950D01*
X387350Y107950D01*
D27*
X66040Y123190D02*
X48260Y123190D01*
X66040Y123190D02*
X76200Y113030D01*
X76200Y34658D02*
X92044Y18814D01*
X76200Y34658D02*
X76200Y113030D01*
X127000Y290830D02*
X100330Y317500D01*
X76200Y317500D01*
X92044Y18814D02*
X120414Y18814D01*
X127000Y25400D01*
X127000Y43180D01*
D29*
X748030Y81280D02*
X806450Y81280D01*
D28*
X469900Y368300D03*
D27*
X469900Y330200D01*
X541020Y368300D02*
X554260Y355060D01*
X487832Y313154D02*
X486946Y313154D01*
X469900Y330200D01*
D28*
X487832Y313154D03*
D27*
X53340Y177800D02*
X46990Y184150D01*
X53340Y177800D02*
X76200Y177800D01*
X88900Y165100D01*
X88900Y55880D02*
X101600Y43180D01*
X88900Y55880D02*
X88900Y165100D01*
X520700Y368300D02*
X541020Y368300D01*
X342900Y368300D02*
X330200Y368300D01*
X317500Y355600D01*
X317500Y336550D02*
X323850Y330200D01*
X317500Y336550D02*
X317500Y355600D01*
X323850Y330200D02*
X469900Y330200D01*
X279400Y469900D02*
X215900Y469900D01*
X279400Y469900D02*
X317500Y431800D01*
X317500Y381000D01*
X330200Y368300D01*
X554260Y355060D02*
X554260Y330740D01*
X553720Y330200D01*
D29*
X748030Y30480D02*
X731520Y13970D01*
X557530Y13970D01*
X304800Y228600D02*
X114300Y228600D01*
X473710Y97790D02*
X557530Y13970D01*
X473710Y97790D02*
X346710Y97790D01*
X330200Y114300D01*
X330200Y203200D01*
X304800Y228600D01*
X114300Y228600D02*
X101600Y241300D01*
X748030Y30480D02*
X806450Y30480D01*
X101600Y241300D02*
X101600Y290830D01*
D30*
X580390Y316230D02*
X631190Y265430D01*
X778510Y265430D02*
X805180Y292100D01*
X778510Y265430D02*
X631190Y265430D01*
X533400Y444500D02*
X520700Y444500D01*
X533400Y444500D02*
X580390Y397510D01*
X580390Y316230D01*
X499110Y260350D02*
X535940Y223520D01*
X829310Y223520D01*
X848360Y242570D01*
X848360Y265430D01*
X834390Y279400D02*
X830580Y279400D01*
X834390Y279400D02*
X848360Y265430D01*
X520700Y469900D02*
X495300Y469900D01*
X482600Y457200D01*
X482600Y335280D01*
X499110Y318770D01*
X499110Y260350D01*
X570230Y382270D02*
X533400Y419100D01*
X570230Y382270D02*
X570230Y309880D01*
X628650Y251460D01*
X789940Y251460D02*
X805180Y266700D01*
X789940Y251460D02*
X628650Y251460D01*
X533400Y419100D02*
X520700Y419100D01*
X817880Y232410D02*
X830580Y245110D01*
X817880Y232410D02*
X539750Y232410D01*
X513080Y259080D01*
X513080Y317500D01*
X830580Y254000D02*
X830580Y245110D01*
X513080Y317500D02*
X495300Y335280D01*
X495300Y381000D02*
X508000Y393700D01*
X520700Y393700D01*
X495300Y381000D02*
X495300Y335280D01*
X679450Y543560D02*
X665480Y557530D01*
X336550Y557530D02*
X312420Y533400D01*
X312420Y471170D01*
X336550Y557530D02*
X665480Y557530D01*
X803910Y344170D02*
X805180Y342900D01*
X803910Y344170D02*
X779780Y344170D01*
X753110Y317500D01*
X698500Y317500D01*
X339090Y444500D02*
X312420Y471170D01*
X339090Y444500D02*
X342900Y444500D01*
X679450Y543560D02*
X679450Y336550D01*
X698500Y317500D01*
X669036Y524764D02*
X643890Y549910D01*
X344170Y549910D01*
X322580Y528320D01*
X322580Y482600D01*
X783590Y330200D02*
X830580Y330200D01*
X783590Y330200D02*
X758190Y304800D01*
X694436Y304800D01*
X335280Y469900D02*
X322580Y482600D01*
X335280Y469900D02*
X342900Y469900D01*
X669036Y524764D02*
X669036Y330200D01*
X694436Y304800D01*
X599440Y330200D02*
X599440Y516890D01*
X575310Y541020D02*
X375920Y541020D01*
X367030Y532130D01*
X575310Y541020D02*
X599440Y516890D01*
X804926Y317754D02*
X805180Y317500D01*
X804926Y317754D02*
X791464Y317754D01*
X762000Y288290D01*
X641350Y288290D01*
X367030Y430530D02*
X367030Y532130D01*
X355600Y419100D02*
X342900Y419100D01*
X355600Y419100D02*
X367030Y430530D01*
X599440Y330200D02*
X641350Y288290D01*
X589280Y325120D02*
X589280Y510540D01*
X566420Y533400D01*
X381000Y533400D01*
X374650Y527050D01*
X374650Y400050D01*
X368300Y393700D01*
X342900Y393700D01*
X829950Y304170D02*
X830580Y304800D01*
X829950Y304170D02*
X795660Y304170D01*
X768350Y276860D01*
X637540Y276860D01*
X589280Y325120D01*
D27*
X317500Y254000D02*
X304800Y266700D01*
X317500Y254000D02*
X393700Y254000D01*
X421640Y226060D01*
X421640Y151130D01*
X445770Y127000D01*
X495300Y127000D01*
X508000Y139700D01*
X568960Y139700D01*
X304800Y266700D02*
X304800Y290830D01*
X635000Y88900D02*
X645160Y88900D01*
X635000Y88900D02*
X624840Y99060D01*
X624840Y148590D01*
X651764Y175514D02*
X898826Y175514D01*
X930040Y144300D01*
X651764Y175514D02*
X624840Y148590D01*
X645160Y114300D02*
X681990Y114300D01*
X702310Y134620D01*
X820420Y134620D01*
X917100Y124300D02*
X920040Y124300D01*
X846328Y160528D02*
X820420Y134620D01*
X846328Y160528D02*
X880872Y160528D01*
X917100Y124300D01*
X259080Y311150D02*
X184150Y311150D01*
X152400Y342900D01*
X165100Y427990D02*
X174460Y427990D01*
X165100Y427990D02*
X152400Y415290D01*
X152400Y342900D01*
X259080Y311150D02*
X279400Y290830D01*
D30*
X786130Y527050D02*
X805180Y527050D01*
X786130Y527050D02*
X774700Y538480D01*
X741680Y538480D01*
X730250Y527050D01*
X730250Y450850D01*
X736600Y444500D01*
X749300Y444500D01*
X793750Y514350D02*
X830580Y514350D01*
X774700Y495300D02*
X774700Y482600D01*
X762000Y469900D01*
X749300Y469900D01*
X774700Y495300D02*
X793750Y514350D01*
X801370Y501650D02*
X805180Y501650D01*
X801370Y501650D02*
X789940Y490220D01*
X789940Y435610D01*
X774700Y420370D01*
X750570Y420370D02*
X749300Y419100D01*
X750570Y420370D02*
X774700Y420370D01*
X855980Y520700D02*
X830580Y546100D01*
X855980Y520700D02*
X855980Y495300D01*
X849630Y488950D01*
X830580Y488950D01*
X718820Y528320D02*
X718820Y411480D01*
X718820Y528320D02*
X736600Y546100D01*
X830580Y546100D01*
X749300Y393700D02*
X736600Y393700D01*
X718820Y411480D01*
D27*
X413004Y221996D02*
X413004Y145796D01*
X393700Y241300D02*
X165100Y241300D01*
X393700Y241300D02*
X413004Y221996D01*
X483870Y119380D02*
X541020Y62230D01*
X582930Y62230D01*
X439420Y119380D02*
X413004Y145796D01*
X439420Y119380D02*
X483870Y119380D01*
X582930Y62230D02*
X613410Y92710D01*
X613410Y199390D01*
D28*
X613410Y199390D03*
D27*
X165100Y241300D02*
X152400Y254000D01*
X152400Y290830D01*
X381000Y76200D02*
X381000Y43180D01*
X241300Y342900D02*
X215900Y342900D01*
X326390Y308610D02*
X330200Y304800D01*
X330200Y290830D01*
X275590Y308610D02*
X241300Y342900D01*
X275590Y308610D02*
X326390Y308610D01*
D28*
X593090Y172720D03*
D27*
X520700Y177800D02*
X482600Y139700D01*
X444500Y139700D02*
X431800Y152400D01*
X588010Y177800D02*
X593090Y172720D01*
X588010Y177800D02*
X520700Y177800D01*
X482600Y139700D02*
X444500Y139700D01*
X431800Y254000D02*
X419100Y266700D01*
X393700Y266700D01*
X381000Y279400D01*
X381000Y290830D01*
X431800Y254000D02*
X431800Y152400D01*
X457200Y76200D02*
X457200Y43180D01*
X406400Y43180D02*
X406400Y76200D01*
M02*
