G04 EAGLE Gerber RS-274X export*
G75*
%MOMM*%
%FSLAX34Y34*%
%LPD*%
%IN*%
%IPPOS*%
%AMOC8*
5,1,8,0,0,1.08239X$1,22.5*%
G01*
%ADD10C,0.254000*%


D10*
X0Y0D02*
X953950Y0D01*
X953950Y577610D01*
X0Y577610D01*
X0Y0D01*
X57500Y530527D02*
X57425Y529384D01*
X57276Y528248D01*
X57052Y527124D01*
X56755Y526017D01*
X56387Y524932D01*
X55949Y523874D01*
X55442Y522846D01*
X54869Y521854D01*
X54232Y520901D01*
X53535Y519992D01*
X52779Y519131D01*
X51969Y518321D01*
X51108Y517565D01*
X50199Y516868D01*
X49246Y516231D01*
X48254Y515658D01*
X47226Y515151D01*
X46168Y514713D01*
X45083Y514345D01*
X43976Y514048D01*
X42852Y513825D01*
X41716Y513675D01*
X40573Y513600D01*
X39427Y513600D01*
X38284Y513675D01*
X37148Y513825D01*
X36024Y514048D01*
X34917Y514345D01*
X33832Y514713D01*
X32774Y515151D01*
X31746Y515658D01*
X30754Y516231D01*
X29801Y516868D01*
X28892Y517565D01*
X28031Y518321D01*
X27221Y519131D01*
X26465Y519992D01*
X25768Y520901D01*
X25131Y521854D01*
X24558Y522846D01*
X24051Y523874D01*
X23613Y524932D01*
X23245Y526017D01*
X22948Y527124D01*
X22725Y528248D01*
X22575Y529384D01*
X22500Y530527D01*
X22500Y531673D01*
X22575Y532816D01*
X22725Y533952D01*
X22948Y535076D01*
X23245Y536183D01*
X23613Y537268D01*
X24051Y538326D01*
X24558Y539354D01*
X25131Y540346D01*
X25768Y541299D01*
X26465Y542208D01*
X27221Y543069D01*
X28031Y543879D01*
X28892Y544635D01*
X29801Y545332D01*
X30754Y545969D01*
X31746Y546542D01*
X32774Y547049D01*
X33832Y547487D01*
X34917Y547855D01*
X36024Y548152D01*
X37148Y548376D01*
X38284Y548525D01*
X39427Y548600D01*
X40573Y548600D01*
X41716Y548525D01*
X42852Y548376D01*
X43976Y548152D01*
X45083Y547855D01*
X46168Y547487D01*
X47226Y547049D01*
X48254Y546542D01*
X49246Y545969D01*
X50199Y545332D01*
X51108Y544635D01*
X51969Y543879D01*
X52779Y543069D01*
X53535Y542208D01*
X54232Y541299D01*
X54869Y540346D01*
X55442Y539354D01*
X55949Y538326D01*
X56387Y537268D01*
X56755Y536183D01*
X57052Y535076D01*
X57276Y533952D01*
X57425Y532816D01*
X57500Y531673D01*
X57500Y530527D01*
X707590Y73907D02*
X707515Y72764D01*
X707366Y71628D01*
X707142Y70504D01*
X706845Y69397D01*
X706477Y68312D01*
X706039Y67254D01*
X705532Y66226D01*
X704959Y65234D01*
X704322Y64281D01*
X703625Y63372D01*
X702869Y62511D01*
X702059Y61701D01*
X701198Y60945D01*
X700289Y60248D01*
X699336Y59611D01*
X698344Y59038D01*
X697316Y58531D01*
X696258Y58093D01*
X695173Y57725D01*
X694066Y57428D01*
X692942Y57205D01*
X691806Y57055D01*
X690663Y56980D01*
X689517Y56980D01*
X688374Y57055D01*
X687238Y57205D01*
X686114Y57428D01*
X685007Y57725D01*
X683922Y58093D01*
X682864Y58531D01*
X681836Y59038D01*
X680844Y59611D01*
X679891Y60248D01*
X678982Y60945D01*
X678121Y61701D01*
X677311Y62511D01*
X676555Y63372D01*
X675858Y64281D01*
X675221Y65234D01*
X674648Y66226D01*
X674141Y67254D01*
X673703Y68312D01*
X673335Y69397D01*
X673038Y70504D01*
X672815Y71628D01*
X672665Y72764D01*
X672590Y73907D01*
X672590Y75053D01*
X672665Y76196D01*
X672815Y77332D01*
X673038Y78456D01*
X673335Y79563D01*
X673703Y80648D01*
X674141Y81706D01*
X674648Y82734D01*
X675221Y83726D01*
X675858Y84679D01*
X676555Y85588D01*
X677311Y86449D01*
X678121Y87259D01*
X678982Y88015D01*
X679891Y88712D01*
X680844Y89349D01*
X681836Y89922D01*
X682864Y90429D01*
X683922Y90867D01*
X685007Y91235D01*
X686114Y91532D01*
X687238Y91756D01*
X688374Y91905D01*
X689517Y91980D01*
X690663Y91980D01*
X691806Y91905D01*
X692942Y91756D01*
X694066Y91532D01*
X695173Y91235D01*
X696258Y90867D01*
X697316Y90429D01*
X698344Y89922D01*
X699336Y89349D01*
X700289Y88712D01*
X701198Y88015D01*
X702059Y87259D01*
X702869Y86449D01*
X703625Y85588D01*
X704322Y84679D01*
X704959Y83726D01*
X705532Y82734D01*
X706039Y81706D01*
X706477Y80648D01*
X706845Y79563D01*
X707142Y78456D01*
X707366Y77332D01*
X707515Y76196D01*
X707590Y75053D01*
X707590Y73907D01*
X57500Y29427D02*
X57425Y28284D01*
X57276Y27148D01*
X57052Y26024D01*
X56755Y24917D01*
X56387Y23832D01*
X55949Y22774D01*
X55442Y21746D01*
X54869Y20754D01*
X54232Y19801D01*
X53535Y18892D01*
X52779Y18031D01*
X51969Y17221D01*
X51108Y16465D01*
X50199Y15768D01*
X49246Y15131D01*
X48254Y14558D01*
X47226Y14051D01*
X46168Y13613D01*
X45083Y13245D01*
X43976Y12948D01*
X42852Y12725D01*
X41716Y12575D01*
X40573Y12500D01*
X39427Y12500D01*
X38284Y12575D01*
X37148Y12725D01*
X36024Y12948D01*
X34917Y13245D01*
X33832Y13613D01*
X32774Y14051D01*
X31746Y14558D01*
X30754Y15131D01*
X29801Y15768D01*
X28892Y16465D01*
X28031Y17221D01*
X27221Y18031D01*
X26465Y18892D01*
X25768Y19801D01*
X25131Y20754D01*
X24558Y21746D01*
X24051Y22774D01*
X23613Y23832D01*
X23245Y24917D01*
X22948Y26024D01*
X22725Y27148D01*
X22575Y28284D01*
X22500Y29427D01*
X22500Y30573D01*
X22575Y31716D01*
X22725Y32852D01*
X22948Y33976D01*
X23245Y35083D01*
X23613Y36168D01*
X24051Y37226D01*
X24558Y38254D01*
X25131Y39246D01*
X25768Y40199D01*
X26465Y41108D01*
X27221Y41969D01*
X28031Y42779D01*
X28892Y43535D01*
X29801Y44232D01*
X30754Y44869D01*
X31746Y45442D01*
X32774Y45949D01*
X33832Y46387D01*
X34917Y46755D01*
X36024Y47052D01*
X37148Y47276D01*
X38284Y47425D01*
X39427Y47500D01*
X40573Y47500D01*
X41716Y47425D01*
X42852Y47276D01*
X43976Y47052D01*
X45083Y46755D01*
X46168Y46387D01*
X47226Y45949D01*
X48254Y45442D01*
X49246Y44869D01*
X50199Y44232D01*
X51108Y43535D01*
X51969Y42779D01*
X52779Y41969D01*
X53535Y41108D01*
X54232Y40199D01*
X54869Y39246D01*
X55442Y38254D01*
X55949Y37226D01*
X56387Y36168D01*
X56755Y35083D01*
X57052Y33976D01*
X57276Y32852D01*
X57425Y31716D01*
X57500Y30573D01*
X57500Y29427D01*
X874443Y134933D02*
X874364Y133922D01*
X874205Y132921D01*
X873968Y131935D01*
X873655Y130971D01*
X873267Y130034D01*
X872807Y129130D01*
X872277Y128266D01*
X871681Y127446D01*
X871022Y126675D01*
X870305Y125958D01*
X869534Y125299D01*
X868714Y124703D01*
X867850Y124173D01*
X866946Y123713D01*
X866009Y123325D01*
X865045Y123012D01*
X864059Y122775D01*
X863058Y122616D01*
X862047Y122537D01*
X861033Y122537D01*
X860022Y122616D01*
X859021Y122775D01*
X858035Y123012D01*
X857071Y123325D01*
X856134Y123713D01*
X855230Y124173D01*
X854366Y124703D01*
X853546Y125299D01*
X852775Y125958D01*
X852058Y126675D01*
X851399Y127446D01*
X850803Y128266D01*
X850273Y129130D01*
X849813Y130034D01*
X849425Y130971D01*
X849112Y131935D01*
X848875Y132921D01*
X848716Y133922D01*
X848637Y134933D01*
X848637Y135947D01*
X848716Y136958D01*
X848875Y137959D01*
X849112Y138945D01*
X849425Y139909D01*
X849813Y140846D01*
X850273Y141750D01*
X850803Y142614D01*
X851399Y143434D01*
X852058Y144205D01*
X852775Y144922D01*
X853546Y145581D01*
X854366Y146177D01*
X855230Y146707D01*
X856134Y147167D01*
X857071Y147555D01*
X858035Y147868D01*
X859021Y148105D01*
X860022Y148264D01*
X861033Y148343D01*
X862047Y148343D01*
X863058Y148264D01*
X864059Y148105D01*
X865045Y147868D01*
X866009Y147555D01*
X866946Y147167D01*
X867850Y146707D01*
X868714Y146177D01*
X869534Y145581D01*
X870305Y144922D01*
X871022Y144205D01*
X871681Y143434D01*
X872277Y142614D01*
X872807Y141750D01*
X873267Y140846D01*
X873655Y139909D01*
X873968Y138945D01*
X874205Y137959D01*
X874364Y136958D01*
X874443Y135947D01*
X874443Y134933D01*
X874443Y439733D02*
X874364Y438722D01*
X874205Y437721D01*
X873968Y436735D01*
X873655Y435771D01*
X873267Y434834D01*
X872807Y433930D01*
X872277Y433066D01*
X871681Y432246D01*
X871022Y431475D01*
X870305Y430758D01*
X869534Y430099D01*
X868714Y429503D01*
X867850Y428973D01*
X866946Y428513D01*
X866009Y428125D01*
X865045Y427812D01*
X864059Y427575D01*
X863058Y427416D01*
X862047Y427337D01*
X861033Y427337D01*
X860022Y427416D01*
X859021Y427575D01*
X858035Y427812D01*
X857071Y428125D01*
X856134Y428513D01*
X855230Y428973D01*
X854366Y429503D01*
X853546Y430099D01*
X852775Y430758D01*
X852058Y431475D01*
X851399Y432246D01*
X850803Y433066D01*
X850273Y433930D01*
X849813Y434834D01*
X849425Y435771D01*
X849112Y436735D01*
X848875Y437721D01*
X848716Y438722D01*
X848637Y439733D01*
X848637Y440747D01*
X848716Y441758D01*
X848875Y442759D01*
X849112Y443745D01*
X849425Y444709D01*
X849813Y445646D01*
X850273Y446550D01*
X850803Y447414D01*
X851399Y448234D01*
X852058Y449005D01*
X852775Y449722D01*
X853546Y450381D01*
X854366Y450977D01*
X855230Y451507D01*
X856134Y451967D01*
X857071Y452355D01*
X858035Y452668D01*
X859021Y452905D01*
X860022Y453064D01*
X861033Y453143D01*
X862047Y453143D01*
X863058Y453064D01*
X864059Y452905D01*
X865045Y452668D01*
X866009Y452355D01*
X866946Y451967D01*
X867850Y451507D01*
X868714Y450977D01*
X869534Y450381D01*
X870305Y449722D01*
X871022Y449005D01*
X871681Y448234D01*
X872277Y447414D01*
X872807Y446550D01*
X873267Y445646D01*
X873655Y444709D01*
X873968Y443745D01*
X874205Y442759D01*
X874364Y441758D01*
X874443Y440747D01*
X874443Y439733D01*
X894612Y441700D02*
X895674Y441630D01*
X896728Y441492D01*
X897772Y441284D01*
X898800Y441009D01*
X899807Y440667D01*
X900790Y440259D01*
X901744Y439789D01*
X902666Y439257D01*
X903550Y438666D01*
X904394Y438018D01*
X905194Y437317D01*
X905947Y436564D01*
X906648Y435764D01*
X907296Y434920D01*
X907887Y434036D01*
X908419Y433114D01*
X908889Y432160D01*
X909297Y431177D01*
X909639Y430170D01*
X909914Y429142D01*
X910122Y428098D01*
X910260Y427044D01*
X910330Y425982D01*
X910330Y424918D01*
X910260Y423856D01*
X910122Y422802D01*
X909914Y421758D01*
X909639Y420730D01*
X909297Y419723D01*
X908889Y418740D01*
X908419Y417786D01*
X907887Y416864D01*
X907296Y415980D01*
X906648Y415136D01*
X905947Y414336D01*
X905194Y413583D01*
X904394Y412882D01*
X903550Y412234D01*
X902666Y411643D01*
X901744Y411111D01*
X900790Y410641D01*
X899807Y410233D01*
X898800Y409891D01*
X897772Y409616D01*
X896728Y409408D01*
X895674Y409270D01*
X894612Y409200D01*
X893548Y409200D01*
X892486Y409270D01*
X891432Y409408D01*
X890388Y409616D01*
X889360Y409891D01*
X888353Y410233D01*
X887370Y410641D01*
X886416Y411111D01*
X885494Y411643D01*
X884610Y412234D01*
X883766Y412882D01*
X882966Y413583D01*
X882213Y414336D01*
X881512Y415136D01*
X880864Y415980D01*
X880273Y416864D01*
X879741Y417786D01*
X879271Y418740D01*
X878863Y419723D01*
X878521Y420730D01*
X878246Y421758D01*
X878038Y422802D01*
X877900Y423856D01*
X877830Y424918D01*
X877830Y425982D01*
X877900Y427044D01*
X878038Y428098D01*
X878246Y429142D01*
X878521Y430170D01*
X878863Y431177D01*
X879271Y432160D01*
X879741Y433114D01*
X880273Y434036D01*
X880864Y434920D01*
X881512Y435764D01*
X882213Y436564D01*
X882966Y437317D01*
X883766Y438018D01*
X884610Y438666D01*
X885494Y439257D01*
X886416Y439789D01*
X887370Y440259D01*
X888353Y440667D01*
X889360Y441009D01*
X890388Y441284D01*
X891432Y441492D01*
X892486Y441630D01*
X893548Y441700D01*
X894612Y441700D01*
X894612Y556000D02*
X895674Y555930D01*
X896728Y555792D01*
X897772Y555584D01*
X898800Y555309D01*
X899807Y554967D01*
X900790Y554559D01*
X901744Y554089D01*
X902666Y553557D01*
X903550Y552966D01*
X904394Y552318D01*
X905194Y551617D01*
X905947Y550864D01*
X906648Y550064D01*
X907296Y549220D01*
X907887Y548336D01*
X908419Y547414D01*
X908889Y546460D01*
X909297Y545477D01*
X909639Y544470D01*
X909914Y543442D01*
X910122Y542398D01*
X910260Y541344D01*
X910330Y540282D01*
X910330Y539218D01*
X910260Y538156D01*
X910122Y537102D01*
X909914Y536058D01*
X909639Y535030D01*
X909297Y534023D01*
X908889Y533040D01*
X908419Y532086D01*
X907887Y531164D01*
X907296Y530280D01*
X906648Y529436D01*
X905947Y528636D01*
X905194Y527883D01*
X904394Y527182D01*
X903550Y526534D01*
X902666Y525943D01*
X901744Y525411D01*
X900790Y524941D01*
X899807Y524533D01*
X898800Y524191D01*
X897772Y523916D01*
X896728Y523708D01*
X895674Y523570D01*
X894612Y523500D01*
X893548Y523500D01*
X892486Y523570D01*
X891432Y523708D01*
X890388Y523916D01*
X889360Y524191D01*
X888353Y524533D01*
X887370Y524941D01*
X886416Y525411D01*
X885494Y525943D01*
X884610Y526534D01*
X883766Y527182D01*
X882966Y527883D01*
X882213Y528636D01*
X881512Y529436D01*
X880864Y530280D01*
X880273Y531164D01*
X879741Y532086D01*
X879271Y533040D01*
X878863Y534023D01*
X878521Y535030D01*
X878246Y536058D01*
X878038Y537102D01*
X877900Y538156D01*
X877830Y539218D01*
X877830Y540282D01*
X877900Y541344D01*
X878038Y542398D01*
X878246Y543442D01*
X878521Y544470D01*
X878863Y545477D01*
X879271Y546460D01*
X879741Y547414D01*
X880273Y548336D01*
X880864Y549220D01*
X881512Y550064D01*
X882213Y550864D01*
X882966Y551617D01*
X883766Y552318D01*
X884610Y552966D01*
X885494Y553557D01*
X886416Y554089D01*
X887370Y554559D01*
X888353Y554967D01*
X889360Y555309D01*
X890388Y555584D01*
X891432Y555792D01*
X892486Y555930D01*
X893548Y556000D01*
X894612Y556000D01*
X894612Y257550D02*
X895674Y257480D01*
X896728Y257342D01*
X897772Y257134D01*
X898800Y256859D01*
X899807Y256517D01*
X900790Y256109D01*
X901744Y255639D01*
X902666Y255107D01*
X903550Y254516D01*
X904394Y253868D01*
X905194Y253167D01*
X905947Y252414D01*
X906648Y251614D01*
X907296Y250770D01*
X907887Y249886D01*
X908419Y248964D01*
X908889Y248010D01*
X909297Y247027D01*
X909639Y246020D01*
X909914Y244992D01*
X910122Y243948D01*
X910260Y242894D01*
X910330Y241832D01*
X910330Y240768D01*
X910260Y239706D01*
X910122Y238652D01*
X909914Y237608D01*
X909639Y236580D01*
X909297Y235573D01*
X908889Y234590D01*
X908419Y233636D01*
X907887Y232714D01*
X907296Y231830D01*
X906648Y230986D01*
X905947Y230186D01*
X905194Y229433D01*
X904394Y228732D01*
X903550Y228084D01*
X902666Y227493D01*
X901744Y226961D01*
X900790Y226491D01*
X899807Y226083D01*
X898800Y225741D01*
X897772Y225466D01*
X896728Y225258D01*
X895674Y225120D01*
X894612Y225050D01*
X893548Y225050D01*
X892486Y225120D01*
X891432Y225258D01*
X890388Y225466D01*
X889360Y225741D01*
X888353Y226083D01*
X887370Y226491D01*
X886416Y226961D01*
X885494Y227493D01*
X884610Y228084D01*
X883766Y228732D01*
X882966Y229433D01*
X882213Y230186D01*
X881512Y230986D01*
X880864Y231830D01*
X880273Y232714D01*
X879741Y233636D01*
X879271Y234590D01*
X878863Y235573D01*
X878521Y236580D01*
X878246Y237608D01*
X878038Y238652D01*
X877900Y239706D01*
X877830Y240768D01*
X877830Y241832D01*
X877900Y242894D01*
X878038Y243948D01*
X878246Y244992D01*
X878521Y246020D01*
X878863Y247027D01*
X879271Y248010D01*
X879741Y248964D01*
X880273Y249886D01*
X880864Y250770D01*
X881512Y251614D01*
X882213Y252414D01*
X882966Y253167D01*
X883766Y253868D01*
X884610Y254516D01*
X885494Y255107D01*
X886416Y255639D01*
X887370Y256109D01*
X888353Y256517D01*
X889360Y256859D01*
X890388Y257134D01*
X891432Y257342D01*
X892486Y257480D01*
X893548Y257550D01*
X894612Y257550D01*
X894612Y371850D02*
X895674Y371780D01*
X896728Y371642D01*
X897772Y371434D01*
X898800Y371159D01*
X899807Y370817D01*
X900790Y370409D01*
X901744Y369939D01*
X902666Y369407D01*
X903550Y368816D01*
X904394Y368168D01*
X905194Y367467D01*
X905947Y366714D01*
X906648Y365914D01*
X907296Y365070D01*
X907887Y364186D01*
X908419Y363264D01*
X908889Y362310D01*
X909297Y361327D01*
X909639Y360320D01*
X909914Y359292D01*
X910122Y358248D01*
X910260Y357194D01*
X910330Y356132D01*
X910330Y355068D01*
X910260Y354006D01*
X910122Y352952D01*
X909914Y351908D01*
X909639Y350880D01*
X909297Y349873D01*
X908889Y348890D01*
X908419Y347936D01*
X907887Y347014D01*
X907296Y346130D01*
X906648Y345286D01*
X905947Y344486D01*
X905194Y343733D01*
X904394Y343032D01*
X903550Y342384D01*
X902666Y341793D01*
X901744Y341261D01*
X900790Y340791D01*
X899807Y340383D01*
X898800Y340041D01*
X897772Y339766D01*
X896728Y339558D01*
X895674Y339420D01*
X894612Y339350D01*
X893548Y339350D01*
X892486Y339420D01*
X891432Y339558D01*
X890388Y339766D01*
X889360Y340041D01*
X888353Y340383D01*
X887370Y340791D01*
X886416Y341261D01*
X885494Y341793D01*
X884610Y342384D01*
X883766Y343032D01*
X882966Y343733D01*
X882213Y344486D01*
X881512Y345286D01*
X880864Y346130D01*
X880273Y347014D01*
X879741Y347936D01*
X879271Y348890D01*
X878863Y349873D01*
X878521Y350880D01*
X878246Y351908D01*
X878038Y352952D01*
X877900Y354006D01*
X877830Y355068D01*
X877830Y356132D01*
X877900Y357194D01*
X878038Y358248D01*
X878246Y359292D01*
X878521Y360320D01*
X878863Y361327D01*
X879271Y362310D01*
X879741Y363264D01*
X880273Y364186D01*
X880864Y365070D01*
X881512Y365914D01*
X882213Y366714D01*
X882966Y367467D01*
X883766Y368168D01*
X884610Y368816D01*
X885494Y369407D01*
X886416Y369939D01*
X887370Y370409D01*
X888353Y370817D01*
X889360Y371159D01*
X890388Y371434D01*
X891432Y371642D01*
X892486Y371780D01*
X893548Y371850D01*
X894612Y371850D01*
M02*
