G04 EAGLE Gerber RS-274X export*
G75*
%MOMM*%
%FSLAX34Y34*%
%LPD*%
%INSilkscreen Bottom*%
%IPPOS*%
%AMOC8*
5,1,8,0,0,1.08239X$1,22.5*%
G01*
%ADD10C,0.127000*%
%ADD11C,0.152400*%
%ADD12C,0.101600*%


D10*
X38760Y339710D02*
X38760Y466740D01*
X164440Y466740D01*
X164440Y339710D01*
X38760Y339710D01*
X77800Y402590D02*
X77807Y403174D01*
X77829Y403758D01*
X77864Y404341D01*
X77915Y404923D01*
X77979Y405503D01*
X78058Y406082D01*
X78150Y406659D01*
X78257Y407233D01*
X78378Y407805D01*
X78513Y408373D01*
X78662Y408938D01*
X78825Y409499D01*
X79001Y410056D01*
X79191Y410608D01*
X79395Y411156D01*
X79612Y411698D01*
X79842Y412235D01*
X80085Y412766D01*
X80341Y413291D01*
X80610Y413809D01*
X80892Y414321D01*
X81186Y414826D01*
X81492Y415323D01*
X81811Y415813D01*
X82141Y416294D01*
X82484Y416768D01*
X82837Y417233D01*
X83202Y417689D01*
X83578Y418136D01*
X83965Y418573D01*
X84363Y419001D01*
X84771Y419419D01*
X85189Y419827D01*
X85617Y420225D01*
X86054Y420612D01*
X86501Y420988D01*
X86957Y421353D01*
X87422Y421706D01*
X87896Y422049D01*
X88377Y422379D01*
X88867Y422698D01*
X89364Y423004D01*
X89869Y423298D01*
X90381Y423580D01*
X90899Y423849D01*
X91424Y424105D01*
X91955Y424348D01*
X92492Y424578D01*
X93034Y424795D01*
X93582Y424999D01*
X94134Y425189D01*
X94691Y425365D01*
X95252Y425528D01*
X95817Y425677D01*
X96385Y425812D01*
X96957Y425933D01*
X97531Y426040D01*
X98108Y426132D01*
X98687Y426211D01*
X99267Y426275D01*
X99849Y426326D01*
X100432Y426361D01*
X101016Y426383D01*
X101600Y426390D01*
X102184Y426383D01*
X102768Y426361D01*
X103351Y426326D01*
X103933Y426275D01*
X104513Y426211D01*
X105092Y426132D01*
X105669Y426040D01*
X106243Y425933D01*
X106815Y425812D01*
X107383Y425677D01*
X107948Y425528D01*
X108509Y425365D01*
X109066Y425189D01*
X109618Y424999D01*
X110166Y424795D01*
X110708Y424578D01*
X111245Y424348D01*
X111776Y424105D01*
X112301Y423849D01*
X112819Y423580D01*
X113331Y423298D01*
X113836Y423004D01*
X114333Y422698D01*
X114823Y422379D01*
X115304Y422049D01*
X115778Y421706D01*
X116243Y421353D01*
X116699Y420988D01*
X117146Y420612D01*
X117583Y420225D01*
X118011Y419827D01*
X118429Y419419D01*
X118837Y419001D01*
X119235Y418573D01*
X119622Y418136D01*
X119998Y417689D01*
X120363Y417233D01*
X120716Y416768D01*
X121059Y416294D01*
X121389Y415813D01*
X121708Y415323D01*
X122014Y414826D01*
X122308Y414321D01*
X122590Y413809D01*
X122859Y413291D01*
X123115Y412766D01*
X123358Y412235D01*
X123588Y411698D01*
X123805Y411156D01*
X124009Y410608D01*
X124199Y410056D01*
X124375Y409499D01*
X124538Y408938D01*
X124687Y408373D01*
X124822Y407805D01*
X124943Y407233D01*
X125050Y406659D01*
X125142Y406082D01*
X125221Y405503D01*
X125285Y404923D01*
X125336Y404341D01*
X125371Y403758D01*
X125393Y403174D01*
X125400Y402590D01*
X125393Y402006D01*
X125371Y401422D01*
X125336Y400839D01*
X125285Y400257D01*
X125221Y399677D01*
X125142Y399098D01*
X125050Y398521D01*
X124943Y397947D01*
X124822Y397375D01*
X124687Y396807D01*
X124538Y396242D01*
X124375Y395681D01*
X124199Y395124D01*
X124009Y394572D01*
X123805Y394024D01*
X123588Y393482D01*
X123358Y392945D01*
X123115Y392414D01*
X122859Y391889D01*
X122590Y391371D01*
X122308Y390859D01*
X122014Y390354D01*
X121708Y389857D01*
X121389Y389367D01*
X121059Y388886D01*
X120716Y388412D01*
X120363Y387947D01*
X119998Y387491D01*
X119622Y387044D01*
X119235Y386607D01*
X118837Y386179D01*
X118429Y385761D01*
X118011Y385353D01*
X117583Y384955D01*
X117146Y384568D01*
X116699Y384192D01*
X116243Y383827D01*
X115778Y383474D01*
X115304Y383131D01*
X114823Y382801D01*
X114333Y382482D01*
X113836Y382176D01*
X113331Y381882D01*
X112819Y381600D01*
X112301Y381331D01*
X111776Y381075D01*
X111245Y380832D01*
X110708Y380602D01*
X110166Y380385D01*
X109618Y380181D01*
X109066Y379991D01*
X108509Y379815D01*
X107948Y379652D01*
X107383Y379503D01*
X106815Y379368D01*
X106243Y379247D01*
X105669Y379140D01*
X105092Y379048D01*
X104513Y378969D01*
X103933Y378905D01*
X103351Y378854D01*
X102768Y378819D01*
X102184Y378797D01*
X101600Y378790D01*
X101016Y378797D01*
X100432Y378819D01*
X99849Y378854D01*
X99267Y378905D01*
X98687Y378969D01*
X98108Y379048D01*
X97531Y379140D01*
X96957Y379247D01*
X96385Y379368D01*
X95817Y379503D01*
X95252Y379652D01*
X94691Y379815D01*
X94134Y379991D01*
X93582Y380181D01*
X93034Y380385D01*
X92492Y380602D01*
X91955Y380832D01*
X91424Y381075D01*
X90899Y381331D01*
X90381Y381600D01*
X89869Y381882D01*
X89364Y382176D01*
X88867Y382482D01*
X88377Y382801D01*
X87896Y383131D01*
X87422Y383474D01*
X86957Y383827D01*
X86501Y384192D01*
X86054Y384568D01*
X85617Y384955D01*
X85189Y385353D01*
X84771Y385761D01*
X84363Y386179D01*
X83965Y386607D01*
X83578Y387044D01*
X83202Y387491D01*
X82837Y387947D01*
X82484Y388412D01*
X82141Y388886D01*
X81811Y389367D01*
X81492Y389857D01*
X81186Y390354D01*
X80892Y390859D01*
X80610Y391371D01*
X80341Y391889D01*
X80085Y392414D01*
X79842Y392945D01*
X79612Y393482D01*
X79395Y394024D01*
X79191Y394572D01*
X79001Y395124D01*
X78825Y395681D01*
X78662Y396242D01*
X78513Y396807D01*
X78378Y397375D01*
X78257Y397947D01*
X78150Y398521D01*
X78058Y399098D01*
X77979Y399677D01*
X77915Y400257D01*
X77864Y400839D01*
X77829Y401422D01*
X77807Y402006D01*
X77800Y402590D01*
X54000Y402590D02*
X54014Y403758D01*
X54057Y404926D01*
X54129Y406092D01*
X54229Y407256D01*
X54358Y408417D01*
X54515Y409574D01*
X54701Y410728D01*
X54915Y411876D01*
X55157Y413019D01*
X55427Y414156D01*
X55724Y415286D01*
X56050Y416408D01*
X56402Y417521D01*
X56783Y418626D01*
X57190Y419721D01*
X57623Y420806D01*
X58084Y421879D01*
X58570Y422942D01*
X59083Y423991D01*
X59621Y425028D01*
X60184Y426052D01*
X60772Y427061D01*
X61385Y428056D01*
X62022Y429035D01*
X62683Y429998D01*
X63367Y430945D01*
X64075Y431875D01*
X64805Y432787D01*
X65557Y433681D01*
X66331Y434556D01*
X67126Y435412D01*
X67942Y436248D01*
X68778Y437064D01*
X69634Y437859D01*
X70509Y438633D01*
X71403Y439385D01*
X72315Y440115D01*
X73245Y440823D01*
X74192Y441507D01*
X75155Y442168D01*
X76134Y442805D01*
X77129Y443418D01*
X78138Y444006D01*
X79162Y444569D01*
X80199Y445107D01*
X81248Y445620D01*
X82311Y446106D01*
X83384Y446567D01*
X84469Y447000D01*
X85564Y447407D01*
X86669Y447788D01*
X87782Y448140D01*
X88904Y448466D01*
X90034Y448763D01*
X91171Y449033D01*
X92314Y449275D01*
X93462Y449489D01*
X94616Y449675D01*
X95773Y449832D01*
X96934Y449961D01*
X98098Y450061D01*
X99264Y450133D01*
X100432Y450176D01*
X101600Y450190D01*
X102768Y450176D01*
X103936Y450133D01*
X105102Y450061D01*
X106266Y449961D01*
X107427Y449832D01*
X108584Y449675D01*
X109738Y449489D01*
X110886Y449275D01*
X112029Y449033D01*
X113166Y448763D01*
X114296Y448466D01*
X115418Y448140D01*
X116531Y447788D01*
X117636Y447407D01*
X118731Y447000D01*
X119816Y446567D01*
X120889Y446106D01*
X121952Y445620D01*
X123001Y445107D01*
X124038Y444569D01*
X125062Y444006D01*
X126071Y443418D01*
X127066Y442805D01*
X128045Y442168D01*
X129008Y441507D01*
X129955Y440823D01*
X130885Y440115D01*
X131797Y439385D01*
X132691Y438633D01*
X133566Y437859D01*
X134422Y437064D01*
X135258Y436248D01*
X136074Y435412D01*
X136869Y434556D01*
X137643Y433681D01*
X138395Y432787D01*
X139125Y431875D01*
X139833Y430945D01*
X140517Y429998D01*
X141178Y429035D01*
X141815Y428056D01*
X142428Y427061D01*
X143016Y426052D01*
X143579Y425028D01*
X144117Y423991D01*
X144630Y422942D01*
X145116Y421879D01*
X145577Y420806D01*
X146010Y419721D01*
X146417Y418626D01*
X146798Y417521D01*
X147150Y416408D01*
X147476Y415286D01*
X147773Y414156D01*
X148043Y413019D01*
X148285Y411876D01*
X148499Y410728D01*
X148685Y409574D01*
X148842Y408417D01*
X148971Y407256D01*
X149071Y406092D01*
X149143Y404926D01*
X149186Y403758D01*
X149200Y402590D01*
X149186Y401422D01*
X149143Y400254D01*
X149071Y399088D01*
X148971Y397924D01*
X148842Y396763D01*
X148685Y395606D01*
X148499Y394452D01*
X148285Y393304D01*
X148043Y392161D01*
X147773Y391024D01*
X147476Y389894D01*
X147150Y388772D01*
X146798Y387659D01*
X146417Y386554D01*
X146010Y385459D01*
X145577Y384374D01*
X145116Y383301D01*
X144630Y382238D01*
X144117Y381189D01*
X143579Y380152D01*
X143016Y379128D01*
X142428Y378119D01*
X141815Y377124D01*
X141178Y376145D01*
X140517Y375182D01*
X139833Y374235D01*
X139125Y373305D01*
X138395Y372393D01*
X137643Y371499D01*
X136869Y370624D01*
X136074Y369768D01*
X135258Y368932D01*
X134422Y368116D01*
X133566Y367321D01*
X132691Y366547D01*
X131797Y365795D01*
X130885Y365065D01*
X129955Y364357D01*
X129008Y363673D01*
X128045Y363012D01*
X127066Y362375D01*
X126071Y361762D01*
X125062Y361174D01*
X124038Y360611D01*
X123001Y360073D01*
X121952Y359560D01*
X120889Y359074D01*
X119816Y358613D01*
X118731Y358180D01*
X117636Y357773D01*
X116531Y357392D01*
X115418Y357040D01*
X114296Y356714D01*
X113166Y356417D01*
X112029Y356147D01*
X110886Y355905D01*
X109738Y355691D01*
X108584Y355505D01*
X107427Y355348D01*
X106266Y355219D01*
X105102Y355119D01*
X103936Y355047D01*
X102768Y355004D01*
X101600Y354990D01*
X100432Y355004D01*
X99264Y355047D01*
X98098Y355119D01*
X96934Y355219D01*
X95773Y355348D01*
X94616Y355505D01*
X93462Y355691D01*
X92314Y355905D01*
X91171Y356147D01*
X90034Y356417D01*
X88904Y356714D01*
X87782Y357040D01*
X86669Y357392D01*
X85564Y357773D01*
X84469Y358180D01*
X83384Y358613D01*
X82311Y359074D01*
X81248Y359560D01*
X80199Y360073D01*
X79162Y360611D01*
X78138Y361174D01*
X77129Y361762D01*
X76134Y362375D01*
X75155Y363012D01*
X74192Y363673D01*
X73245Y364357D01*
X72315Y365065D01*
X71403Y365795D01*
X70509Y366547D01*
X69634Y367321D01*
X68778Y368116D01*
X67942Y368932D01*
X67126Y369768D01*
X66331Y370624D01*
X65557Y371499D01*
X64805Y372393D01*
X64075Y373305D01*
X63367Y374235D01*
X62683Y375182D01*
X62022Y376145D01*
X61385Y377124D01*
X60772Y378119D01*
X60184Y379128D01*
X59621Y380152D01*
X59083Y381189D01*
X58570Y382238D01*
X58084Y383301D01*
X57623Y384374D01*
X57190Y385459D01*
X56783Y386554D01*
X56402Y387659D01*
X56050Y388772D01*
X55724Y389894D01*
X55427Y391024D01*
X55157Y392161D01*
X54915Y393304D01*
X54701Y394452D01*
X54515Y395606D01*
X54358Y396763D01*
X54229Y397924D01*
X54129Y399088D01*
X54057Y400254D01*
X54014Y401422D01*
X54000Y402590D01*
D11*
X760730Y22860D02*
X760730Y17780D01*
X755650Y17780D01*
X740410Y17780D02*
X735330Y17780D01*
X735330Y22860D01*
X735330Y38100D02*
X735330Y43180D01*
X740410Y43180D01*
X755650Y43180D02*
X760730Y43180D01*
X760730Y38100D01*
X760730Y68580D02*
X760730Y73660D01*
X760730Y68580D02*
X755650Y68580D01*
X740410Y68580D02*
X735330Y68580D01*
X735330Y73660D01*
X735330Y88900D02*
X735330Y93980D01*
X740410Y93980D01*
X755650Y93980D02*
X760730Y93980D01*
X760730Y88900D01*
D10*
X954160Y124150D02*
X954160Y206050D01*
X954160Y124150D02*
X858130Y124150D01*
X858130Y206050D01*
X954160Y206050D01*
X953770Y189230D02*
X980440Y189230D01*
X980440Y148590D01*
X953770Y148590D01*
D12*
X928817Y169794D02*
X928817Y178882D01*
X928818Y169794D02*
X928820Y169695D01*
X928826Y169595D01*
X928835Y169496D01*
X928848Y169398D01*
X928865Y169300D01*
X928886Y169202D01*
X928911Y169106D01*
X928939Y169011D01*
X928971Y168917D01*
X929006Y168824D01*
X929045Y168732D01*
X929088Y168642D01*
X929133Y168554D01*
X929183Y168467D01*
X929235Y168383D01*
X929291Y168300D01*
X929349Y168220D01*
X929411Y168142D01*
X929476Y168067D01*
X929544Y167994D01*
X929614Y167924D01*
X929687Y167856D01*
X929762Y167791D01*
X929840Y167729D01*
X929920Y167671D01*
X930003Y167615D01*
X930087Y167563D01*
X930174Y167513D01*
X930262Y167468D01*
X930352Y167425D01*
X930444Y167386D01*
X930537Y167351D01*
X930631Y167319D01*
X930726Y167291D01*
X930822Y167266D01*
X930920Y167245D01*
X931018Y167228D01*
X931116Y167215D01*
X931215Y167206D01*
X931315Y167200D01*
X931414Y167198D01*
X932712Y167198D01*
X919974Y178882D02*
X919867Y178880D01*
X919761Y178874D01*
X919655Y178864D01*
X919549Y178851D01*
X919443Y178833D01*
X919339Y178812D01*
X919235Y178787D01*
X919132Y178758D01*
X919031Y178726D01*
X918931Y178689D01*
X918832Y178649D01*
X918734Y178606D01*
X918638Y178559D01*
X918544Y178508D01*
X918452Y178454D01*
X918362Y178397D01*
X918274Y178337D01*
X918189Y178273D01*
X918106Y178206D01*
X918025Y178136D01*
X917947Y178064D01*
X917871Y177988D01*
X917799Y177910D01*
X917729Y177829D01*
X917662Y177746D01*
X917598Y177661D01*
X917538Y177573D01*
X917481Y177483D01*
X917427Y177391D01*
X917376Y177297D01*
X917329Y177201D01*
X917286Y177103D01*
X917246Y177004D01*
X917209Y176904D01*
X917177Y176803D01*
X917148Y176700D01*
X917123Y176596D01*
X917102Y176492D01*
X917084Y176386D01*
X917071Y176280D01*
X917061Y176174D01*
X917055Y176068D01*
X917053Y175961D01*
X919974Y178882D02*
X920095Y178880D01*
X920216Y178874D01*
X920336Y178864D01*
X920457Y178851D01*
X920576Y178833D01*
X920696Y178812D01*
X920814Y178787D01*
X920931Y178758D01*
X921048Y178725D01*
X921163Y178689D01*
X921277Y178648D01*
X921390Y178605D01*
X921502Y178557D01*
X921611Y178506D01*
X921719Y178451D01*
X921826Y178393D01*
X921930Y178332D01*
X922032Y178267D01*
X922132Y178199D01*
X922230Y178128D01*
X922326Y178054D01*
X922419Y177977D01*
X922509Y177896D01*
X922597Y177813D01*
X922682Y177727D01*
X922765Y177638D01*
X922844Y177547D01*
X922921Y177453D01*
X922994Y177357D01*
X923064Y177259D01*
X923131Y177158D01*
X923195Y177055D01*
X923256Y176950D01*
X923313Y176843D01*
X923366Y176735D01*
X923416Y176625D01*
X923462Y176513D01*
X923505Y176400D01*
X923544Y176285D01*
X918027Y173689D02*
X917948Y173767D01*
X917872Y173847D01*
X917799Y173930D01*
X917729Y174016D01*
X917662Y174103D01*
X917598Y174194D01*
X917538Y174286D01*
X917480Y174380D01*
X917426Y174477D01*
X917376Y174575D01*
X917329Y174675D01*
X917285Y174776D01*
X917245Y174879D01*
X917209Y174984D01*
X917177Y175089D01*
X917148Y175196D01*
X917123Y175303D01*
X917101Y175412D01*
X917084Y175521D01*
X917070Y175630D01*
X917061Y175740D01*
X917055Y175851D01*
X917053Y175961D01*
X918027Y173689D02*
X923544Y167198D01*
X917053Y167198D01*
D11*
X566420Y342900D02*
X541020Y342900D01*
X566420Y342900D02*
X566420Y320040D01*
X563880Y317500D01*
X566420Y314960D01*
X566420Y294640D01*
X563880Y292100D01*
X566420Y289560D01*
X566420Y269240D01*
X563880Y266700D01*
X566420Y264160D01*
X566420Y241300D02*
X541020Y241300D01*
X541020Y264160D02*
X543560Y266700D01*
X541020Y269240D01*
X541020Y289560D01*
X543560Y292100D01*
X541020Y294640D01*
X541020Y314960D01*
X543560Y317500D01*
X541020Y320040D01*
X541020Y342900D01*
D10*
X556895Y347345D02*
X559435Y350520D01*
X548005Y350520D01*
X548005Y347345D02*
X548005Y353695D01*
X559435Y234315D02*
X550545Y231775D01*
X550545Y238125D01*
X553085Y236220D02*
X548005Y236220D01*
D11*
X566420Y241300D02*
X566420Y264160D01*
X541020Y264160D02*
X541020Y241300D01*
D10*
X525145Y266446D02*
X525147Y266546D01*
X525153Y266645D01*
X525163Y266745D01*
X525176Y266843D01*
X525194Y266942D01*
X525215Y267039D01*
X525240Y267135D01*
X525269Y267231D01*
X525302Y267325D01*
X525338Y267418D01*
X525378Y267509D01*
X525422Y267599D01*
X525469Y267687D01*
X525519Y267773D01*
X525573Y267857D01*
X525630Y267939D01*
X525690Y268018D01*
X525754Y268096D01*
X525820Y268170D01*
X525889Y268242D01*
X525961Y268311D01*
X526035Y268377D01*
X526113Y268441D01*
X526192Y268501D01*
X526274Y268558D01*
X526358Y268612D01*
X526444Y268662D01*
X526532Y268709D01*
X526622Y268753D01*
X526713Y268793D01*
X526806Y268829D01*
X526900Y268862D01*
X526996Y268891D01*
X527092Y268916D01*
X527189Y268937D01*
X527288Y268955D01*
X527386Y268968D01*
X527486Y268978D01*
X527585Y268984D01*
X527685Y268986D01*
X525145Y266446D02*
X525147Y266305D01*
X525152Y266164D01*
X525162Y266023D01*
X525175Y265882D01*
X525191Y265742D01*
X525212Y265602D01*
X525236Y265463D01*
X525264Y265324D01*
X525295Y265187D01*
X525330Y265050D01*
X525368Y264914D01*
X525410Y264779D01*
X525456Y264646D01*
X525505Y264513D01*
X525558Y264382D01*
X525614Y264253D01*
X525673Y264124D01*
X525736Y263998D01*
X525802Y263873D01*
X525871Y263750D01*
X525944Y263629D01*
X526020Y263510D01*
X526099Y263392D01*
X526180Y263277D01*
X526265Y263165D01*
X526353Y263054D01*
X526444Y262946D01*
X526537Y262840D01*
X526634Y262737D01*
X526733Y262636D01*
X534035Y262954D02*
X534135Y262956D01*
X534234Y262962D01*
X534334Y262972D01*
X534432Y262985D01*
X534531Y263003D01*
X534628Y263024D01*
X534724Y263049D01*
X534820Y263078D01*
X534914Y263111D01*
X535007Y263147D01*
X535098Y263187D01*
X535188Y263231D01*
X535276Y263278D01*
X535362Y263328D01*
X535446Y263382D01*
X535528Y263439D01*
X535607Y263499D01*
X535685Y263563D01*
X535759Y263629D01*
X535831Y263698D01*
X535900Y263770D01*
X535966Y263844D01*
X536030Y263922D01*
X536090Y264001D01*
X536147Y264083D01*
X536201Y264167D01*
X536251Y264253D01*
X536298Y264341D01*
X536342Y264431D01*
X536382Y264522D01*
X536418Y264615D01*
X536451Y264709D01*
X536480Y264805D01*
X536505Y264901D01*
X536526Y264998D01*
X536544Y265097D01*
X536557Y265195D01*
X536567Y265295D01*
X536573Y265394D01*
X536575Y265494D01*
X536576Y265494D02*
X536574Y265627D01*
X536569Y265760D01*
X536559Y265893D01*
X536546Y266026D01*
X536529Y266158D01*
X536509Y266290D01*
X536485Y266421D01*
X536457Y266551D01*
X536426Y266681D01*
X536391Y266809D01*
X536352Y266937D01*
X536310Y267063D01*
X536264Y267188D01*
X536215Y267312D01*
X536163Y267435D01*
X536107Y267556D01*
X536047Y267675D01*
X535985Y267793D01*
X535919Y267908D01*
X535850Y268022D01*
X535777Y268134D01*
X535702Y268244D01*
X535623Y268352D01*
X531812Y264223D02*
X531864Y264139D01*
X531919Y264056D01*
X531978Y263976D01*
X532039Y263898D01*
X532103Y263823D01*
X532171Y263750D01*
X532241Y263679D01*
X532313Y263612D01*
X532388Y263547D01*
X532466Y263485D01*
X532546Y263426D01*
X532628Y263370D01*
X532712Y263318D01*
X532798Y263269D01*
X532886Y263223D01*
X532976Y263180D01*
X533067Y263141D01*
X533160Y263106D01*
X533254Y263074D01*
X533349Y263046D01*
X533445Y263021D01*
X533542Y263001D01*
X533640Y262983D01*
X533738Y262970D01*
X533837Y262961D01*
X533936Y262955D01*
X534035Y262953D01*
X529908Y267716D02*
X529856Y267800D01*
X529801Y267883D01*
X529742Y267963D01*
X529681Y268041D01*
X529617Y268116D01*
X529549Y268189D01*
X529479Y268260D01*
X529407Y268327D01*
X529332Y268392D01*
X529254Y268454D01*
X529174Y268513D01*
X529092Y268569D01*
X529008Y268621D01*
X528922Y268670D01*
X528834Y268716D01*
X528744Y268759D01*
X528653Y268798D01*
X528560Y268833D01*
X528466Y268865D01*
X528371Y268893D01*
X528275Y268918D01*
X528178Y268938D01*
X528080Y268956D01*
X527982Y268969D01*
X527883Y268978D01*
X527784Y268984D01*
X527685Y268986D01*
X529908Y267716D02*
X531813Y264224D01*
X536575Y273050D02*
X525145Y276860D01*
X536575Y280670D01*
X530225Y287655D02*
X530225Y291465D01*
X530225Y287655D02*
X530227Y287555D01*
X530233Y287456D01*
X530243Y287356D01*
X530256Y287258D01*
X530274Y287159D01*
X530295Y287062D01*
X530320Y286966D01*
X530349Y286870D01*
X530382Y286776D01*
X530418Y286683D01*
X530458Y286592D01*
X530502Y286502D01*
X530549Y286414D01*
X530599Y286328D01*
X530653Y286244D01*
X530710Y286162D01*
X530770Y286083D01*
X530834Y286005D01*
X530900Y285931D01*
X530969Y285859D01*
X531041Y285790D01*
X531115Y285724D01*
X531193Y285660D01*
X531272Y285600D01*
X531354Y285543D01*
X531438Y285489D01*
X531524Y285439D01*
X531612Y285392D01*
X531702Y285348D01*
X531793Y285308D01*
X531886Y285272D01*
X531980Y285239D01*
X532076Y285210D01*
X532172Y285185D01*
X532269Y285164D01*
X532368Y285146D01*
X532466Y285133D01*
X532566Y285123D01*
X532665Y285117D01*
X532765Y285115D01*
X533400Y285115D01*
X533511Y285117D01*
X533621Y285123D01*
X533732Y285132D01*
X533842Y285146D01*
X533951Y285163D01*
X534060Y285184D01*
X534168Y285209D01*
X534275Y285238D01*
X534381Y285270D01*
X534486Y285306D01*
X534589Y285346D01*
X534691Y285389D01*
X534792Y285436D01*
X534891Y285487D01*
X534988Y285540D01*
X535082Y285597D01*
X535175Y285658D01*
X535266Y285721D01*
X535355Y285788D01*
X535441Y285858D01*
X535524Y285931D01*
X535606Y286006D01*
X535684Y286084D01*
X535759Y286166D01*
X535832Y286249D01*
X535902Y286335D01*
X535969Y286424D01*
X536032Y286515D01*
X536093Y286608D01*
X536150Y286702D01*
X536203Y286799D01*
X536254Y286898D01*
X536301Y286999D01*
X536344Y287101D01*
X536384Y287204D01*
X536420Y287309D01*
X536452Y287415D01*
X536481Y287522D01*
X536506Y287630D01*
X536527Y287739D01*
X536544Y287848D01*
X536558Y287958D01*
X536567Y288069D01*
X536573Y288179D01*
X536575Y288290D01*
X536573Y288401D01*
X536567Y288511D01*
X536558Y288622D01*
X536544Y288732D01*
X536527Y288841D01*
X536506Y288950D01*
X536481Y289058D01*
X536452Y289165D01*
X536420Y289271D01*
X536384Y289376D01*
X536344Y289479D01*
X536301Y289581D01*
X536254Y289682D01*
X536203Y289781D01*
X536150Y289877D01*
X536093Y289972D01*
X536032Y290065D01*
X535969Y290156D01*
X535902Y290245D01*
X535832Y290331D01*
X535759Y290414D01*
X535684Y290496D01*
X535606Y290574D01*
X535524Y290649D01*
X535441Y290722D01*
X535355Y290792D01*
X535266Y290859D01*
X535175Y290922D01*
X535082Y290983D01*
X534988Y291040D01*
X534891Y291093D01*
X534792Y291144D01*
X534691Y291191D01*
X534589Y291234D01*
X534486Y291274D01*
X534381Y291310D01*
X534275Y291342D01*
X534168Y291371D01*
X534060Y291396D01*
X533951Y291417D01*
X533842Y291434D01*
X533732Y291448D01*
X533621Y291457D01*
X533511Y291463D01*
X533400Y291465D01*
X530225Y291465D01*
X530085Y291463D01*
X529945Y291457D01*
X529805Y291448D01*
X529666Y291434D01*
X529527Y291417D01*
X529389Y291396D01*
X529251Y291371D01*
X529114Y291342D01*
X528978Y291310D01*
X528843Y291273D01*
X528709Y291233D01*
X528576Y291190D01*
X528444Y291142D01*
X528313Y291092D01*
X528184Y291037D01*
X528057Y290979D01*
X527931Y290918D01*
X527807Y290853D01*
X527685Y290784D01*
X527565Y290713D01*
X527447Y290638D01*
X527330Y290560D01*
X527216Y290478D01*
X527105Y290394D01*
X526996Y290306D01*
X526889Y290216D01*
X526784Y290122D01*
X526683Y290026D01*
X526584Y289927D01*
X526488Y289826D01*
X526394Y289721D01*
X526304Y289614D01*
X526216Y289505D01*
X526132Y289394D01*
X526050Y289280D01*
X525972Y289163D01*
X525897Y289045D01*
X525826Y288925D01*
X525757Y288803D01*
X525692Y288679D01*
X525631Y288553D01*
X525573Y288426D01*
X525518Y288297D01*
X525468Y288166D01*
X525420Y288034D01*
X525377Y287901D01*
X525337Y287767D01*
X525300Y287632D01*
X525268Y287496D01*
X525239Y287359D01*
X525214Y287221D01*
X525193Y287083D01*
X525176Y286944D01*
X525162Y286805D01*
X525153Y286665D01*
X525147Y286525D01*
X525145Y286385D01*
M02*
