G04 EAGLE Gerber RS-274X export*
G75*
%MOMM*%
%FSLAX34Y34*%
%LPD*%
%INSilkscreen Top*%
%IPPOS*%
%AMOC8*
5,1,8,0,0,1.08239X$1,22.5*%
G01*
%ADD10C,0.152400*%
%ADD11C,0.127000*%
%ADD12R,0.381000X0.508000*%
%ADD13C,0.101600*%
%ADD14C,0.609600*%
%ADD15R,0.863600X0.609600*%
%ADD16C,0.200000*%
%ADD17C,0.076200*%


D10*
X661162Y343662D02*
X661162Y359918D01*
X666581Y350887D01*
X671999Y359918D01*
X671999Y343662D01*
X678356Y343662D02*
X683775Y359918D01*
X689194Y343662D01*
X687839Y347726D02*
X679711Y347726D01*
X696280Y343662D02*
X696280Y359918D01*
X694474Y343662D02*
X698086Y343662D01*
X698086Y359918D02*
X694474Y359918D01*
X704790Y359918D02*
X704790Y343662D01*
X713822Y343662D02*
X704790Y359918D01*
X713822Y359918D02*
X713822Y343662D01*
X432562Y343662D02*
X432562Y359918D01*
X437078Y359918D01*
X437211Y359916D01*
X437343Y359910D01*
X437475Y359900D01*
X437607Y359887D01*
X437739Y359869D01*
X437869Y359848D01*
X438000Y359823D01*
X438129Y359794D01*
X438257Y359761D01*
X438385Y359725D01*
X438511Y359685D01*
X438636Y359641D01*
X438760Y359593D01*
X438882Y359542D01*
X439003Y359487D01*
X439122Y359429D01*
X439240Y359367D01*
X439355Y359302D01*
X439469Y359233D01*
X439580Y359162D01*
X439689Y359086D01*
X439796Y359008D01*
X439901Y358927D01*
X440003Y358842D01*
X440103Y358755D01*
X440200Y358665D01*
X440295Y358572D01*
X440386Y358476D01*
X440475Y358378D01*
X440561Y358277D01*
X440644Y358173D01*
X440724Y358067D01*
X440800Y357959D01*
X440874Y357849D01*
X440944Y357736D01*
X441011Y357622D01*
X441074Y357505D01*
X441134Y357387D01*
X441191Y357267D01*
X441244Y357145D01*
X441293Y357022D01*
X441339Y356898D01*
X441381Y356772D01*
X441419Y356645D01*
X441454Y356517D01*
X441485Y356388D01*
X441512Y356259D01*
X441535Y356128D01*
X441555Y355997D01*
X441570Y355865D01*
X441582Y355733D01*
X441590Y355601D01*
X441594Y355468D01*
X441594Y355336D01*
X441590Y355203D01*
X441582Y355071D01*
X441570Y354939D01*
X441555Y354807D01*
X441535Y354676D01*
X441512Y354545D01*
X441485Y354416D01*
X441454Y354287D01*
X441419Y354159D01*
X441381Y354032D01*
X441339Y353906D01*
X441293Y353782D01*
X441244Y353659D01*
X441191Y353537D01*
X441134Y353417D01*
X441074Y353299D01*
X441011Y353182D01*
X440944Y353068D01*
X440874Y352955D01*
X440800Y352845D01*
X440724Y352737D01*
X440644Y352631D01*
X440561Y352527D01*
X440475Y352426D01*
X440386Y352328D01*
X440295Y352232D01*
X440200Y352139D01*
X440103Y352049D01*
X440003Y351962D01*
X439901Y351877D01*
X439796Y351796D01*
X439689Y351718D01*
X439580Y351642D01*
X439469Y351571D01*
X439355Y351502D01*
X439240Y351437D01*
X439122Y351375D01*
X439003Y351317D01*
X438882Y351262D01*
X438760Y351211D01*
X438636Y351163D01*
X438511Y351119D01*
X438385Y351079D01*
X438257Y351043D01*
X438129Y351010D01*
X438000Y350981D01*
X437869Y350956D01*
X437739Y350935D01*
X437607Y350917D01*
X437475Y350904D01*
X437343Y350894D01*
X437211Y350888D01*
X437078Y350886D01*
X437078Y350887D02*
X432562Y350887D01*
X446558Y343662D02*
X451977Y359918D01*
X457395Y343662D01*
X456041Y347726D02*
X447913Y347726D01*
X463614Y343662D02*
X463614Y359918D01*
X472645Y343662D01*
X472645Y359918D01*
X259278Y359918D02*
X259278Y343662D01*
X254762Y359918D02*
X263793Y359918D01*
X270740Y359918D02*
X270740Y343662D01*
X268934Y343662D02*
X272547Y343662D01*
X272547Y359918D02*
X268934Y359918D01*
X279281Y359918D02*
X279281Y343662D01*
X286506Y343662D01*
X295750Y343662D02*
X295750Y359918D01*
X291235Y359918D02*
X300266Y359918D01*
X636270Y152400D02*
X636270Y76200D01*
X577850Y76200D02*
X577850Y152400D01*
X577850Y76200D02*
X636270Y76200D01*
X636270Y152400D02*
X617220Y152400D01*
X596900Y152400D02*
X577850Y152400D01*
X596900Y152400D02*
X596903Y152153D01*
X596912Y151905D01*
X596927Y151658D01*
X596948Y151412D01*
X596975Y151166D01*
X597008Y150921D01*
X597047Y150676D01*
X597092Y150433D01*
X597143Y150191D01*
X597200Y149950D01*
X597262Y149711D01*
X597331Y149473D01*
X597405Y149237D01*
X597485Y149003D01*
X597570Y148771D01*
X597662Y148541D01*
X597758Y148313D01*
X597861Y148088D01*
X597968Y147865D01*
X598082Y147645D01*
X598200Y147428D01*
X598324Y147213D01*
X598453Y147002D01*
X598587Y146794D01*
X598726Y146589D01*
X598870Y146388D01*
X599018Y146190D01*
X599172Y145996D01*
X599330Y145806D01*
X599493Y145620D01*
X599660Y145438D01*
X599832Y145260D01*
X600008Y145086D01*
X600188Y144916D01*
X600373Y144751D01*
X600561Y144591D01*
X600753Y144435D01*
X600949Y144283D01*
X601148Y144137D01*
X601351Y143995D01*
X601558Y143859D01*
X601767Y143727D01*
X601980Y143601D01*
X602196Y143480D01*
X602414Y143364D01*
X602636Y143254D01*
X602860Y143149D01*
X603086Y143049D01*
X603315Y142955D01*
X603546Y142867D01*
X603780Y142784D01*
X604015Y142707D01*
X604252Y142636D01*
X604490Y142570D01*
X604730Y142511D01*
X604972Y142457D01*
X605215Y142409D01*
X605458Y142367D01*
X605703Y142331D01*
X605949Y142301D01*
X606195Y142277D01*
X606442Y142259D01*
X606689Y142247D01*
X606936Y142241D01*
X607184Y142241D01*
X607431Y142247D01*
X607678Y142259D01*
X607925Y142277D01*
X608171Y142301D01*
X608417Y142331D01*
X608662Y142367D01*
X608905Y142409D01*
X609148Y142457D01*
X609390Y142511D01*
X609630Y142570D01*
X609868Y142636D01*
X610105Y142707D01*
X610340Y142784D01*
X610574Y142867D01*
X610805Y142955D01*
X611034Y143049D01*
X611260Y143149D01*
X611484Y143254D01*
X611706Y143364D01*
X611924Y143480D01*
X612140Y143601D01*
X612353Y143727D01*
X612562Y143859D01*
X612769Y143995D01*
X612972Y144137D01*
X613171Y144283D01*
X613367Y144435D01*
X613559Y144591D01*
X613747Y144751D01*
X613932Y144916D01*
X614112Y145086D01*
X614288Y145260D01*
X614460Y145438D01*
X614627Y145620D01*
X614790Y145806D01*
X614948Y145996D01*
X615102Y146190D01*
X615250Y146388D01*
X615394Y146589D01*
X615533Y146794D01*
X615667Y147002D01*
X615796Y147213D01*
X615920Y147428D01*
X616038Y147645D01*
X616152Y147865D01*
X616259Y148088D01*
X616362Y148313D01*
X616458Y148541D01*
X616550Y148771D01*
X616635Y149003D01*
X616715Y149237D01*
X616789Y149473D01*
X616858Y149711D01*
X616920Y149950D01*
X616977Y150191D01*
X617028Y150433D01*
X617073Y150676D01*
X617112Y150921D01*
X617145Y151166D01*
X617172Y151412D01*
X617193Y151658D01*
X617208Y151905D01*
X617217Y152153D01*
X617220Y152400D01*
D11*
X578485Y158750D02*
X578485Y163830D01*
X578487Y163941D01*
X578493Y164051D01*
X578502Y164162D01*
X578516Y164272D01*
X578533Y164381D01*
X578554Y164490D01*
X578579Y164598D01*
X578608Y164705D01*
X578640Y164811D01*
X578676Y164916D01*
X578716Y165019D01*
X578759Y165121D01*
X578806Y165222D01*
X578857Y165321D01*
X578910Y165418D01*
X578967Y165512D01*
X579028Y165605D01*
X579091Y165696D01*
X579158Y165785D01*
X579228Y165871D01*
X579301Y165954D01*
X579376Y166036D01*
X579454Y166114D01*
X579536Y166189D01*
X579619Y166262D01*
X579705Y166332D01*
X579794Y166399D01*
X579885Y166462D01*
X579978Y166523D01*
X580073Y166580D01*
X580169Y166633D01*
X580268Y166684D01*
X580369Y166731D01*
X580471Y166774D01*
X580574Y166814D01*
X580679Y166850D01*
X580785Y166882D01*
X580892Y166911D01*
X581000Y166936D01*
X581109Y166957D01*
X581218Y166974D01*
X581328Y166988D01*
X581439Y166997D01*
X581549Y167003D01*
X581660Y167005D01*
X581771Y167003D01*
X581881Y166997D01*
X581992Y166988D01*
X582102Y166974D01*
X582211Y166957D01*
X582320Y166936D01*
X582428Y166911D01*
X582535Y166882D01*
X582641Y166850D01*
X582746Y166814D01*
X582849Y166774D01*
X582951Y166731D01*
X583052Y166684D01*
X583151Y166633D01*
X583248Y166580D01*
X583342Y166523D01*
X583435Y166462D01*
X583526Y166399D01*
X583615Y166332D01*
X583701Y166262D01*
X583784Y166189D01*
X583866Y166114D01*
X583944Y166036D01*
X584019Y165954D01*
X584092Y165871D01*
X584162Y165785D01*
X584229Y165696D01*
X584292Y165605D01*
X584353Y165512D01*
X584410Y165418D01*
X584463Y165321D01*
X584514Y165222D01*
X584561Y165121D01*
X584604Y165019D01*
X584644Y164916D01*
X584680Y164811D01*
X584712Y164705D01*
X584741Y164598D01*
X584766Y164490D01*
X584787Y164381D01*
X584804Y164272D01*
X584818Y164162D01*
X584827Y164051D01*
X584833Y163941D01*
X584835Y163830D01*
X584835Y158750D01*
X584833Y158639D01*
X584827Y158529D01*
X584818Y158418D01*
X584804Y158308D01*
X584787Y158199D01*
X584766Y158090D01*
X584741Y157982D01*
X584712Y157875D01*
X584680Y157769D01*
X584644Y157664D01*
X584604Y157561D01*
X584561Y157459D01*
X584514Y157358D01*
X584463Y157259D01*
X584410Y157162D01*
X584353Y157068D01*
X584292Y156975D01*
X584229Y156884D01*
X584162Y156795D01*
X584092Y156709D01*
X584019Y156626D01*
X583944Y156544D01*
X583866Y156466D01*
X583784Y156391D01*
X583701Y156318D01*
X583615Y156248D01*
X583526Y156181D01*
X583435Y156118D01*
X583342Y156057D01*
X583248Y156000D01*
X583151Y155947D01*
X583052Y155896D01*
X582951Y155849D01*
X582849Y155806D01*
X582746Y155766D01*
X582641Y155730D01*
X582535Y155698D01*
X582428Y155669D01*
X582320Y155644D01*
X582211Y155623D01*
X582102Y155606D01*
X581992Y155592D01*
X581881Y155583D01*
X581771Y155577D01*
X581660Y155575D01*
X581549Y155577D01*
X581439Y155583D01*
X581328Y155592D01*
X581218Y155606D01*
X581109Y155623D01*
X581000Y155644D01*
X580892Y155669D01*
X580785Y155698D01*
X580679Y155730D01*
X580574Y155766D01*
X580471Y155806D01*
X580369Y155849D01*
X580268Y155896D01*
X580169Y155947D01*
X580073Y156000D01*
X579978Y156057D01*
X579885Y156118D01*
X579794Y156181D01*
X579705Y156248D01*
X579619Y156318D01*
X579536Y156391D01*
X579454Y156466D01*
X579376Y156544D01*
X579301Y156626D01*
X579228Y156709D01*
X579158Y156795D01*
X579091Y156884D01*
X579028Y156975D01*
X578967Y157068D01*
X578910Y157163D01*
X578857Y157259D01*
X578806Y157358D01*
X578759Y157459D01*
X578716Y157561D01*
X578676Y157664D01*
X578640Y157769D01*
X578608Y157875D01*
X578579Y157982D01*
X578554Y158090D01*
X578533Y158199D01*
X578516Y158308D01*
X578502Y158418D01*
X578493Y158529D01*
X578487Y158639D01*
X578485Y158750D01*
X590487Y155575D02*
X590487Y167005D01*
X596837Y167005D02*
X590487Y160020D01*
X593027Y162560D02*
X596837Y155575D01*
X601345Y164465D02*
X604520Y167005D01*
X604520Y155575D01*
X601345Y155575D02*
X607695Y155575D01*
D10*
X403860Y162560D02*
X403760Y162558D01*
X403661Y162552D01*
X403561Y162542D01*
X403463Y162529D01*
X403364Y162511D01*
X403267Y162490D01*
X403171Y162465D01*
X403075Y162436D01*
X402981Y162403D01*
X402888Y162367D01*
X402797Y162327D01*
X402707Y162283D01*
X402619Y162236D01*
X402533Y162186D01*
X402449Y162132D01*
X402367Y162075D01*
X402288Y162015D01*
X402210Y161951D01*
X402136Y161885D01*
X402064Y161816D01*
X401995Y161744D01*
X401929Y161670D01*
X401865Y161592D01*
X401805Y161513D01*
X401748Y161431D01*
X401694Y161347D01*
X401644Y161261D01*
X401597Y161173D01*
X401553Y161083D01*
X401513Y160992D01*
X401477Y160899D01*
X401444Y160805D01*
X401415Y160709D01*
X401390Y160613D01*
X401369Y160516D01*
X401351Y160417D01*
X401338Y160319D01*
X401328Y160219D01*
X401322Y160120D01*
X401320Y160020D01*
X401320Y144780D02*
X401322Y144680D01*
X401328Y144581D01*
X401338Y144481D01*
X401351Y144383D01*
X401369Y144284D01*
X401390Y144187D01*
X401415Y144091D01*
X401444Y143995D01*
X401477Y143901D01*
X401513Y143808D01*
X401553Y143717D01*
X401597Y143627D01*
X401644Y143539D01*
X401694Y143453D01*
X401748Y143369D01*
X401805Y143287D01*
X401865Y143208D01*
X401929Y143130D01*
X401995Y143056D01*
X402064Y142984D01*
X402136Y142915D01*
X402210Y142849D01*
X402288Y142785D01*
X402367Y142725D01*
X402449Y142668D01*
X402533Y142614D01*
X402619Y142564D01*
X402707Y142517D01*
X402797Y142473D01*
X402888Y142433D01*
X402981Y142397D01*
X403075Y142364D01*
X403171Y142335D01*
X403267Y142310D01*
X403364Y142289D01*
X403463Y142271D01*
X403561Y142258D01*
X403661Y142248D01*
X403760Y142242D01*
X403860Y142240D01*
X449580Y142240D02*
X449680Y142242D01*
X449779Y142248D01*
X449879Y142258D01*
X449977Y142271D01*
X450076Y142289D01*
X450173Y142310D01*
X450269Y142335D01*
X450365Y142364D01*
X450459Y142397D01*
X450552Y142433D01*
X450643Y142473D01*
X450733Y142517D01*
X450821Y142564D01*
X450907Y142614D01*
X450991Y142668D01*
X451073Y142725D01*
X451152Y142785D01*
X451230Y142849D01*
X451304Y142915D01*
X451376Y142984D01*
X451445Y143056D01*
X451511Y143130D01*
X451575Y143208D01*
X451635Y143287D01*
X451692Y143369D01*
X451746Y143453D01*
X451796Y143539D01*
X451843Y143627D01*
X451887Y143717D01*
X451927Y143808D01*
X451963Y143901D01*
X451996Y143995D01*
X452025Y144091D01*
X452050Y144187D01*
X452071Y144284D01*
X452089Y144383D01*
X452102Y144481D01*
X452112Y144581D01*
X452118Y144680D01*
X452120Y144780D01*
X452120Y160020D02*
X452118Y160120D01*
X452112Y160219D01*
X452102Y160319D01*
X452089Y160417D01*
X452071Y160516D01*
X452050Y160613D01*
X452025Y160709D01*
X451996Y160805D01*
X451963Y160899D01*
X451927Y160992D01*
X451887Y161083D01*
X451843Y161173D01*
X451796Y161261D01*
X451746Y161347D01*
X451692Y161431D01*
X451635Y161513D01*
X451575Y161592D01*
X451511Y161670D01*
X451445Y161744D01*
X451376Y161816D01*
X451304Y161885D01*
X451230Y161951D01*
X451152Y162015D01*
X451073Y162075D01*
X450991Y162132D01*
X450907Y162186D01*
X450821Y162236D01*
X450733Y162283D01*
X450643Y162327D01*
X450552Y162367D01*
X450459Y162403D01*
X450365Y162436D01*
X450269Y162465D01*
X450173Y162490D01*
X450076Y162511D01*
X449977Y162529D01*
X449879Y162542D01*
X449779Y162552D01*
X449680Y162558D01*
X449580Y162560D01*
X401320Y160020D02*
X401320Y144780D01*
X403860Y162560D02*
X407670Y162560D01*
X408940Y161290D01*
X407670Y142240D02*
X403860Y142240D01*
X407670Y142240D02*
X408940Y143510D01*
X444500Y161290D02*
X445770Y162560D01*
X444500Y161290D02*
X408940Y161290D01*
X444500Y143510D02*
X445770Y142240D01*
X444500Y143510D02*
X408940Y143510D01*
X445770Y162560D02*
X449580Y162560D01*
X449580Y142240D02*
X445770Y142240D01*
X452120Y144780D02*
X452120Y160020D01*
D12*
X454025Y152400D03*
X399415Y152400D03*
D13*
X420878Y141732D02*
X420878Y132842D01*
X420878Y141732D02*
X423347Y141732D01*
X423445Y141730D01*
X423543Y141724D01*
X423641Y141714D01*
X423738Y141701D01*
X423835Y141683D01*
X423931Y141662D01*
X424025Y141637D01*
X424119Y141608D01*
X424212Y141576D01*
X424303Y141539D01*
X424393Y141500D01*
X424481Y141456D01*
X424567Y141409D01*
X424652Y141359D01*
X424734Y141306D01*
X424814Y141249D01*
X424892Y141189D01*
X424967Y141126D01*
X425040Y141060D01*
X425110Y140991D01*
X425177Y140920D01*
X425242Y140846D01*
X425303Y140769D01*
X425362Y140690D01*
X425417Y140609D01*
X425469Y140526D01*
X425517Y140440D01*
X425562Y140353D01*
X425604Y140264D01*
X425642Y140174D01*
X425676Y140082D01*
X425707Y139989D01*
X425734Y139894D01*
X425757Y139799D01*
X425777Y139702D01*
X425792Y139606D01*
X425804Y139508D01*
X425812Y139410D01*
X425816Y139312D01*
X425816Y139214D01*
X425812Y139116D01*
X425804Y139018D01*
X425792Y138920D01*
X425777Y138824D01*
X425757Y138727D01*
X425734Y138632D01*
X425707Y138537D01*
X425676Y138444D01*
X425642Y138352D01*
X425604Y138262D01*
X425562Y138173D01*
X425517Y138086D01*
X425469Y138000D01*
X425417Y137917D01*
X425362Y137836D01*
X425303Y137757D01*
X425242Y137680D01*
X425177Y137606D01*
X425110Y137535D01*
X425040Y137466D01*
X424967Y137400D01*
X424892Y137337D01*
X424814Y137277D01*
X424734Y137220D01*
X424652Y137167D01*
X424567Y137117D01*
X424481Y137070D01*
X424393Y137026D01*
X424303Y136987D01*
X424212Y136950D01*
X424119Y136918D01*
X424025Y136889D01*
X423931Y136864D01*
X423835Y136843D01*
X423738Y136825D01*
X423641Y136812D01*
X423543Y136802D01*
X423445Y136796D01*
X423347Y136794D01*
X423347Y136793D02*
X420878Y136793D01*
X423841Y136793D02*
X425817Y132842D01*
X429728Y139756D02*
X432197Y141732D01*
X432197Y132842D01*
X429728Y132842D02*
X434667Y132842D01*
D10*
X401320Y212090D02*
X401322Y212190D01*
X401328Y212289D01*
X401338Y212389D01*
X401351Y212487D01*
X401369Y212586D01*
X401390Y212683D01*
X401415Y212779D01*
X401444Y212875D01*
X401477Y212969D01*
X401513Y213062D01*
X401553Y213153D01*
X401597Y213243D01*
X401644Y213331D01*
X401694Y213417D01*
X401748Y213501D01*
X401805Y213583D01*
X401865Y213662D01*
X401929Y213740D01*
X401995Y213814D01*
X402064Y213886D01*
X402136Y213955D01*
X402210Y214021D01*
X402288Y214085D01*
X402367Y214145D01*
X402449Y214202D01*
X402533Y214256D01*
X402619Y214306D01*
X402707Y214353D01*
X402797Y214397D01*
X402888Y214437D01*
X402981Y214473D01*
X403075Y214506D01*
X403171Y214535D01*
X403267Y214560D01*
X403364Y214581D01*
X403463Y214599D01*
X403561Y214612D01*
X403661Y214622D01*
X403760Y214628D01*
X403860Y214630D01*
X401320Y196850D02*
X401322Y196750D01*
X401328Y196651D01*
X401338Y196551D01*
X401351Y196453D01*
X401369Y196354D01*
X401390Y196257D01*
X401415Y196161D01*
X401444Y196065D01*
X401477Y195971D01*
X401513Y195878D01*
X401553Y195787D01*
X401597Y195697D01*
X401644Y195609D01*
X401694Y195523D01*
X401748Y195439D01*
X401805Y195357D01*
X401865Y195278D01*
X401929Y195200D01*
X401995Y195126D01*
X402064Y195054D01*
X402136Y194985D01*
X402210Y194919D01*
X402288Y194855D01*
X402367Y194795D01*
X402449Y194738D01*
X402533Y194684D01*
X402619Y194634D01*
X402707Y194587D01*
X402797Y194543D01*
X402888Y194503D01*
X402981Y194467D01*
X403075Y194434D01*
X403171Y194405D01*
X403267Y194380D01*
X403364Y194359D01*
X403463Y194341D01*
X403561Y194328D01*
X403661Y194318D01*
X403760Y194312D01*
X403860Y194310D01*
X449580Y194310D02*
X449680Y194312D01*
X449779Y194318D01*
X449879Y194328D01*
X449977Y194341D01*
X450076Y194359D01*
X450173Y194380D01*
X450269Y194405D01*
X450365Y194434D01*
X450459Y194467D01*
X450552Y194503D01*
X450643Y194543D01*
X450733Y194587D01*
X450821Y194634D01*
X450907Y194684D01*
X450991Y194738D01*
X451073Y194795D01*
X451152Y194855D01*
X451230Y194919D01*
X451304Y194985D01*
X451376Y195054D01*
X451445Y195126D01*
X451511Y195200D01*
X451575Y195278D01*
X451635Y195357D01*
X451692Y195439D01*
X451746Y195523D01*
X451796Y195609D01*
X451843Y195697D01*
X451887Y195787D01*
X451927Y195878D01*
X451963Y195971D01*
X451996Y196065D01*
X452025Y196161D01*
X452050Y196257D01*
X452071Y196354D01*
X452089Y196453D01*
X452102Y196551D01*
X452112Y196651D01*
X452118Y196750D01*
X452120Y196850D01*
X452120Y212090D02*
X452118Y212190D01*
X452112Y212289D01*
X452102Y212389D01*
X452089Y212487D01*
X452071Y212586D01*
X452050Y212683D01*
X452025Y212779D01*
X451996Y212875D01*
X451963Y212969D01*
X451927Y213062D01*
X451887Y213153D01*
X451843Y213243D01*
X451796Y213331D01*
X451746Y213417D01*
X451692Y213501D01*
X451635Y213583D01*
X451575Y213662D01*
X451511Y213740D01*
X451445Y213814D01*
X451376Y213886D01*
X451304Y213955D01*
X451230Y214021D01*
X451152Y214085D01*
X451073Y214145D01*
X450991Y214202D01*
X450907Y214256D01*
X450821Y214306D01*
X450733Y214353D01*
X450643Y214397D01*
X450552Y214437D01*
X450459Y214473D01*
X450365Y214506D01*
X450269Y214535D01*
X450173Y214560D01*
X450076Y214581D01*
X449977Y214599D01*
X449879Y214612D01*
X449779Y214622D01*
X449680Y214628D01*
X449580Y214630D01*
X401320Y212090D02*
X401320Y196850D01*
X403860Y214630D02*
X407670Y214630D01*
X408940Y213360D01*
X407670Y194310D02*
X403860Y194310D01*
X407670Y194310D02*
X408940Y195580D01*
X444500Y213360D02*
X445770Y214630D01*
X444500Y213360D02*
X408940Y213360D01*
X444500Y195580D02*
X445770Y194310D01*
X444500Y195580D02*
X408940Y195580D01*
X445770Y214630D02*
X449580Y214630D01*
X449580Y194310D02*
X445770Y194310D01*
X452120Y196850D02*
X452120Y212090D01*
D12*
X454025Y204470D03*
X399415Y204470D03*
D13*
X419608Y192532D02*
X419608Y183642D01*
X419608Y192532D02*
X422077Y192532D01*
X422175Y192530D01*
X422273Y192524D01*
X422371Y192514D01*
X422468Y192501D01*
X422565Y192483D01*
X422661Y192462D01*
X422755Y192437D01*
X422849Y192408D01*
X422942Y192376D01*
X423033Y192339D01*
X423123Y192300D01*
X423211Y192256D01*
X423297Y192209D01*
X423382Y192159D01*
X423464Y192106D01*
X423544Y192049D01*
X423622Y191989D01*
X423697Y191926D01*
X423770Y191860D01*
X423840Y191791D01*
X423907Y191720D01*
X423972Y191646D01*
X424033Y191569D01*
X424092Y191490D01*
X424147Y191409D01*
X424199Y191326D01*
X424247Y191240D01*
X424292Y191153D01*
X424334Y191064D01*
X424372Y190974D01*
X424406Y190882D01*
X424437Y190789D01*
X424464Y190694D01*
X424487Y190599D01*
X424507Y190502D01*
X424522Y190406D01*
X424534Y190308D01*
X424542Y190210D01*
X424546Y190112D01*
X424546Y190014D01*
X424542Y189916D01*
X424534Y189818D01*
X424522Y189720D01*
X424507Y189624D01*
X424487Y189527D01*
X424464Y189432D01*
X424437Y189337D01*
X424406Y189244D01*
X424372Y189152D01*
X424334Y189062D01*
X424292Y188973D01*
X424247Y188886D01*
X424199Y188800D01*
X424147Y188717D01*
X424092Y188636D01*
X424033Y188557D01*
X423972Y188480D01*
X423907Y188406D01*
X423840Y188335D01*
X423770Y188266D01*
X423697Y188200D01*
X423622Y188137D01*
X423544Y188077D01*
X423464Y188020D01*
X423382Y187967D01*
X423297Y187917D01*
X423211Y187870D01*
X423123Y187826D01*
X423033Y187787D01*
X422942Y187750D01*
X422849Y187718D01*
X422755Y187689D01*
X422661Y187664D01*
X422565Y187643D01*
X422468Y187625D01*
X422371Y187612D01*
X422273Y187602D01*
X422175Y187596D01*
X422077Y187594D01*
X422077Y187593D02*
X419608Y187593D01*
X422571Y187593D02*
X424547Y183642D01*
X433397Y190310D02*
X433395Y190402D01*
X433389Y190494D01*
X433380Y190585D01*
X433367Y190676D01*
X433350Y190766D01*
X433329Y190856D01*
X433305Y190944D01*
X433277Y191032D01*
X433245Y191118D01*
X433210Y191203D01*
X433171Y191286D01*
X433129Y191368D01*
X433084Y191448D01*
X433035Y191526D01*
X432983Y191602D01*
X432928Y191675D01*
X432870Y191747D01*
X432810Y191816D01*
X432746Y191882D01*
X432680Y191946D01*
X432611Y192006D01*
X432539Y192064D01*
X432466Y192119D01*
X432390Y192171D01*
X432312Y192220D01*
X432232Y192265D01*
X432150Y192307D01*
X432067Y192346D01*
X431982Y192381D01*
X431896Y192413D01*
X431808Y192441D01*
X431720Y192465D01*
X431630Y192486D01*
X431540Y192503D01*
X431449Y192516D01*
X431358Y192525D01*
X431266Y192531D01*
X431174Y192533D01*
X431174Y192532D02*
X431068Y192530D01*
X430963Y192524D01*
X430858Y192514D01*
X430753Y192501D01*
X430649Y192483D01*
X430546Y192462D01*
X430443Y192437D01*
X430341Y192408D01*
X430241Y192375D01*
X430142Y192339D01*
X430044Y192299D01*
X429948Y192255D01*
X429853Y192208D01*
X429761Y192158D01*
X429670Y192104D01*
X429581Y192046D01*
X429495Y191986D01*
X429411Y191922D01*
X429329Y191856D01*
X429249Y191786D01*
X429173Y191713D01*
X429099Y191638D01*
X429028Y191560D01*
X428960Y191479D01*
X428894Y191396D01*
X428832Y191310D01*
X428774Y191223D01*
X428718Y191133D01*
X428666Y191041D01*
X428617Y190947D01*
X428572Y190852D01*
X428530Y190755D01*
X428492Y190656D01*
X428458Y190557D01*
X432656Y188581D02*
X432725Y188650D01*
X432791Y188720D01*
X432854Y188794D01*
X432913Y188870D01*
X432970Y188948D01*
X433024Y189028D01*
X433074Y189111D01*
X433121Y189195D01*
X433164Y189282D01*
X433204Y189370D01*
X433240Y189459D01*
X433273Y189550D01*
X433302Y189642D01*
X433327Y189736D01*
X433348Y189830D01*
X433366Y189925D01*
X433379Y190021D01*
X433389Y190117D01*
X433395Y190213D01*
X433397Y190310D01*
X432656Y188581D02*
X428458Y183642D01*
X433397Y183642D01*
D10*
X173990Y160020D02*
X173890Y160018D01*
X173791Y160012D01*
X173691Y160002D01*
X173593Y159989D01*
X173494Y159971D01*
X173397Y159950D01*
X173301Y159925D01*
X173205Y159896D01*
X173111Y159863D01*
X173018Y159827D01*
X172927Y159787D01*
X172837Y159743D01*
X172749Y159696D01*
X172663Y159646D01*
X172579Y159592D01*
X172497Y159535D01*
X172418Y159475D01*
X172340Y159411D01*
X172266Y159345D01*
X172194Y159276D01*
X172125Y159204D01*
X172059Y159130D01*
X171995Y159052D01*
X171935Y158973D01*
X171878Y158891D01*
X171824Y158807D01*
X171774Y158721D01*
X171727Y158633D01*
X171683Y158543D01*
X171643Y158452D01*
X171607Y158359D01*
X171574Y158265D01*
X171545Y158169D01*
X171520Y158073D01*
X171499Y157976D01*
X171481Y157877D01*
X171468Y157779D01*
X171458Y157679D01*
X171452Y157580D01*
X171450Y157480D01*
X171450Y139700D02*
X171452Y139600D01*
X171458Y139501D01*
X171468Y139401D01*
X171481Y139303D01*
X171499Y139204D01*
X171520Y139107D01*
X171545Y139011D01*
X171574Y138915D01*
X171607Y138821D01*
X171643Y138728D01*
X171683Y138637D01*
X171727Y138547D01*
X171774Y138459D01*
X171824Y138373D01*
X171878Y138289D01*
X171935Y138207D01*
X171995Y138128D01*
X172059Y138050D01*
X172125Y137976D01*
X172194Y137904D01*
X172266Y137835D01*
X172340Y137769D01*
X172418Y137705D01*
X172497Y137645D01*
X172579Y137588D01*
X172663Y137534D01*
X172749Y137484D01*
X172837Y137437D01*
X172927Y137393D01*
X173018Y137353D01*
X173111Y137317D01*
X173205Y137284D01*
X173301Y137255D01*
X173397Y137230D01*
X173494Y137209D01*
X173593Y137191D01*
X173691Y137178D01*
X173791Y137168D01*
X173890Y137162D01*
X173990Y137160D01*
X232410Y137160D02*
X232510Y137162D01*
X232609Y137168D01*
X232709Y137178D01*
X232807Y137191D01*
X232906Y137209D01*
X233003Y137230D01*
X233099Y137255D01*
X233195Y137284D01*
X233289Y137317D01*
X233382Y137353D01*
X233473Y137393D01*
X233563Y137437D01*
X233651Y137484D01*
X233737Y137534D01*
X233821Y137588D01*
X233903Y137645D01*
X233982Y137705D01*
X234060Y137769D01*
X234134Y137835D01*
X234206Y137904D01*
X234275Y137976D01*
X234341Y138050D01*
X234405Y138128D01*
X234465Y138207D01*
X234522Y138289D01*
X234576Y138373D01*
X234626Y138459D01*
X234673Y138547D01*
X234717Y138637D01*
X234757Y138728D01*
X234793Y138821D01*
X234826Y138915D01*
X234855Y139011D01*
X234880Y139107D01*
X234901Y139204D01*
X234919Y139303D01*
X234932Y139401D01*
X234942Y139501D01*
X234948Y139600D01*
X234950Y139700D01*
X234950Y157480D02*
X234948Y157580D01*
X234942Y157679D01*
X234932Y157779D01*
X234919Y157877D01*
X234901Y157976D01*
X234880Y158073D01*
X234855Y158169D01*
X234826Y158265D01*
X234793Y158359D01*
X234757Y158452D01*
X234717Y158543D01*
X234673Y158633D01*
X234626Y158721D01*
X234576Y158807D01*
X234522Y158891D01*
X234465Y158973D01*
X234405Y159052D01*
X234341Y159130D01*
X234275Y159204D01*
X234206Y159276D01*
X234134Y159345D01*
X234060Y159411D01*
X233982Y159475D01*
X233903Y159535D01*
X233821Y159592D01*
X233737Y159646D01*
X233651Y159696D01*
X233563Y159743D01*
X233473Y159787D01*
X233382Y159827D01*
X233289Y159863D01*
X233195Y159896D01*
X233099Y159925D01*
X233003Y159950D01*
X232906Y159971D01*
X232807Y159989D01*
X232709Y160002D01*
X232609Y160012D01*
X232510Y160018D01*
X232410Y160020D01*
X171450Y157480D02*
X171450Y139700D01*
X173990Y160020D02*
X177800Y160020D01*
X179070Y158750D01*
X177800Y137160D02*
X173990Y137160D01*
X177800Y137160D02*
X179070Y138430D01*
X227330Y158750D02*
X228600Y160020D01*
X227330Y158750D02*
X179070Y158750D01*
X227330Y138430D02*
X228600Y137160D01*
X227330Y138430D02*
X179070Y138430D01*
X228600Y160020D02*
X232410Y160020D01*
X232410Y137160D02*
X228600Y137160D01*
X234950Y139700D02*
X234950Y157480D01*
D14*
X243840Y148590D02*
X247650Y148590D01*
X162560Y148590D02*
X158750Y148590D01*
D15*
X239268Y148590D03*
X167132Y148590D03*
X251968Y148590D03*
X154432Y148590D03*
D13*
X159258Y162052D02*
X159258Y170942D01*
X161727Y170942D01*
X161825Y170940D01*
X161923Y170934D01*
X162021Y170924D01*
X162118Y170911D01*
X162215Y170893D01*
X162311Y170872D01*
X162405Y170847D01*
X162499Y170818D01*
X162592Y170786D01*
X162683Y170749D01*
X162773Y170710D01*
X162861Y170666D01*
X162947Y170619D01*
X163032Y170569D01*
X163114Y170516D01*
X163194Y170459D01*
X163272Y170399D01*
X163347Y170336D01*
X163420Y170270D01*
X163490Y170201D01*
X163557Y170130D01*
X163622Y170056D01*
X163683Y169979D01*
X163742Y169900D01*
X163797Y169819D01*
X163849Y169736D01*
X163897Y169650D01*
X163942Y169563D01*
X163984Y169474D01*
X164022Y169384D01*
X164056Y169292D01*
X164087Y169199D01*
X164114Y169104D01*
X164137Y169009D01*
X164157Y168912D01*
X164172Y168816D01*
X164184Y168718D01*
X164192Y168620D01*
X164196Y168522D01*
X164196Y168424D01*
X164192Y168326D01*
X164184Y168228D01*
X164172Y168130D01*
X164157Y168034D01*
X164137Y167937D01*
X164114Y167842D01*
X164087Y167747D01*
X164056Y167654D01*
X164022Y167562D01*
X163984Y167472D01*
X163942Y167383D01*
X163897Y167296D01*
X163849Y167210D01*
X163797Y167127D01*
X163742Y167046D01*
X163683Y166967D01*
X163622Y166890D01*
X163557Y166816D01*
X163490Y166745D01*
X163420Y166676D01*
X163347Y166610D01*
X163272Y166547D01*
X163194Y166487D01*
X163114Y166430D01*
X163032Y166377D01*
X162947Y166327D01*
X162861Y166280D01*
X162773Y166236D01*
X162683Y166197D01*
X162592Y166160D01*
X162499Y166128D01*
X162405Y166099D01*
X162311Y166074D01*
X162215Y166053D01*
X162118Y166035D01*
X162021Y166022D01*
X161923Y166012D01*
X161825Y166006D01*
X161727Y166004D01*
X161727Y166003D02*
X159258Y166003D01*
X162221Y166003D02*
X164197Y162052D01*
X168108Y162052D02*
X170577Y162052D01*
X170675Y162054D01*
X170773Y162060D01*
X170871Y162070D01*
X170968Y162083D01*
X171065Y162101D01*
X171161Y162122D01*
X171255Y162147D01*
X171349Y162176D01*
X171442Y162208D01*
X171533Y162245D01*
X171623Y162284D01*
X171711Y162328D01*
X171797Y162375D01*
X171882Y162425D01*
X171964Y162478D01*
X172044Y162535D01*
X172122Y162595D01*
X172197Y162658D01*
X172270Y162724D01*
X172340Y162793D01*
X172407Y162864D01*
X172472Y162938D01*
X172533Y163015D01*
X172592Y163094D01*
X172647Y163175D01*
X172699Y163258D01*
X172747Y163344D01*
X172792Y163431D01*
X172834Y163520D01*
X172872Y163610D01*
X172906Y163702D01*
X172937Y163795D01*
X172964Y163890D01*
X172987Y163985D01*
X173007Y164082D01*
X173022Y164178D01*
X173034Y164276D01*
X173042Y164374D01*
X173046Y164472D01*
X173046Y164570D01*
X173042Y164668D01*
X173034Y164766D01*
X173022Y164864D01*
X173007Y164960D01*
X172987Y165057D01*
X172964Y165152D01*
X172937Y165247D01*
X172906Y165340D01*
X172872Y165432D01*
X172834Y165522D01*
X172792Y165611D01*
X172747Y165698D01*
X172699Y165784D01*
X172647Y165867D01*
X172592Y165948D01*
X172533Y166027D01*
X172472Y166104D01*
X172407Y166178D01*
X172340Y166249D01*
X172270Y166318D01*
X172197Y166384D01*
X172122Y166447D01*
X172044Y166507D01*
X171964Y166564D01*
X171882Y166617D01*
X171797Y166667D01*
X171711Y166714D01*
X171623Y166758D01*
X171533Y166797D01*
X171442Y166834D01*
X171349Y166866D01*
X171255Y166895D01*
X171161Y166920D01*
X171065Y166941D01*
X170968Y166959D01*
X170871Y166972D01*
X170773Y166982D01*
X170675Y166988D01*
X170577Y166990D01*
X171071Y170942D02*
X168108Y170942D01*
X171071Y170942D02*
X171158Y170940D01*
X171246Y170934D01*
X171333Y170925D01*
X171419Y170911D01*
X171505Y170894D01*
X171589Y170873D01*
X171673Y170848D01*
X171756Y170819D01*
X171837Y170787D01*
X171917Y170752D01*
X171995Y170713D01*
X172072Y170670D01*
X172146Y170624D01*
X172218Y170575D01*
X172288Y170523D01*
X172356Y170467D01*
X172421Y170409D01*
X172484Y170348D01*
X172543Y170284D01*
X172600Y170217D01*
X172654Y170149D01*
X172705Y170077D01*
X172752Y170004D01*
X172797Y169929D01*
X172838Y169851D01*
X172875Y169772D01*
X172909Y169692D01*
X172939Y169610D01*
X172966Y169527D01*
X172989Y169442D01*
X173008Y169357D01*
X173023Y169271D01*
X173035Y169184D01*
X173043Y169097D01*
X173047Y169010D01*
X173047Y168922D01*
X173043Y168835D01*
X173035Y168748D01*
X173023Y168661D01*
X173008Y168575D01*
X172989Y168490D01*
X172966Y168405D01*
X172939Y168322D01*
X172909Y168240D01*
X172875Y168160D01*
X172838Y168081D01*
X172797Y168003D01*
X172752Y167928D01*
X172705Y167855D01*
X172654Y167783D01*
X172600Y167715D01*
X172543Y167648D01*
X172484Y167584D01*
X172421Y167523D01*
X172356Y167465D01*
X172288Y167409D01*
X172218Y167357D01*
X172146Y167308D01*
X172072Y167262D01*
X171995Y167219D01*
X171917Y167180D01*
X171837Y167145D01*
X171756Y167113D01*
X171673Y167084D01*
X171589Y167059D01*
X171505Y167038D01*
X171419Y167021D01*
X171333Y167007D01*
X171246Y166998D01*
X171158Y166992D01*
X171071Y166990D01*
X171071Y166991D02*
X169096Y166991D01*
D10*
X232410Y179070D02*
X232510Y179072D01*
X232609Y179078D01*
X232709Y179088D01*
X232807Y179101D01*
X232906Y179119D01*
X233003Y179140D01*
X233099Y179165D01*
X233195Y179194D01*
X233289Y179227D01*
X233382Y179263D01*
X233473Y179303D01*
X233563Y179347D01*
X233651Y179394D01*
X233737Y179444D01*
X233821Y179498D01*
X233903Y179555D01*
X233982Y179615D01*
X234060Y179679D01*
X234134Y179745D01*
X234206Y179814D01*
X234275Y179886D01*
X234341Y179960D01*
X234405Y180038D01*
X234465Y180117D01*
X234522Y180199D01*
X234576Y180283D01*
X234626Y180369D01*
X234673Y180457D01*
X234717Y180547D01*
X234757Y180638D01*
X234793Y180731D01*
X234826Y180825D01*
X234855Y180921D01*
X234880Y181017D01*
X234901Y181114D01*
X234919Y181213D01*
X234932Y181311D01*
X234942Y181411D01*
X234948Y181510D01*
X234950Y181610D01*
X234950Y199390D02*
X234948Y199490D01*
X234942Y199589D01*
X234932Y199689D01*
X234919Y199787D01*
X234901Y199886D01*
X234880Y199983D01*
X234855Y200079D01*
X234826Y200175D01*
X234793Y200269D01*
X234757Y200362D01*
X234717Y200453D01*
X234673Y200543D01*
X234626Y200631D01*
X234576Y200717D01*
X234522Y200801D01*
X234465Y200883D01*
X234405Y200962D01*
X234341Y201040D01*
X234275Y201114D01*
X234206Y201186D01*
X234134Y201255D01*
X234060Y201321D01*
X233982Y201385D01*
X233903Y201445D01*
X233821Y201502D01*
X233737Y201556D01*
X233651Y201606D01*
X233563Y201653D01*
X233473Y201697D01*
X233382Y201737D01*
X233289Y201773D01*
X233195Y201806D01*
X233099Y201835D01*
X233003Y201860D01*
X232906Y201881D01*
X232807Y201899D01*
X232709Y201912D01*
X232609Y201922D01*
X232510Y201928D01*
X232410Y201930D01*
X173990Y201930D02*
X173890Y201928D01*
X173791Y201922D01*
X173691Y201912D01*
X173593Y201899D01*
X173494Y201881D01*
X173397Y201860D01*
X173301Y201835D01*
X173205Y201806D01*
X173111Y201773D01*
X173018Y201737D01*
X172927Y201697D01*
X172837Y201653D01*
X172749Y201606D01*
X172663Y201556D01*
X172579Y201502D01*
X172497Y201445D01*
X172418Y201385D01*
X172340Y201321D01*
X172266Y201255D01*
X172194Y201186D01*
X172125Y201114D01*
X172059Y201040D01*
X171995Y200962D01*
X171935Y200883D01*
X171878Y200801D01*
X171824Y200717D01*
X171774Y200631D01*
X171727Y200543D01*
X171683Y200453D01*
X171643Y200362D01*
X171607Y200269D01*
X171574Y200175D01*
X171545Y200079D01*
X171520Y199983D01*
X171499Y199886D01*
X171481Y199787D01*
X171468Y199689D01*
X171458Y199589D01*
X171452Y199490D01*
X171450Y199390D01*
X171450Y181610D02*
X171452Y181510D01*
X171458Y181411D01*
X171468Y181311D01*
X171481Y181213D01*
X171499Y181114D01*
X171520Y181017D01*
X171545Y180921D01*
X171574Y180825D01*
X171607Y180731D01*
X171643Y180638D01*
X171683Y180547D01*
X171727Y180457D01*
X171774Y180369D01*
X171824Y180283D01*
X171878Y180199D01*
X171935Y180117D01*
X171995Y180038D01*
X172059Y179960D01*
X172125Y179886D01*
X172194Y179814D01*
X172266Y179745D01*
X172340Y179679D01*
X172418Y179615D01*
X172497Y179555D01*
X172579Y179498D01*
X172663Y179444D01*
X172749Y179394D01*
X172837Y179347D01*
X172927Y179303D01*
X173018Y179263D01*
X173111Y179227D01*
X173205Y179194D01*
X173301Y179165D01*
X173397Y179140D01*
X173494Y179119D01*
X173593Y179101D01*
X173691Y179088D01*
X173791Y179078D01*
X173890Y179072D01*
X173990Y179070D01*
X234950Y181610D02*
X234950Y199390D01*
X232410Y179070D02*
X228600Y179070D01*
X227330Y180340D01*
X228600Y201930D02*
X232410Y201930D01*
X228600Y201930D02*
X227330Y200660D01*
X179070Y180340D02*
X177800Y179070D01*
X179070Y180340D02*
X227330Y180340D01*
X179070Y200660D02*
X177800Y201930D01*
X179070Y200660D02*
X227330Y200660D01*
X177800Y179070D02*
X173990Y179070D01*
X173990Y201930D02*
X177800Y201930D01*
X171450Y199390D02*
X171450Y181610D01*
D14*
X162560Y190500D02*
X158750Y190500D01*
X243840Y190500D02*
X247650Y190500D01*
D15*
X167132Y190500D03*
X239268Y190500D03*
X154432Y190500D03*
X251968Y190500D03*
D13*
X158423Y203708D02*
X158423Y212598D01*
X160893Y212598D01*
X160991Y212596D01*
X161089Y212590D01*
X161187Y212580D01*
X161284Y212567D01*
X161381Y212549D01*
X161477Y212528D01*
X161571Y212503D01*
X161665Y212474D01*
X161758Y212442D01*
X161849Y212405D01*
X161939Y212366D01*
X162027Y212322D01*
X162113Y212275D01*
X162198Y212225D01*
X162280Y212172D01*
X162360Y212115D01*
X162438Y212055D01*
X162513Y211992D01*
X162586Y211926D01*
X162656Y211857D01*
X162723Y211786D01*
X162788Y211712D01*
X162849Y211635D01*
X162908Y211556D01*
X162963Y211475D01*
X163015Y211392D01*
X163063Y211306D01*
X163108Y211219D01*
X163150Y211130D01*
X163188Y211040D01*
X163222Y210948D01*
X163253Y210855D01*
X163280Y210760D01*
X163303Y210665D01*
X163323Y210568D01*
X163338Y210472D01*
X163350Y210374D01*
X163358Y210276D01*
X163362Y210178D01*
X163362Y210080D01*
X163358Y209982D01*
X163350Y209884D01*
X163338Y209786D01*
X163323Y209690D01*
X163303Y209593D01*
X163280Y209498D01*
X163253Y209403D01*
X163222Y209310D01*
X163188Y209218D01*
X163150Y209128D01*
X163108Y209039D01*
X163063Y208952D01*
X163015Y208866D01*
X162963Y208783D01*
X162908Y208702D01*
X162849Y208623D01*
X162788Y208546D01*
X162723Y208472D01*
X162656Y208401D01*
X162586Y208332D01*
X162513Y208266D01*
X162438Y208203D01*
X162360Y208143D01*
X162280Y208086D01*
X162198Y208033D01*
X162113Y207983D01*
X162027Y207936D01*
X161939Y207892D01*
X161849Y207853D01*
X161758Y207816D01*
X161665Y207784D01*
X161571Y207755D01*
X161477Y207730D01*
X161381Y207709D01*
X161284Y207691D01*
X161187Y207678D01*
X161089Y207668D01*
X160991Y207662D01*
X160893Y207660D01*
X160893Y207659D02*
X158423Y207659D01*
X161387Y207659D02*
X163362Y203708D01*
X167273Y205684D02*
X169249Y212598D01*
X167273Y205684D02*
X172212Y205684D01*
X170730Y207659D02*
X170730Y203708D01*
D11*
X788680Y402600D02*
X788680Y562600D01*
X1002080Y562600D02*
X1002080Y402600D01*
D16*
X829580Y393700D02*
X829582Y393763D01*
X829588Y393825D01*
X829598Y393887D01*
X829611Y393949D01*
X829629Y394009D01*
X829650Y394068D01*
X829675Y394126D01*
X829704Y394182D01*
X829736Y394236D01*
X829771Y394288D01*
X829809Y394337D01*
X829851Y394385D01*
X829895Y394429D01*
X829943Y394471D01*
X829992Y394509D01*
X830044Y394544D01*
X830098Y394576D01*
X830154Y394605D01*
X830212Y394630D01*
X830271Y394651D01*
X830331Y394669D01*
X830393Y394682D01*
X830455Y394692D01*
X830517Y394698D01*
X830580Y394700D01*
X830643Y394698D01*
X830705Y394692D01*
X830767Y394682D01*
X830829Y394669D01*
X830889Y394651D01*
X830948Y394630D01*
X831006Y394605D01*
X831062Y394576D01*
X831116Y394544D01*
X831168Y394509D01*
X831217Y394471D01*
X831265Y394429D01*
X831309Y394385D01*
X831351Y394337D01*
X831389Y394288D01*
X831424Y394236D01*
X831456Y394182D01*
X831485Y394126D01*
X831510Y394068D01*
X831531Y394009D01*
X831549Y393949D01*
X831562Y393887D01*
X831572Y393825D01*
X831578Y393763D01*
X831580Y393700D01*
X831578Y393637D01*
X831572Y393575D01*
X831562Y393513D01*
X831549Y393451D01*
X831531Y393391D01*
X831510Y393332D01*
X831485Y393274D01*
X831456Y393218D01*
X831424Y393164D01*
X831389Y393112D01*
X831351Y393063D01*
X831309Y393015D01*
X831265Y392971D01*
X831217Y392929D01*
X831168Y392891D01*
X831116Y392856D01*
X831062Y392824D01*
X831006Y392795D01*
X830948Y392770D01*
X830889Y392749D01*
X830829Y392731D01*
X830767Y392718D01*
X830705Y392708D01*
X830643Y392702D01*
X830580Y392700D01*
X830517Y392702D01*
X830455Y392708D01*
X830393Y392718D01*
X830331Y392731D01*
X830271Y392749D01*
X830212Y392770D01*
X830154Y392795D01*
X830098Y392824D01*
X830044Y392856D01*
X829992Y392891D01*
X829943Y392929D01*
X829895Y392971D01*
X829851Y393015D01*
X829809Y393063D01*
X829771Y393112D01*
X829736Y393164D01*
X829704Y393218D01*
X829675Y393274D01*
X829650Y393332D01*
X829629Y393391D01*
X829611Y393451D01*
X829598Y393513D01*
X829588Y393575D01*
X829582Y393637D01*
X829580Y393700D01*
D13*
X847785Y476758D02*
X847785Y488442D01*
X851030Y488442D01*
X851143Y488440D01*
X851256Y488434D01*
X851369Y488424D01*
X851482Y488410D01*
X851594Y488393D01*
X851705Y488371D01*
X851815Y488346D01*
X851925Y488316D01*
X852033Y488283D01*
X852140Y488246D01*
X852246Y488206D01*
X852350Y488161D01*
X852453Y488113D01*
X852554Y488062D01*
X852653Y488007D01*
X852750Y487949D01*
X852845Y487887D01*
X852938Y487822D01*
X853028Y487754D01*
X853116Y487683D01*
X853202Y487608D01*
X853285Y487531D01*
X853365Y487451D01*
X853442Y487368D01*
X853517Y487282D01*
X853588Y487194D01*
X853656Y487104D01*
X853721Y487011D01*
X853783Y486916D01*
X853841Y486819D01*
X853896Y486720D01*
X853947Y486619D01*
X853995Y486516D01*
X854040Y486412D01*
X854080Y486306D01*
X854117Y486199D01*
X854150Y486091D01*
X854180Y485981D01*
X854205Y485871D01*
X854227Y485760D01*
X854244Y485648D01*
X854258Y485535D01*
X854268Y485422D01*
X854274Y485309D01*
X854276Y485196D01*
X854274Y485083D01*
X854268Y484970D01*
X854258Y484857D01*
X854244Y484744D01*
X854227Y484632D01*
X854205Y484521D01*
X854180Y484411D01*
X854150Y484301D01*
X854117Y484193D01*
X854080Y484086D01*
X854040Y483980D01*
X853995Y483876D01*
X853947Y483773D01*
X853896Y483672D01*
X853841Y483573D01*
X853783Y483476D01*
X853721Y483381D01*
X853656Y483288D01*
X853588Y483198D01*
X853517Y483110D01*
X853442Y483024D01*
X853365Y482941D01*
X853285Y482861D01*
X853202Y482784D01*
X853116Y482709D01*
X853028Y482638D01*
X852938Y482570D01*
X852845Y482505D01*
X852750Y482443D01*
X852653Y482385D01*
X852554Y482330D01*
X852453Y482279D01*
X852350Y482231D01*
X852246Y482186D01*
X852140Y482146D01*
X852033Y482109D01*
X851925Y482076D01*
X851815Y482046D01*
X851705Y482021D01*
X851594Y481999D01*
X851482Y481982D01*
X851369Y481968D01*
X851256Y481958D01*
X851143Y481952D01*
X851030Y481950D01*
X851030Y481951D02*
X847785Y481951D01*
X851679Y481951D02*
X854276Y476758D01*
X861869Y479354D02*
X861869Y488442D01*
X861868Y479354D02*
X861866Y479255D01*
X861860Y479155D01*
X861851Y479056D01*
X861838Y478958D01*
X861821Y478860D01*
X861800Y478762D01*
X861775Y478666D01*
X861747Y478571D01*
X861715Y478477D01*
X861680Y478384D01*
X861641Y478292D01*
X861598Y478202D01*
X861553Y478114D01*
X861503Y478027D01*
X861451Y477943D01*
X861395Y477860D01*
X861337Y477780D01*
X861275Y477702D01*
X861210Y477627D01*
X861142Y477554D01*
X861072Y477484D01*
X860999Y477416D01*
X860924Y477351D01*
X860846Y477289D01*
X860766Y477231D01*
X860683Y477175D01*
X860599Y477123D01*
X860512Y477073D01*
X860424Y477028D01*
X860334Y476985D01*
X860242Y476946D01*
X860149Y476911D01*
X860055Y476879D01*
X859960Y476851D01*
X859864Y476826D01*
X859766Y476805D01*
X859668Y476788D01*
X859570Y476775D01*
X859471Y476766D01*
X859371Y476760D01*
X859272Y476758D01*
X857974Y476758D01*
X867142Y479354D02*
X869738Y488442D01*
X867142Y479354D02*
X873633Y479354D01*
X871686Y481951D02*
X871686Y476758D01*
X878572Y476758D02*
X882467Y476758D01*
X882566Y476760D01*
X882666Y476766D01*
X882765Y476775D01*
X882863Y476788D01*
X882961Y476805D01*
X883059Y476826D01*
X883155Y476851D01*
X883250Y476879D01*
X883344Y476911D01*
X883437Y476946D01*
X883529Y476985D01*
X883619Y477028D01*
X883707Y477073D01*
X883794Y477123D01*
X883878Y477175D01*
X883961Y477231D01*
X884041Y477289D01*
X884119Y477351D01*
X884194Y477416D01*
X884267Y477484D01*
X884337Y477554D01*
X884405Y477627D01*
X884470Y477702D01*
X884532Y477780D01*
X884590Y477860D01*
X884646Y477943D01*
X884698Y478027D01*
X884748Y478114D01*
X884793Y478202D01*
X884836Y478292D01*
X884875Y478384D01*
X884910Y478477D01*
X884942Y478571D01*
X884970Y478666D01*
X884995Y478762D01*
X885016Y478860D01*
X885033Y478958D01*
X885046Y479056D01*
X885055Y479155D01*
X885061Y479255D01*
X885063Y479354D01*
X885063Y480653D01*
X885061Y480752D01*
X885055Y480852D01*
X885046Y480951D01*
X885033Y481049D01*
X885016Y481147D01*
X884995Y481245D01*
X884970Y481341D01*
X884942Y481436D01*
X884910Y481530D01*
X884875Y481623D01*
X884836Y481715D01*
X884793Y481805D01*
X884748Y481893D01*
X884698Y481980D01*
X884646Y482064D01*
X884590Y482147D01*
X884532Y482227D01*
X884470Y482305D01*
X884405Y482380D01*
X884337Y482453D01*
X884267Y482523D01*
X884194Y482591D01*
X884119Y482656D01*
X884041Y482718D01*
X883961Y482776D01*
X883878Y482832D01*
X883794Y482884D01*
X883707Y482934D01*
X883619Y482979D01*
X883529Y483022D01*
X883437Y483061D01*
X883344Y483096D01*
X883250Y483128D01*
X883155Y483156D01*
X883059Y483181D01*
X882961Y483202D01*
X882863Y483219D01*
X882765Y483232D01*
X882666Y483241D01*
X882566Y483247D01*
X882467Y483249D01*
X878572Y483249D01*
X878572Y488442D01*
X885063Y488442D01*
X889508Y475460D02*
X894701Y475460D01*
X899640Y476758D02*
X899640Y488442D01*
X903534Y481951D01*
X907429Y488442D01*
X907429Y476758D01*
X912213Y476758D02*
X916107Y488442D01*
X920002Y476758D01*
X919028Y479679D02*
X913186Y479679D01*
X925251Y476758D02*
X925251Y488442D01*
X923953Y476758D02*
X926550Y476758D01*
X926550Y488442D02*
X923953Y488442D01*
X931531Y488442D02*
X931531Y476758D01*
X938022Y476758D02*
X931531Y488442D01*
X938022Y488442D02*
X938022Y476758D01*
D11*
X788680Y378450D02*
X788680Y218450D01*
X1002080Y218450D02*
X1002080Y378450D01*
D16*
X829580Y209550D02*
X829582Y209613D01*
X829588Y209675D01*
X829598Y209737D01*
X829611Y209799D01*
X829629Y209859D01*
X829650Y209918D01*
X829675Y209976D01*
X829704Y210032D01*
X829736Y210086D01*
X829771Y210138D01*
X829809Y210187D01*
X829851Y210235D01*
X829895Y210279D01*
X829943Y210321D01*
X829992Y210359D01*
X830044Y210394D01*
X830098Y210426D01*
X830154Y210455D01*
X830212Y210480D01*
X830271Y210501D01*
X830331Y210519D01*
X830393Y210532D01*
X830455Y210542D01*
X830517Y210548D01*
X830580Y210550D01*
X830643Y210548D01*
X830705Y210542D01*
X830767Y210532D01*
X830829Y210519D01*
X830889Y210501D01*
X830948Y210480D01*
X831006Y210455D01*
X831062Y210426D01*
X831116Y210394D01*
X831168Y210359D01*
X831217Y210321D01*
X831265Y210279D01*
X831309Y210235D01*
X831351Y210187D01*
X831389Y210138D01*
X831424Y210086D01*
X831456Y210032D01*
X831485Y209976D01*
X831510Y209918D01*
X831531Y209859D01*
X831549Y209799D01*
X831562Y209737D01*
X831572Y209675D01*
X831578Y209613D01*
X831580Y209550D01*
X831578Y209487D01*
X831572Y209425D01*
X831562Y209363D01*
X831549Y209301D01*
X831531Y209241D01*
X831510Y209182D01*
X831485Y209124D01*
X831456Y209068D01*
X831424Y209014D01*
X831389Y208962D01*
X831351Y208913D01*
X831309Y208865D01*
X831265Y208821D01*
X831217Y208779D01*
X831168Y208741D01*
X831116Y208706D01*
X831062Y208674D01*
X831006Y208645D01*
X830948Y208620D01*
X830889Y208599D01*
X830829Y208581D01*
X830767Y208568D01*
X830705Y208558D01*
X830643Y208552D01*
X830580Y208550D01*
X830517Y208552D01*
X830455Y208558D01*
X830393Y208568D01*
X830331Y208581D01*
X830271Y208599D01*
X830212Y208620D01*
X830154Y208645D01*
X830098Y208674D01*
X830044Y208706D01*
X829992Y208741D01*
X829943Y208779D01*
X829895Y208821D01*
X829851Y208865D01*
X829809Y208913D01*
X829771Y208962D01*
X829736Y209014D01*
X829704Y209068D01*
X829675Y209124D01*
X829650Y209182D01*
X829629Y209241D01*
X829611Y209301D01*
X829598Y209363D01*
X829588Y209425D01*
X829582Y209487D01*
X829580Y209550D01*
D17*
X844931Y289941D02*
X844931Y299339D01*
X847542Y299339D01*
X847643Y299337D01*
X847744Y299331D01*
X847845Y299321D01*
X847945Y299308D01*
X848045Y299290D01*
X848144Y299269D01*
X848242Y299243D01*
X848339Y299214D01*
X848435Y299182D01*
X848529Y299145D01*
X848622Y299105D01*
X848714Y299061D01*
X848803Y299014D01*
X848891Y298963D01*
X848977Y298909D01*
X849060Y298852D01*
X849142Y298792D01*
X849220Y298728D01*
X849297Y298662D01*
X849370Y298592D01*
X849441Y298520D01*
X849509Y298445D01*
X849574Y298367D01*
X849636Y298287D01*
X849695Y298205D01*
X849751Y298120D01*
X849803Y298033D01*
X849852Y297945D01*
X849898Y297854D01*
X849939Y297762D01*
X849978Y297668D01*
X850012Y297573D01*
X850043Y297477D01*
X850070Y297379D01*
X850094Y297281D01*
X850113Y297181D01*
X850129Y297081D01*
X850141Y296981D01*
X850149Y296880D01*
X850153Y296779D01*
X850153Y296677D01*
X850149Y296576D01*
X850141Y296475D01*
X850129Y296375D01*
X850113Y296275D01*
X850094Y296175D01*
X850070Y296077D01*
X850043Y295979D01*
X850012Y295883D01*
X849978Y295788D01*
X849939Y295694D01*
X849898Y295602D01*
X849852Y295511D01*
X849803Y295423D01*
X849751Y295336D01*
X849695Y295251D01*
X849636Y295169D01*
X849574Y295089D01*
X849509Y295011D01*
X849441Y294936D01*
X849370Y294864D01*
X849297Y294794D01*
X849220Y294728D01*
X849142Y294664D01*
X849060Y294604D01*
X848977Y294547D01*
X848891Y294493D01*
X848803Y294442D01*
X848714Y294395D01*
X848622Y294351D01*
X848529Y294311D01*
X848435Y294274D01*
X848339Y294242D01*
X848242Y294213D01*
X848144Y294187D01*
X848045Y294166D01*
X847945Y294148D01*
X847845Y294135D01*
X847744Y294125D01*
X847643Y294119D01*
X847542Y294117D01*
X847542Y294118D02*
X844931Y294118D01*
X848064Y294118D02*
X850152Y289941D01*
X856227Y292029D02*
X856227Y299339D01*
X856227Y292029D02*
X856225Y291940D01*
X856219Y291852D01*
X856210Y291764D01*
X856197Y291676D01*
X856180Y291589D01*
X856160Y291503D01*
X856135Y291418D01*
X856108Y291333D01*
X856076Y291250D01*
X856042Y291169D01*
X856003Y291089D01*
X855962Y291011D01*
X855917Y290934D01*
X855869Y290860D01*
X855818Y290787D01*
X855764Y290717D01*
X855706Y290650D01*
X855646Y290584D01*
X855584Y290522D01*
X855518Y290462D01*
X855451Y290404D01*
X855381Y290350D01*
X855308Y290299D01*
X855234Y290251D01*
X855157Y290206D01*
X855079Y290165D01*
X854999Y290126D01*
X854918Y290092D01*
X854835Y290060D01*
X854750Y290033D01*
X854665Y290008D01*
X854579Y289988D01*
X854492Y289971D01*
X854404Y289958D01*
X854316Y289949D01*
X854228Y289943D01*
X854139Y289941D01*
X853094Y289941D01*
X860419Y292029D02*
X862507Y299339D01*
X860419Y292029D02*
X865640Y292029D01*
X864073Y289941D02*
X864073Y294118D01*
X869563Y289941D02*
X872695Y289941D01*
X872784Y289943D01*
X872872Y289949D01*
X872960Y289958D01*
X873048Y289971D01*
X873135Y289988D01*
X873221Y290008D01*
X873306Y290033D01*
X873391Y290060D01*
X873474Y290092D01*
X873555Y290126D01*
X873635Y290165D01*
X873713Y290206D01*
X873790Y290251D01*
X873864Y290299D01*
X873937Y290350D01*
X874007Y290404D01*
X874074Y290462D01*
X874140Y290522D01*
X874202Y290584D01*
X874262Y290650D01*
X874320Y290717D01*
X874374Y290787D01*
X874425Y290860D01*
X874473Y290934D01*
X874518Y291011D01*
X874559Y291089D01*
X874598Y291169D01*
X874632Y291250D01*
X874664Y291333D01*
X874691Y291418D01*
X874716Y291503D01*
X874736Y291589D01*
X874753Y291676D01*
X874766Y291764D01*
X874775Y291852D01*
X874781Y291940D01*
X874783Y292029D01*
X874784Y292029D02*
X874784Y293074D01*
X874783Y293074D02*
X874781Y293163D01*
X874775Y293251D01*
X874766Y293339D01*
X874753Y293427D01*
X874736Y293514D01*
X874716Y293600D01*
X874691Y293685D01*
X874664Y293770D01*
X874632Y293853D01*
X874598Y293934D01*
X874559Y294014D01*
X874518Y294092D01*
X874473Y294169D01*
X874425Y294243D01*
X874374Y294316D01*
X874320Y294386D01*
X874262Y294453D01*
X874202Y294519D01*
X874140Y294581D01*
X874074Y294641D01*
X874007Y294699D01*
X873937Y294753D01*
X873864Y294804D01*
X873790Y294852D01*
X873713Y294897D01*
X873635Y294938D01*
X873555Y294977D01*
X873474Y295011D01*
X873391Y295043D01*
X873306Y295070D01*
X873221Y295095D01*
X873135Y295115D01*
X873048Y295132D01*
X872960Y295145D01*
X872872Y295154D01*
X872784Y295160D01*
X872695Y295162D01*
X869563Y295162D01*
X869563Y299339D01*
X874784Y299339D01*
X878314Y288897D02*
X882491Y288897D01*
X886458Y289941D02*
X886458Y299339D01*
X889068Y299339D01*
X889169Y299337D01*
X889270Y299331D01*
X889371Y299321D01*
X889471Y299308D01*
X889571Y299290D01*
X889670Y299269D01*
X889768Y299243D01*
X889865Y299214D01*
X889961Y299182D01*
X890055Y299145D01*
X890148Y299105D01*
X890240Y299061D01*
X890329Y299014D01*
X890417Y298963D01*
X890503Y298909D01*
X890586Y298852D01*
X890668Y298792D01*
X890746Y298728D01*
X890823Y298662D01*
X890896Y298592D01*
X890967Y298520D01*
X891035Y298445D01*
X891100Y298367D01*
X891162Y298287D01*
X891221Y298205D01*
X891277Y298120D01*
X891329Y298033D01*
X891378Y297945D01*
X891424Y297854D01*
X891465Y297762D01*
X891504Y297668D01*
X891538Y297573D01*
X891569Y297477D01*
X891596Y297379D01*
X891620Y297281D01*
X891639Y297181D01*
X891655Y297081D01*
X891667Y296981D01*
X891675Y296880D01*
X891679Y296779D01*
X891679Y296677D01*
X891675Y296576D01*
X891667Y296475D01*
X891655Y296375D01*
X891639Y296275D01*
X891620Y296175D01*
X891596Y296077D01*
X891569Y295979D01*
X891538Y295883D01*
X891504Y295788D01*
X891465Y295694D01*
X891424Y295602D01*
X891378Y295511D01*
X891329Y295423D01*
X891277Y295336D01*
X891221Y295251D01*
X891162Y295169D01*
X891100Y295089D01*
X891035Y295011D01*
X890967Y294936D01*
X890896Y294864D01*
X890823Y294794D01*
X890746Y294728D01*
X890668Y294664D01*
X890586Y294604D01*
X890503Y294547D01*
X890417Y294493D01*
X890329Y294442D01*
X890240Y294395D01*
X890148Y294351D01*
X890055Y294311D01*
X889961Y294274D01*
X889865Y294242D01*
X889768Y294213D01*
X889670Y294187D01*
X889571Y294166D01*
X889471Y294148D01*
X889371Y294135D01*
X889270Y294125D01*
X889169Y294119D01*
X889068Y294117D01*
X889068Y294118D02*
X886458Y294118D01*
X894644Y289941D02*
X897776Y299339D01*
X900909Y289941D01*
X900126Y292291D02*
X895427Y292291D01*
X904614Y289941D02*
X904614Y299339D01*
X909836Y289941D01*
X909836Y299339D01*
X913671Y288897D02*
X917848Y288897D01*
X923379Y289941D02*
X923379Y299339D01*
X920769Y299339D02*
X925990Y299339D01*
X930085Y299339D02*
X930085Y289941D01*
X929041Y289941D02*
X931129Y289941D01*
X931129Y299339D02*
X929041Y299339D01*
X935112Y299339D02*
X935112Y289941D01*
X939289Y289941D01*
X944715Y289941D02*
X944715Y299339D01*
X942105Y299339D02*
X947326Y299339D01*
X892302Y30099D02*
X890016Y30099D01*
X889939Y30101D01*
X889862Y30107D01*
X889785Y30117D01*
X889709Y30130D01*
X889634Y30148D01*
X889560Y30169D01*
X889487Y30194D01*
X889415Y30223D01*
X889345Y30255D01*
X889276Y30290D01*
X889210Y30330D01*
X889145Y30372D01*
X889083Y30418D01*
X889023Y30467D01*
X888966Y30518D01*
X888911Y30573D01*
X888860Y30630D01*
X888811Y30690D01*
X888765Y30752D01*
X888723Y30817D01*
X888683Y30883D01*
X888648Y30952D01*
X888616Y31022D01*
X888587Y31094D01*
X888562Y31167D01*
X888541Y31241D01*
X888523Y31316D01*
X888510Y31392D01*
X888500Y31469D01*
X888494Y31546D01*
X888492Y31623D01*
X888492Y32004D01*
X888494Y32089D01*
X888500Y32175D01*
X888509Y32260D01*
X888523Y32344D01*
X888540Y32428D01*
X888561Y32511D01*
X888585Y32593D01*
X888613Y32673D01*
X888645Y32753D01*
X888681Y32831D01*
X888719Y32907D01*
X888762Y32981D01*
X888807Y33053D01*
X888856Y33124D01*
X888908Y33192D01*
X888962Y33257D01*
X889020Y33320D01*
X889081Y33381D01*
X889144Y33439D01*
X889209Y33493D01*
X889277Y33545D01*
X889348Y33594D01*
X889420Y33639D01*
X889494Y33682D01*
X889570Y33720D01*
X889648Y33756D01*
X889728Y33788D01*
X889808Y33816D01*
X889890Y33840D01*
X889973Y33861D01*
X890057Y33878D01*
X890141Y33892D01*
X890226Y33901D01*
X890312Y33907D01*
X890397Y33909D01*
X890482Y33907D01*
X890568Y33901D01*
X890653Y33892D01*
X890737Y33878D01*
X890821Y33861D01*
X890904Y33840D01*
X890986Y33816D01*
X891066Y33788D01*
X891146Y33756D01*
X891224Y33720D01*
X891300Y33682D01*
X891374Y33639D01*
X891446Y33594D01*
X891517Y33545D01*
X891585Y33493D01*
X891650Y33439D01*
X891713Y33381D01*
X891774Y33320D01*
X891832Y33257D01*
X891886Y33192D01*
X891938Y33124D01*
X891987Y33053D01*
X892032Y32981D01*
X892075Y32907D01*
X892113Y32831D01*
X892149Y32753D01*
X892181Y32673D01*
X892209Y32593D01*
X892233Y32511D01*
X892254Y32428D01*
X892271Y32344D01*
X892285Y32260D01*
X892294Y32175D01*
X892300Y32089D01*
X892302Y32004D01*
X892302Y30099D01*
X892300Y29990D01*
X892294Y29882D01*
X892285Y29773D01*
X892271Y29665D01*
X892254Y29558D01*
X892232Y29451D01*
X892207Y29345D01*
X892179Y29240D01*
X892146Y29136D01*
X892110Y29034D01*
X892070Y28933D01*
X892027Y28833D01*
X891980Y28735D01*
X891929Y28638D01*
X891875Y28544D01*
X891818Y28451D01*
X891758Y28361D01*
X891694Y28272D01*
X891627Y28186D01*
X891558Y28103D01*
X891485Y28022D01*
X891409Y27944D01*
X891331Y27868D01*
X891250Y27795D01*
X891167Y27726D01*
X891081Y27659D01*
X890992Y27595D01*
X890902Y27535D01*
X890809Y27478D01*
X890715Y27424D01*
X890618Y27373D01*
X890520Y27326D01*
X890420Y27283D01*
X890319Y27243D01*
X890217Y27207D01*
X890113Y27174D01*
X890008Y27146D01*
X889902Y27121D01*
X889795Y27099D01*
X889688Y27082D01*
X889580Y27068D01*
X889471Y27059D01*
X889363Y27053D01*
X889254Y27051D01*
X897255Y27051D02*
X894969Y33909D01*
X899541Y33909D02*
X897255Y27051D01*
X901903Y26289D02*
X904951Y26289D01*
X908037Y27051D02*
X908037Y33909D01*
X909942Y33909D01*
X910027Y33907D01*
X910113Y33901D01*
X910198Y33892D01*
X910282Y33878D01*
X910366Y33861D01*
X910449Y33840D01*
X910531Y33816D01*
X910611Y33788D01*
X910691Y33756D01*
X910769Y33720D01*
X910845Y33682D01*
X910919Y33639D01*
X910991Y33594D01*
X911062Y33545D01*
X911130Y33493D01*
X911195Y33439D01*
X911258Y33381D01*
X911319Y33320D01*
X911377Y33257D01*
X911431Y33192D01*
X911483Y33124D01*
X911532Y33053D01*
X911577Y32981D01*
X911620Y32907D01*
X911658Y32831D01*
X911694Y32753D01*
X911726Y32673D01*
X911754Y32593D01*
X911778Y32511D01*
X911799Y32428D01*
X911816Y32344D01*
X911830Y32260D01*
X911839Y32175D01*
X911845Y32089D01*
X911847Y32004D01*
X911845Y31919D01*
X911839Y31833D01*
X911830Y31748D01*
X911816Y31664D01*
X911799Y31580D01*
X911778Y31497D01*
X911754Y31415D01*
X911726Y31335D01*
X911694Y31255D01*
X911658Y31177D01*
X911620Y31101D01*
X911577Y31027D01*
X911532Y30955D01*
X911483Y30884D01*
X911431Y30816D01*
X911377Y30751D01*
X911319Y30688D01*
X911258Y30627D01*
X911195Y30569D01*
X911130Y30515D01*
X911062Y30463D01*
X910991Y30414D01*
X910919Y30369D01*
X910845Y30326D01*
X910769Y30288D01*
X910691Y30252D01*
X910611Y30220D01*
X910531Y30192D01*
X910449Y30168D01*
X910366Y30147D01*
X910282Y30130D01*
X910198Y30116D01*
X910113Y30107D01*
X910027Y30101D01*
X909942Y30099D01*
X908037Y30099D01*
X914171Y27051D02*
X916457Y33909D01*
X918743Y27051D01*
X918172Y28766D02*
X914743Y28766D01*
X921639Y27051D02*
X921639Y33909D01*
X923544Y33909D01*
X923629Y33907D01*
X923715Y33901D01*
X923800Y33892D01*
X923884Y33878D01*
X923968Y33861D01*
X924051Y33840D01*
X924133Y33816D01*
X924213Y33788D01*
X924293Y33756D01*
X924371Y33720D01*
X924447Y33682D01*
X924521Y33639D01*
X924593Y33594D01*
X924664Y33545D01*
X924732Y33493D01*
X924797Y33439D01*
X924860Y33381D01*
X924921Y33320D01*
X924979Y33257D01*
X925033Y33192D01*
X925085Y33124D01*
X925134Y33053D01*
X925179Y32981D01*
X925222Y32907D01*
X925260Y32831D01*
X925296Y32753D01*
X925328Y32673D01*
X925356Y32593D01*
X925380Y32511D01*
X925401Y32428D01*
X925418Y32344D01*
X925432Y32260D01*
X925441Y32175D01*
X925447Y32089D01*
X925449Y32004D01*
X925449Y28956D01*
X925447Y28871D01*
X925441Y28785D01*
X925432Y28700D01*
X925418Y28616D01*
X925401Y28532D01*
X925380Y28449D01*
X925356Y28367D01*
X925328Y28287D01*
X925296Y28207D01*
X925260Y28129D01*
X925222Y28053D01*
X925179Y27979D01*
X925134Y27907D01*
X925085Y27836D01*
X925033Y27768D01*
X924979Y27703D01*
X924921Y27640D01*
X924860Y27579D01*
X924797Y27521D01*
X924732Y27467D01*
X924664Y27415D01*
X924593Y27366D01*
X924521Y27321D01*
X924447Y27278D01*
X924371Y27240D01*
X924293Y27204D01*
X924213Y27172D01*
X924133Y27144D01*
X924051Y27120D01*
X923968Y27099D01*
X923884Y27082D01*
X923800Y27068D01*
X923715Y27059D01*
X923629Y27053D01*
X923544Y27051D01*
X921639Y27051D01*
X894461Y80391D02*
X893318Y80391D01*
X894461Y80391D02*
X894461Y76581D01*
X892175Y76581D01*
X892098Y76583D01*
X892021Y76589D01*
X891944Y76599D01*
X891868Y76612D01*
X891793Y76630D01*
X891719Y76651D01*
X891646Y76676D01*
X891574Y76705D01*
X891504Y76737D01*
X891435Y76772D01*
X891369Y76812D01*
X891304Y76854D01*
X891242Y76900D01*
X891182Y76949D01*
X891125Y77000D01*
X891070Y77055D01*
X891019Y77112D01*
X890970Y77172D01*
X890924Y77234D01*
X890882Y77299D01*
X890842Y77365D01*
X890807Y77434D01*
X890775Y77504D01*
X890746Y77576D01*
X890721Y77649D01*
X890700Y77723D01*
X890682Y77798D01*
X890669Y77874D01*
X890659Y77951D01*
X890653Y78028D01*
X890651Y78105D01*
X890651Y81915D01*
X890653Y81992D01*
X890659Y82069D01*
X890669Y82146D01*
X890682Y82222D01*
X890700Y82297D01*
X890721Y82371D01*
X890746Y82444D01*
X890775Y82516D01*
X890807Y82586D01*
X890842Y82655D01*
X890882Y82721D01*
X890924Y82786D01*
X890970Y82848D01*
X891019Y82908D01*
X891070Y82965D01*
X891125Y83020D01*
X891182Y83071D01*
X891242Y83120D01*
X891304Y83166D01*
X891369Y83208D01*
X891435Y83248D01*
X891504Y83283D01*
X891574Y83315D01*
X891646Y83344D01*
X891719Y83369D01*
X891793Y83390D01*
X891868Y83408D01*
X891944Y83421D01*
X892021Y83431D01*
X892098Y83437D01*
X892175Y83439D01*
X894461Y83439D01*
X897966Y83439D02*
X897966Y76581D01*
X901776Y76581D02*
X897966Y83439D01*
X901776Y83439D02*
X901776Y76581D01*
X905282Y76581D02*
X905282Y83439D01*
X907187Y83439D01*
X907272Y83437D01*
X907358Y83431D01*
X907443Y83422D01*
X907527Y83408D01*
X907611Y83391D01*
X907694Y83370D01*
X907776Y83346D01*
X907856Y83318D01*
X907936Y83286D01*
X908014Y83250D01*
X908090Y83212D01*
X908164Y83169D01*
X908236Y83124D01*
X908307Y83075D01*
X908375Y83023D01*
X908440Y82969D01*
X908503Y82911D01*
X908564Y82850D01*
X908622Y82787D01*
X908676Y82722D01*
X908728Y82654D01*
X908777Y82583D01*
X908822Y82511D01*
X908865Y82437D01*
X908903Y82361D01*
X908939Y82283D01*
X908971Y82203D01*
X908999Y82123D01*
X909023Y82041D01*
X909044Y81958D01*
X909061Y81874D01*
X909075Y81790D01*
X909084Y81705D01*
X909090Y81619D01*
X909092Y81534D01*
X909092Y78486D01*
X909090Y78401D01*
X909084Y78315D01*
X909075Y78230D01*
X909061Y78146D01*
X909044Y78062D01*
X909023Y77979D01*
X908999Y77897D01*
X908971Y77817D01*
X908939Y77737D01*
X908903Y77659D01*
X908865Y77583D01*
X908822Y77509D01*
X908777Y77437D01*
X908728Y77366D01*
X908676Y77298D01*
X908622Y77233D01*
X908564Y77170D01*
X908503Y77109D01*
X908440Y77051D01*
X908375Y76997D01*
X908307Y76945D01*
X908236Y76896D01*
X908164Y76851D01*
X908090Y76808D01*
X908014Y76770D01*
X907936Y76734D01*
X907856Y76702D01*
X907776Y76674D01*
X907694Y76650D01*
X907611Y76629D01*
X907527Y76612D01*
X907443Y76598D01*
X907358Y76589D01*
X907272Y76583D01*
X907187Y76581D01*
X905282Y76581D01*
X912063Y75819D02*
X915111Y75819D01*
X918197Y76581D02*
X918197Y83439D01*
X920102Y83439D01*
X920187Y83437D01*
X920273Y83431D01*
X920358Y83422D01*
X920442Y83408D01*
X920526Y83391D01*
X920609Y83370D01*
X920691Y83346D01*
X920771Y83318D01*
X920851Y83286D01*
X920929Y83250D01*
X921005Y83212D01*
X921079Y83169D01*
X921151Y83124D01*
X921222Y83075D01*
X921290Y83023D01*
X921355Y82969D01*
X921418Y82911D01*
X921479Y82850D01*
X921537Y82787D01*
X921591Y82722D01*
X921643Y82654D01*
X921692Y82583D01*
X921737Y82511D01*
X921780Y82437D01*
X921818Y82361D01*
X921854Y82283D01*
X921886Y82203D01*
X921914Y82123D01*
X921938Y82041D01*
X921959Y81958D01*
X921976Y81874D01*
X921990Y81790D01*
X921999Y81705D01*
X922005Y81619D01*
X922007Y81534D01*
X922005Y81449D01*
X921999Y81363D01*
X921990Y81278D01*
X921976Y81194D01*
X921959Y81110D01*
X921938Y81027D01*
X921914Y80945D01*
X921886Y80865D01*
X921854Y80785D01*
X921818Y80707D01*
X921780Y80631D01*
X921737Y80557D01*
X921692Y80485D01*
X921643Y80414D01*
X921591Y80346D01*
X921537Y80281D01*
X921479Y80218D01*
X921418Y80157D01*
X921355Y80099D01*
X921290Y80045D01*
X921222Y79993D01*
X921151Y79944D01*
X921079Y79899D01*
X921005Y79856D01*
X920929Y79818D01*
X920851Y79782D01*
X920771Y79750D01*
X920691Y79722D01*
X920609Y79698D01*
X920526Y79677D01*
X920442Y79660D01*
X920358Y79646D01*
X920273Y79637D01*
X920187Y79631D01*
X920102Y79629D01*
X918197Y79629D01*
X924331Y76581D02*
X926617Y83439D01*
X928903Y76581D01*
X928332Y78296D02*
X924903Y78296D01*
X931799Y76581D02*
X931799Y83439D01*
X933704Y83439D01*
X933789Y83437D01*
X933875Y83431D01*
X933960Y83422D01*
X934044Y83408D01*
X934128Y83391D01*
X934211Y83370D01*
X934293Y83346D01*
X934373Y83318D01*
X934453Y83286D01*
X934531Y83250D01*
X934607Y83212D01*
X934681Y83169D01*
X934753Y83124D01*
X934824Y83075D01*
X934892Y83023D01*
X934957Y82969D01*
X935020Y82911D01*
X935081Y82850D01*
X935139Y82787D01*
X935193Y82722D01*
X935245Y82654D01*
X935294Y82583D01*
X935339Y82511D01*
X935382Y82437D01*
X935420Y82361D01*
X935456Y82283D01*
X935488Y82203D01*
X935516Y82123D01*
X935540Y82041D01*
X935561Y81958D01*
X935578Y81874D01*
X935592Y81790D01*
X935601Y81705D01*
X935607Y81619D01*
X935609Y81534D01*
X935609Y78486D01*
X935607Y78401D01*
X935601Y78315D01*
X935592Y78230D01*
X935578Y78146D01*
X935561Y78062D01*
X935540Y77979D01*
X935516Y77897D01*
X935488Y77817D01*
X935456Y77737D01*
X935420Y77659D01*
X935382Y77583D01*
X935339Y77509D01*
X935294Y77437D01*
X935245Y77366D01*
X935193Y77298D01*
X935139Y77233D01*
X935081Y77170D01*
X935020Y77109D01*
X934957Y77051D01*
X934892Y76997D01*
X934824Y76945D01*
X934753Y76896D01*
X934681Y76851D01*
X934607Y76808D01*
X934531Y76770D01*
X934453Y76734D01*
X934373Y76702D01*
X934293Y76674D01*
X934211Y76650D01*
X934128Y76629D01*
X934044Y76612D01*
X933960Y76598D01*
X933875Y76589D01*
X933789Y76583D01*
X933704Y76581D01*
X931799Y76581D01*
D10*
X388620Y81280D02*
X388620Y83820D01*
X386080Y83820D01*
X386080Y68580D02*
X388620Y68580D01*
X388620Y71120D01*
X375920Y68580D02*
X373380Y68580D01*
X373380Y71120D01*
X373380Y81280D02*
X373380Y83820D01*
X375920Y83820D01*
X337820Y83820D02*
X337820Y81280D01*
X337820Y83820D02*
X335280Y83820D01*
X335280Y68580D02*
X337820Y68580D01*
X337820Y71120D01*
X325120Y68580D02*
X322580Y68580D01*
X322580Y71120D01*
X322580Y81280D02*
X322580Y83820D01*
X325120Y83820D01*
X299720Y83820D02*
X297180Y83820D01*
X297180Y81280D01*
X312420Y81280D02*
X312420Y83820D01*
X309880Y83820D01*
X312420Y71120D02*
X312420Y68580D01*
X309880Y68580D01*
X299720Y68580D02*
X297180Y68580D01*
X297180Y71120D01*
X274320Y83820D02*
X271780Y83820D01*
X271780Y81280D01*
X287020Y81280D02*
X287020Y83820D01*
X284480Y83820D01*
X287020Y71120D02*
X287020Y68580D01*
X284480Y68580D01*
X274320Y68580D02*
X271780Y68580D01*
X271780Y71120D01*
X147320Y86360D02*
X144780Y86360D01*
X144780Y83820D01*
X160020Y83820D02*
X160020Y86360D01*
X157480Y86360D01*
X160020Y73660D02*
X160020Y71120D01*
X157480Y71120D01*
X147320Y71120D02*
X144780Y71120D01*
X144780Y73660D01*
X449580Y83820D02*
X452120Y83820D01*
X449580Y83820D02*
X449580Y81280D01*
X464820Y81280D02*
X464820Y83820D01*
X462280Y83820D01*
X464820Y71120D02*
X464820Y68580D01*
X462280Y68580D01*
X452120Y68580D02*
X449580Y68580D01*
X449580Y71120D01*
D11*
X23532Y203835D02*
X19722Y215265D01*
X27342Y215265D02*
X23532Y203835D01*
X34290Y203835D02*
X36830Y203835D01*
X34290Y203835D02*
X34190Y203837D01*
X34091Y203843D01*
X33991Y203853D01*
X33893Y203866D01*
X33794Y203884D01*
X33697Y203905D01*
X33601Y203930D01*
X33505Y203959D01*
X33411Y203992D01*
X33318Y204028D01*
X33227Y204068D01*
X33137Y204112D01*
X33049Y204159D01*
X32963Y204209D01*
X32879Y204263D01*
X32797Y204320D01*
X32718Y204380D01*
X32640Y204444D01*
X32566Y204510D01*
X32494Y204579D01*
X32425Y204651D01*
X32359Y204725D01*
X32295Y204803D01*
X32235Y204882D01*
X32178Y204964D01*
X32124Y205048D01*
X32074Y205134D01*
X32027Y205222D01*
X31983Y205312D01*
X31943Y205403D01*
X31907Y205496D01*
X31874Y205590D01*
X31845Y205686D01*
X31820Y205782D01*
X31799Y205879D01*
X31781Y205978D01*
X31768Y206076D01*
X31758Y206176D01*
X31752Y206275D01*
X31750Y206375D01*
X31750Y212725D01*
X31752Y212825D01*
X31758Y212924D01*
X31768Y213024D01*
X31781Y213122D01*
X31799Y213221D01*
X31820Y213318D01*
X31845Y213414D01*
X31874Y213510D01*
X31907Y213604D01*
X31943Y213697D01*
X31983Y213788D01*
X32027Y213878D01*
X32074Y213966D01*
X32124Y214052D01*
X32178Y214136D01*
X32235Y214218D01*
X32295Y214297D01*
X32359Y214375D01*
X32425Y214449D01*
X32494Y214521D01*
X32566Y214590D01*
X32640Y214656D01*
X32718Y214720D01*
X32797Y214780D01*
X32879Y214837D01*
X32963Y214891D01*
X33049Y214941D01*
X33137Y214988D01*
X33227Y215032D01*
X33318Y215072D01*
X33411Y215108D01*
X33505Y215141D01*
X33601Y215170D01*
X33697Y215195D01*
X33794Y215216D01*
X33893Y215234D01*
X33991Y215247D01*
X34091Y215257D01*
X34190Y215263D01*
X34290Y215265D01*
X36830Y215265D01*
X43815Y203835D02*
X46355Y203835D01*
X43815Y203835D02*
X43715Y203837D01*
X43616Y203843D01*
X43516Y203853D01*
X43418Y203866D01*
X43319Y203884D01*
X43222Y203905D01*
X43126Y203930D01*
X43030Y203959D01*
X42936Y203992D01*
X42843Y204028D01*
X42752Y204068D01*
X42662Y204112D01*
X42574Y204159D01*
X42488Y204209D01*
X42404Y204263D01*
X42322Y204320D01*
X42243Y204380D01*
X42165Y204444D01*
X42091Y204510D01*
X42019Y204579D01*
X41950Y204651D01*
X41884Y204725D01*
X41820Y204803D01*
X41760Y204882D01*
X41703Y204964D01*
X41649Y205048D01*
X41599Y205134D01*
X41552Y205222D01*
X41508Y205312D01*
X41468Y205403D01*
X41432Y205496D01*
X41399Y205590D01*
X41370Y205686D01*
X41345Y205782D01*
X41324Y205879D01*
X41306Y205978D01*
X41293Y206076D01*
X41283Y206176D01*
X41277Y206275D01*
X41275Y206375D01*
X41275Y212725D01*
X41277Y212825D01*
X41283Y212924D01*
X41293Y213024D01*
X41306Y213122D01*
X41324Y213221D01*
X41345Y213318D01*
X41370Y213414D01*
X41399Y213510D01*
X41432Y213604D01*
X41468Y213697D01*
X41508Y213788D01*
X41552Y213878D01*
X41599Y213966D01*
X41649Y214052D01*
X41703Y214136D01*
X41760Y214218D01*
X41820Y214297D01*
X41884Y214375D01*
X41950Y214449D01*
X42019Y214521D01*
X42091Y214590D01*
X42165Y214656D01*
X42243Y214720D01*
X42322Y214780D01*
X42404Y214837D01*
X42488Y214891D01*
X42574Y214941D01*
X42662Y214988D01*
X42752Y215032D01*
X42843Y215072D01*
X42936Y215108D01*
X43030Y215141D01*
X43126Y215170D01*
X43222Y215195D01*
X43319Y215216D01*
X43418Y215234D01*
X43516Y215247D01*
X43616Y215257D01*
X43715Y215263D01*
X43815Y215265D01*
X46355Y215265D01*
X21971Y146685D02*
X20066Y146685D01*
X21971Y146685D02*
X21971Y140335D01*
X18161Y140335D01*
X18061Y140337D01*
X17962Y140343D01*
X17862Y140353D01*
X17764Y140366D01*
X17665Y140384D01*
X17568Y140405D01*
X17472Y140430D01*
X17376Y140459D01*
X17282Y140492D01*
X17189Y140528D01*
X17098Y140568D01*
X17008Y140612D01*
X16920Y140659D01*
X16834Y140709D01*
X16750Y140763D01*
X16668Y140820D01*
X16589Y140880D01*
X16511Y140944D01*
X16437Y141010D01*
X16365Y141079D01*
X16296Y141151D01*
X16230Y141225D01*
X16166Y141303D01*
X16106Y141382D01*
X16049Y141464D01*
X15995Y141548D01*
X15945Y141634D01*
X15898Y141722D01*
X15854Y141812D01*
X15814Y141903D01*
X15778Y141996D01*
X15745Y142090D01*
X15716Y142186D01*
X15691Y142282D01*
X15670Y142379D01*
X15652Y142478D01*
X15639Y142576D01*
X15629Y142676D01*
X15623Y142775D01*
X15621Y142875D01*
X15621Y149225D01*
X15623Y149325D01*
X15629Y149424D01*
X15639Y149524D01*
X15652Y149622D01*
X15670Y149721D01*
X15691Y149818D01*
X15716Y149914D01*
X15745Y150010D01*
X15778Y150104D01*
X15814Y150197D01*
X15854Y150288D01*
X15898Y150378D01*
X15945Y150466D01*
X15995Y150552D01*
X16049Y150636D01*
X16106Y150718D01*
X16166Y150797D01*
X16230Y150875D01*
X16296Y150949D01*
X16365Y151021D01*
X16437Y151090D01*
X16511Y151156D01*
X16589Y151220D01*
X16668Y151280D01*
X16750Y151337D01*
X16834Y151391D01*
X16920Y151441D01*
X17008Y151488D01*
X17098Y151532D01*
X17189Y151572D01*
X17282Y151608D01*
X17376Y151641D01*
X17472Y151670D01*
X17568Y151695D01*
X17665Y151716D01*
X17764Y151734D01*
X17862Y151747D01*
X17962Y151757D01*
X18061Y151763D01*
X18161Y151765D01*
X21971Y151765D01*
X27813Y151765D02*
X27813Y140335D01*
X34163Y140335D02*
X27813Y151765D01*
X34163Y151765D02*
X34163Y140335D01*
X40005Y140335D02*
X40005Y151765D01*
X43180Y151765D01*
X43291Y151763D01*
X43401Y151757D01*
X43512Y151748D01*
X43622Y151734D01*
X43731Y151717D01*
X43840Y151696D01*
X43948Y151671D01*
X44055Y151642D01*
X44161Y151610D01*
X44266Y151574D01*
X44369Y151534D01*
X44471Y151491D01*
X44572Y151444D01*
X44671Y151393D01*
X44768Y151340D01*
X44862Y151283D01*
X44955Y151222D01*
X45046Y151159D01*
X45135Y151092D01*
X45221Y151022D01*
X45304Y150949D01*
X45386Y150874D01*
X45464Y150796D01*
X45539Y150714D01*
X45612Y150631D01*
X45682Y150545D01*
X45749Y150456D01*
X45812Y150365D01*
X45873Y150272D01*
X45930Y150178D01*
X45983Y150081D01*
X46034Y149982D01*
X46081Y149881D01*
X46124Y149779D01*
X46164Y149676D01*
X46200Y149571D01*
X46232Y149465D01*
X46261Y149358D01*
X46286Y149250D01*
X46307Y149141D01*
X46324Y149032D01*
X46338Y148922D01*
X46347Y148811D01*
X46353Y148701D01*
X46355Y148590D01*
X46355Y143510D01*
X46353Y143399D01*
X46347Y143289D01*
X46338Y143178D01*
X46324Y143068D01*
X46307Y142959D01*
X46286Y142850D01*
X46261Y142742D01*
X46232Y142635D01*
X46200Y142529D01*
X46164Y142424D01*
X46124Y142321D01*
X46081Y142219D01*
X46034Y142118D01*
X45983Y142019D01*
X45930Y141922D01*
X45873Y141828D01*
X45812Y141735D01*
X45749Y141644D01*
X45682Y141555D01*
X45612Y141469D01*
X45539Y141386D01*
X45464Y141304D01*
X45386Y141226D01*
X45304Y141151D01*
X45221Y141078D01*
X45135Y141008D01*
X45046Y140941D01*
X44955Y140878D01*
X44862Y140817D01*
X44767Y140760D01*
X44671Y140707D01*
X44572Y140656D01*
X44471Y140609D01*
X44369Y140566D01*
X44266Y140526D01*
X44161Y140490D01*
X44055Y140458D01*
X43948Y140429D01*
X43840Y140404D01*
X43731Y140383D01*
X43622Y140366D01*
X43512Y140352D01*
X43401Y140343D01*
X43291Y140337D01*
X43180Y140335D01*
X40005Y140335D01*
D10*
X398780Y83820D02*
X401320Y83820D01*
X398780Y83820D02*
X398780Y81280D01*
X414020Y81280D02*
X414020Y83820D01*
X411480Y83820D01*
X414020Y71120D02*
X414020Y68580D01*
X411480Y68580D01*
X401320Y68580D02*
X398780Y68580D01*
X398780Y71120D01*
X469900Y55880D02*
X469900Y30480D01*
X469900Y55880D02*
X447040Y55880D01*
X444500Y53340D01*
X441960Y55880D01*
X421640Y55880D01*
X419100Y53340D01*
X416560Y55880D01*
X396240Y55880D01*
X393700Y53340D01*
X391160Y55880D01*
X370840Y55880D01*
X368300Y53340D01*
X365760Y55880D01*
X368300Y33020D02*
X365760Y30480D01*
X368300Y33020D02*
X370840Y30480D01*
X391160Y30480D01*
X393700Y33020D01*
X396240Y30480D01*
X416560Y30480D01*
X419100Y33020D01*
X421640Y30480D01*
X441960Y30480D01*
X444500Y33020D01*
X447040Y30480D01*
X469900Y30480D01*
X365760Y55880D02*
X345440Y55880D01*
X342900Y53340D01*
X340360Y55880D01*
X320040Y55880D01*
X317500Y53340D01*
X314960Y55880D01*
X317500Y33020D02*
X314960Y30480D01*
X317500Y33020D02*
X320040Y30480D01*
X340360Y30480D01*
X342900Y33020D01*
X345440Y30480D01*
X365760Y30480D01*
X111760Y30480D02*
X88900Y30480D01*
X116840Y30480D02*
X137160Y30480D01*
X142240Y30480D02*
X162560Y30480D01*
X167640Y30480D02*
X187960Y30480D01*
X193040Y30480D02*
X213360Y30480D01*
X218440Y30480D02*
X238760Y30480D01*
X243840Y30480D02*
X264160Y30480D01*
X269240Y30480D02*
X289560Y30480D01*
X88900Y30480D02*
X88900Y55880D01*
X269240Y55880D02*
X289560Y55880D01*
X264160Y55880D02*
X243840Y55880D01*
X238760Y55880D02*
X218440Y55880D01*
X213360Y55880D02*
X193040Y55880D01*
X187960Y55880D02*
X167640Y55880D01*
X162560Y55880D02*
X142240Y55880D01*
X137160Y55880D02*
X116840Y55880D01*
X111760Y55880D02*
X88900Y55880D01*
X292100Y33020D02*
X294640Y30480D01*
X292100Y33020D02*
X289560Y30480D01*
X294640Y30480D02*
X314960Y30480D01*
X292100Y53340D02*
X289560Y55880D01*
X292100Y53340D02*
X294640Y55880D01*
X314960Y55880D01*
X266700Y33020D02*
X264160Y30480D01*
X266700Y33020D02*
X269240Y30480D01*
X266700Y53340D02*
X264160Y55880D01*
X266700Y53340D02*
X269240Y55880D01*
X241300Y53340D02*
X238760Y55880D01*
X241300Y53340D02*
X243840Y55880D01*
X241300Y33020D02*
X238760Y30480D01*
X241300Y33020D02*
X243840Y30480D01*
X215900Y33020D02*
X213360Y30480D01*
X215900Y33020D02*
X218440Y30480D01*
X190500Y33020D02*
X187960Y30480D01*
X190500Y33020D02*
X193040Y30480D01*
X215900Y53340D02*
X213360Y55880D01*
X215900Y53340D02*
X218440Y55880D01*
X190500Y53340D02*
X187960Y55880D01*
X190500Y53340D02*
X193040Y55880D01*
X165100Y33020D02*
X162560Y30480D01*
X165100Y33020D02*
X167640Y30480D01*
X165100Y53340D02*
X162560Y55880D01*
X165100Y53340D02*
X167640Y55880D01*
X139700Y33020D02*
X137160Y30480D01*
X114300Y33020D02*
X111760Y30480D01*
X139700Y33020D02*
X142240Y30480D01*
X116840Y30480D02*
X114300Y33020D01*
X137160Y55880D02*
X139700Y53340D01*
X114300Y53340D02*
X111760Y55880D01*
X139700Y53340D02*
X142240Y55880D01*
X116840Y55880D02*
X114300Y53340D01*
D11*
X455295Y24765D02*
X458470Y27305D01*
X458470Y15875D01*
X455295Y15875D02*
X461645Y15875D01*
X97790Y27305D02*
X94615Y24765D01*
X97790Y27305D02*
X97790Y15875D01*
X94615Y15875D02*
X100965Y15875D01*
X106045Y15875D02*
X109855Y15875D01*
X109955Y15877D01*
X110054Y15883D01*
X110154Y15893D01*
X110252Y15906D01*
X110351Y15924D01*
X110448Y15945D01*
X110544Y15970D01*
X110640Y15999D01*
X110734Y16032D01*
X110827Y16068D01*
X110918Y16108D01*
X111008Y16152D01*
X111096Y16199D01*
X111182Y16249D01*
X111266Y16303D01*
X111348Y16360D01*
X111427Y16420D01*
X111505Y16484D01*
X111579Y16550D01*
X111651Y16619D01*
X111720Y16691D01*
X111786Y16765D01*
X111850Y16843D01*
X111910Y16922D01*
X111967Y17004D01*
X112021Y17088D01*
X112071Y17174D01*
X112118Y17262D01*
X112162Y17352D01*
X112202Y17443D01*
X112238Y17536D01*
X112271Y17630D01*
X112300Y17726D01*
X112325Y17822D01*
X112346Y17919D01*
X112364Y18018D01*
X112377Y18116D01*
X112387Y18216D01*
X112393Y18315D01*
X112395Y18415D01*
X112395Y19685D01*
X112393Y19785D01*
X112387Y19884D01*
X112377Y19984D01*
X112364Y20082D01*
X112346Y20181D01*
X112325Y20278D01*
X112300Y20374D01*
X112271Y20470D01*
X112238Y20564D01*
X112202Y20657D01*
X112162Y20748D01*
X112118Y20838D01*
X112071Y20926D01*
X112021Y21012D01*
X111967Y21096D01*
X111910Y21178D01*
X111850Y21257D01*
X111786Y21335D01*
X111720Y21409D01*
X111651Y21481D01*
X111579Y21550D01*
X111505Y21616D01*
X111427Y21680D01*
X111348Y21740D01*
X111266Y21797D01*
X111182Y21851D01*
X111096Y21901D01*
X111008Y21948D01*
X110918Y21992D01*
X110827Y22032D01*
X110734Y22068D01*
X110640Y22101D01*
X110544Y22130D01*
X110448Y22155D01*
X110351Y22176D01*
X110252Y22194D01*
X110154Y22207D01*
X110054Y22217D01*
X109955Y22223D01*
X109855Y22225D01*
X106045Y22225D01*
X106045Y27305D01*
X112395Y27305D01*
X406146Y14605D02*
X406246Y14607D01*
X406345Y14613D01*
X406445Y14623D01*
X406543Y14636D01*
X406642Y14654D01*
X406739Y14675D01*
X406835Y14700D01*
X406931Y14729D01*
X407025Y14762D01*
X407118Y14798D01*
X407209Y14838D01*
X407299Y14882D01*
X407387Y14929D01*
X407473Y14979D01*
X407557Y15033D01*
X407639Y15090D01*
X407718Y15150D01*
X407796Y15214D01*
X407870Y15280D01*
X407942Y15349D01*
X408011Y15421D01*
X408077Y15495D01*
X408141Y15573D01*
X408201Y15652D01*
X408258Y15734D01*
X408312Y15818D01*
X408362Y15904D01*
X408409Y15992D01*
X408453Y16082D01*
X408493Y16173D01*
X408529Y16266D01*
X408562Y16360D01*
X408591Y16456D01*
X408616Y16552D01*
X408637Y16649D01*
X408655Y16748D01*
X408668Y16846D01*
X408678Y16946D01*
X408684Y17045D01*
X408686Y17145D01*
X406146Y14605D02*
X406005Y14607D01*
X405864Y14612D01*
X405723Y14622D01*
X405582Y14635D01*
X405442Y14651D01*
X405302Y14672D01*
X405163Y14696D01*
X405024Y14724D01*
X404887Y14755D01*
X404750Y14790D01*
X404614Y14828D01*
X404479Y14870D01*
X404346Y14916D01*
X404213Y14965D01*
X404082Y15018D01*
X403953Y15074D01*
X403824Y15133D01*
X403698Y15196D01*
X403573Y15262D01*
X403450Y15331D01*
X403329Y15404D01*
X403210Y15480D01*
X403092Y15559D01*
X402977Y15640D01*
X402865Y15725D01*
X402754Y15813D01*
X402646Y15904D01*
X402540Y15997D01*
X402437Y16094D01*
X402336Y16193D01*
X402654Y23495D02*
X402656Y23595D01*
X402662Y23694D01*
X402672Y23794D01*
X402685Y23892D01*
X402703Y23991D01*
X402724Y24088D01*
X402749Y24184D01*
X402778Y24280D01*
X402811Y24374D01*
X402847Y24467D01*
X402887Y24558D01*
X402931Y24648D01*
X402978Y24736D01*
X403028Y24822D01*
X403082Y24906D01*
X403139Y24988D01*
X403199Y25067D01*
X403263Y25145D01*
X403329Y25219D01*
X403398Y25291D01*
X403470Y25360D01*
X403544Y25426D01*
X403622Y25490D01*
X403701Y25550D01*
X403783Y25607D01*
X403867Y25661D01*
X403953Y25711D01*
X404041Y25758D01*
X404131Y25802D01*
X404222Y25842D01*
X404315Y25878D01*
X404409Y25911D01*
X404505Y25940D01*
X404601Y25965D01*
X404698Y25986D01*
X404797Y26004D01*
X404895Y26017D01*
X404995Y26027D01*
X405094Y26033D01*
X405194Y26035D01*
X405194Y26036D02*
X405327Y26034D01*
X405460Y26029D01*
X405593Y26019D01*
X405726Y26006D01*
X405858Y25989D01*
X405990Y25969D01*
X406121Y25945D01*
X406251Y25917D01*
X406381Y25886D01*
X406509Y25851D01*
X406637Y25812D01*
X406763Y25770D01*
X406888Y25724D01*
X407012Y25675D01*
X407135Y25623D01*
X407256Y25567D01*
X407375Y25507D01*
X407493Y25445D01*
X407608Y25379D01*
X407722Y25310D01*
X407834Y25237D01*
X407944Y25162D01*
X408052Y25083D01*
X403923Y21272D02*
X403839Y21324D01*
X403756Y21379D01*
X403676Y21438D01*
X403598Y21499D01*
X403523Y21563D01*
X403450Y21631D01*
X403379Y21701D01*
X403312Y21773D01*
X403247Y21848D01*
X403185Y21926D01*
X403126Y22006D01*
X403070Y22088D01*
X403018Y22172D01*
X402969Y22258D01*
X402923Y22346D01*
X402880Y22436D01*
X402841Y22527D01*
X402806Y22620D01*
X402774Y22714D01*
X402746Y22809D01*
X402721Y22905D01*
X402701Y23002D01*
X402683Y23100D01*
X402670Y23198D01*
X402661Y23297D01*
X402655Y23396D01*
X402653Y23495D01*
X407416Y19368D02*
X407500Y19316D01*
X407583Y19261D01*
X407663Y19202D01*
X407741Y19141D01*
X407816Y19077D01*
X407889Y19009D01*
X407960Y18939D01*
X408027Y18867D01*
X408092Y18792D01*
X408154Y18714D01*
X408213Y18634D01*
X408269Y18552D01*
X408321Y18468D01*
X408370Y18382D01*
X408416Y18294D01*
X408459Y18204D01*
X408498Y18113D01*
X408533Y18020D01*
X408565Y17926D01*
X408593Y17831D01*
X408618Y17735D01*
X408638Y17638D01*
X408656Y17540D01*
X408669Y17442D01*
X408678Y17343D01*
X408684Y17244D01*
X408686Y17145D01*
X407416Y19368D02*
X403924Y21273D01*
X412750Y26035D02*
X416560Y14605D01*
X420370Y26035D01*
X424815Y14605D02*
X427990Y14605D01*
X428101Y14607D01*
X428211Y14613D01*
X428322Y14622D01*
X428432Y14636D01*
X428541Y14653D01*
X428650Y14674D01*
X428758Y14699D01*
X428865Y14728D01*
X428971Y14760D01*
X429076Y14796D01*
X429179Y14836D01*
X429281Y14879D01*
X429382Y14926D01*
X429481Y14977D01*
X429578Y15030D01*
X429672Y15087D01*
X429765Y15148D01*
X429856Y15211D01*
X429945Y15278D01*
X430031Y15348D01*
X430114Y15421D01*
X430196Y15496D01*
X430274Y15574D01*
X430349Y15656D01*
X430422Y15739D01*
X430492Y15825D01*
X430559Y15914D01*
X430622Y16005D01*
X430683Y16098D01*
X430740Y16192D01*
X430793Y16289D01*
X430844Y16388D01*
X430891Y16489D01*
X430934Y16591D01*
X430974Y16694D01*
X431010Y16799D01*
X431042Y16905D01*
X431071Y17012D01*
X431096Y17120D01*
X431117Y17229D01*
X431134Y17338D01*
X431148Y17448D01*
X431157Y17559D01*
X431163Y17669D01*
X431165Y17780D01*
X431163Y17891D01*
X431157Y18001D01*
X431148Y18112D01*
X431134Y18222D01*
X431117Y18331D01*
X431096Y18440D01*
X431071Y18548D01*
X431042Y18655D01*
X431010Y18761D01*
X430974Y18866D01*
X430934Y18969D01*
X430891Y19071D01*
X430844Y19172D01*
X430793Y19271D01*
X430740Y19367D01*
X430683Y19462D01*
X430622Y19555D01*
X430559Y19646D01*
X430492Y19735D01*
X430422Y19821D01*
X430349Y19904D01*
X430274Y19986D01*
X430196Y20064D01*
X430114Y20139D01*
X430031Y20212D01*
X429945Y20282D01*
X429856Y20349D01*
X429765Y20412D01*
X429672Y20473D01*
X429578Y20530D01*
X429481Y20583D01*
X429382Y20634D01*
X429281Y20681D01*
X429179Y20724D01*
X429076Y20764D01*
X428971Y20800D01*
X428865Y20832D01*
X428758Y20861D01*
X428650Y20886D01*
X428541Y20907D01*
X428432Y20924D01*
X428322Y20938D01*
X428211Y20947D01*
X428101Y20953D01*
X427990Y20955D01*
X428625Y26035D02*
X424815Y26035D01*
X428625Y26035D02*
X428725Y26033D01*
X428824Y26027D01*
X428924Y26017D01*
X429022Y26004D01*
X429121Y25986D01*
X429218Y25965D01*
X429314Y25940D01*
X429410Y25911D01*
X429504Y25878D01*
X429597Y25842D01*
X429688Y25802D01*
X429778Y25758D01*
X429866Y25711D01*
X429952Y25661D01*
X430036Y25607D01*
X430118Y25550D01*
X430197Y25490D01*
X430275Y25426D01*
X430349Y25360D01*
X430421Y25291D01*
X430490Y25219D01*
X430556Y25145D01*
X430620Y25067D01*
X430680Y24988D01*
X430737Y24906D01*
X430791Y24822D01*
X430841Y24736D01*
X430888Y24648D01*
X430932Y24558D01*
X430972Y24467D01*
X431008Y24374D01*
X431041Y24280D01*
X431070Y24184D01*
X431095Y24088D01*
X431116Y23991D01*
X431134Y23892D01*
X431147Y23794D01*
X431157Y23694D01*
X431163Y23595D01*
X431165Y23495D01*
X431163Y23395D01*
X431157Y23296D01*
X431147Y23196D01*
X431134Y23098D01*
X431116Y22999D01*
X431095Y22902D01*
X431070Y22806D01*
X431041Y22710D01*
X431008Y22616D01*
X430972Y22523D01*
X430932Y22432D01*
X430888Y22342D01*
X430841Y22254D01*
X430791Y22168D01*
X430737Y22084D01*
X430680Y22002D01*
X430620Y21923D01*
X430556Y21845D01*
X430490Y21771D01*
X430421Y21699D01*
X430349Y21630D01*
X430275Y21564D01*
X430197Y21500D01*
X430118Y21440D01*
X430036Y21383D01*
X429952Y21329D01*
X429866Y21279D01*
X429778Y21232D01*
X429688Y21188D01*
X429597Y21148D01*
X429504Y21112D01*
X429410Y21079D01*
X429314Y21050D01*
X429218Y21025D01*
X429121Y21004D01*
X429022Y20986D01*
X428924Y20973D01*
X428824Y20963D01*
X428725Y20957D01*
X428625Y20955D01*
X426085Y20955D01*
D10*
X469900Y278130D02*
X469900Y303530D01*
X447040Y303530D01*
X444500Y300990D01*
X441960Y303530D01*
X421640Y303530D01*
X419100Y300990D01*
X416560Y303530D01*
X396240Y303530D01*
X393700Y300990D01*
X391160Y303530D01*
X370840Y303530D01*
X368300Y300990D01*
X365760Y303530D01*
X368300Y280670D02*
X365760Y278130D01*
X368300Y280670D02*
X370840Y278130D01*
X391160Y278130D01*
X393700Y280670D01*
X396240Y278130D01*
X416560Y278130D01*
X419100Y280670D01*
X421640Y278130D01*
X441960Y278130D01*
X444500Y280670D01*
X447040Y278130D01*
X469900Y278130D01*
X365760Y303530D02*
X345440Y303530D01*
X342900Y300990D01*
X340360Y303530D01*
X320040Y303530D01*
X317500Y300990D01*
X314960Y303530D01*
X317500Y280670D02*
X314960Y278130D01*
X317500Y280670D02*
X320040Y278130D01*
X340360Y278130D01*
X342900Y280670D01*
X345440Y278130D01*
X365760Y278130D01*
X111760Y278130D02*
X88900Y278130D01*
X116840Y278130D02*
X137160Y278130D01*
X142240Y278130D02*
X162560Y278130D01*
X167640Y278130D02*
X187960Y278130D01*
X193040Y278130D02*
X213360Y278130D01*
X218440Y278130D02*
X238760Y278130D01*
X243840Y278130D02*
X264160Y278130D01*
X269240Y278130D02*
X289560Y278130D01*
X88900Y278130D02*
X88900Y303530D01*
X269240Y303530D02*
X289560Y303530D01*
X264160Y303530D02*
X243840Y303530D01*
X238760Y303530D02*
X218440Y303530D01*
X213360Y303530D02*
X193040Y303530D01*
X187960Y303530D02*
X167640Y303530D01*
X162560Y303530D02*
X142240Y303530D01*
X137160Y303530D02*
X116840Y303530D01*
X111760Y303530D02*
X88900Y303530D01*
X292100Y280670D02*
X294640Y278130D01*
X292100Y280670D02*
X289560Y278130D01*
X294640Y278130D02*
X314960Y278130D01*
X292100Y300990D02*
X289560Y303530D01*
X292100Y300990D02*
X294640Y303530D01*
X314960Y303530D01*
X266700Y280670D02*
X264160Y278130D01*
X266700Y280670D02*
X269240Y278130D01*
X266700Y300990D02*
X264160Y303530D01*
X266700Y300990D02*
X269240Y303530D01*
X241300Y300990D02*
X238760Y303530D01*
X241300Y300990D02*
X243840Y303530D01*
X241300Y280670D02*
X238760Y278130D01*
X241300Y280670D02*
X243840Y278130D01*
X215900Y280670D02*
X213360Y278130D01*
X215900Y280670D02*
X218440Y278130D01*
X190500Y280670D02*
X187960Y278130D01*
X190500Y280670D02*
X193040Y278130D01*
X215900Y300990D02*
X213360Y303530D01*
X215900Y300990D02*
X218440Y303530D01*
X190500Y300990D02*
X187960Y303530D01*
X190500Y300990D02*
X193040Y303530D01*
X165100Y280670D02*
X162560Y278130D01*
X165100Y280670D02*
X167640Y278130D01*
X165100Y300990D02*
X162560Y303530D01*
X165100Y300990D02*
X167640Y303530D01*
X139700Y280670D02*
X137160Y278130D01*
X114300Y280670D02*
X111760Y278130D01*
X139700Y280670D02*
X142240Y278130D01*
X116840Y278130D02*
X114300Y280670D01*
X137160Y303530D02*
X139700Y300990D01*
X114300Y300990D02*
X111760Y303530D01*
X139700Y300990D02*
X142240Y303530D01*
X116840Y303530D02*
X114300Y300990D01*
D11*
X455295Y272415D02*
X458470Y274955D01*
X458470Y263525D01*
X455295Y263525D02*
X461645Y263525D01*
X97790Y274955D02*
X94615Y272415D01*
X97790Y274955D02*
X97790Y263525D01*
X94615Y263525D02*
X100965Y263525D01*
X106045Y263525D02*
X109855Y263525D01*
X109955Y263527D01*
X110054Y263533D01*
X110154Y263543D01*
X110252Y263556D01*
X110351Y263574D01*
X110448Y263595D01*
X110544Y263620D01*
X110640Y263649D01*
X110734Y263682D01*
X110827Y263718D01*
X110918Y263758D01*
X111008Y263802D01*
X111096Y263849D01*
X111182Y263899D01*
X111266Y263953D01*
X111348Y264010D01*
X111427Y264070D01*
X111505Y264134D01*
X111579Y264200D01*
X111651Y264269D01*
X111720Y264341D01*
X111786Y264415D01*
X111850Y264493D01*
X111910Y264572D01*
X111967Y264654D01*
X112021Y264738D01*
X112071Y264824D01*
X112118Y264912D01*
X112162Y265002D01*
X112202Y265093D01*
X112238Y265186D01*
X112271Y265280D01*
X112300Y265376D01*
X112325Y265472D01*
X112346Y265569D01*
X112364Y265668D01*
X112377Y265766D01*
X112387Y265866D01*
X112393Y265965D01*
X112395Y266065D01*
X112395Y267335D01*
X112393Y267435D01*
X112387Y267534D01*
X112377Y267634D01*
X112364Y267732D01*
X112346Y267831D01*
X112325Y267928D01*
X112300Y268024D01*
X112271Y268120D01*
X112238Y268214D01*
X112202Y268307D01*
X112162Y268398D01*
X112118Y268488D01*
X112071Y268576D01*
X112021Y268662D01*
X111967Y268746D01*
X111910Y268828D01*
X111850Y268907D01*
X111786Y268985D01*
X111720Y269059D01*
X111651Y269131D01*
X111579Y269200D01*
X111505Y269266D01*
X111427Y269330D01*
X111348Y269390D01*
X111266Y269447D01*
X111182Y269501D01*
X111096Y269551D01*
X111008Y269598D01*
X110918Y269642D01*
X110827Y269682D01*
X110734Y269718D01*
X110640Y269751D01*
X110544Y269780D01*
X110448Y269805D01*
X110351Y269826D01*
X110252Y269844D01*
X110154Y269857D01*
X110054Y269867D01*
X109955Y269873D01*
X109855Y269875D01*
X106045Y269875D01*
X106045Y274955D01*
X112395Y274955D01*
X393446Y249555D02*
X393546Y249557D01*
X393645Y249563D01*
X393745Y249573D01*
X393843Y249586D01*
X393942Y249604D01*
X394039Y249625D01*
X394135Y249650D01*
X394231Y249679D01*
X394325Y249712D01*
X394418Y249748D01*
X394509Y249788D01*
X394599Y249832D01*
X394687Y249879D01*
X394773Y249929D01*
X394857Y249983D01*
X394939Y250040D01*
X395018Y250100D01*
X395096Y250164D01*
X395170Y250230D01*
X395242Y250299D01*
X395311Y250371D01*
X395377Y250445D01*
X395441Y250523D01*
X395501Y250602D01*
X395558Y250684D01*
X395612Y250768D01*
X395662Y250854D01*
X395709Y250942D01*
X395753Y251032D01*
X395793Y251123D01*
X395829Y251216D01*
X395862Y251310D01*
X395891Y251406D01*
X395916Y251502D01*
X395937Y251599D01*
X395955Y251698D01*
X395968Y251796D01*
X395978Y251896D01*
X395984Y251995D01*
X395986Y252095D01*
X393446Y249555D02*
X393305Y249557D01*
X393164Y249562D01*
X393023Y249572D01*
X392882Y249585D01*
X392742Y249601D01*
X392602Y249622D01*
X392463Y249646D01*
X392324Y249674D01*
X392187Y249705D01*
X392050Y249740D01*
X391914Y249778D01*
X391779Y249820D01*
X391646Y249866D01*
X391513Y249915D01*
X391382Y249968D01*
X391253Y250024D01*
X391124Y250083D01*
X390998Y250146D01*
X390873Y250212D01*
X390750Y250281D01*
X390629Y250354D01*
X390510Y250430D01*
X390392Y250509D01*
X390277Y250590D01*
X390165Y250675D01*
X390054Y250763D01*
X389946Y250854D01*
X389840Y250947D01*
X389737Y251044D01*
X389636Y251143D01*
X389954Y258445D02*
X389956Y258545D01*
X389962Y258644D01*
X389972Y258744D01*
X389985Y258842D01*
X390003Y258941D01*
X390024Y259038D01*
X390049Y259134D01*
X390078Y259230D01*
X390111Y259324D01*
X390147Y259417D01*
X390187Y259508D01*
X390231Y259598D01*
X390278Y259686D01*
X390328Y259772D01*
X390382Y259856D01*
X390439Y259938D01*
X390499Y260017D01*
X390563Y260095D01*
X390629Y260169D01*
X390698Y260241D01*
X390770Y260310D01*
X390844Y260376D01*
X390922Y260440D01*
X391001Y260500D01*
X391083Y260557D01*
X391167Y260611D01*
X391253Y260661D01*
X391341Y260708D01*
X391431Y260752D01*
X391522Y260792D01*
X391615Y260828D01*
X391709Y260861D01*
X391805Y260890D01*
X391901Y260915D01*
X391998Y260936D01*
X392097Y260954D01*
X392195Y260967D01*
X392295Y260977D01*
X392394Y260983D01*
X392494Y260985D01*
X392494Y260986D02*
X392627Y260984D01*
X392760Y260979D01*
X392893Y260969D01*
X393026Y260956D01*
X393158Y260939D01*
X393290Y260919D01*
X393421Y260895D01*
X393551Y260867D01*
X393681Y260836D01*
X393809Y260801D01*
X393937Y260762D01*
X394063Y260720D01*
X394188Y260674D01*
X394312Y260625D01*
X394435Y260573D01*
X394556Y260517D01*
X394675Y260457D01*
X394793Y260395D01*
X394908Y260329D01*
X395022Y260260D01*
X395134Y260187D01*
X395244Y260112D01*
X395352Y260033D01*
X391223Y256222D02*
X391139Y256274D01*
X391056Y256329D01*
X390976Y256388D01*
X390898Y256449D01*
X390823Y256513D01*
X390750Y256581D01*
X390679Y256651D01*
X390612Y256723D01*
X390547Y256798D01*
X390485Y256876D01*
X390426Y256956D01*
X390370Y257038D01*
X390318Y257122D01*
X390269Y257208D01*
X390223Y257296D01*
X390180Y257386D01*
X390141Y257477D01*
X390106Y257570D01*
X390074Y257664D01*
X390046Y257759D01*
X390021Y257855D01*
X390001Y257952D01*
X389983Y258050D01*
X389970Y258148D01*
X389961Y258247D01*
X389955Y258346D01*
X389953Y258445D01*
X394716Y254318D02*
X394800Y254266D01*
X394883Y254211D01*
X394963Y254152D01*
X395041Y254091D01*
X395116Y254027D01*
X395189Y253959D01*
X395260Y253889D01*
X395327Y253817D01*
X395392Y253742D01*
X395454Y253664D01*
X395513Y253584D01*
X395569Y253502D01*
X395621Y253418D01*
X395670Y253332D01*
X395716Y253244D01*
X395759Y253154D01*
X395798Y253063D01*
X395833Y252970D01*
X395865Y252876D01*
X395893Y252781D01*
X395918Y252685D01*
X395938Y252588D01*
X395956Y252490D01*
X395969Y252392D01*
X395978Y252293D01*
X395984Y252194D01*
X395986Y252095D01*
X394716Y254318D02*
X391224Y256223D01*
X400050Y260985D02*
X403860Y249555D01*
X407670Y260985D01*
X415608Y260986D02*
X415712Y260984D01*
X415817Y260978D01*
X415921Y260969D01*
X416024Y260956D01*
X416127Y260938D01*
X416229Y260918D01*
X416331Y260893D01*
X416431Y260865D01*
X416531Y260833D01*
X416629Y260797D01*
X416726Y260758D01*
X416821Y260716D01*
X416915Y260670D01*
X417007Y260620D01*
X417097Y260568D01*
X417185Y260512D01*
X417271Y260452D01*
X417355Y260390D01*
X417436Y260325D01*
X417515Y260257D01*
X417592Y260185D01*
X417665Y260112D01*
X417737Y260035D01*
X417805Y259956D01*
X417870Y259875D01*
X417932Y259791D01*
X417992Y259705D01*
X418048Y259617D01*
X418100Y259527D01*
X418150Y259435D01*
X418196Y259341D01*
X418238Y259246D01*
X418277Y259149D01*
X418313Y259051D01*
X418345Y258951D01*
X418373Y258851D01*
X418398Y258749D01*
X418418Y258647D01*
X418436Y258544D01*
X418449Y258441D01*
X418458Y258337D01*
X418464Y258232D01*
X418466Y258128D01*
X415608Y260985D02*
X415490Y260983D01*
X415371Y260977D01*
X415253Y260968D01*
X415136Y260955D01*
X415019Y260937D01*
X414902Y260917D01*
X414786Y260892D01*
X414671Y260864D01*
X414558Y260831D01*
X414445Y260796D01*
X414333Y260756D01*
X414223Y260714D01*
X414114Y260667D01*
X414006Y260617D01*
X413901Y260564D01*
X413797Y260507D01*
X413695Y260447D01*
X413595Y260384D01*
X413497Y260317D01*
X413401Y260248D01*
X413308Y260175D01*
X413217Y260099D01*
X413128Y260021D01*
X413042Y259939D01*
X412959Y259855D01*
X412878Y259769D01*
X412801Y259679D01*
X412726Y259588D01*
X412654Y259494D01*
X412585Y259397D01*
X412520Y259299D01*
X412457Y259198D01*
X412398Y259095D01*
X412342Y258991D01*
X412290Y258885D01*
X412241Y258777D01*
X412196Y258668D01*
X412154Y258557D01*
X412116Y258445D01*
X417513Y255906D02*
X417589Y255981D01*
X417664Y256060D01*
X417735Y256141D01*
X417804Y256225D01*
X417869Y256311D01*
X417931Y256399D01*
X417991Y256489D01*
X418047Y256581D01*
X418100Y256676D01*
X418149Y256772D01*
X418195Y256870D01*
X418238Y256969D01*
X418277Y257070D01*
X418312Y257172D01*
X418344Y257275D01*
X418372Y257379D01*
X418397Y257484D01*
X418418Y257591D01*
X418435Y257697D01*
X418448Y257804D01*
X418457Y257912D01*
X418463Y258020D01*
X418465Y258128D01*
X417513Y255905D02*
X412115Y249555D01*
X418465Y249555D01*
D10*
X736600Y533400D02*
X762000Y533400D01*
X736600Y533400D02*
X736600Y510540D01*
X739140Y508000D01*
X736600Y505460D01*
X736600Y485140D01*
X739140Y482600D01*
X736600Y480060D01*
X736600Y459740D01*
X739140Y457200D01*
X736600Y454660D01*
X736600Y434340D01*
X739140Y431800D01*
X736600Y429260D01*
X759460Y431800D02*
X762000Y429260D01*
X759460Y431800D02*
X762000Y434340D01*
X762000Y454660D01*
X759460Y457200D01*
X762000Y459740D01*
X762000Y480060D01*
X759460Y482600D01*
X762000Y485140D01*
X762000Y505460D01*
X759460Y508000D01*
X762000Y510540D01*
X762000Y533400D01*
X736600Y429260D02*
X736600Y408940D01*
X739140Y406400D01*
X736600Y403860D01*
X736600Y383540D01*
X739140Y381000D01*
X736600Y378460D01*
X759460Y381000D02*
X762000Y378460D01*
X759460Y381000D02*
X762000Y383540D01*
X762000Y403860D01*
X759460Y406400D01*
X762000Y408940D01*
X762000Y429260D01*
X762000Y353060D02*
X762000Y330200D01*
X736600Y330200D01*
X736600Y353060D01*
X759460Y355600D02*
X762000Y358140D01*
X759460Y355600D02*
X762000Y353060D01*
X762000Y358140D02*
X762000Y378460D01*
X739140Y355600D02*
X736600Y353060D01*
X739140Y355600D02*
X736600Y358140D01*
X736600Y378460D01*
D11*
X767715Y518795D02*
X765175Y521970D01*
X776605Y521970D01*
X776605Y518795D02*
X776605Y525145D01*
X773430Y347345D02*
X773319Y347343D01*
X773209Y347337D01*
X773098Y347328D01*
X772988Y347314D01*
X772879Y347297D01*
X772770Y347276D01*
X772662Y347251D01*
X772555Y347222D01*
X772449Y347190D01*
X772344Y347154D01*
X772241Y347114D01*
X772139Y347071D01*
X772038Y347024D01*
X771939Y346973D01*
X771843Y346920D01*
X771748Y346863D01*
X771655Y346802D01*
X771564Y346739D01*
X771475Y346672D01*
X771389Y346602D01*
X771306Y346529D01*
X771224Y346454D01*
X771146Y346376D01*
X771071Y346294D01*
X770998Y346211D01*
X770928Y346125D01*
X770861Y346036D01*
X770798Y345945D01*
X770737Y345852D01*
X770680Y345758D01*
X770627Y345661D01*
X770576Y345562D01*
X770529Y345461D01*
X770486Y345359D01*
X770446Y345256D01*
X770410Y345151D01*
X770378Y345045D01*
X770349Y344938D01*
X770324Y344830D01*
X770303Y344721D01*
X770286Y344612D01*
X770272Y344502D01*
X770263Y344391D01*
X770257Y344281D01*
X770255Y344170D01*
X770257Y344059D01*
X770263Y343949D01*
X770272Y343838D01*
X770286Y343728D01*
X770303Y343619D01*
X770324Y343510D01*
X770349Y343402D01*
X770378Y343295D01*
X770410Y343189D01*
X770446Y343084D01*
X770486Y342981D01*
X770529Y342879D01*
X770576Y342778D01*
X770627Y342679D01*
X770680Y342583D01*
X770737Y342488D01*
X770798Y342395D01*
X770861Y342304D01*
X770928Y342215D01*
X770998Y342129D01*
X771071Y342046D01*
X771146Y341964D01*
X771224Y341886D01*
X771306Y341811D01*
X771389Y341738D01*
X771475Y341668D01*
X771564Y341601D01*
X771655Y341538D01*
X771748Y341477D01*
X771843Y341420D01*
X771939Y341367D01*
X772038Y341316D01*
X772139Y341269D01*
X772241Y341226D01*
X772344Y341186D01*
X772449Y341150D01*
X772555Y341118D01*
X772662Y341089D01*
X772770Y341064D01*
X772879Y341043D01*
X772988Y341026D01*
X773098Y341012D01*
X773209Y341003D01*
X773319Y340997D01*
X773430Y340995D01*
X773541Y340997D01*
X773651Y341003D01*
X773762Y341012D01*
X773872Y341026D01*
X773981Y341043D01*
X774090Y341064D01*
X774198Y341089D01*
X774305Y341118D01*
X774411Y341150D01*
X774516Y341186D01*
X774619Y341226D01*
X774721Y341269D01*
X774822Y341316D01*
X774921Y341367D01*
X775018Y341420D01*
X775112Y341477D01*
X775205Y341538D01*
X775296Y341601D01*
X775385Y341668D01*
X775471Y341738D01*
X775554Y341811D01*
X775636Y341886D01*
X775714Y341964D01*
X775789Y342046D01*
X775862Y342129D01*
X775932Y342215D01*
X775999Y342304D01*
X776062Y342395D01*
X776123Y342488D01*
X776180Y342582D01*
X776233Y342679D01*
X776284Y342778D01*
X776331Y342879D01*
X776374Y342981D01*
X776414Y343084D01*
X776450Y343189D01*
X776482Y343295D01*
X776511Y343402D01*
X776536Y343510D01*
X776557Y343619D01*
X776574Y343728D01*
X776588Y343838D01*
X776597Y343949D01*
X776603Y344059D01*
X776605Y344170D01*
X776603Y344281D01*
X776597Y344391D01*
X776588Y344502D01*
X776574Y344612D01*
X776557Y344721D01*
X776536Y344830D01*
X776511Y344938D01*
X776482Y345045D01*
X776450Y345151D01*
X776414Y345256D01*
X776374Y345359D01*
X776331Y345461D01*
X776284Y345562D01*
X776233Y345661D01*
X776180Y345757D01*
X776123Y345852D01*
X776062Y345945D01*
X775999Y346036D01*
X775932Y346125D01*
X775862Y346211D01*
X775789Y346294D01*
X775714Y346376D01*
X775636Y346454D01*
X775554Y346529D01*
X775471Y346602D01*
X775385Y346672D01*
X775296Y346739D01*
X775205Y346802D01*
X775112Y346863D01*
X775018Y346920D01*
X774921Y346973D01*
X774822Y347024D01*
X774721Y347071D01*
X774619Y347114D01*
X774516Y347154D01*
X774411Y347190D01*
X774305Y347222D01*
X774198Y347251D01*
X774090Y347276D01*
X773981Y347297D01*
X773872Y347314D01*
X773762Y347328D01*
X773651Y347337D01*
X773541Y347343D01*
X773430Y347345D01*
X767715Y346710D02*
X767615Y346708D01*
X767516Y346702D01*
X767416Y346692D01*
X767318Y346679D01*
X767219Y346661D01*
X767122Y346640D01*
X767026Y346615D01*
X766930Y346586D01*
X766836Y346553D01*
X766743Y346517D01*
X766652Y346477D01*
X766562Y346433D01*
X766474Y346386D01*
X766388Y346336D01*
X766304Y346282D01*
X766222Y346225D01*
X766143Y346165D01*
X766065Y346101D01*
X765991Y346035D01*
X765919Y345966D01*
X765850Y345894D01*
X765784Y345820D01*
X765720Y345742D01*
X765660Y345663D01*
X765603Y345581D01*
X765549Y345497D01*
X765499Y345411D01*
X765452Y345323D01*
X765408Y345233D01*
X765368Y345142D01*
X765332Y345049D01*
X765299Y344955D01*
X765270Y344859D01*
X765245Y344763D01*
X765224Y344666D01*
X765206Y344567D01*
X765193Y344469D01*
X765183Y344369D01*
X765177Y344270D01*
X765175Y344170D01*
X765177Y344070D01*
X765183Y343971D01*
X765193Y343871D01*
X765206Y343773D01*
X765224Y343674D01*
X765245Y343577D01*
X765270Y343481D01*
X765299Y343385D01*
X765332Y343291D01*
X765368Y343198D01*
X765408Y343107D01*
X765452Y343017D01*
X765499Y342929D01*
X765549Y342843D01*
X765603Y342759D01*
X765660Y342677D01*
X765720Y342598D01*
X765784Y342520D01*
X765850Y342446D01*
X765919Y342374D01*
X765991Y342305D01*
X766065Y342239D01*
X766143Y342175D01*
X766222Y342115D01*
X766304Y342058D01*
X766388Y342004D01*
X766474Y341954D01*
X766562Y341907D01*
X766652Y341863D01*
X766743Y341823D01*
X766836Y341787D01*
X766930Y341754D01*
X767026Y341725D01*
X767122Y341700D01*
X767219Y341679D01*
X767318Y341661D01*
X767416Y341648D01*
X767516Y341638D01*
X767615Y341632D01*
X767715Y341630D01*
X767815Y341632D01*
X767914Y341638D01*
X768014Y341648D01*
X768112Y341661D01*
X768211Y341679D01*
X768308Y341700D01*
X768404Y341725D01*
X768500Y341754D01*
X768594Y341787D01*
X768687Y341823D01*
X768778Y341863D01*
X768868Y341907D01*
X768956Y341954D01*
X769042Y342004D01*
X769126Y342058D01*
X769208Y342115D01*
X769287Y342175D01*
X769365Y342239D01*
X769439Y342305D01*
X769511Y342374D01*
X769580Y342446D01*
X769646Y342520D01*
X769710Y342598D01*
X769770Y342677D01*
X769827Y342759D01*
X769881Y342843D01*
X769931Y342929D01*
X769978Y343017D01*
X770022Y343107D01*
X770062Y343198D01*
X770098Y343291D01*
X770131Y343385D01*
X770160Y343481D01*
X770185Y343577D01*
X770206Y343674D01*
X770224Y343773D01*
X770237Y343871D01*
X770247Y343971D01*
X770253Y344070D01*
X770255Y344170D01*
X770253Y344270D01*
X770247Y344369D01*
X770237Y344469D01*
X770224Y344567D01*
X770206Y344666D01*
X770185Y344763D01*
X770160Y344859D01*
X770131Y344955D01*
X770098Y345049D01*
X770062Y345142D01*
X770022Y345233D01*
X769978Y345323D01*
X769931Y345411D01*
X769881Y345497D01*
X769827Y345581D01*
X769770Y345663D01*
X769710Y345742D01*
X769646Y345820D01*
X769580Y345894D01*
X769511Y345966D01*
X769439Y346035D01*
X769365Y346101D01*
X769287Y346165D01*
X769208Y346225D01*
X769126Y346282D01*
X769042Y346336D01*
X768956Y346386D01*
X768868Y346433D01*
X768778Y346477D01*
X768687Y346517D01*
X768594Y346553D01*
X768500Y346586D01*
X768404Y346615D01*
X768308Y346640D01*
X768211Y346661D01*
X768112Y346679D01*
X768014Y346692D01*
X767914Y346702D01*
X767815Y346708D01*
X767715Y346710D01*
X777875Y469646D02*
X777873Y469746D01*
X777867Y469845D01*
X777857Y469945D01*
X777844Y470043D01*
X777826Y470142D01*
X777805Y470239D01*
X777780Y470335D01*
X777751Y470431D01*
X777718Y470525D01*
X777682Y470618D01*
X777642Y470709D01*
X777598Y470799D01*
X777551Y470887D01*
X777501Y470973D01*
X777447Y471057D01*
X777390Y471139D01*
X777330Y471218D01*
X777266Y471296D01*
X777200Y471370D01*
X777131Y471442D01*
X777059Y471511D01*
X776985Y471577D01*
X776907Y471641D01*
X776828Y471701D01*
X776746Y471758D01*
X776662Y471812D01*
X776576Y471862D01*
X776488Y471909D01*
X776398Y471953D01*
X776307Y471993D01*
X776214Y472029D01*
X776120Y472062D01*
X776024Y472091D01*
X775928Y472116D01*
X775831Y472137D01*
X775732Y472155D01*
X775634Y472168D01*
X775534Y472178D01*
X775435Y472184D01*
X775335Y472186D01*
X777875Y469646D02*
X777873Y469505D01*
X777868Y469364D01*
X777858Y469223D01*
X777845Y469082D01*
X777829Y468942D01*
X777808Y468802D01*
X777784Y468663D01*
X777756Y468524D01*
X777725Y468387D01*
X777690Y468250D01*
X777652Y468114D01*
X777610Y467979D01*
X777564Y467846D01*
X777515Y467713D01*
X777462Y467582D01*
X777406Y467453D01*
X777347Y467324D01*
X777284Y467198D01*
X777218Y467073D01*
X777149Y466950D01*
X777076Y466829D01*
X777000Y466710D01*
X776921Y466592D01*
X776840Y466477D01*
X776755Y466365D01*
X776667Y466254D01*
X776576Y466146D01*
X776483Y466040D01*
X776386Y465937D01*
X776287Y465836D01*
X768985Y466154D02*
X768885Y466156D01*
X768786Y466162D01*
X768686Y466172D01*
X768588Y466185D01*
X768489Y466203D01*
X768392Y466224D01*
X768296Y466249D01*
X768200Y466278D01*
X768106Y466311D01*
X768013Y466347D01*
X767922Y466387D01*
X767832Y466431D01*
X767744Y466478D01*
X767658Y466528D01*
X767574Y466582D01*
X767492Y466639D01*
X767413Y466699D01*
X767335Y466763D01*
X767261Y466829D01*
X767189Y466898D01*
X767120Y466970D01*
X767054Y467044D01*
X766990Y467122D01*
X766930Y467201D01*
X766873Y467283D01*
X766819Y467367D01*
X766769Y467453D01*
X766722Y467541D01*
X766678Y467631D01*
X766638Y467722D01*
X766602Y467815D01*
X766569Y467909D01*
X766540Y468005D01*
X766515Y468101D01*
X766494Y468198D01*
X766476Y468297D01*
X766463Y468395D01*
X766453Y468495D01*
X766447Y468594D01*
X766445Y468694D01*
X766447Y468827D01*
X766452Y468960D01*
X766462Y469093D01*
X766475Y469226D01*
X766492Y469358D01*
X766512Y469490D01*
X766536Y469621D01*
X766564Y469751D01*
X766595Y469881D01*
X766630Y470009D01*
X766669Y470137D01*
X766711Y470263D01*
X766757Y470388D01*
X766806Y470512D01*
X766858Y470635D01*
X766914Y470756D01*
X766974Y470875D01*
X767036Y470993D01*
X767102Y471108D01*
X767171Y471222D01*
X767244Y471334D01*
X767319Y471444D01*
X767398Y471552D01*
X771208Y467423D02*
X771156Y467339D01*
X771101Y467256D01*
X771042Y467176D01*
X770981Y467098D01*
X770917Y467023D01*
X770849Y466950D01*
X770779Y466879D01*
X770707Y466812D01*
X770632Y466747D01*
X770554Y466685D01*
X770474Y466626D01*
X770392Y466570D01*
X770308Y466518D01*
X770222Y466469D01*
X770134Y466423D01*
X770044Y466380D01*
X769953Y466341D01*
X769860Y466306D01*
X769766Y466274D01*
X769671Y466246D01*
X769575Y466221D01*
X769478Y466201D01*
X769380Y466183D01*
X769282Y466170D01*
X769183Y466161D01*
X769084Y466155D01*
X768985Y466153D01*
X773112Y470916D02*
X773164Y471000D01*
X773219Y471083D01*
X773278Y471163D01*
X773339Y471241D01*
X773403Y471316D01*
X773471Y471389D01*
X773541Y471460D01*
X773613Y471527D01*
X773688Y471592D01*
X773766Y471654D01*
X773846Y471713D01*
X773928Y471769D01*
X774012Y471821D01*
X774098Y471870D01*
X774186Y471916D01*
X774276Y471959D01*
X774367Y471998D01*
X774460Y472033D01*
X774554Y472065D01*
X774649Y472093D01*
X774745Y472118D01*
X774842Y472138D01*
X774940Y472156D01*
X775038Y472169D01*
X775137Y472178D01*
X775236Y472184D01*
X775335Y472186D01*
X773113Y470916D02*
X771208Y467424D01*
X766445Y476250D02*
X777875Y480060D01*
X766445Y483870D01*
X768985Y488315D02*
X766445Y491490D01*
X777875Y491490D01*
X777875Y488315D02*
X777875Y494665D01*
D10*
X635000Y533400D02*
X609600Y533400D01*
X609600Y510540D01*
X612140Y508000D01*
X609600Y505460D01*
X609600Y485140D01*
X612140Y482600D01*
X609600Y480060D01*
X609600Y459740D01*
X612140Y457200D01*
X609600Y454660D01*
X609600Y434340D01*
X612140Y431800D01*
X609600Y429260D01*
X632460Y431800D02*
X635000Y429260D01*
X632460Y431800D02*
X635000Y434340D01*
X635000Y454660D01*
X632460Y457200D01*
X635000Y459740D01*
X635000Y480060D01*
X632460Y482600D01*
X635000Y485140D01*
X635000Y505460D01*
X632460Y508000D01*
X635000Y510540D01*
X635000Y533400D01*
X609600Y429260D02*
X609600Y408940D01*
X612140Y406400D01*
X609600Y403860D01*
X609600Y383540D01*
X612140Y381000D01*
X609600Y378460D01*
X632460Y381000D02*
X635000Y378460D01*
X632460Y381000D02*
X635000Y383540D01*
X635000Y403860D01*
X632460Y406400D01*
X635000Y408940D01*
X635000Y429260D01*
X635000Y353060D02*
X635000Y330200D01*
X609600Y330200D01*
X609600Y353060D01*
X632460Y355600D02*
X635000Y358140D01*
X632460Y355600D02*
X635000Y353060D01*
X635000Y358140D02*
X635000Y378460D01*
X612140Y355600D02*
X609600Y353060D01*
X612140Y355600D02*
X609600Y358140D01*
X609600Y378460D01*
D11*
X640715Y518795D02*
X638175Y521970D01*
X649605Y521970D01*
X649605Y518795D02*
X649605Y525145D01*
X646430Y347345D02*
X646319Y347343D01*
X646209Y347337D01*
X646098Y347328D01*
X645988Y347314D01*
X645879Y347297D01*
X645770Y347276D01*
X645662Y347251D01*
X645555Y347222D01*
X645449Y347190D01*
X645344Y347154D01*
X645241Y347114D01*
X645139Y347071D01*
X645038Y347024D01*
X644939Y346973D01*
X644843Y346920D01*
X644748Y346863D01*
X644655Y346802D01*
X644564Y346739D01*
X644475Y346672D01*
X644389Y346602D01*
X644306Y346529D01*
X644224Y346454D01*
X644146Y346376D01*
X644071Y346294D01*
X643998Y346211D01*
X643928Y346125D01*
X643861Y346036D01*
X643798Y345945D01*
X643737Y345852D01*
X643680Y345758D01*
X643627Y345661D01*
X643576Y345562D01*
X643529Y345461D01*
X643486Y345359D01*
X643446Y345256D01*
X643410Y345151D01*
X643378Y345045D01*
X643349Y344938D01*
X643324Y344830D01*
X643303Y344721D01*
X643286Y344612D01*
X643272Y344502D01*
X643263Y344391D01*
X643257Y344281D01*
X643255Y344170D01*
X643257Y344059D01*
X643263Y343949D01*
X643272Y343838D01*
X643286Y343728D01*
X643303Y343619D01*
X643324Y343510D01*
X643349Y343402D01*
X643378Y343295D01*
X643410Y343189D01*
X643446Y343084D01*
X643486Y342981D01*
X643529Y342879D01*
X643576Y342778D01*
X643627Y342679D01*
X643680Y342583D01*
X643737Y342488D01*
X643798Y342395D01*
X643861Y342304D01*
X643928Y342215D01*
X643998Y342129D01*
X644071Y342046D01*
X644146Y341964D01*
X644224Y341886D01*
X644306Y341811D01*
X644389Y341738D01*
X644475Y341668D01*
X644564Y341601D01*
X644655Y341538D01*
X644748Y341477D01*
X644843Y341420D01*
X644939Y341367D01*
X645038Y341316D01*
X645139Y341269D01*
X645241Y341226D01*
X645344Y341186D01*
X645449Y341150D01*
X645555Y341118D01*
X645662Y341089D01*
X645770Y341064D01*
X645879Y341043D01*
X645988Y341026D01*
X646098Y341012D01*
X646209Y341003D01*
X646319Y340997D01*
X646430Y340995D01*
X646541Y340997D01*
X646651Y341003D01*
X646762Y341012D01*
X646872Y341026D01*
X646981Y341043D01*
X647090Y341064D01*
X647198Y341089D01*
X647305Y341118D01*
X647411Y341150D01*
X647516Y341186D01*
X647619Y341226D01*
X647721Y341269D01*
X647822Y341316D01*
X647921Y341367D01*
X648018Y341420D01*
X648112Y341477D01*
X648205Y341538D01*
X648296Y341601D01*
X648385Y341668D01*
X648471Y341738D01*
X648554Y341811D01*
X648636Y341886D01*
X648714Y341964D01*
X648789Y342046D01*
X648862Y342129D01*
X648932Y342215D01*
X648999Y342304D01*
X649062Y342395D01*
X649123Y342488D01*
X649180Y342582D01*
X649233Y342679D01*
X649284Y342778D01*
X649331Y342879D01*
X649374Y342981D01*
X649414Y343084D01*
X649450Y343189D01*
X649482Y343295D01*
X649511Y343402D01*
X649536Y343510D01*
X649557Y343619D01*
X649574Y343728D01*
X649588Y343838D01*
X649597Y343949D01*
X649603Y344059D01*
X649605Y344170D01*
X649603Y344281D01*
X649597Y344391D01*
X649588Y344502D01*
X649574Y344612D01*
X649557Y344721D01*
X649536Y344830D01*
X649511Y344938D01*
X649482Y345045D01*
X649450Y345151D01*
X649414Y345256D01*
X649374Y345359D01*
X649331Y345461D01*
X649284Y345562D01*
X649233Y345661D01*
X649180Y345757D01*
X649123Y345852D01*
X649062Y345945D01*
X648999Y346036D01*
X648932Y346125D01*
X648862Y346211D01*
X648789Y346294D01*
X648714Y346376D01*
X648636Y346454D01*
X648554Y346529D01*
X648471Y346602D01*
X648385Y346672D01*
X648296Y346739D01*
X648205Y346802D01*
X648112Y346863D01*
X648018Y346920D01*
X647921Y346973D01*
X647822Y347024D01*
X647721Y347071D01*
X647619Y347114D01*
X647516Y347154D01*
X647411Y347190D01*
X647305Y347222D01*
X647198Y347251D01*
X647090Y347276D01*
X646981Y347297D01*
X646872Y347314D01*
X646762Y347328D01*
X646651Y347337D01*
X646541Y347343D01*
X646430Y347345D01*
X640715Y346710D02*
X640615Y346708D01*
X640516Y346702D01*
X640416Y346692D01*
X640318Y346679D01*
X640219Y346661D01*
X640122Y346640D01*
X640026Y346615D01*
X639930Y346586D01*
X639836Y346553D01*
X639743Y346517D01*
X639652Y346477D01*
X639562Y346433D01*
X639474Y346386D01*
X639388Y346336D01*
X639304Y346282D01*
X639222Y346225D01*
X639143Y346165D01*
X639065Y346101D01*
X638991Y346035D01*
X638919Y345966D01*
X638850Y345894D01*
X638784Y345820D01*
X638720Y345742D01*
X638660Y345663D01*
X638603Y345581D01*
X638549Y345497D01*
X638499Y345411D01*
X638452Y345323D01*
X638408Y345233D01*
X638368Y345142D01*
X638332Y345049D01*
X638299Y344955D01*
X638270Y344859D01*
X638245Y344763D01*
X638224Y344666D01*
X638206Y344567D01*
X638193Y344469D01*
X638183Y344369D01*
X638177Y344270D01*
X638175Y344170D01*
X638177Y344070D01*
X638183Y343971D01*
X638193Y343871D01*
X638206Y343773D01*
X638224Y343674D01*
X638245Y343577D01*
X638270Y343481D01*
X638299Y343385D01*
X638332Y343291D01*
X638368Y343198D01*
X638408Y343107D01*
X638452Y343017D01*
X638499Y342929D01*
X638549Y342843D01*
X638603Y342759D01*
X638660Y342677D01*
X638720Y342598D01*
X638784Y342520D01*
X638850Y342446D01*
X638919Y342374D01*
X638991Y342305D01*
X639065Y342239D01*
X639143Y342175D01*
X639222Y342115D01*
X639304Y342058D01*
X639388Y342004D01*
X639474Y341954D01*
X639562Y341907D01*
X639652Y341863D01*
X639743Y341823D01*
X639836Y341787D01*
X639930Y341754D01*
X640026Y341725D01*
X640122Y341700D01*
X640219Y341679D01*
X640318Y341661D01*
X640416Y341648D01*
X640516Y341638D01*
X640615Y341632D01*
X640715Y341630D01*
X640815Y341632D01*
X640914Y341638D01*
X641014Y341648D01*
X641112Y341661D01*
X641211Y341679D01*
X641308Y341700D01*
X641404Y341725D01*
X641500Y341754D01*
X641594Y341787D01*
X641687Y341823D01*
X641778Y341863D01*
X641868Y341907D01*
X641956Y341954D01*
X642042Y342004D01*
X642126Y342058D01*
X642208Y342115D01*
X642287Y342175D01*
X642365Y342239D01*
X642439Y342305D01*
X642511Y342374D01*
X642580Y342446D01*
X642646Y342520D01*
X642710Y342598D01*
X642770Y342677D01*
X642827Y342759D01*
X642881Y342843D01*
X642931Y342929D01*
X642978Y343017D01*
X643022Y343107D01*
X643062Y343198D01*
X643098Y343291D01*
X643131Y343385D01*
X643160Y343481D01*
X643185Y343577D01*
X643206Y343674D01*
X643224Y343773D01*
X643237Y343871D01*
X643247Y343971D01*
X643253Y344070D01*
X643255Y344170D01*
X643253Y344270D01*
X643247Y344369D01*
X643237Y344469D01*
X643224Y344567D01*
X643206Y344666D01*
X643185Y344763D01*
X643160Y344859D01*
X643131Y344955D01*
X643098Y345049D01*
X643062Y345142D01*
X643022Y345233D01*
X642978Y345323D01*
X642931Y345411D01*
X642881Y345497D01*
X642827Y345581D01*
X642770Y345663D01*
X642710Y345742D01*
X642646Y345820D01*
X642580Y345894D01*
X642511Y345966D01*
X642439Y346035D01*
X642365Y346101D01*
X642287Y346165D01*
X642208Y346225D01*
X642126Y346282D01*
X642042Y346336D01*
X641956Y346386D01*
X641868Y346433D01*
X641778Y346477D01*
X641687Y346517D01*
X641594Y346553D01*
X641500Y346586D01*
X641404Y346615D01*
X641308Y346640D01*
X641211Y346661D01*
X641112Y346679D01*
X641014Y346692D01*
X640914Y346702D01*
X640815Y346708D01*
X640715Y346710D01*
X650875Y469646D02*
X650873Y469746D01*
X650867Y469845D01*
X650857Y469945D01*
X650844Y470043D01*
X650826Y470142D01*
X650805Y470239D01*
X650780Y470335D01*
X650751Y470431D01*
X650718Y470525D01*
X650682Y470618D01*
X650642Y470709D01*
X650598Y470799D01*
X650551Y470887D01*
X650501Y470973D01*
X650447Y471057D01*
X650390Y471139D01*
X650330Y471218D01*
X650266Y471296D01*
X650200Y471370D01*
X650131Y471442D01*
X650059Y471511D01*
X649985Y471577D01*
X649907Y471641D01*
X649828Y471701D01*
X649746Y471758D01*
X649662Y471812D01*
X649576Y471862D01*
X649488Y471909D01*
X649398Y471953D01*
X649307Y471993D01*
X649214Y472029D01*
X649120Y472062D01*
X649024Y472091D01*
X648928Y472116D01*
X648831Y472137D01*
X648732Y472155D01*
X648634Y472168D01*
X648534Y472178D01*
X648435Y472184D01*
X648335Y472186D01*
X650875Y469646D02*
X650873Y469505D01*
X650868Y469364D01*
X650858Y469223D01*
X650845Y469082D01*
X650829Y468942D01*
X650808Y468802D01*
X650784Y468663D01*
X650756Y468524D01*
X650725Y468387D01*
X650690Y468250D01*
X650652Y468114D01*
X650610Y467979D01*
X650564Y467846D01*
X650515Y467713D01*
X650462Y467582D01*
X650406Y467453D01*
X650347Y467324D01*
X650284Y467198D01*
X650218Y467073D01*
X650149Y466950D01*
X650076Y466829D01*
X650000Y466710D01*
X649921Y466592D01*
X649840Y466477D01*
X649755Y466365D01*
X649667Y466254D01*
X649576Y466146D01*
X649483Y466040D01*
X649386Y465937D01*
X649287Y465836D01*
X641985Y466154D02*
X641885Y466156D01*
X641786Y466162D01*
X641686Y466172D01*
X641588Y466185D01*
X641489Y466203D01*
X641392Y466224D01*
X641296Y466249D01*
X641200Y466278D01*
X641106Y466311D01*
X641013Y466347D01*
X640922Y466387D01*
X640832Y466431D01*
X640744Y466478D01*
X640658Y466528D01*
X640574Y466582D01*
X640492Y466639D01*
X640413Y466699D01*
X640335Y466763D01*
X640261Y466829D01*
X640189Y466898D01*
X640120Y466970D01*
X640054Y467044D01*
X639990Y467122D01*
X639930Y467201D01*
X639873Y467283D01*
X639819Y467367D01*
X639769Y467453D01*
X639722Y467541D01*
X639678Y467631D01*
X639638Y467722D01*
X639602Y467815D01*
X639569Y467909D01*
X639540Y468005D01*
X639515Y468101D01*
X639494Y468198D01*
X639476Y468297D01*
X639463Y468395D01*
X639453Y468495D01*
X639447Y468594D01*
X639445Y468694D01*
X639447Y468827D01*
X639452Y468960D01*
X639462Y469093D01*
X639475Y469226D01*
X639492Y469358D01*
X639512Y469490D01*
X639536Y469621D01*
X639564Y469751D01*
X639595Y469881D01*
X639630Y470009D01*
X639669Y470137D01*
X639711Y470263D01*
X639757Y470388D01*
X639806Y470512D01*
X639858Y470635D01*
X639914Y470756D01*
X639974Y470875D01*
X640036Y470993D01*
X640102Y471108D01*
X640171Y471222D01*
X640244Y471334D01*
X640319Y471444D01*
X640398Y471552D01*
X644208Y467423D02*
X644156Y467339D01*
X644101Y467256D01*
X644042Y467176D01*
X643981Y467098D01*
X643917Y467023D01*
X643849Y466950D01*
X643779Y466879D01*
X643707Y466812D01*
X643632Y466747D01*
X643554Y466685D01*
X643474Y466626D01*
X643392Y466570D01*
X643308Y466518D01*
X643222Y466469D01*
X643134Y466423D01*
X643044Y466380D01*
X642953Y466341D01*
X642860Y466306D01*
X642766Y466274D01*
X642671Y466246D01*
X642575Y466221D01*
X642478Y466201D01*
X642380Y466183D01*
X642282Y466170D01*
X642183Y466161D01*
X642084Y466155D01*
X641985Y466153D01*
X646112Y470916D02*
X646164Y471000D01*
X646219Y471083D01*
X646278Y471163D01*
X646339Y471241D01*
X646403Y471316D01*
X646471Y471389D01*
X646541Y471460D01*
X646613Y471527D01*
X646688Y471592D01*
X646766Y471654D01*
X646846Y471713D01*
X646928Y471769D01*
X647012Y471821D01*
X647098Y471870D01*
X647186Y471916D01*
X647276Y471959D01*
X647367Y471998D01*
X647460Y472033D01*
X647554Y472065D01*
X647649Y472093D01*
X647745Y472118D01*
X647842Y472138D01*
X647940Y472156D01*
X648038Y472169D01*
X648137Y472178D01*
X648236Y472184D01*
X648335Y472186D01*
X646113Y470916D02*
X644208Y467424D01*
X639445Y476250D02*
X650875Y480060D01*
X639445Y483870D01*
X639445Y490855D02*
X648335Y488315D01*
X648335Y494665D01*
X645795Y492760D02*
X650875Y492760D01*
D10*
X533400Y533400D02*
X508000Y533400D01*
X508000Y510540D01*
X510540Y508000D01*
X508000Y505460D01*
X508000Y485140D01*
X510540Y482600D01*
X508000Y480060D01*
X508000Y459740D01*
X510540Y457200D01*
X508000Y454660D01*
X508000Y434340D01*
X510540Y431800D01*
X508000Y429260D01*
X530860Y431800D02*
X533400Y429260D01*
X530860Y431800D02*
X533400Y434340D01*
X533400Y454660D01*
X530860Y457200D01*
X533400Y459740D01*
X533400Y480060D01*
X530860Y482600D01*
X533400Y485140D01*
X533400Y505460D01*
X530860Y508000D01*
X533400Y510540D01*
X533400Y533400D01*
X508000Y429260D02*
X508000Y408940D01*
X510540Y406400D01*
X508000Y403860D01*
X508000Y383540D01*
X510540Y381000D01*
X508000Y378460D01*
X530860Y381000D02*
X533400Y378460D01*
X530860Y381000D02*
X533400Y383540D01*
X533400Y403860D01*
X530860Y406400D01*
X533400Y408940D01*
X533400Y429260D01*
X533400Y353060D02*
X533400Y330200D01*
X508000Y330200D01*
X508000Y353060D01*
X530860Y355600D02*
X533400Y358140D01*
X530860Y355600D02*
X533400Y353060D01*
X533400Y358140D02*
X533400Y378460D01*
X510540Y355600D02*
X508000Y353060D01*
X510540Y355600D02*
X508000Y358140D01*
X508000Y378460D01*
D11*
X539115Y518795D02*
X536575Y521970D01*
X548005Y521970D01*
X548005Y518795D02*
X548005Y525145D01*
X544830Y347345D02*
X544719Y347343D01*
X544609Y347337D01*
X544498Y347328D01*
X544388Y347314D01*
X544279Y347297D01*
X544170Y347276D01*
X544062Y347251D01*
X543955Y347222D01*
X543849Y347190D01*
X543744Y347154D01*
X543641Y347114D01*
X543539Y347071D01*
X543438Y347024D01*
X543339Y346973D01*
X543243Y346920D01*
X543148Y346863D01*
X543055Y346802D01*
X542964Y346739D01*
X542875Y346672D01*
X542789Y346602D01*
X542706Y346529D01*
X542624Y346454D01*
X542546Y346376D01*
X542471Y346294D01*
X542398Y346211D01*
X542328Y346125D01*
X542261Y346036D01*
X542198Y345945D01*
X542137Y345852D01*
X542080Y345758D01*
X542027Y345661D01*
X541976Y345562D01*
X541929Y345461D01*
X541886Y345359D01*
X541846Y345256D01*
X541810Y345151D01*
X541778Y345045D01*
X541749Y344938D01*
X541724Y344830D01*
X541703Y344721D01*
X541686Y344612D01*
X541672Y344502D01*
X541663Y344391D01*
X541657Y344281D01*
X541655Y344170D01*
X541657Y344059D01*
X541663Y343949D01*
X541672Y343838D01*
X541686Y343728D01*
X541703Y343619D01*
X541724Y343510D01*
X541749Y343402D01*
X541778Y343295D01*
X541810Y343189D01*
X541846Y343084D01*
X541886Y342981D01*
X541929Y342879D01*
X541976Y342778D01*
X542027Y342679D01*
X542080Y342583D01*
X542137Y342488D01*
X542198Y342395D01*
X542261Y342304D01*
X542328Y342215D01*
X542398Y342129D01*
X542471Y342046D01*
X542546Y341964D01*
X542624Y341886D01*
X542706Y341811D01*
X542789Y341738D01*
X542875Y341668D01*
X542964Y341601D01*
X543055Y341538D01*
X543148Y341477D01*
X543243Y341420D01*
X543339Y341367D01*
X543438Y341316D01*
X543539Y341269D01*
X543641Y341226D01*
X543744Y341186D01*
X543849Y341150D01*
X543955Y341118D01*
X544062Y341089D01*
X544170Y341064D01*
X544279Y341043D01*
X544388Y341026D01*
X544498Y341012D01*
X544609Y341003D01*
X544719Y340997D01*
X544830Y340995D01*
X544941Y340997D01*
X545051Y341003D01*
X545162Y341012D01*
X545272Y341026D01*
X545381Y341043D01*
X545490Y341064D01*
X545598Y341089D01*
X545705Y341118D01*
X545811Y341150D01*
X545916Y341186D01*
X546019Y341226D01*
X546121Y341269D01*
X546222Y341316D01*
X546321Y341367D01*
X546418Y341420D01*
X546512Y341477D01*
X546605Y341538D01*
X546696Y341601D01*
X546785Y341668D01*
X546871Y341738D01*
X546954Y341811D01*
X547036Y341886D01*
X547114Y341964D01*
X547189Y342046D01*
X547262Y342129D01*
X547332Y342215D01*
X547399Y342304D01*
X547462Y342395D01*
X547523Y342488D01*
X547580Y342582D01*
X547633Y342679D01*
X547684Y342778D01*
X547731Y342879D01*
X547774Y342981D01*
X547814Y343084D01*
X547850Y343189D01*
X547882Y343295D01*
X547911Y343402D01*
X547936Y343510D01*
X547957Y343619D01*
X547974Y343728D01*
X547988Y343838D01*
X547997Y343949D01*
X548003Y344059D01*
X548005Y344170D01*
X548003Y344281D01*
X547997Y344391D01*
X547988Y344502D01*
X547974Y344612D01*
X547957Y344721D01*
X547936Y344830D01*
X547911Y344938D01*
X547882Y345045D01*
X547850Y345151D01*
X547814Y345256D01*
X547774Y345359D01*
X547731Y345461D01*
X547684Y345562D01*
X547633Y345661D01*
X547580Y345757D01*
X547523Y345852D01*
X547462Y345945D01*
X547399Y346036D01*
X547332Y346125D01*
X547262Y346211D01*
X547189Y346294D01*
X547114Y346376D01*
X547036Y346454D01*
X546954Y346529D01*
X546871Y346602D01*
X546785Y346672D01*
X546696Y346739D01*
X546605Y346802D01*
X546512Y346863D01*
X546418Y346920D01*
X546321Y346973D01*
X546222Y347024D01*
X546121Y347071D01*
X546019Y347114D01*
X545916Y347154D01*
X545811Y347190D01*
X545705Y347222D01*
X545598Y347251D01*
X545490Y347276D01*
X545381Y347297D01*
X545272Y347314D01*
X545162Y347328D01*
X545051Y347337D01*
X544941Y347343D01*
X544830Y347345D01*
X539115Y346710D02*
X539015Y346708D01*
X538916Y346702D01*
X538816Y346692D01*
X538718Y346679D01*
X538619Y346661D01*
X538522Y346640D01*
X538426Y346615D01*
X538330Y346586D01*
X538236Y346553D01*
X538143Y346517D01*
X538052Y346477D01*
X537962Y346433D01*
X537874Y346386D01*
X537788Y346336D01*
X537704Y346282D01*
X537622Y346225D01*
X537543Y346165D01*
X537465Y346101D01*
X537391Y346035D01*
X537319Y345966D01*
X537250Y345894D01*
X537184Y345820D01*
X537120Y345742D01*
X537060Y345663D01*
X537003Y345581D01*
X536949Y345497D01*
X536899Y345411D01*
X536852Y345323D01*
X536808Y345233D01*
X536768Y345142D01*
X536732Y345049D01*
X536699Y344955D01*
X536670Y344859D01*
X536645Y344763D01*
X536624Y344666D01*
X536606Y344567D01*
X536593Y344469D01*
X536583Y344369D01*
X536577Y344270D01*
X536575Y344170D01*
X536577Y344070D01*
X536583Y343971D01*
X536593Y343871D01*
X536606Y343773D01*
X536624Y343674D01*
X536645Y343577D01*
X536670Y343481D01*
X536699Y343385D01*
X536732Y343291D01*
X536768Y343198D01*
X536808Y343107D01*
X536852Y343017D01*
X536899Y342929D01*
X536949Y342843D01*
X537003Y342759D01*
X537060Y342677D01*
X537120Y342598D01*
X537184Y342520D01*
X537250Y342446D01*
X537319Y342374D01*
X537391Y342305D01*
X537465Y342239D01*
X537543Y342175D01*
X537622Y342115D01*
X537704Y342058D01*
X537788Y342004D01*
X537874Y341954D01*
X537962Y341907D01*
X538052Y341863D01*
X538143Y341823D01*
X538236Y341787D01*
X538330Y341754D01*
X538426Y341725D01*
X538522Y341700D01*
X538619Y341679D01*
X538718Y341661D01*
X538816Y341648D01*
X538916Y341638D01*
X539015Y341632D01*
X539115Y341630D01*
X539215Y341632D01*
X539314Y341638D01*
X539414Y341648D01*
X539512Y341661D01*
X539611Y341679D01*
X539708Y341700D01*
X539804Y341725D01*
X539900Y341754D01*
X539994Y341787D01*
X540087Y341823D01*
X540178Y341863D01*
X540268Y341907D01*
X540356Y341954D01*
X540442Y342004D01*
X540526Y342058D01*
X540608Y342115D01*
X540687Y342175D01*
X540765Y342239D01*
X540839Y342305D01*
X540911Y342374D01*
X540980Y342446D01*
X541046Y342520D01*
X541110Y342598D01*
X541170Y342677D01*
X541227Y342759D01*
X541281Y342843D01*
X541331Y342929D01*
X541378Y343017D01*
X541422Y343107D01*
X541462Y343198D01*
X541498Y343291D01*
X541531Y343385D01*
X541560Y343481D01*
X541585Y343577D01*
X541606Y343674D01*
X541624Y343773D01*
X541637Y343871D01*
X541647Y343971D01*
X541653Y344070D01*
X541655Y344170D01*
X541653Y344270D01*
X541647Y344369D01*
X541637Y344469D01*
X541624Y344567D01*
X541606Y344666D01*
X541585Y344763D01*
X541560Y344859D01*
X541531Y344955D01*
X541498Y345049D01*
X541462Y345142D01*
X541422Y345233D01*
X541378Y345323D01*
X541331Y345411D01*
X541281Y345497D01*
X541227Y345581D01*
X541170Y345663D01*
X541110Y345742D01*
X541046Y345820D01*
X540980Y345894D01*
X540911Y345966D01*
X540839Y346035D01*
X540765Y346101D01*
X540687Y346165D01*
X540608Y346225D01*
X540526Y346282D01*
X540442Y346336D01*
X540356Y346386D01*
X540268Y346433D01*
X540178Y346477D01*
X540087Y346517D01*
X539994Y346553D01*
X539900Y346586D01*
X539804Y346615D01*
X539708Y346640D01*
X539611Y346661D01*
X539512Y346679D01*
X539414Y346692D01*
X539314Y346702D01*
X539215Y346708D01*
X539115Y346710D01*
X549275Y469646D02*
X549273Y469746D01*
X549267Y469845D01*
X549257Y469945D01*
X549244Y470043D01*
X549226Y470142D01*
X549205Y470239D01*
X549180Y470335D01*
X549151Y470431D01*
X549118Y470525D01*
X549082Y470618D01*
X549042Y470709D01*
X548998Y470799D01*
X548951Y470887D01*
X548901Y470973D01*
X548847Y471057D01*
X548790Y471139D01*
X548730Y471218D01*
X548666Y471296D01*
X548600Y471370D01*
X548531Y471442D01*
X548459Y471511D01*
X548385Y471577D01*
X548307Y471641D01*
X548228Y471701D01*
X548146Y471758D01*
X548062Y471812D01*
X547976Y471862D01*
X547888Y471909D01*
X547798Y471953D01*
X547707Y471993D01*
X547614Y472029D01*
X547520Y472062D01*
X547424Y472091D01*
X547328Y472116D01*
X547231Y472137D01*
X547132Y472155D01*
X547034Y472168D01*
X546934Y472178D01*
X546835Y472184D01*
X546735Y472186D01*
X549275Y469646D02*
X549273Y469505D01*
X549268Y469364D01*
X549258Y469223D01*
X549245Y469082D01*
X549229Y468942D01*
X549208Y468802D01*
X549184Y468663D01*
X549156Y468524D01*
X549125Y468387D01*
X549090Y468250D01*
X549052Y468114D01*
X549010Y467979D01*
X548964Y467846D01*
X548915Y467713D01*
X548862Y467582D01*
X548806Y467453D01*
X548747Y467324D01*
X548684Y467198D01*
X548618Y467073D01*
X548549Y466950D01*
X548476Y466829D01*
X548400Y466710D01*
X548321Y466592D01*
X548240Y466477D01*
X548155Y466365D01*
X548067Y466254D01*
X547976Y466146D01*
X547883Y466040D01*
X547786Y465937D01*
X547687Y465836D01*
X540385Y466154D02*
X540285Y466156D01*
X540186Y466162D01*
X540086Y466172D01*
X539988Y466185D01*
X539889Y466203D01*
X539792Y466224D01*
X539696Y466249D01*
X539600Y466278D01*
X539506Y466311D01*
X539413Y466347D01*
X539322Y466387D01*
X539232Y466431D01*
X539144Y466478D01*
X539058Y466528D01*
X538974Y466582D01*
X538892Y466639D01*
X538813Y466699D01*
X538735Y466763D01*
X538661Y466829D01*
X538589Y466898D01*
X538520Y466970D01*
X538454Y467044D01*
X538390Y467122D01*
X538330Y467201D01*
X538273Y467283D01*
X538219Y467367D01*
X538169Y467453D01*
X538122Y467541D01*
X538078Y467631D01*
X538038Y467722D01*
X538002Y467815D01*
X537969Y467909D01*
X537940Y468005D01*
X537915Y468101D01*
X537894Y468198D01*
X537876Y468297D01*
X537863Y468395D01*
X537853Y468495D01*
X537847Y468594D01*
X537845Y468694D01*
X537847Y468827D01*
X537852Y468960D01*
X537862Y469093D01*
X537875Y469226D01*
X537892Y469358D01*
X537912Y469490D01*
X537936Y469621D01*
X537964Y469751D01*
X537995Y469881D01*
X538030Y470009D01*
X538069Y470137D01*
X538111Y470263D01*
X538157Y470388D01*
X538206Y470512D01*
X538258Y470635D01*
X538314Y470756D01*
X538374Y470875D01*
X538436Y470993D01*
X538502Y471108D01*
X538571Y471222D01*
X538644Y471334D01*
X538719Y471444D01*
X538798Y471552D01*
X542608Y467423D02*
X542556Y467339D01*
X542501Y467256D01*
X542442Y467176D01*
X542381Y467098D01*
X542317Y467023D01*
X542249Y466950D01*
X542179Y466879D01*
X542107Y466812D01*
X542032Y466747D01*
X541954Y466685D01*
X541874Y466626D01*
X541792Y466570D01*
X541708Y466518D01*
X541622Y466469D01*
X541534Y466423D01*
X541444Y466380D01*
X541353Y466341D01*
X541260Y466306D01*
X541166Y466274D01*
X541071Y466246D01*
X540975Y466221D01*
X540878Y466201D01*
X540780Y466183D01*
X540682Y466170D01*
X540583Y466161D01*
X540484Y466155D01*
X540385Y466153D01*
X544512Y470916D02*
X544564Y471000D01*
X544619Y471083D01*
X544678Y471163D01*
X544739Y471241D01*
X544803Y471316D01*
X544871Y471389D01*
X544941Y471460D01*
X545013Y471527D01*
X545088Y471592D01*
X545166Y471654D01*
X545246Y471713D01*
X545328Y471769D01*
X545412Y471821D01*
X545498Y471870D01*
X545586Y471916D01*
X545676Y471959D01*
X545767Y471998D01*
X545860Y472033D01*
X545954Y472065D01*
X546049Y472093D01*
X546145Y472118D01*
X546242Y472138D01*
X546340Y472156D01*
X546438Y472169D01*
X546537Y472178D01*
X546636Y472184D01*
X546735Y472186D01*
X544513Y470916D02*
X542608Y467424D01*
X537845Y476250D02*
X549275Y480060D01*
X537845Y483870D01*
X549275Y488315D02*
X549275Y492125D01*
X549273Y492225D01*
X549267Y492324D01*
X549257Y492424D01*
X549244Y492522D01*
X549226Y492621D01*
X549205Y492718D01*
X549180Y492814D01*
X549151Y492910D01*
X549118Y493004D01*
X549082Y493097D01*
X549042Y493188D01*
X548998Y493278D01*
X548951Y493366D01*
X548901Y493452D01*
X548847Y493536D01*
X548790Y493618D01*
X548730Y493697D01*
X548666Y493775D01*
X548600Y493849D01*
X548531Y493921D01*
X548459Y493990D01*
X548385Y494056D01*
X548307Y494120D01*
X548228Y494180D01*
X548146Y494237D01*
X548062Y494291D01*
X547976Y494341D01*
X547888Y494388D01*
X547798Y494432D01*
X547707Y494472D01*
X547614Y494508D01*
X547520Y494541D01*
X547424Y494570D01*
X547328Y494595D01*
X547231Y494616D01*
X547132Y494634D01*
X547034Y494647D01*
X546934Y494657D01*
X546835Y494663D01*
X546735Y494665D01*
X545465Y494665D01*
X545365Y494663D01*
X545266Y494657D01*
X545166Y494647D01*
X545068Y494634D01*
X544969Y494616D01*
X544872Y494595D01*
X544776Y494570D01*
X544680Y494541D01*
X544586Y494508D01*
X544493Y494472D01*
X544402Y494432D01*
X544312Y494388D01*
X544224Y494341D01*
X544138Y494291D01*
X544054Y494237D01*
X543972Y494180D01*
X543893Y494120D01*
X543815Y494056D01*
X543741Y493990D01*
X543669Y493921D01*
X543600Y493849D01*
X543534Y493775D01*
X543470Y493697D01*
X543410Y493618D01*
X543353Y493536D01*
X543299Y493452D01*
X543249Y493366D01*
X543202Y493278D01*
X543158Y493188D01*
X543118Y493097D01*
X543082Y493004D01*
X543049Y492910D01*
X543020Y492814D01*
X542995Y492718D01*
X542974Y492621D01*
X542956Y492522D01*
X542943Y492424D01*
X542933Y492324D01*
X542927Y492225D01*
X542925Y492125D01*
X542925Y488315D01*
X537845Y488315D01*
X537845Y494665D01*
D10*
X406400Y533400D02*
X381000Y533400D01*
X381000Y510540D01*
X383540Y508000D01*
X381000Y505460D01*
X381000Y485140D01*
X383540Y482600D01*
X381000Y480060D01*
X381000Y459740D01*
X383540Y457200D01*
X381000Y454660D01*
X381000Y434340D01*
X383540Y431800D01*
X381000Y429260D01*
X403860Y431800D02*
X406400Y429260D01*
X403860Y431800D02*
X406400Y434340D01*
X406400Y454660D01*
X403860Y457200D01*
X406400Y459740D01*
X406400Y480060D01*
X403860Y482600D01*
X406400Y485140D01*
X406400Y505460D01*
X403860Y508000D01*
X406400Y510540D01*
X406400Y533400D01*
X381000Y429260D02*
X381000Y408940D01*
X383540Y406400D01*
X381000Y403860D01*
X381000Y383540D01*
X383540Y381000D01*
X381000Y378460D01*
X403860Y381000D02*
X406400Y378460D01*
X403860Y381000D02*
X406400Y383540D01*
X406400Y403860D01*
X403860Y406400D01*
X406400Y408940D01*
X406400Y429260D01*
X406400Y353060D02*
X406400Y330200D01*
X381000Y330200D01*
X381000Y353060D01*
X403860Y355600D02*
X406400Y358140D01*
X403860Y355600D02*
X406400Y353060D01*
X406400Y358140D02*
X406400Y378460D01*
X383540Y355600D02*
X381000Y353060D01*
X383540Y355600D02*
X381000Y358140D01*
X381000Y378460D01*
D11*
X412115Y518795D02*
X409575Y521970D01*
X421005Y521970D01*
X421005Y518795D02*
X421005Y525145D01*
X417830Y347345D02*
X417719Y347343D01*
X417609Y347337D01*
X417498Y347328D01*
X417388Y347314D01*
X417279Y347297D01*
X417170Y347276D01*
X417062Y347251D01*
X416955Y347222D01*
X416849Y347190D01*
X416744Y347154D01*
X416641Y347114D01*
X416539Y347071D01*
X416438Y347024D01*
X416339Y346973D01*
X416243Y346920D01*
X416148Y346863D01*
X416055Y346802D01*
X415964Y346739D01*
X415875Y346672D01*
X415789Y346602D01*
X415706Y346529D01*
X415624Y346454D01*
X415546Y346376D01*
X415471Y346294D01*
X415398Y346211D01*
X415328Y346125D01*
X415261Y346036D01*
X415198Y345945D01*
X415137Y345852D01*
X415080Y345758D01*
X415027Y345661D01*
X414976Y345562D01*
X414929Y345461D01*
X414886Y345359D01*
X414846Y345256D01*
X414810Y345151D01*
X414778Y345045D01*
X414749Y344938D01*
X414724Y344830D01*
X414703Y344721D01*
X414686Y344612D01*
X414672Y344502D01*
X414663Y344391D01*
X414657Y344281D01*
X414655Y344170D01*
X414657Y344059D01*
X414663Y343949D01*
X414672Y343838D01*
X414686Y343728D01*
X414703Y343619D01*
X414724Y343510D01*
X414749Y343402D01*
X414778Y343295D01*
X414810Y343189D01*
X414846Y343084D01*
X414886Y342981D01*
X414929Y342879D01*
X414976Y342778D01*
X415027Y342679D01*
X415080Y342583D01*
X415137Y342488D01*
X415198Y342395D01*
X415261Y342304D01*
X415328Y342215D01*
X415398Y342129D01*
X415471Y342046D01*
X415546Y341964D01*
X415624Y341886D01*
X415706Y341811D01*
X415789Y341738D01*
X415875Y341668D01*
X415964Y341601D01*
X416055Y341538D01*
X416148Y341477D01*
X416243Y341420D01*
X416339Y341367D01*
X416438Y341316D01*
X416539Y341269D01*
X416641Y341226D01*
X416744Y341186D01*
X416849Y341150D01*
X416955Y341118D01*
X417062Y341089D01*
X417170Y341064D01*
X417279Y341043D01*
X417388Y341026D01*
X417498Y341012D01*
X417609Y341003D01*
X417719Y340997D01*
X417830Y340995D01*
X417941Y340997D01*
X418051Y341003D01*
X418162Y341012D01*
X418272Y341026D01*
X418381Y341043D01*
X418490Y341064D01*
X418598Y341089D01*
X418705Y341118D01*
X418811Y341150D01*
X418916Y341186D01*
X419019Y341226D01*
X419121Y341269D01*
X419222Y341316D01*
X419321Y341367D01*
X419418Y341420D01*
X419512Y341477D01*
X419605Y341538D01*
X419696Y341601D01*
X419785Y341668D01*
X419871Y341738D01*
X419954Y341811D01*
X420036Y341886D01*
X420114Y341964D01*
X420189Y342046D01*
X420262Y342129D01*
X420332Y342215D01*
X420399Y342304D01*
X420462Y342395D01*
X420523Y342488D01*
X420580Y342582D01*
X420633Y342679D01*
X420684Y342778D01*
X420731Y342879D01*
X420774Y342981D01*
X420814Y343084D01*
X420850Y343189D01*
X420882Y343295D01*
X420911Y343402D01*
X420936Y343510D01*
X420957Y343619D01*
X420974Y343728D01*
X420988Y343838D01*
X420997Y343949D01*
X421003Y344059D01*
X421005Y344170D01*
X421003Y344281D01*
X420997Y344391D01*
X420988Y344502D01*
X420974Y344612D01*
X420957Y344721D01*
X420936Y344830D01*
X420911Y344938D01*
X420882Y345045D01*
X420850Y345151D01*
X420814Y345256D01*
X420774Y345359D01*
X420731Y345461D01*
X420684Y345562D01*
X420633Y345661D01*
X420580Y345757D01*
X420523Y345852D01*
X420462Y345945D01*
X420399Y346036D01*
X420332Y346125D01*
X420262Y346211D01*
X420189Y346294D01*
X420114Y346376D01*
X420036Y346454D01*
X419954Y346529D01*
X419871Y346602D01*
X419785Y346672D01*
X419696Y346739D01*
X419605Y346802D01*
X419512Y346863D01*
X419418Y346920D01*
X419321Y346973D01*
X419222Y347024D01*
X419121Y347071D01*
X419019Y347114D01*
X418916Y347154D01*
X418811Y347190D01*
X418705Y347222D01*
X418598Y347251D01*
X418490Y347276D01*
X418381Y347297D01*
X418272Y347314D01*
X418162Y347328D01*
X418051Y347337D01*
X417941Y347343D01*
X417830Y347345D01*
X412115Y346710D02*
X412015Y346708D01*
X411916Y346702D01*
X411816Y346692D01*
X411718Y346679D01*
X411619Y346661D01*
X411522Y346640D01*
X411426Y346615D01*
X411330Y346586D01*
X411236Y346553D01*
X411143Y346517D01*
X411052Y346477D01*
X410962Y346433D01*
X410874Y346386D01*
X410788Y346336D01*
X410704Y346282D01*
X410622Y346225D01*
X410543Y346165D01*
X410465Y346101D01*
X410391Y346035D01*
X410319Y345966D01*
X410250Y345894D01*
X410184Y345820D01*
X410120Y345742D01*
X410060Y345663D01*
X410003Y345581D01*
X409949Y345497D01*
X409899Y345411D01*
X409852Y345323D01*
X409808Y345233D01*
X409768Y345142D01*
X409732Y345049D01*
X409699Y344955D01*
X409670Y344859D01*
X409645Y344763D01*
X409624Y344666D01*
X409606Y344567D01*
X409593Y344469D01*
X409583Y344369D01*
X409577Y344270D01*
X409575Y344170D01*
X409577Y344070D01*
X409583Y343971D01*
X409593Y343871D01*
X409606Y343773D01*
X409624Y343674D01*
X409645Y343577D01*
X409670Y343481D01*
X409699Y343385D01*
X409732Y343291D01*
X409768Y343198D01*
X409808Y343107D01*
X409852Y343017D01*
X409899Y342929D01*
X409949Y342843D01*
X410003Y342759D01*
X410060Y342677D01*
X410120Y342598D01*
X410184Y342520D01*
X410250Y342446D01*
X410319Y342374D01*
X410391Y342305D01*
X410465Y342239D01*
X410543Y342175D01*
X410622Y342115D01*
X410704Y342058D01*
X410788Y342004D01*
X410874Y341954D01*
X410962Y341907D01*
X411052Y341863D01*
X411143Y341823D01*
X411236Y341787D01*
X411330Y341754D01*
X411426Y341725D01*
X411522Y341700D01*
X411619Y341679D01*
X411718Y341661D01*
X411816Y341648D01*
X411916Y341638D01*
X412015Y341632D01*
X412115Y341630D01*
X412215Y341632D01*
X412314Y341638D01*
X412414Y341648D01*
X412512Y341661D01*
X412611Y341679D01*
X412708Y341700D01*
X412804Y341725D01*
X412900Y341754D01*
X412994Y341787D01*
X413087Y341823D01*
X413178Y341863D01*
X413268Y341907D01*
X413356Y341954D01*
X413442Y342004D01*
X413526Y342058D01*
X413608Y342115D01*
X413687Y342175D01*
X413765Y342239D01*
X413839Y342305D01*
X413911Y342374D01*
X413980Y342446D01*
X414046Y342520D01*
X414110Y342598D01*
X414170Y342677D01*
X414227Y342759D01*
X414281Y342843D01*
X414331Y342929D01*
X414378Y343017D01*
X414422Y343107D01*
X414462Y343198D01*
X414498Y343291D01*
X414531Y343385D01*
X414560Y343481D01*
X414585Y343577D01*
X414606Y343674D01*
X414624Y343773D01*
X414637Y343871D01*
X414647Y343971D01*
X414653Y344070D01*
X414655Y344170D01*
X414653Y344270D01*
X414647Y344369D01*
X414637Y344469D01*
X414624Y344567D01*
X414606Y344666D01*
X414585Y344763D01*
X414560Y344859D01*
X414531Y344955D01*
X414498Y345049D01*
X414462Y345142D01*
X414422Y345233D01*
X414378Y345323D01*
X414331Y345411D01*
X414281Y345497D01*
X414227Y345581D01*
X414170Y345663D01*
X414110Y345742D01*
X414046Y345820D01*
X413980Y345894D01*
X413911Y345966D01*
X413839Y346035D01*
X413765Y346101D01*
X413687Y346165D01*
X413608Y346225D01*
X413526Y346282D01*
X413442Y346336D01*
X413356Y346386D01*
X413268Y346433D01*
X413178Y346477D01*
X413087Y346517D01*
X412994Y346553D01*
X412900Y346586D01*
X412804Y346615D01*
X412708Y346640D01*
X412611Y346661D01*
X412512Y346679D01*
X412414Y346692D01*
X412314Y346702D01*
X412215Y346708D01*
X412115Y346710D01*
X422275Y469646D02*
X422273Y469746D01*
X422267Y469845D01*
X422257Y469945D01*
X422244Y470043D01*
X422226Y470142D01*
X422205Y470239D01*
X422180Y470335D01*
X422151Y470431D01*
X422118Y470525D01*
X422082Y470618D01*
X422042Y470709D01*
X421998Y470799D01*
X421951Y470887D01*
X421901Y470973D01*
X421847Y471057D01*
X421790Y471139D01*
X421730Y471218D01*
X421666Y471296D01*
X421600Y471370D01*
X421531Y471442D01*
X421459Y471511D01*
X421385Y471577D01*
X421307Y471641D01*
X421228Y471701D01*
X421146Y471758D01*
X421062Y471812D01*
X420976Y471862D01*
X420888Y471909D01*
X420798Y471953D01*
X420707Y471993D01*
X420614Y472029D01*
X420520Y472062D01*
X420424Y472091D01*
X420328Y472116D01*
X420231Y472137D01*
X420132Y472155D01*
X420034Y472168D01*
X419934Y472178D01*
X419835Y472184D01*
X419735Y472186D01*
X422275Y469646D02*
X422273Y469505D01*
X422268Y469364D01*
X422258Y469223D01*
X422245Y469082D01*
X422229Y468942D01*
X422208Y468802D01*
X422184Y468663D01*
X422156Y468524D01*
X422125Y468387D01*
X422090Y468250D01*
X422052Y468114D01*
X422010Y467979D01*
X421964Y467846D01*
X421915Y467713D01*
X421862Y467582D01*
X421806Y467453D01*
X421747Y467324D01*
X421684Y467198D01*
X421618Y467073D01*
X421549Y466950D01*
X421476Y466829D01*
X421400Y466710D01*
X421321Y466592D01*
X421240Y466477D01*
X421155Y466365D01*
X421067Y466254D01*
X420976Y466146D01*
X420883Y466040D01*
X420786Y465937D01*
X420687Y465836D01*
X413385Y466154D02*
X413285Y466156D01*
X413186Y466162D01*
X413086Y466172D01*
X412988Y466185D01*
X412889Y466203D01*
X412792Y466224D01*
X412696Y466249D01*
X412600Y466278D01*
X412506Y466311D01*
X412413Y466347D01*
X412322Y466387D01*
X412232Y466431D01*
X412144Y466478D01*
X412058Y466528D01*
X411974Y466582D01*
X411892Y466639D01*
X411813Y466699D01*
X411735Y466763D01*
X411661Y466829D01*
X411589Y466898D01*
X411520Y466970D01*
X411454Y467044D01*
X411390Y467122D01*
X411330Y467201D01*
X411273Y467283D01*
X411219Y467367D01*
X411169Y467453D01*
X411122Y467541D01*
X411078Y467631D01*
X411038Y467722D01*
X411002Y467815D01*
X410969Y467909D01*
X410940Y468005D01*
X410915Y468101D01*
X410894Y468198D01*
X410876Y468297D01*
X410863Y468395D01*
X410853Y468495D01*
X410847Y468594D01*
X410845Y468694D01*
X410847Y468827D01*
X410852Y468960D01*
X410862Y469093D01*
X410875Y469226D01*
X410892Y469358D01*
X410912Y469490D01*
X410936Y469621D01*
X410964Y469751D01*
X410995Y469881D01*
X411030Y470009D01*
X411069Y470137D01*
X411111Y470263D01*
X411157Y470388D01*
X411206Y470512D01*
X411258Y470635D01*
X411314Y470756D01*
X411374Y470875D01*
X411436Y470993D01*
X411502Y471108D01*
X411571Y471222D01*
X411644Y471334D01*
X411719Y471444D01*
X411798Y471552D01*
X415608Y467423D02*
X415556Y467339D01*
X415501Y467256D01*
X415442Y467176D01*
X415381Y467098D01*
X415317Y467023D01*
X415249Y466950D01*
X415179Y466879D01*
X415107Y466812D01*
X415032Y466747D01*
X414954Y466685D01*
X414874Y466626D01*
X414792Y466570D01*
X414708Y466518D01*
X414622Y466469D01*
X414534Y466423D01*
X414444Y466380D01*
X414353Y466341D01*
X414260Y466306D01*
X414166Y466274D01*
X414071Y466246D01*
X413975Y466221D01*
X413878Y466201D01*
X413780Y466183D01*
X413682Y466170D01*
X413583Y466161D01*
X413484Y466155D01*
X413385Y466153D01*
X417512Y470916D02*
X417564Y471000D01*
X417619Y471083D01*
X417678Y471163D01*
X417739Y471241D01*
X417803Y471316D01*
X417871Y471389D01*
X417941Y471460D01*
X418013Y471527D01*
X418088Y471592D01*
X418166Y471654D01*
X418246Y471713D01*
X418328Y471769D01*
X418412Y471821D01*
X418498Y471870D01*
X418586Y471916D01*
X418676Y471959D01*
X418767Y471998D01*
X418860Y472033D01*
X418954Y472065D01*
X419049Y472093D01*
X419145Y472118D01*
X419242Y472138D01*
X419340Y472156D01*
X419438Y472169D01*
X419537Y472178D01*
X419636Y472184D01*
X419735Y472186D01*
X417513Y470916D02*
X415608Y467424D01*
X410845Y476250D02*
X422275Y480060D01*
X410845Y483870D01*
X415925Y488315D02*
X415925Y492125D01*
X415927Y492225D01*
X415933Y492324D01*
X415943Y492424D01*
X415956Y492522D01*
X415974Y492621D01*
X415995Y492718D01*
X416020Y492814D01*
X416049Y492910D01*
X416082Y493004D01*
X416118Y493097D01*
X416158Y493188D01*
X416202Y493278D01*
X416249Y493366D01*
X416299Y493452D01*
X416353Y493536D01*
X416410Y493618D01*
X416470Y493697D01*
X416534Y493775D01*
X416600Y493849D01*
X416669Y493921D01*
X416741Y493990D01*
X416815Y494056D01*
X416893Y494120D01*
X416972Y494180D01*
X417054Y494237D01*
X417138Y494291D01*
X417224Y494341D01*
X417312Y494388D01*
X417402Y494432D01*
X417493Y494472D01*
X417586Y494508D01*
X417680Y494541D01*
X417776Y494570D01*
X417872Y494595D01*
X417969Y494616D01*
X418068Y494634D01*
X418166Y494647D01*
X418266Y494657D01*
X418365Y494663D01*
X418465Y494665D01*
X419100Y494665D01*
X419211Y494663D01*
X419321Y494657D01*
X419432Y494648D01*
X419542Y494634D01*
X419651Y494617D01*
X419760Y494596D01*
X419868Y494571D01*
X419975Y494542D01*
X420081Y494510D01*
X420186Y494474D01*
X420289Y494434D01*
X420391Y494391D01*
X420492Y494344D01*
X420591Y494293D01*
X420688Y494240D01*
X420782Y494183D01*
X420875Y494122D01*
X420966Y494059D01*
X421055Y493992D01*
X421141Y493922D01*
X421224Y493849D01*
X421306Y493774D01*
X421384Y493696D01*
X421459Y493614D01*
X421532Y493531D01*
X421602Y493445D01*
X421669Y493356D01*
X421732Y493265D01*
X421793Y493172D01*
X421850Y493077D01*
X421903Y492981D01*
X421954Y492882D01*
X422001Y492781D01*
X422044Y492679D01*
X422084Y492576D01*
X422120Y492471D01*
X422152Y492365D01*
X422181Y492258D01*
X422206Y492150D01*
X422227Y492041D01*
X422244Y491932D01*
X422258Y491822D01*
X422267Y491711D01*
X422273Y491601D01*
X422275Y491490D01*
X422273Y491379D01*
X422267Y491269D01*
X422258Y491158D01*
X422244Y491048D01*
X422227Y490939D01*
X422206Y490830D01*
X422181Y490722D01*
X422152Y490615D01*
X422120Y490509D01*
X422084Y490404D01*
X422044Y490301D01*
X422001Y490199D01*
X421954Y490098D01*
X421903Y489999D01*
X421850Y489902D01*
X421793Y489808D01*
X421732Y489715D01*
X421669Y489624D01*
X421602Y489535D01*
X421532Y489449D01*
X421459Y489366D01*
X421384Y489284D01*
X421306Y489206D01*
X421224Y489131D01*
X421141Y489058D01*
X421055Y488988D01*
X420966Y488921D01*
X420875Y488858D01*
X420782Y488797D01*
X420688Y488740D01*
X420591Y488687D01*
X420492Y488636D01*
X420391Y488589D01*
X420289Y488546D01*
X420186Y488506D01*
X420081Y488470D01*
X419975Y488438D01*
X419868Y488409D01*
X419760Y488384D01*
X419651Y488363D01*
X419542Y488346D01*
X419432Y488332D01*
X419321Y488323D01*
X419211Y488317D01*
X419100Y488315D01*
X415925Y488315D01*
X415785Y488317D01*
X415645Y488323D01*
X415505Y488332D01*
X415366Y488346D01*
X415227Y488363D01*
X415089Y488384D01*
X414951Y488409D01*
X414814Y488438D01*
X414678Y488470D01*
X414543Y488507D01*
X414409Y488547D01*
X414276Y488590D01*
X414144Y488638D01*
X414013Y488688D01*
X413884Y488743D01*
X413757Y488801D01*
X413631Y488862D01*
X413507Y488927D01*
X413385Y488996D01*
X413265Y489067D01*
X413147Y489142D01*
X413030Y489220D01*
X412916Y489302D01*
X412805Y489386D01*
X412696Y489474D01*
X412589Y489564D01*
X412484Y489658D01*
X412383Y489754D01*
X412284Y489853D01*
X412188Y489954D01*
X412094Y490059D01*
X412004Y490166D01*
X411916Y490275D01*
X411832Y490386D01*
X411750Y490500D01*
X411672Y490617D01*
X411597Y490735D01*
X411526Y490855D01*
X411457Y490977D01*
X411392Y491101D01*
X411331Y491227D01*
X411273Y491354D01*
X411218Y491483D01*
X411168Y491614D01*
X411120Y491746D01*
X411077Y491879D01*
X411037Y492013D01*
X411000Y492148D01*
X410968Y492284D01*
X410939Y492421D01*
X410914Y492559D01*
X410893Y492697D01*
X410876Y492836D01*
X410862Y492975D01*
X410853Y493115D01*
X410847Y493255D01*
X410845Y493395D01*
D10*
X355600Y533400D02*
X330200Y533400D01*
X330200Y510540D01*
X332740Y508000D01*
X330200Y505460D01*
X330200Y485140D01*
X332740Y482600D01*
X330200Y480060D01*
X330200Y459740D01*
X332740Y457200D01*
X330200Y454660D01*
X330200Y434340D01*
X332740Y431800D01*
X330200Y429260D01*
X353060Y431800D02*
X355600Y429260D01*
X353060Y431800D02*
X355600Y434340D01*
X355600Y454660D01*
X353060Y457200D01*
X355600Y459740D01*
X355600Y480060D01*
X353060Y482600D01*
X355600Y485140D01*
X355600Y505460D01*
X353060Y508000D01*
X355600Y510540D01*
X355600Y533400D01*
X330200Y429260D02*
X330200Y408940D01*
X332740Y406400D01*
X330200Y403860D01*
X330200Y383540D01*
X332740Y381000D01*
X330200Y378460D01*
X353060Y381000D02*
X355600Y378460D01*
X353060Y381000D02*
X355600Y383540D01*
X355600Y403860D01*
X353060Y406400D01*
X355600Y408940D01*
X355600Y429260D01*
X355600Y353060D02*
X355600Y330200D01*
X330200Y330200D01*
X330200Y353060D01*
X353060Y355600D02*
X355600Y358140D01*
X353060Y355600D02*
X355600Y353060D01*
X355600Y358140D02*
X355600Y378460D01*
X332740Y355600D02*
X330200Y353060D01*
X332740Y355600D02*
X330200Y358140D01*
X330200Y378460D01*
D11*
X361315Y518795D02*
X358775Y521970D01*
X370205Y521970D01*
X370205Y518795D02*
X370205Y525145D01*
X367030Y347345D02*
X366919Y347343D01*
X366809Y347337D01*
X366698Y347328D01*
X366588Y347314D01*
X366479Y347297D01*
X366370Y347276D01*
X366262Y347251D01*
X366155Y347222D01*
X366049Y347190D01*
X365944Y347154D01*
X365841Y347114D01*
X365739Y347071D01*
X365638Y347024D01*
X365539Y346973D01*
X365443Y346920D01*
X365348Y346863D01*
X365255Y346802D01*
X365164Y346739D01*
X365075Y346672D01*
X364989Y346602D01*
X364906Y346529D01*
X364824Y346454D01*
X364746Y346376D01*
X364671Y346294D01*
X364598Y346211D01*
X364528Y346125D01*
X364461Y346036D01*
X364398Y345945D01*
X364337Y345852D01*
X364280Y345758D01*
X364227Y345661D01*
X364176Y345562D01*
X364129Y345461D01*
X364086Y345359D01*
X364046Y345256D01*
X364010Y345151D01*
X363978Y345045D01*
X363949Y344938D01*
X363924Y344830D01*
X363903Y344721D01*
X363886Y344612D01*
X363872Y344502D01*
X363863Y344391D01*
X363857Y344281D01*
X363855Y344170D01*
X363857Y344059D01*
X363863Y343949D01*
X363872Y343838D01*
X363886Y343728D01*
X363903Y343619D01*
X363924Y343510D01*
X363949Y343402D01*
X363978Y343295D01*
X364010Y343189D01*
X364046Y343084D01*
X364086Y342981D01*
X364129Y342879D01*
X364176Y342778D01*
X364227Y342679D01*
X364280Y342583D01*
X364337Y342488D01*
X364398Y342395D01*
X364461Y342304D01*
X364528Y342215D01*
X364598Y342129D01*
X364671Y342046D01*
X364746Y341964D01*
X364824Y341886D01*
X364906Y341811D01*
X364989Y341738D01*
X365075Y341668D01*
X365164Y341601D01*
X365255Y341538D01*
X365348Y341477D01*
X365443Y341420D01*
X365539Y341367D01*
X365638Y341316D01*
X365739Y341269D01*
X365841Y341226D01*
X365944Y341186D01*
X366049Y341150D01*
X366155Y341118D01*
X366262Y341089D01*
X366370Y341064D01*
X366479Y341043D01*
X366588Y341026D01*
X366698Y341012D01*
X366809Y341003D01*
X366919Y340997D01*
X367030Y340995D01*
X367141Y340997D01*
X367251Y341003D01*
X367362Y341012D01*
X367472Y341026D01*
X367581Y341043D01*
X367690Y341064D01*
X367798Y341089D01*
X367905Y341118D01*
X368011Y341150D01*
X368116Y341186D01*
X368219Y341226D01*
X368321Y341269D01*
X368422Y341316D01*
X368521Y341367D01*
X368618Y341420D01*
X368712Y341477D01*
X368805Y341538D01*
X368896Y341601D01*
X368985Y341668D01*
X369071Y341738D01*
X369154Y341811D01*
X369236Y341886D01*
X369314Y341964D01*
X369389Y342046D01*
X369462Y342129D01*
X369532Y342215D01*
X369599Y342304D01*
X369662Y342395D01*
X369723Y342488D01*
X369780Y342582D01*
X369833Y342679D01*
X369884Y342778D01*
X369931Y342879D01*
X369974Y342981D01*
X370014Y343084D01*
X370050Y343189D01*
X370082Y343295D01*
X370111Y343402D01*
X370136Y343510D01*
X370157Y343619D01*
X370174Y343728D01*
X370188Y343838D01*
X370197Y343949D01*
X370203Y344059D01*
X370205Y344170D01*
X370203Y344281D01*
X370197Y344391D01*
X370188Y344502D01*
X370174Y344612D01*
X370157Y344721D01*
X370136Y344830D01*
X370111Y344938D01*
X370082Y345045D01*
X370050Y345151D01*
X370014Y345256D01*
X369974Y345359D01*
X369931Y345461D01*
X369884Y345562D01*
X369833Y345661D01*
X369780Y345757D01*
X369723Y345852D01*
X369662Y345945D01*
X369599Y346036D01*
X369532Y346125D01*
X369462Y346211D01*
X369389Y346294D01*
X369314Y346376D01*
X369236Y346454D01*
X369154Y346529D01*
X369071Y346602D01*
X368985Y346672D01*
X368896Y346739D01*
X368805Y346802D01*
X368712Y346863D01*
X368618Y346920D01*
X368521Y346973D01*
X368422Y347024D01*
X368321Y347071D01*
X368219Y347114D01*
X368116Y347154D01*
X368011Y347190D01*
X367905Y347222D01*
X367798Y347251D01*
X367690Y347276D01*
X367581Y347297D01*
X367472Y347314D01*
X367362Y347328D01*
X367251Y347337D01*
X367141Y347343D01*
X367030Y347345D01*
X361315Y346710D02*
X361215Y346708D01*
X361116Y346702D01*
X361016Y346692D01*
X360918Y346679D01*
X360819Y346661D01*
X360722Y346640D01*
X360626Y346615D01*
X360530Y346586D01*
X360436Y346553D01*
X360343Y346517D01*
X360252Y346477D01*
X360162Y346433D01*
X360074Y346386D01*
X359988Y346336D01*
X359904Y346282D01*
X359822Y346225D01*
X359743Y346165D01*
X359665Y346101D01*
X359591Y346035D01*
X359519Y345966D01*
X359450Y345894D01*
X359384Y345820D01*
X359320Y345742D01*
X359260Y345663D01*
X359203Y345581D01*
X359149Y345497D01*
X359099Y345411D01*
X359052Y345323D01*
X359008Y345233D01*
X358968Y345142D01*
X358932Y345049D01*
X358899Y344955D01*
X358870Y344859D01*
X358845Y344763D01*
X358824Y344666D01*
X358806Y344567D01*
X358793Y344469D01*
X358783Y344369D01*
X358777Y344270D01*
X358775Y344170D01*
X358777Y344070D01*
X358783Y343971D01*
X358793Y343871D01*
X358806Y343773D01*
X358824Y343674D01*
X358845Y343577D01*
X358870Y343481D01*
X358899Y343385D01*
X358932Y343291D01*
X358968Y343198D01*
X359008Y343107D01*
X359052Y343017D01*
X359099Y342929D01*
X359149Y342843D01*
X359203Y342759D01*
X359260Y342677D01*
X359320Y342598D01*
X359384Y342520D01*
X359450Y342446D01*
X359519Y342374D01*
X359591Y342305D01*
X359665Y342239D01*
X359743Y342175D01*
X359822Y342115D01*
X359904Y342058D01*
X359988Y342004D01*
X360074Y341954D01*
X360162Y341907D01*
X360252Y341863D01*
X360343Y341823D01*
X360436Y341787D01*
X360530Y341754D01*
X360626Y341725D01*
X360722Y341700D01*
X360819Y341679D01*
X360918Y341661D01*
X361016Y341648D01*
X361116Y341638D01*
X361215Y341632D01*
X361315Y341630D01*
X361415Y341632D01*
X361514Y341638D01*
X361614Y341648D01*
X361712Y341661D01*
X361811Y341679D01*
X361908Y341700D01*
X362004Y341725D01*
X362100Y341754D01*
X362194Y341787D01*
X362287Y341823D01*
X362378Y341863D01*
X362468Y341907D01*
X362556Y341954D01*
X362642Y342004D01*
X362726Y342058D01*
X362808Y342115D01*
X362887Y342175D01*
X362965Y342239D01*
X363039Y342305D01*
X363111Y342374D01*
X363180Y342446D01*
X363246Y342520D01*
X363310Y342598D01*
X363370Y342677D01*
X363427Y342759D01*
X363481Y342843D01*
X363531Y342929D01*
X363578Y343017D01*
X363622Y343107D01*
X363662Y343198D01*
X363698Y343291D01*
X363731Y343385D01*
X363760Y343481D01*
X363785Y343577D01*
X363806Y343674D01*
X363824Y343773D01*
X363837Y343871D01*
X363847Y343971D01*
X363853Y344070D01*
X363855Y344170D01*
X363853Y344270D01*
X363847Y344369D01*
X363837Y344469D01*
X363824Y344567D01*
X363806Y344666D01*
X363785Y344763D01*
X363760Y344859D01*
X363731Y344955D01*
X363698Y345049D01*
X363662Y345142D01*
X363622Y345233D01*
X363578Y345323D01*
X363531Y345411D01*
X363481Y345497D01*
X363427Y345581D01*
X363370Y345663D01*
X363310Y345742D01*
X363246Y345820D01*
X363180Y345894D01*
X363111Y345966D01*
X363039Y346035D01*
X362965Y346101D01*
X362887Y346165D01*
X362808Y346225D01*
X362726Y346282D01*
X362642Y346336D01*
X362556Y346386D01*
X362468Y346433D01*
X362378Y346477D01*
X362287Y346517D01*
X362194Y346553D01*
X362100Y346586D01*
X362004Y346615D01*
X361908Y346640D01*
X361811Y346661D01*
X361712Y346679D01*
X361614Y346692D01*
X361514Y346702D01*
X361415Y346708D01*
X361315Y346710D01*
X371475Y469646D02*
X371473Y469746D01*
X371467Y469845D01*
X371457Y469945D01*
X371444Y470043D01*
X371426Y470142D01*
X371405Y470239D01*
X371380Y470335D01*
X371351Y470431D01*
X371318Y470525D01*
X371282Y470618D01*
X371242Y470709D01*
X371198Y470799D01*
X371151Y470887D01*
X371101Y470973D01*
X371047Y471057D01*
X370990Y471139D01*
X370930Y471218D01*
X370866Y471296D01*
X370800Y471370D01*
X370731Y471442D01*
X370659Y471511D01*
X370585Y471577D01*
X370507Y471641D01*
X370428Y471701D01*
X370346Y471758D01*
X370262Y471812D01*
X370176Y471862D01*
X370088Y471909D01*
X369998Y471953D01*
X369907Y471993D01*
X369814Y472029D01*
X369720Y472062D01*
X369624Y472091D01*
X369528Y472116D01*
X369431Y472137D01*
X369332Y472155D01*
X369234Y472168D01*
X369134Y472178D01*
X369035Y472184D01*
X368935Y472186D01*
X371475Y469646D02*
X371473Y469505D01*
X371468Y469364D01*
X371458Y469223D01*
X371445Y469082D01*
X371429Y468942D01*
X371408Y468802D01*
X371384Y468663D01*
X371356Y468524D01*
X371325Y468387D01*
X371290Y468250D01*
X371252Y468114D01*
X371210Y467979D01*
X371164Y467846D01*
X371115Y467713D01*
X371062Y467582D01*
X371006Y467453D01*
X370947Y467324D01*
X370884Y467198D01*
X370818Y467073D01*
X370749Y466950D01*
X370676Y466829D01*
X370600Y466710D01*
X370521Y466592D01*
X370440Y466477D01*
X370355Y466365D01*
X370267Y466254D01*
X370176Y466146D01*
X370083Y466040D01*
X369986Y465937D01*
X369887Y465836D01*
X362585Y466154D02*
X362485Y466156D01*
X362386Y466162D01*
X362286Y466172D01*
X362188Y466185D01*
X362089Y466203D01*
X361992Y466224D01*
X361896Y466249D01*
X361800Y466278D01*
X361706Y466311D01*
X361613Y466347D01*
X361522Y466387D01*
X361432Y466431D01*
X361344Y466478D01*
X361258Y466528D01*
X361174Y466582D01*
X361092Y466639D01*
X361013Y466699D01*
X360935Y466763D01*
X360861Y466829D01*
X360789Y466898D01*
X360720Y466970D01*
X360654Y467044D01*
X360590Y467122D01*
X360530Y467201D01*
X360473Y467283D01*
X360419Y467367D01*
X360369Y467453D01*
X360322Y467541D01*
X360278Y467631D01*
X360238Y467722D01*
X360202Y467815D01*
X360169Y467909D01*
X360140Y468005D01*
X360115Y468101D01*
X360094Y468198D01*
X360076Y468297D01*
X360063Y468395D01*
X360053Y468495D01*
X360047Y468594D01*
X360045Y468694D01*
X360047Y468827D01*
X360052Y468960D01*
X360062Y469093D01*
X360075Y469226D01*
X360092Y469358D01*
X360112Y469490D01*
X360136Y469621D01*
X360164Y469751D01*
X360195Y469881D01*
X360230Y470009D01*
X360269Y470137D01*
X360311Y470263D01*
X360357Y470388D01*
X360406Y470512D01*
X360458Y470635D01*
X360514Y470756D01*
X360574Y470875D01*
X360636Y470993D01*
X360702Y471108D01*
X360771Y471222D01*
X360844Y471334D01*
X360919Y471444D01*
X360998Y471552D01*
X364808Y467423D02*
X364756Y467339D01*
X364701Y467256D01*
X364642Y467176D01*
X364581Y467098D01*
X364517Y467023D01*
X364449Y466950D01*
X364379Y466879D01*
X364307Y466812D01*
X364232Y466747D01*
X364154Y466685D01*
X364074Y466626D01*
X363992Y466570D01*
X363908Y466518D01*
X363822Y466469D01*
X363734Y466423D01*
X363644Y466380D01*
X363553Y466341D01*
X363460Y466306D01*
X363366Y466274D01*
X363271Y466246D01*
X363175Y466221D01*
X363078Y466201D01*
X362980Y466183D01*
X362882Y466170D01*
X362783Y466161D01*
X362684Y466155D01*
X362585Y466153D01*
X366712Y470916D02*
X366764Y471000D01*
X366819Y471083D01*
X366878Y471163D01*
X366939Y471241D01*
X367003Y471316D01*
X367071Y471389D01*
X367141Y471460D01*
X367213Y471527D01*
X367288Y471592D01*
X367366Y471654D01*
X367446Y471713D01*
X367528Y471769D01*
X367612Y471821D01*
X367698Y471870D01*
X367786Y471916D01*
X367876Y471959D01*
X367967Y471998D01*
X368060Y472033D01*
X368154Y472065D01*
X368249Y472093D01*
X368345Y472118D01*
X368442Y472138D01*
X368540Y472156D01*
X368638Y472169D01*
X368737Y472178D01*
X368836Y472184D01*
X368935Y472186D01*
X366713Y470916D02*
X364808Y467424D01*
X360045Y476250D02*
X371475Y480060D01*
X360045Y483870D01*
X360045Y488315D02*
X361315Y488315D01*
X360045Y488315D02*
X360045Y494665D01*
X371475Y491490D01*
D10*
X228600Y533400D02*
X203200Y533400D01*
X203200Y510540D01*
X205740Y508000D01*
X203200Y505460D01*
X203200Y485140D01*
X205740Y482600D01*
X203200Y480060D01*
X203200Y459740D01*
X205740Y457200D01*
X203200Y454660D01*
X203200Y434340D01*
X205740Y431800D01*
X203200Y429260D01*
X226060Y431800D02*
X228600Y429260D01*
X226060Y431800D02*
X228600Y434340D01*
X228600Y454660D01*
X226060Y457200D01*
X228600Y459740D01*
X228600Y480060D01*
X226060Y482600D01*
X228600Y485140D01*
X228600Y505460D01*
X226060Y508000D01*
X228600Y510540D01*
X228600Y533400D01*
X203200Y429260D02*
X203200Y408940D01*
X205740Y406400D01*
X203200Y403860D01*
X203200Y383540D01*
X205740Y381000D01*
X203200Y378460D01*
X226060Y381000D02*
X228600Y378460D01*
X226060Y381000D02*
X228600Y383540D01*
X228600Y403860D01*
X226060Y406400D01*
X228600Y408940D01*
X228600Y429260D01*
X228600Y353060D02*
X228600Y330200D01*
X203200Y330200D01*
X203200Y353060D01*
X226060Y355600D02*
X228600Y358140D01*
X226060Y355600D02*
X228600Y353060D01*
X228600Y358140D02*
X228600Y378460D01*
X205740Y355600D02*
X203200Y353060D01*
X205740Y355600D02*
X203200Y358140D01*
X203200Y378460D01*
D11*
X234315Y518795D02*
X231775Y521970D01*
X243205Y521970D01*
X243205Y518795D02*
X243205Y525145D01*
X240030Y347345D02*
X239919Y347343D01*
X239809Y347337D01*
X239698Y347328D01*
X239588Y347314D01*
X239479Y347297D01*
X239370Y347276D01*
X239262Y347251D01*
X239155Y347222D01*
X239049Y347190D01*
X238944Y347154D01*
X238841Y347114D01*
X238739Y347071D01*
X238638Y347024D01*
X238539Y346973D01*
X238443Y346920D01*
X238348Y346863D01*
X238255Y346802D01*
X238164Y346739D01*
X238075Y346672D01*
X237989Y346602D01*
X237906Y346529D01*
X237824Y346454D01*
X237746Y346376D01*
X237671Y346294D01*
X237598Y346211D01*
X237528Y346125D01*
X237461Y346036D01*
X237398Y345945D01*
X237337Y345852D01*
X237280Y345758D01*
X237227Y345661D01*
X237176Y345562D01*
X237129Y345461D01*
X237086Y345359D01*
X237046Y345256D01*
X237010Y345151D01*
X236978Y345045D01*
X236949Y344938D01*
X236924Y344830D01*
X236903Y344721D01*
X236886Y344612D01*
X236872Y344502D01*
X236863Y344391D01*
X236857Y344281D01*
X236855Y344170D01*
X236857Y344059D01*
X236863Y343949D01*
X236872Y343838D01*
X236886Y343728D01*
X236903Y343619D01*
X236924Y343510D01*
X236949Y343402D01*
X236978Y343295D01*
X237010Y343189D01*
X237046Y343084D01*
X237086Y342981D01*
X237129Y342879D01*
X237176Y342778D01*
X237227Y342679D01*
X237280Y342583D01*
X237337Y342488D01*
X237398Y342395D01*
X237461Y342304D01*
X237528Y342215D01*
X237598Y342129D01*
X237671Y342046D01*
X237746Y341964D01*
X237824Y341886D01*
X237906Y341811D01*
X237989Y341738D01*
X238075Y341668D01*
X238164Y341601D01*
X238255Y341538D01*
X238348Y341477D01*
X238443Y341420D01*
X238539Y341367D01*
X238638Y341316D01*
X238739Y341269D01*
X238841Y341226D01*
X238944Y341186D01*
X239049Y341150D01*
X239155Y341118D01*
X239262Y341089D01*
X239370Y341064D01*
X239479Y341043D01*
X239588Y341026D01*
X239698Y341012D01*
X239809Y341003D01*
X239919Y340997D01*
X240030Y340995D01*
X240141Y340997D01*
X240251Y341003D01*
X240362Y341012D01*
X240472Y341026D01*
X240581Y341043D01*
X240690Y341064D01*
X240798Y341089D01*
X240905Y341118D01*
X241011Y341150D01*
X241116Y341186D01*
X241219Y341226D01*
X241321Y341269D01*
X241422Y341316D01*
X241521Y341367D01*
X241617Y341420D01*
X241712Y341477D01*
X241805Y341538D01*
X241896Y341601D01*
X241985Y341668D01*
X242071Y341738D01*
X242154Y341811D01*
X242236Y341886D01*
X242314Y341964D01*
X242389Y342046D01*
X242462Y342129D01*
X242532Y342215D01*
X242599Y342304D01*
X242662Y342395D01*
X242723Y342488D01*
X242780Y342582D01*
X242833Y342679D01*
X242884Y342778D01*
X242931Y342879D01*
X242974Y342981D01*
X243014Y343084D01*
X243050Y343189D01*
X243082Y343295D01*
X243111Y343402D01*
X243136Y343510D01*
X243157Y343619D01*
X243174Y343728D01*
X243188Y343838D01*
X243197Y343949D01*
X243203Y344059D01*
X243205Y344170D01*
X243203Y344281D01*
X243197Y344391D01*
X243188Y344502D01*
X243174Y344612D01*
X243157Y344721D01*
X243136Y344830D01*
X243111Y344938D01*
X243082Y345045D01*
X243050Y345151D01*
X243014Y345256D01*
X242974Y345359D01*
X242931Y345461D01*
X242884Y345562D01*
X242833Y345661D01*
X242780Y345757D01*
X242723Y345852D01*
X242662Y345945D01*
X242599Y346036D01*
X242532Y346125D01*
X242462Y346211D01*
X242389Y346294D01*
X242314Y346376D01*
X242236Y346454D01*
X242154Y346529D01*
X242071Y346602D01*
X241985Y346672D01*
X241896Y346739D01*
X241805Y346802D01*
X241712Y346863D01*
X241618Y346920D01*
X241521Y346973D01*
X241422Y347024D01*
X241321Y347071D01*
X241219Y347114D01*
X241116Y347154D01*
X241011Y347190D01*
X240905Y347222D01*
X240798Y347251D01*
X240690Y347276D01*
X240581Y347297D01*
X240472Y347314D01*
X240362Y347328D01*
X240251Y347337D01*
X240141Y347343D01*
X240030Y347345D01*
X234315Y346710D02*
X234215Y346708D01*
X234116Y346702D01*
X234016Y346692D01*
X233918Y346679D01*
X233819Y346661D01*
X233722Y346640D01*
X233626Y346615D01*
X233530Y346586D01*
X233436Y346553D01*
X233343Y346517D01*
X233252Y346477D01*
X233162Y346433D01*
X233074Y346386D01*
X232988Y346336D01*
X232904Y346282D01*
X232822Y346225D01*
X232743Y346165D01*
X232665Y346101D01*
X232591Y346035D01*
X232519Y345966D01*
X232450Y345894D01*
X232384Y345820D01*
X232320Y345742D01*
X232260Y345663D01*
X232203Y345581D01*
X232149Y345497D01*
X232099Y345411D01*
X232052Y345323D01*
X232008Y345233D01*
X231968Y345142D01*
X231932Y345049D01*
X231899Y344955D01*
X231870Y344859D01*
X231845Y344763D01*
X231824Y344666D01*
X231806Y344567D01*
X231793Y344469D01*
X231783Y344369D01*
X231777Y344270D01*
X231775Y344170D01*
X231777Y344070D01*
X231783Y343971D01*
X231793Y343871D01*
X231806Y343773D01*
X231824Y343674D01*
X231845Y343577D01*
X231870Y343481D01*
X231899Y343385D01*
X231932Y343291D01*
X231968Y343198D01*
X232008Y343107D01*
X232052Y343017D01*
X232099Y342929D01*
X232149Y342843D01*
X232203Y342759D01*
X232260Y342677D01*
X232320Y342598D01*
X232384Y342520D01*
X232450Y342446D01*
X232519Y342374D01*
X232591Y342305D01*
X232665Y342239D01*
X232743Y342175D01*
X232822Y342115D01*
X232904Y342058D01*
X232988Y342004D01*
X233074Y341954D01*
X233162Y341907D01*
X233252Y341863D01*
X233343Y341823D01*
X233436Y341787D01*
X233530Y341754D01*
X233626Y341725D01*
X233722Y341700D01*
X233819Y341679D01*
X233918Y341661D01*
X234016Y341648D01*
X234116Y341638D01*
X234215Y341632D01*
X234315Y341630D01*
X234415Y341632D01*
X234514Y341638D01*
X234614Y341648D01*
X234712Y341661D01*
X234811Y341679D01*
X234908Y341700D01*
X235004Y341725D01*
X235100Y341754D01*
X235194Y341787D01*
X235287Y341823D01*
X235378Y341863D01*
X235468Y341907D01*
X235556Y341954D01*
X235642Y342004D01*
X235726Y342058D01*
X235808Y342115D01*
X235887Y342175D01*
X235965Y342239D01*
X236039Y342305D01*
X236111Y342374D01*
X236180Y342446D01*
X236246Y342520D01*
X236310Y342598D01*
X236370Y342677D01*
X236427Y342759D01*
X236481Y342843D01*
X236531Y342929D01*
X236578Y343017D01*
X236622Y343107D01*
X236662Y343198D01*
X236698Y343291D01*
X236731Y343385D01*
X236760Y343481D01*
X236785Y343577D01*
X236806Y343674D01*
X236824Y343773D01*
X236837Y343871D01*
X236847Y343971D01*
X236853Y344070D01*
X236855Y344170D01*
X236853Y344270D01*
X236847Y344369D01*
X236837Y344469D01*
X236824Y344567D01*
X236806Y344666D01*
X236785Y344763D01*
X236760Y344859D01*
X236731Y344955D01*
X236698Y345049D01*
X236662Y345142D01*
X236622Y345233D01*
X236578Y345323D01*
X236531Y345411D01*
X236481Y345497D01*
X236427Y345581D01*
X236370Y345663D01*
X236310Y345742D01*
X236246Y345820D01*
X236180Y345894D01*
X236111Y345966D01*
X236039Y346035D01*
X235965Y346101D01*
X235887Y346165D01*
X235808Y346225D01*
X235726Y346282D01*
X235642Y346336D01*
X235556Y346386D01*
X235468Y346433D01*
X235378Y346477D01*
X235287Y346517D01*
X235194Y346553D01*
X235100Y346586D01*
X235004Y346615D01*
X234908Y346640D01*
X234811Y346661D01*
X234712Y346679D01*
X234614Y346692D01*
X234514Y346702D01*
X234415Y346708D01*
X234315Y346710D01*
X244475Y469646D02*
X244473Y469746D01*
X244467Y469845D01*
X244457Y469945D01*
X244444Y470043D01*
X244426Y470142D01*
X244405Y470239D01*
X244380Y470335D01*
X244351Y470431D01*
X244318Y470525D01*
X244282Y470618D01*
X244242Y470709D01*
X244198Y470799D01*
X244151Y470887D01*
X244101Y470973D01*
X244047Y471057D01*
X243990Y471139D01*
X243930Y471218D01*
X243866Y471296D01*
X243800Y471370D01*
X243731Y471442D01*
X243659Y471511D01*
X243585Y471577D01*
X243507Y471641D01*
X243428Y471701D01*
X243346Y471758D01*
X243262Y471812D01*
X243176Y471862D01*
X243088Y471909D01*
X242998Y471953D01*
X242907Y471993D01*
X242814Y472029D01*
X242720Y472062D01*
X242624Y472091D01*
X242528Y472116D01*
X242431Y472137D01*
X242332Y472155D01*
X242234Y472168D01*
X242134Y472178D01*
X242035Y472184D01*
X241935Y472186D01*
X244475Y469646D02*
X244473Y469505D01*
X244468Y469364D01*
X244458Y469223D01*
X244445Y469082D01*
X244429Y468942D01*
X244408Y468802D01*
X244384Y468663D01*
X244356Y468524D01*
X244325Y468387D01*
X244290Y468250D01*
X244252Y468114D01*
X244210Y467979D01*
X244164Y467846D01*
X244115Y467713D01*
X244062Y467582D01*
X244006Y467453D01*
X243947Y467324D01*
X243884Y467198D01*
X243818Y467073D01*
X243749Y466950D01*
X243676Y466829D01*
X243600Y466710D01*
X243521Y466592D01*
X243440Y466477D01*
X243355Y466365D01*
X243267Y466254D01*
X243176Y466146D01*
X243083Y466040D01*
X242986Y465937D01*
X242887Y465836D01*
X235585Y466154D02*
X235485Y466156D01*
X235386Y466162D01*
X235286Y466172D01*
X235188Y466185D01*
X235089Y466203D01*
X234992Y466224D01*
X234896Y466249D01*
X234800Y466278D01*
X234706Y466311D01*
X234613Y466347D01*
X234522Y466387D01*
X234432Y466431D01*
X234344Y466478D01*
X234258Y466528D01*
X234174Y466582D01*
X234092Y466639D01*
X234013Y466699D01*
X233935Y466763D01*
X233861Y466829D01*
X233789Y466898D01*
X233720Y466970D01*
X233654Y467044D01*
X233590Y467122D01*
X233530Y467201D01*
X233473Y467283D01*
X233419Y467367D01*
X233369Y467453D01*
X233322Y467541D01*
X233278Y467631D01*
X233238Y467722D01*
X233202Y467815D01*
X233169Y467909D01*
X233140Y468005D01*
X233115Y468101D01*
X233094Y468198D01*
X233076Y468297D01*
X233063Y468395D01*
X233053Y468495D01*
X233047Y468594D01*
X233045Y468694D01*
X233047Y468827D01*
X233052Y468960D01*
X233062Y469093D01*
X233075Y469226D01*
X233092Y469358D01*
X233112Y469490D01*
X233136Y469621D01*
X233164Y469751D01*
X233195Y469881D01*
X233230Y470009D01*
X233269Y470137D01*
X233311Y470263D01*
X233357Y470388D01*
X233406Y470512D01*
X233458Y470635D01*
X233514Y470756D01*
X233574Y470875D01*
X233636Y470993D01*
X233702Y471108D01*
X233771Y471222D01*
X233844Y471334D01*
X233919Y471444D01*
X233998Y471552D01*
X237808Y467423D02*
X237756Y467339D01*
X237701Y467256D01*
X237642Y467176D01*
X237581Y467098D01*
X237517Y467023D01*
X237449Y466950D01*
X237379Y466879D01*
X237307Y466812D01*
X237232Y466747D01*
X237154Y466685D01*
X237074Y466626D01*
X236992Y466570D01*
X236908Y466518D01*
X236822Y466469D01*
X236734Y466423D01*
X236644Y466380D01*
X236553Y466341D01*
X236460Y466306D01*
X236366Y466274D01*
X236271Y466246D01*
X236175Y466221D01*
X236078Y466201D01*
X235980Y466183D01*
X235882Y466170D01*
X235783Y466161D01*
X235684Y466155D01*
X235585Y466153D01*
X239712Y470916D02*
X239764Y471000D01*
X239819Y471083D01*
X239878Y471163D01*
X239939Y471241D01*
X240003Y471316D01*
X240071Y471389D01*
X240141Y471460D01*
X240213Y471527D01*
X240288Y471592D01*
X240366Y471654D01*
X240446Y471713D01*
X240528Y471769D01*
X240612Y471821D01*
X240698Y471870D01*
X240786Y471916D01*
X240876Y471959D01*
X240967Y471998D01*
X241060Y472033D01*
X241154Y472065D01*
X241249Y472093D01*
X241345Y472118D01*
X241442Y472138D01*
X241540Y472156D01*
X241638Y472169D01*
X241737Y472178D01*
X241836Y472184D01*
X241935Y472186D01*
X239713Y470916D02*
X237808Y467424D01*
X233045Y476250D02*
X244475Y480060D01*
X233045Y483870D01*
X241300Y488315D02*
X241189Y488317D01*
X241079Y488323D01*
X240968Y488332D01*
X240858Y488346D01*
X240749Y488363D01*
X240640Y488384D01*
X240532Y488409D01*
X240425Y488438D01*
X240319Y488470D01*
X240214Y488506D01*
X240111Y488546D01*
X240009Y488589D01*
X239908Y488636D01*
X239809Y488687D01*
X239713Y488740D01*
X239618Y488797D01*
X239525Y488858D01*
X239434Y488921D01*
X239345Y488988D01*
X239259Y489058D01*
X239176Y489131D01*
X239094Y489206D01*
X239016Y489284D01*
X238941Y489366D01*
X238868Y489449D01*
X238798Y489535D01*
X238731Y489624D01*
X238668Y489715D01*
X238607Y489808D01*
X238550Y489903D01*
X238497Y489999D01*
X238446Y490098D01*
X238399Y490199D01*
X238356Y490301D01*
X238316Y490404D01*
X238280Y490509D01*
X238248Y490615D01*
X238219Y490722D01*
X238194Y490830D01*
X238173Y490939D01*
X238156Y491048D01*
X238142Y491158D01*
X238133Y491269D01*
X238127Y491379D01*
X238125Y491490D01*
X238127Y491601D01*
X238133Y491711D01*
X238142Y491822D01*
X238156Y491932D01*
X238173Y492041D01*
X238194Y492150D01*
X238219Y492258D01*
X238248Y492365D01*
X238280Y492471D01*
X238316Y492576D01*
X238356Y492679D01*
X238399Y492781D01*
X238446Y492882D01*
X238497Y492981D01*
X238550Y493078D01*
X238607Y493172D01*
X238668Y493265D01*
X238731Y493356D01*
X238798Y493445D01*
X238868Y493531D01*
X238941Y493614D01*
X239016Y493696D01*
X239094Y493774D01*
X239176Y493849D01*
X239259Y493922D01*
X239345Y493992D01*
X239434Y494059D01*
X239525Y494122D01*
X239618Y494183D01*
X239713Y494240D01*
X239809Y494293D01*
X239908Y494344D01*
X240009Y494391D01*
X240111Y494434D01*
X240214Y494474D01*
X240319Y494510D01*
X240425Y494542D01*
X240532Y494571D01*
X240640Y494596D01*
X240749Y494617D01*
X240858Y494634D01*
X240968Y494648D01*
X241079Y494657D01*
X241189Y494663D01*
X241300Y494665D01*
X241411Y494663D01*
X241521Y494657D01*
X241632Y494648D01*
X241742Y494634D01*
X241851Y494617D01*
X241960Y494596D01*
X242068Y494571D01*
X242175Y494542D01*
X242281Y494510D01*
X242386Y494474D01*
X242489Y494434D01*
X242591Y494391D01*
X242692Y494344D01*
X242791Y494293D01*
X242888Y494240D01*
X242982Y494183D01*
X243075Y494122D01*
X243166Y494059D01*
X243255Y493992D01*
X243341Y493922D01*
X243424Y493849D01*
X243506Y493774D01*
X243584Y493696D01*
X243659Y493614D01*
X243732Y493531D01*
X243802Y493445D01*
X243869Y493356D01*
X243932Y493265D01*
X243993Y493172D01*
X244050Y493077D01*
X244103Y492981D01*
X244154Y492882D01*
X244201Y492781D01*
X244244Y492679D01*
X244284Y492576D01*
X244320Y492471D01*
X244352Y492365D01*
X244381Y492258D01*
X244406Y492150D01*
X244427Y492041D01*
X244444Y491932D01*
X244458Y491822D01*
X244467Y491711D01*
X244473Y491601D01*
X244475Y491490D01*
X244473Y491379D01*
X244467Y491269D01*
X244458Y491158D01*
X244444Y491048D01*
X244427Y490939D01*
X244406Y490830D01*
X244381Y490722D01*
X244352Y490615D01*
X244320Y490509D01*
X244284Y490404D01*
X244244Y490301D01*
X244201Y490199D01*
X244154Y490098D01*
X244103Y489999D01*
X244050Y489902D01*
X243993Y489808D01*
X243932Y489715D01*
X243869Y489624D01*
X243802Y489535D01*
X243732Y489449D01*
X243659Y489366D01*
X243584Y489284D01*
X243506Y489206D01*
X243424Y489131D01*
X243341Y489058D01*
X243255Y488988D01*
X243166Y488921D01*
X243075Y488858D01*
X242982Y488797D01*
X242887Y488740D01*
X242791Y488687D01*
X242692Y488636D01*
X242591Y488589D01*
X242489Y488546D01*
X242386Y488506D01*
X242281Y488470D01*
X242175Y488438D01*
X242068Y488409D01*
X241960Y488384D01*
X241851Y488363D01*
X241742Y488346D01*
X241632Y488332D01*
X241521Y488323D01*
X241411Y488317D01*
X241300Y488315D01*
X235585Y488950D02*
X235485Y488952D01*
X235386Y488958D01*
X235286Y488968D01*
X235188Y488981D01*
X235089Y488999D01*
X234992Y489020D01*
X234896Y489045D01*
X234800Y489074D01*
X234706Y489107D01*
X234613Y489143D01*
X234522Y489183D01*
X234432Y489227D01*
X234344Y489274D01*
X234258Y489324D01*
X234174Y489378D01*
X234092Y489435D01*
X234013Y489495D01*
X233935Y489559D01*
X233861Y489625D01*
X233789Y489694D01*
X233720Y489766D01*
X233654Y489840D01*
X233590Y489918D01*
X233530Y489997D01*
X233473Y490079D01*
X233419Y490163D01*
X233369Y490249D01*
X233322Y490337D01*
X233278Y490427D01*
X233238Y490518D01*
X233202Y490611D01*
X233169Y490705D01*
X233140Y490801D01*
X233115Y490897D01*
X233094Y490994D01*
X233076Y491093D01*
X233063Y491191D01*
X233053Y491291D01*
X233047Y491390D01*
X233045Y491490D01*
X233047Y491590D01*
X233053Y491689D01*
X233063Y491789D01*
X233076Y491887D01*
X233094Y491986D01*
X233115Y492083D01*
X233140Y492179D01*
X233169Y492275D01*
X233202Y492369D01*
X233238Y492462D01*
X233278Y492553D01*
X233322Y492643D01*
X233369Y492731D01*
X233419Y492817D01*
X233473Y492901D01*
X233530Y492983D01*
X233590Y493062D01*
X233654Y493140D01*
X233720Y493214D01*
X233789Y493286D01*
X233861Y493355D01*
X233935Y493421D01*
X234013Y493485D01*
X234092Y493545D01*
X234174Y493602D01*
X234258Y493656D01*
X234344Y493706D01*
X234432Y493753D01*
X234522Y493797D01*
X234613Y493837D01*
X234706Y493873D01*
X234800Y493906D01*
X234896Y493935D01*
X234992Y493960D01*
X235089Y493981D01*
X235188Y493999D01*
X235286Y494012D01*
X235386Y494022D01*
X235485Y494028D01*
X235585Y494030D01*
X235685Y494028D01*
X235784Y494022D01*
X235884Y494012D01*
X235982Y493999D01*
X236081Y493981D01*
X236178Y493960D01*
X236274Y493935D01*
X236370Y493906D01*
X236464Y493873D01*
X236557Y493837D01*
X236648Y493797D01*
X236738Y493753D01*
X236826Y493706D01*
X236912Y493656D01*
X236996Y493602D01*
X237078Y493545D01*
X237157Y493485D01*
X237235Y493421D01*
X237309Y493355D01*
X237381Y493286D01*
X237450Y493214D01*
X237516Y493140D01*
X237580Y493062D01*
X237640Y492983D01*
X237697Y492901D01*
X237751Y492817D01*
X237801Y492731D01*
X237848Y492643D01*
X237892Y492553D01*
X237932Y492462D01*
X237968Y492369D01*
X238001Y492275D01*
X238030Y492179D01*
X238055Y492083D01*
X238076Y491986D01*
X238094Y491887D01*
X238107Y491789D01*
X238117Y491689D01*
X238123Y491590D01*
X238125Y491490D01*
X238123Y491390D01*
X238117Y491291D01*
X238107Y491191D01*
X238094Y491093D01*
X238076Y490994D01*
X238055Y490897D01*
X238030Y490801D01*
X238001Y490705D01*
X237968Y490611D01*
X237932Y490518D01*
X237892Y490427D01*
X237848Y490337D01*
X237801Y490249D01*
X237751Y490163D01*
X237697Y490079D01*
X237640Y489997D01*
X237580Y489918D01*
X237516Y489840D01*
X237450Y489766D01*
X237381Y489694D01*
X237309Y489625D01*
X237235Y489559D01*
X237157Y489495D01*
X237078Y489435D01*
X236996Y489378D01*
X236912Y489324D01*
X236826Y489274D01*
X236738Y489227D01*
X236648Y489183D01*
X236557Y489143D01*
X236464Y489107D01*
X236370Y489074D01*
X236274Y489045D01*
X236178Y489020D01*
X236081Y488999D01*
X235982Y488981D01*
X235884Y488968D01*
X235784Y488958D01*
X235685Y488952D01*
X235585Y488950D01*
M02*
