G04 EAGLE Gerber RS-274X export*
G75*
%MOMM*%
%FSLAX34Y34*%
%LPD*%
%INSoldermask Top*%
%IPPOS*%
%AMOC8*
5,1,8,0,0,1.08239X$1,22.5*%
G01*
%ADD10C,3.703200*%
%ADD11C,2.783841*%
%ADD12C,1.524000*%
%ADD13P,1.649562X8X22.500000*%
%ADD14P,1.649562X8X202.500000*%
%ADD15R,2.298700X2.298700*%
%ADD16R,3.319200X3.319200*%
%ADD17R,1.601200X1.601200*%
%ADD18C,1.601200*%
%ADD19C,3.453200*%
%ADD20C,2.558200*%
%ADD21C,1.988200*%
%ADD22P,2.969212X8X22.500000*%
%ADD23R,5.283200X2.743200*%
%ADD24C,1.311200*%
%ADD25C,2.133600*%
%ADD26C,1.411200*%
%ADD27P,1.951982X8X292.500000*%
%ADD28P,1.951982X8X22.500000*%
%ADD29P,2.309387X8X202.500000*%
%ADD30C,0.959600*%


D10*
X40000Y531100D03*
X690090Y74480D03*
X40000Y30000D03*
D11*
X861540Y135440D03*
X861540Y440240D03*
D12*
X568960Y139700D02*
X555752Y139700D01*
X555752Y114300D02*
X568960Y114300D01*
X645160Y114300D02*
X658368Y114300D01*
X658368Y139700D02*
X645160Y139700D01*
X568960Y88900D02*
X555752Y88900D01*
X645160Y88900D02*
X658368Y88900D01*
D13*
X388620Y152400D03*
X464820Y152400D03*
X388620Y204470D03*
X464820Y204470D03*
X139700Y148590D03*
X266700Y148590D03*
D14*
X266700Y190500D03*
X139700Y190500D03*
D15*
X29680Y402590D03*
X174460Y427990D03*
X29680Y427990D03*
X30010Y377190D03*
X174790Y377190D03*
D16*
X98430Y342460D03*
X98420Y462720D03*
D17*
X830580Y438150D03*
D18*
X805180Y450850D03*
X830580Y463550D03*
X805180Y476250D03*
X830580Y488950D03*
X805180Y501650D03*
X830580Y514350D03*
X805180Y527050D03*
D19*
X894080Y425450D03*
X894080Y539750D03*
D20*
X863580Y560050D03*
X863580Y405150D03*
D21*
X921980Y445050D03*
X921980Y546350D03*
X937280Y419650D03*
X937280Y520950D03*
D17*
X830580Y254000D03*
D18*
X805180Y266700D03*
X830580Y279400D03*
X805180Y292100D03*
X830580Y304800D03*
X805180Y317500D03*
X830580Y330200D03*
X805180Y342900D03*
D19*
X894080Y241300D03*
X894080Y355600D03*
D20*
X863580Y375900D03*
X863580Y221000D03*
D21*
X921980Y260900D03*
X921980Y362200D03*
X937280Y235500D03*
X937280Y336800D03*
D22*
X748030Y30480D03*
X748030Y81280D03*
D23*
X806450Y30480D03*
X806450Y81280D03*
D24*
X930040Y205410D03*
D25*
X910040Y205410D03*
D26*
X900040Y124300D03*
D25*
X920040Y124300D03*
X930040Y144300D03*
D27*
X381000Y76200D03*
X330200Y76200D03*
D28*
X304800Y76200D03*
X279400Y76200D03*
X152400Y78740D03*
X457200Y76200D03*
D23*
X46990Y184150D03*
X48260Y123190D03*
D28*
X406400Y76200D03*
D12*
X457200Y49784D02*
X457200Y36576D01*
X431800Y36576D02*
X431800Y49784D01*
X406400Y49784D02*
X406400Y36576D01*
X381000Y36576D02*
X381000Y49784D01*
X355600Y49784D02*
X355600Y36576D01*
X330200Y36576D02*
X330200Y49784D01*
X304800Y49784D02*
X304800Y36576D01*
X279400Y36576D02*
X279400Y49784D01*
X254000Y49784D02*
X254000Y36576D01*
X228600Y36576D02*
X228600Y49784D01*
X203200Y49784D02*
X203200Y36576D01*
X177800Y36576D02*
X177800Y49784D01*
X152400Y49784D02*
X152400Y36576D01*
X127000Y36576D02*
X127000Y49784D01*
X101600Y49784D02*
X101600Y36576D01*
X101600Y284226D02*
X101600Y297434D01*
X127000Y297434D02*
X127000Y284226D01*
X152400Y284226D02*
X152400Y297434D01*
X177800Y297434D02*
X177800Y284226D01*
X203200Y284226D02*
X203200Y297434D01*
X228600Y297434D02*
X228600Y284226D01*
X254000Y284226D02*
X254000Y297434D01*
X279400Y297434D02*
X279400Y284226D01*
X304800Y284226D02*
X304800Y297434D01*
X330200Y297434D02*
X330200Y284226D01*
X355600Y284226D02*
X355600Y297434D01*
X381000Y297434D02*
X381000Y284226D01*
X406400Y284226D02*
X406400Y297434D01*
X431800Y297434D02*
X431800Y284226D01*
X457200Y284226D02*
X457200Y297434D01*
X742696Y520700D02*
X755904Y520700D01*
X755904Y495300D02*
X742696Y495300D01*
X742696Y469900D02*
X755904Y469900D01*
X755904Y444500D02*
X742696Y444500D01*
X742696Y419100D02*
X755904Y419100D01*
X755904Y393700D02*
X742696Y393700D01*
X742696Y368300D02*
X755904Y368300D01*
X755904Y342900D02*
X742696Y342900D01*
X628904Y520700D02*
X615696Y520700D01*
X615696Y495300D02*
X628904Y495300D01*
X628904Y469900D02*
X615696Y469900D01*
X615696Y444500D02*
X628904Y444500D01*
X628904Y419100D02*
X615696Y419100D01*
X615696Y393700D02*
X628904Y393700D01*
X628904Y368300D02*
X615696Y368300D01*
X615696Y342900D02*
X628904Y342900D01*
X527304Y520700D02*
X514096Y520700D01*
X514096Y495300D02*
X527304Y495300D01*
X527304Y469900D02*
X514096Y469900D01*
X514096Y444500D02*
X527304Y444500D01*
X527304Y419100D02*
X514096Y419100D01*
X514096Y393700D02*
X527304Y393700D01*
X527304Y368300D02*
X514096Y368300D01*
X514096Y342900D02*
X527304Y342900D01*
X400304Y520700D02*
X387096Y520700D01*
X387096Y495300D02*
X400304Y495300D01*
X400304Y469900D02*
X387096Y469900D01*
X387096Y444500D02*
X400304Y444500D01*
X400304Y419100D02*
X387096Y419100D01*
X387096Y393700D02*
X400304Y393700D01*
X400304Y368300D02*
X387096Y368300D01*
X387096Y342900D02*
X400304Y342900D01*
X349504Y520700D02*
X336296Y520700D01*
X336296Y495300D02*
X349504Y495300D01*
X349504Y469900D02*
X336296Y469900D01*
X336296Y444500D02*
X349504Y444500D01*
X349504Y419100D02*
X336296Y419100D01*
X336296Y393700D02*
X349504Y393700D01*
X349504Y368300D02*
X336296Y368300D01*
X336296Y342900D02*
X349504Y342900D01*
X222504Y520700D02*
X209296Y520700D01*
X209296Y495300D02*
X222504Y495300D01*
X222504Y469900D02*
X209296Y469900D01*
X209296Y444500D02*
X222504Y444500D01*
X222504Y419100D02*
X209296Y419100D01*
X209296Y393700D02*
X222504Y393700D01*
X222504Y368300D02*
X209296Y368300D01*
X209296Y342900D02*
X222504Y342900D01*
D29*
X553720Y330200D03*
X553720Y304800D03*
X553720Y279400D03*
X553720Y254000D03*
D30*
X603250Y185420D03*
X469900Y368300D03*
X487832Y313154D03*
X613410Y199390D03*
X593090Y172720D03*
M02*
